<svg width="14" height="14" viewBox="0 0 14 14" fill="none" xmlns="http://www.w3.org/2000/svg">
<path d="M11.839 3.08904C12.0953 2.83276 12.0953 2.41724 11.839 2.16096C11.5828 1.90468 11.1672 1.90468 10.911 2.16096L7 6.07192L3.08904 2.16096C2.83276 1.90468 2.41724 1.90468 2.16096 2.16096C1.90468 2.41724 1.90468 2.83276 2.16096 3.08904L6.07192 7L2.16096 10.911C1.90468 11.1672 1.90468 11.5828 2.16096 11.839C2.41724 12.0953 2.83276 12.0953 3.08904 11.839L7 7.92808L10.911 11.839C11.1672 12.0953 11.5828 12.0953 11.839 11.839C12.0953 11.5828 12.0953 11.1672 11.839 10.911L7.92808 7L11.839 3.08904Z" fill="#BC3F46"/>
</svg>
