<svg width="24" height="24" viewBox="0 0 24 24" fill="none" xmlns="http://www.w3.org/2000/svg">
<mask id="mask0_3150_7480" style="mask-type:alpha" maskUnits="userSpaceOnUse" x="0" y="0" width="24" height="24">
<rect width="24" height="24" fill="#D9D9D9"/>
</mask>
<g mask="url(#mask0_3150_7480)">
<path d="M11.4006 20.6553C11.2038 20.5746 11.0246 20.4555 10.8631 20.2978L3.70336 13.1381C3.54569 12.9766 3.42653 12.7974 3.34586 12.6006C3.26503 12.4037 3.22461 12.2041 3.22461 12.0016C3.22461 11.7991 3.26503 11.5984 3.34586 11.3996C3.42653 11.2009 3.54569 11.0227 3.70336 10.8651L10.8631 3.70531C11.0246 3.54381 11.2038 3.42365 11.4006 3.34481C11.5974 3.26598 11.7971 3.22656 11.9996 3.22656C12.2021 3.22656 12.4028 3.26598 12.6016 3.34481C12.8003 3.42365 12.9784 3.54381 13.1361 3.70531L20.2959 10.8651C20.4574 11.0227 20.5775 11.2009 20.6564 11.3996C20.7352 11.5984 20.7746 11.7991 20.7746 12.0016C20.7746 12.2041 20.7352 12.4037 20.6564 12.6006C20.5775 12.7974 20.4574 12.9766 20.2959 13.1381L13.1361 20.2978C12.9784 20.4555 12.8003 20.5746 12.6016 20.6553C12.4028 20.7361 12.2021 20.7766 11.9996 20.7766C11.7971 20.7766 11.5974 20.7361 11.4006 20.6553ZM12.4419 19.5843L19.5824 12.4438C19.6849 12.3413 19.7361 12.1939 19.7361 12.0016C19.7361 11.8092 19.6849 11.6618 19.5824 11.5593L12.4419 4.41881C12.3394 4.31631 12.1919 4.26506 11.9996 4.26506C11.8073 4.26506 11.6599 4.31631 11.5574 4.41881L4.41686 11.5593C4.31436 11.6618 4.26311 11.8092 4.26311 12.0016C4.26311 12.1939 4.31436 12.3413 4.41686 12.4438L11.5574 19.5843C11.6599 19.6868 11.8073 19.7381 11.9996 19.7381C12.1919 19.7381 12.3394 19.6868 12.4419 19.5843ZM11.4996 13.1746H12.4996V7.94381H11.4996V13.1746ZM12.4334 15.2236C12.5545 15.1026 12.6151 14.9581 12.6151 14.7901C12.6151 14.6221 12.5545 14.4775 12.4334 14.3563C12.3122 14.2351 12.1676 14.1746 11.9996 14.1746C11.8316 14.1746 11.687 14.2351 11.5659 14.3563C11.4447 14.4775 11.3841 14.6221 11.3841 14.7901C11.3841 14.9581 11.4447 15.1026 11.5659 15.2236C11.687 15.3447 11.8316 15.4053 11.9996 15.4053C12.1676 15.4053 12.3122 15.3447 12.4334 15.2236Z" fill="#E39264"/>
</g>
</svg>
