<svg width="373" height="327" viewBox="0 0 373 327" fill="none" xmlns="http://www.w3.org/2000/svg">
<path d="M152.348 25C152.348 25 135.929 50.8525 138.602 79.7599C141.275 108.667 141.268 95.3512 144.329 118.922C147.39 142.493 150.057 174.455 150.057 174.455V215.132C150.057 215.132 150.833 231.497 154.639 241.751C158.445 252.006 159.819 255.841 159.221 267.249C158.623 278.657 161.709 275.051 160.755 279.811C159.8 284.571 156.3 284.964 156.936 294.078C157.528 302.716 165.05 300.042 172.21 300.523C172.21 300.523 176.792 298.242 174.679 290.839C172.566 283.436 171.631 284.748 171.828 273.143C172.025 261.539 169.162 257.368 169.162 257.368L171.465 199.059C171.809 190.401 170.492 182.403 174.501 172.738C176.035 169.074 175.367 133.157 176.41 122.034C176.932 116.501 177.53 110.962 178.033 107.875C179.306 100.269 179.172 83.55 179.172 83.55C179.172 83.55 179.891 80.2606 182.354 80.1718C184.792 80.2606 185.492 83.55 185.492 83.55C185.492 83.55 185.402 100.295 186.65 107.875C187.153 110.962 187.744 116.501 188.273 122.034C189.316 133.132 188.648 169.049 190.182 172.738C194.185 182.403 192.874 190.401 193.211 199.059L195.521 257.368C195.521 257.368 192.657 261.558 192.855 273.143C193.052 284.729 192.097 283.423 189.985 290.839C187.872 298.254 192.473 300.523 192.473 300.523C199.639 300.042 207.142 302.716 207.746 294.078C208.383 284.964 204.895 284.571 203.928 279.811C202.961 275.051 206.022 278.657 205.443 267.249C204.864 255.841 206.219 252.038 210.025 241.777C213.83 231.516 214.607 215.157 214.607 215.157V174.455C214.607 174.455 217.299 142.512 220.334 118.922C223.37 95.3322 223.383 108.667 226.062 79.7599C228.741 50.8525 212.316 25 212.316 25" stroke="black" stroke-opacity="0.25" stroke-linecap="round" stroke-linejoin="round"/>
<path d="M176 79.8711H37" stroke="#866857" stroke-width="0.5" stroke-miterlimit="10" stroke-dasharray="3 3"/>
<path d="M231 301.871H37" stroke="#866857" stroke-miterlimit="10"/>
<path d="M223.694 118.941C228.091 119.822 230.815 121.008 230.815 122.32C230.815 125 219.417 127.155 205.359 127.155C191.301 127.155 179.903 125 179.903 122.32C179.903 121.242 181.73 120.253 184.797 119.467" stroke="#866857" stroke-width="2" stroke-miterlimit="10" stroke-linecap="round"/>
<path d="M216.655 207.316C219.576 207.95 221.365 208.768 221.365 209.687C221.365 211.588 213.823 213.084 204.532 213.084C195.241 213.084 187.687 211.576 187.687 209.687C187.687 208.933 188.896 208.229 190.913 207.678" stroke="#866857" stroke-width="2" stroke-miterlimit="10" stroke-linecap="round"/>
<path d="M206.989 277.852C208.975 278.226 210.171 278.745 210.171 279.322C210.171 280.488 205.048 281.426 198.716 281.426C192.384 281.426 187.261 280.488 187.261 279.322C187.261 278.853 188.075 278.422 189.444 278.086" stroke="#866857" stroke-width="2" stroke-miterlimit="10" stroke-linecap="round"/>
<path d="M37.3536 79.8379C37.1583 79.6426 36.8417 79.6426 36.6464 79.8379L33.4645 83.0198C33.2692 83.2151 33.2692 83.5317 33.4645 83.7269C33.6597 83.9222 33.9763 83.9222 34.1716 83.7269L37 80.8985L39.8284 83.7269C40.0237 83.9222 40.3403 83.9222 40.5355 83.7269C40.7308 83.5317 40.7308 83.2151 40.5355 83.0198L37.3536 79.8379ZM36.6464 301.72C36.8417 301.916 37.1583 301.916 37.3536 301.72L40.5355 298.538C40.7308 298.343 40.7308 298.027 40.5355 297.831C40.3403 297.636 40.0237 297.636 39.8284 297.831L37 300.66L34.1716 297.831C33.9763 297.636 33.6597 297.636 33.4645 297.831C33.2692 298.027 33.2692 298.343 33.4645 298.538L36.6464 301.72ZM37 80.1914H36.5V301.367H37H37.5V80.1914H37Z" fill="#866857"/>
<path d="M150 195L70 195" stroke="#866857" stroke-width="0.5" stroke-miterlimit="10" stroke-dasharray="3 3"/>
<path d="M70.3536 194.439C70.1583 194.244 69.8417 194.244 69.6464 194.439L66.4645 197.621C66.2692 197.817 66.2692 198.133 66.4645 198.329C66.6597 198.524 66.9763 198.524 67.1716 198.329L70 195.5L72.8284 198.329C73.0237 198.524 73.3403 198.524 73.5355 198.329C73.7308 198.133 73.7308 197.817 73.5355 197.621L70.3536 194.439ZM69.6464 301.719C69.8417 301.914 70.1583 301.914 70.3536 301.719L73.5355 298.537C73.7308 298.342 73.7308 298.025 73.5355 297.83C73.3403 297.635 73.0237 297.635 72.8284 297.83L70 300.658L67.1716 297.83C66.9763 297.635 66.6597 297.635 66.4645 297.83C66.2692 298.025 66.2692 298.342 66.4645 298.537L69.6464 301.719ZM70 194.793H69.5V301.366H70H70.5V194.793H70Z" fill="#866857"/>
<path d="M255.42 114.187C255.42 115.108 255.254 115.903 254.922 116.574C254.589 117.244 254.134 117.761 253.554 118.125C252.974 118.488 252.313 118.67 251.568 118.67C250.824 118.67 250.162 118.488 249.582 118.125C249.003 117.761 248.547 117.244 248.214 116.574C247.882 115.903 247.716 115.108 247.716 114.187C247.716 113.267 247.882 112.471 248.214 111.801C248.547 111.13 249.003 110.613 249.582 110.25C250.162 109.886 250.824 109.704 251.568 109.704C252.313 109.704 252.974 109.886 253.554 110.25C254.134 110.613 254.589 111.13 254.922 111.801C255.254 112.471 255.42 113.267 255.42 114.187ZM254.398 114.187C254.398 113.431 254.271 112.794 254.018 112.274C253.768 111.754 253.429 111.36 253 111.093C252.574 110.826 252.097 110.693 251.568 110.693C251.04 110.693 250.561 110.826 250.132 111.093C249.706 111.36 249.366 111.754 249.114 112.274C248.864 112.794 248.739 113.431 248.739 114.187C248.739 114.943 248.864 115.581 249.114 116.1C249.366 116.62 249.706 117.014 250.132 117.281C250.561 117.548 251.04 117.681 251.568 117.681C252.097 117.681 252.574 117.548 253 117.281C253.429 117.014 253.768 116.62 254.018 116.1C254.271 115.581 254.398 114.943 254.398 114.187ZM262.328 118.551L259.328 114.545H258.254V118.551H257.197V109.824H258.254V113.608H258.714L262.209 109.824H263.47L259.942 113.659L263.589 118.551H262.328ZM264.955 118.551V109.824H267.904C268.589 109.824 269.148 109.947 269.583 110.194C270.021 110.439 270.344 110.77 270.555 111.187C270.765 111.605 270.87 112.071 270.87 112.585C270.87 113.099 270.765 113.566 270.555 113.987C270.347 114.407 270.026 114.743 269.592 114.993C269.157 115.24 268.6 115.363 267.921 115.363H265.808V114.426H267.887C268.356 114.426 268.732 114.345 269.016 114.183C269.3 114.021 269.506 113.802 269.634 113.527C269.765 113.248 269.83 112.934 269.83 112.585C269.83 112.235 269.765 111.923 269.634 111.647C269.506 111.372 269.299 111.156 269.012 111C268.725 110.841 268.344 110.761 267.87 110.761H266.012V118.551H264.955ZM273.033 118.67V117.681H273.578C273.788 117.681 273.964 117.64 274.107 117.558C274.251 117.475 274.371 117.369 274.464 117.238C274.561 117.108 274.641 116.971 274.703 116.829L274.839 116.505L271.822 109.824H272.964L275.368 115.244L277.567 109.824H278.692L275.675 117.136C275.555 117.409 275.419 117.662 275.266 117.895C275.115 118.127 274.909 118.315 274.648 118.457C274.389 118.599 274.038 118.67 273.595 118.67H273.033ZM285.225 109.824V118.551H284.169V109.824H285.225ZM279.328 118.551L282.157 114L279.566 109.824H280.845L283.112 113.693H286.299L288.566 109.824H289.845L287.237 114.017L290.066 118.551H288.856L286.487 114.681H282.907L280.521 118.551H279.328ZM291.451 118.551V109.824H292.508V113.71H297.162V109.824H298.218V118.551H297.162V114.647H292.508V118.551H291.451ZM307.698 114.187C307.698 115.108 307.532 115.903 307.199 116.574C306.867 117.244 306.411 117.761 305.831 118.125C305.252 118.488 304.59 118.67 303.846 118.67C303.101 118.67 302.439 118.488 301.86 118.125C301.28 117.761 300.824 117.244 300.492 116.574C300.159 115.903 299.993 115.108 299.993 114.187C299.993 113.267 300.159 112.471 300.492 111.801C300.824 111.13 301.28 110.613 301.86 110.25C302.439 109.886 303.101 109.704 303.846 109.704C304.59 109.704 305.252 109.886 305.831 110.25C306.411 110.613 306.867 111.13 307.199 111.801C307.532 112.471 307.698 113.267 307.698 114.187ZM306.675 114.187C306.675 113.431 306.549 112.794 306.296 112.274C306.046 111.754 305.706 111.36 305.277 111.093C304.851 110.826 304.374 110.693 303.846 110.693C303.317 110.693 302.838 110.826 302.409 111.093C301.983 111.36 301.644 111.754 301.391 112.274C301.141 112.794 301.016 113.431 301.016 114.187C301.016 114.943 301.141 115.581 301.391 116.1C301.644 116.62 301.983 117.014 302.409 117.281C302.838 117.548 303.317 117.681 303.846 117.681C304.374 117.681 304.851 117.548 305.277 117.281C305.706 117.014 306.046 116.62 306.296 116.1C306.549 115.581 306.675 114.943 306.675 114.187ZM316.498 112.551H315.441C315.378 112.247 315.269 111.98 315.113 111.75C314.959 111.52 314.772 111.326 314.55 111.17C314.331 111.011 314.088 110.892 313.821 110.812C313.554 110.733 313.276 110.693 312.986 110.693C312.458 110.693 311.979 110.826 311.55 111.093C311.124 111.36 310.784 111.754 310.532 112.274C310.282 112.794 310.157 113.431 310.157 114.187C310.157 114.943 310.282 115.581 310.532 116.1C310.784 116.62 311.124 117.014 311.55 117.281C311.979 117.548 312.458 117.681 312.986 117.681C313.276 117.681 313.554 117.642 313.821 117.562C314.088 117.483 314.331 117.365 314.55 117.208C314.772 117.049 314.959 116.855 315.113 116.625C315.269 116.392 315.378 116.125 315.441 115.824H316.498C316.418 116.27 316.273 116.669 316.063 117.021C315.853 117.373 315.591 117.673 315.279 117.92C314.966 118.164 314.615 118.35 314.226 118.478C313.84 118.606 313.426 118.67 312.986 118.67C312.242 118.67 311.58 118.488 311 118.125C310.421 117.761 309.965 117.244 309.632 116.574C309.3 115.903 309.134 115.108 309.134 114.187C309.134 113.267 309.3 112.471 309.632 111.801C309.965 111.13 310.421 110.613 311 110.25C311.58 109.886 312.242 109.704 312.986 109.704C313.426 109.704 313.84 109.768 314.226 109.896C314.615 110.024 314.966 110.211 315.279 110.458C315.591 110.703 315.853 111.001 316.063 111.353C316.273 111.703 316.418 112.102 316.498 112.551ZM317.728 110.761V109.824H324.273V110.761H321.529V118.551H320.472V110.761H317.728ZM326.689 113.488H329.177C329.802 113.488 330.329 113.591 330.758 113.795C331.19 114 331.517 114.288 331.738 114.66C331.963 115.032 332.075 115.471 332.075 115.977C332.075 116.483 331.963 116.929 331.738 117.315C331.517 117.701 331.19 118.004 330.758 118.223C330.329 118.441 329.802 118.551 329.177 118.551H325.904V109.824H326.961V117.63H329.177C329.575 117.63 329.912 117.551 330.187 117.392C330.466 117.23 330.676 117.022 330.818 116.77C330.963 116.514 331.035 116.244 331.035 115.96C331.035 115.542 330.875 115.183 330.554 114.882C330.233 114.578 329.774 114.426 329.177 114.426H326.689V113.488ZM248.057 133.551V124.824H253.324V125.761H249.114V128.488H251.33C251.955 128.488 252.482 128.591 252.911 128.795C253.342 129 253.669 129.288 253.891 129.66C254.115 130.032 254.227 130.471 254.227 130.977C254.227 131.483 254.115 131.929 253.891 132.315C253.669 132.701 253.342 133.004 252.911 133.223C252.482 133.441 251.955 133.551 251.33 133.551H248.057ZM249.114 132.63H251.33C251.727 132.63 252.064 132.551 252.339 132.392C252.618 132.23 252.828 132.022 252.97 131.77C253.115 131.514 253.188 131.244 253.188 130.96C253.188 130.542 253.027 130.183 252.706 129.882C252.385 129.578 251.926 129.426 251.33 129.426H249.114V132.63ZM255.967 133.551V124.824H261.234V125.761H257.024V128.71H260.961V129.647H257.024V132.613H261.302V133.551H255.967ZM262.389 135.664V132.613H262.951C263.145 132.437 263.326 132.189 263.497 131.868C263.67 131.544 263.816 131.112 263.936 130.572C264.058 130.029 264.139 129.341 264.179 128.505L264.366 124.824H269.548V132.613H270.554V135.647H269.548V133.551H263.395V135.664H262.389ZM264.213 132.613H268.542V125.761H265.321L265.184 128.505C265.15 129.142 265.091 129.718 265.005 130.235C264.92 130.75 264.811 131.206 264.677 131.603C264.544 131.998 264.389 132.335 264.213 132.613ZM272.151 133.551V124.824H275.099C275.784 124.824 276.344 124.947 276.778 125.194C277.216 125.439 277.54 125.77 277.75 126.187C277.96 126.605 278.065 127.071 278.065 127.585C278.065 128.099 277.96 128.566 277.75 128.987C277.543 129.407 277.222 129.743 276.787 129.993C276.352 130.24 275.795 130.363 275.116 130.363H273.003V129.426H275.082C275.551 129.426 275.928 129.345 276.212 129.183C276.496 129.021 276.702 128.802 276.83 128.527C276.96 128.248 277.026 127.934 277.026 127.585C277.026 127.235 276.96 126.923 276.83 126.647C276.702 126.372 276.494 126.156 276.207 126C275.92 125.841 275.54 125.761 275.065 125.761H273.207V133.551H272.151ZM279.235 133.551H278.127L281.332 124.824H282.423L285.627 133.551H284.519L281.911 126.204H281.843L279.235 133.551ZM279.644 130.142H284.11V131.079H279.644V130.142Z" fill="#866857"/>
<path d="M46.3068 133.114V130.062H46.8693C47.0625 129.886 47.2443 129.638 47.4148 129.317C47.5881 128.993 47.7344 128.561 47.8537 128.021C47.9759 127.479 48.0568 126.79 48.0966 125.955L48.2841 122.273H53.4659V130.062H54.4716V133.097H53.4659V131H47.3125V133.114H46.3068ZM48.1307 130.062H52.4602V123.21H49.2386L49.1023 125.955C49.0682 126.591 49.0085 127.168 48.9233 127.685C48.8381 128.199 48.7287 128.655 48.5952 129.053C48.4616 129.447 48.3068 129.784 48.1307 130.062ZM55.3185 131V130.028H55.5742C55.9379 130.028 56.2205 129.912 56.4222 129.679C56.6239 129.446 56.7688 129.07 56.8569 128.55C56.9478 128.03 57.0089 127.341 57.0401 126.483L57.1935 122.273H62.5117V131H61.4549V123.21H58.1992L58.0629 126.688C58.0288 127.602 57.945 128.381 57.8114 129.023C57.6779 129.665 57.4435 130.155 57.1083 130.493C56.7731 130.831 56.2844 131 55.6424 131H55.3185ZM64.6232 122.273H65.663V129.142H65.7482L70.521 122.273H71.5437V131H70.4869V124.148H70.4016L65.646 131H64.6232V122.273ZM73.6584 131V122.273H74.7152V126.159H79.3686V122.273H80.4254V131H79.3686V127.097H74.7152V131H73.6584ZM82.8991 131H81.7912L84.9957 122.273H86.0866L89.2912 131H88.1832L85.5753 123.653H85.5071L82.8991 131ZM83.3082 127.591H87.7741V128.528H83.3082V127.591ZM47.142 137.273H48.1989V140.188C48.1989 140.619 48.2741 140.959 48.4247 141.206C48.5753 141.45 48.7884 141.624 49.0639 141.726C49.3395 141.825 49.6648 141.875 50.0398 141.875C50.2756 141.875 50.5043 141.866 50.7259 141.849C50.9474 141.83 51.1634 141.803 51.3736 141.768C51.5866 141.734 51.794 141.693 51.9957 141.645C52.2003 141.597 52.4006 141.543 52.5966 141.483V142.438C52.4063 142.497 52.2173 142.551 52.0298 142.599C51.8452 142.648 51.652 142.689 51.4503 142.723C51.2514 142.757 51.0369 142.784 50.8068 142.804C50.5767 142.821 50.321 142.83 50.0398 142.83C49.4375 142.83 48.919 142.743 48.4844 142.57C48.0526 142.396 47.7202 142.116 47.4872 141.73C47.2571 141.344 47.142 140.83 47.142 140.188V137.273ZM52.4602 137.273H53.517V146H52.4602V137.273ZM56.0952 146.119V145.131H56.6406C56.8509 145.131 57.027 145.089 57.169 145.007C57.3139 144.925 57.4332 144.818 57.527 144.688C57.6236 144.557 57.7031 144.42 57.7656 144.278L57.902 143.955L54.8849 137.273H56.027L58.4304 142.693L60.6293 137.273H61.7543L58.7372 144.585C58.6179 144.858 58.4815 145.111 58.3281 145.344C58.1776 145.577 57.9716 145.764 57.7102 145.906C57.4517 146.048 57.1009 146.119 56.6577 146.119H56.0952ZM62.3732 146V145.028H62.6289C62.9925 145.028 63.2752 144.912 63.4769 144.679C63.6786 144.446 63.8235 144.07 63.9116 143.55C64.0025 143.03 64.0636 142.341 64.0948 141.483L64.2482 137.273H69.5664V146H68.5096V138.21H65.2539L65.1175 141.688C65.0835 142.602 64.9996 143.381 64.8661 144.023C64.7326 144.665 64.4982 145.155 64.163 145.493C63.8278 145.831 63.3391 146 62.6971 146H62.3732ZM79.0415 141.636C79.0415 142.557 78.8754 143.352 78.543 144.023C78.2106 144.693 77.7546 145.21 77.1751 145.574C76.5955 145.938 75.9336 146.119 75.1893 146.119C74.445 146.119 73.783 145.938 73.2035 145.574C72.6239 145.21 72.168 144.693 71.8356 144.023C71.5032 143.352 71.337 142.557 71.337 141.636C71.337 140.716 71.5032 139.92 71.8356 139.25C72.168 138.58 72.6239 138.062 73.2035 137.699C73.783 137.335 74.445 137.153 75.1893 137.153C75.9336 137.153 76.5955 137.335 77.1751 137.699C77.7546 138.062 78.2106 138.58 78.543 139.25C78.8754 139.92 79.0415 140.716 79.0415 141.636ZM78.0188 141.636C78.0188 140.881 77.8924 140.243 77.6396 139.723C77.3896 139.203 77.0501 138.81 76.6211 138.543C76.195 138.276 75.7177 138.142 75.1893 138.142C74.6609 138.142 74.1822 138.276 73.7532 138.543C73.3271 138.81 72.9876 139.203 72.7347 139.723C72.4847 140.243 72.3597 140.881 72.3597 141.636C72.3597 142.392 72.4847 143.03 72.7347 143.55C72.9876 144.07 73.3271 144.463 73.7532 144.73C74.1822 144.997 74.6609 145.131 75.1893 145.131C75.7177 145.131 76.195 144.997 76.6211 144.73C77.0501 144.463 77.3896 144.07 77.6396 143.55C77.8924 143.03 78.0188 142.392 78.0188 141.636ZM85.9492 146L82.9492 141.994H81.8754V146H80.8185V137.273H81.8754V141.057H82.3356L85.8299 137.273H87.0913L83.5629 141.108L87.2106 146H85.9492Z" fill="#866857"/>
<path d="M80.3068 258.114V255.062H80.8693C81.0625 254.886 81.2443 254.638 81.4148 254.317C81.5881 253.993 81.7344 253.561 81.8537 253.021C81.9759 252.479 82.0568 251.79 82.0966 250.955L82.2841 247.273H87.4659V255.062H88.4716V258.097H87.4659V256H81.3125V258.114H80.3068ZM82.1307 255.062H86.4602V248.21H83.2386L83.1023 250.955C83.0682 251.591 83.0085 252.168 82.9233 252.685C82.8381 253.199 82.7287 253.655 82.5952 254.053C82.4616 254.447 82.3068 254.784 82.1307 255.062ZM89.3185 256V255.028H89.5742C89.9379 255.028 90.2205 254.912 90.4222 254.679C90.6239 254.446 90.7688 254.07 90.8569 253.55C90.9478 253.03 91.0089 252.341 91.0401 251.483L91.1935 247.273H96.5117V256H95.4549V248.21H92.1992L92.0629 251.688C92.0288 252.602 91.945 253.381 91.8114 254.023C91.6779 254.665 91.4435 255.155 91.1083 255.493C90.7731 255.831 90.2844 256 89.6424 256H89.3185ZM98.6232 247.273H99.663V254.142H99.7482L104.521 247.273H105.544V256H104.487V249.148H104.402L99.646 256H98.6232V247.273ZM107.658 256V247.273H108.715V251.159H113.369V247.273H114.425V256H113.369V252.097H108.715V256H107.658ZM116.899 256H115.791L118.996 247.273H120.087L123.291 256H122.183L119.575 248.653H119.507L116.899 256ZM117.308 252.591H121.774V253.528H117.308V252.591ZM86.3239 262.273V263.21H82.1136V271H81.0568V262.273H86.3239ZM94.9595 266.636C94.9595 267.557 94.7933 268.352 94.4609 269.023C94.1286 269.693 93.6726 270.21 93.093 270.574C92.5135 270.938 91.8516 271.119 91.1072 271.119C90.3629 271.119 89.701 270.938 89.1214 270.574C88.5419 270.21 88.0859 269.693 87.7536 269.023C87.4212 268.352 87.255 267.557 87.255 266.636C87.255 265.716 87.4212 264.92 87.7536 264.25C88.0859 263.58 88.5419 263.062 89.1214 262.699C89.701 262.335 90.3629 262.153 91.1072 262.153C91.8516 262.153 92.5135 262.335 93.093 262.699C93.6726 263.062 94.1286 263.58 94.4609 264.25C94.7933 264.92 94.9595 265.716 94.9595 266.636ZM93.9368 266.636C93.9368 265.881 93.8104 265.243 93.5575 264.723C93.3075 264.203 92.968 263.81 92.5391 263.543C92.1129 263.276 91.6357 263.142 91.1072 263.142C90.5788 263.142 90.1001 263.276 89.6712 263.543C89.245 263.81 88.9055 264.203 88.6527 264.723C88.4027 265.243 88.2777 265.881 88.2777 266.636C88.2777 267.392 88.4027 268.03 88.6527 268.55C88.9055 269.07 89.245 269.463 89.6712 269.73C90.1001 269.997 90.5788 270.131 91.1072 270.131C91.6357 270.131 92.1129 269.997 92.5391 269.73C92.968 269.463 93.3075 269.07 93.5575 268.55C93.8104 268.03 93.9368 267.392 93.9368 266.636ZM95.9865 271V270.028H96.2422C96.6058 270.028 96.8885 269.912 97.0902 269.679C97.2919 269.446 97.4368 269.07 97.5249 268.55C97.6158 268.03 97.6768 267.341 97.7081 266.483L97.8615 262.273H103.18V271H102.123V263.21H98.8672L98.7308 266.688C98.6967 267.602 98.6129 268.381 98.4794 269.023C98.3459 269.665 98.1115 270.155 97.7763 270.493C97.4411 270.831 96.9524 271 96.3104 271H95.9865ZM106.075 265.938H108.564C109.189 265.938 109.716 266.04 110.145 266.244C110.577 266.449 110.903 266.737 111.125 267.109C111.349 267.482 111.462 267.92 111.462 268.426C111.462 268.932 111.349 269.378 111.125 269.764C110.903 270.151 110.577 270.453 110.145 270.672C109.716 270.891 109.189 271 108.564 271H105.291V262.273H106.348V270.08H108.564C108.962 270.08 109.298 270 109.574 269.841C109.852 269.679 110.063 269.472 110.205 269.219C110.349 268.963 110.422 268.693 110.422 268.409C110.422 267.991 110.261 267.632 109.94 267.331C109.619 267.027 109.161 266.875 108.564 266.875H106.075V265.938ZM116.131 263.312H117.512C118.159 263.312 118.735 263.457 119.238 263.747C119.74 264.037 120.135 264.44 120.422 264.957C120.709 265.474 120.853 266.074 120.853 266.756C120.853 267.438 120.709 268.038 120.422 268.558C120.135 269.078 119.74 269.484 119.238 269.777C118.735 270.07 118.159 270.216 117.512 270.216H116.131C115.483 270.216 114.908 270.071 114.405 269.781C113.902 269.491 113.507 269.088 113.221 268.571C112.934 268.054 112.79 267.455 112.79 266.773C112.79 266.091 112.934 265.49 113.221 264.97C113.507 264.45 113.902 264.044 114.405 263.751C114.908 263.459 115.483 263.312 116.131 263.312ZM116.131 264.25C115.637 264.25 115.219 264.354 114.878 264.561C114.54 264.768 114.283 265.061 114.107 265.439C113.934 265.817 113.847 266.261 113.847 266.773C113.847 267.278 113.934 267.719 114.107 268.094C114.283 268.469 114.54 268.76 114.878 268.967C115.219 269.175 115.637 269.278 116.131 269.278H117.512C118.006 269.278 118.422 269.175 118.76 268.967C119.101 268.76 119.358 268.467 119.532 268.089C119.708 267.712 119.796 267.267 119.796 266.756C119.796 266.25 119.708 265.81 119.532 265.435C119.358 265.06 119.101 264.768 118.76 264.561C118.422 264.354 118.006 264.25 117.512 264.25H116.131ZM117.358 262.119V271.358H116.301V262.119H117.358ZM129.987 266.636C129.987 267.557 129.821 268.352 129.488 269.023C129.156 269.693 128.7 270.21 128.12 270.574C127.541 270.938 126.879 271.119 126.135 271.119C125.39 271.119 124.728 270.938 124.149 270.574C123.569 270.21 123.113 269.693 122.781 269.023C122.449 268.352 122.282 267.557 122.282 266.636C122.282 265.716 122.449 264.92 122.781 264.25C123.113 263.58 123.569 263.062 124.149 262.699C124.728 262.335 125.39 262.153 126.135 262.153C126.879 262.153 127.541 262.335 128.12 262.699C128.7 263.062 129.156 263.58 129.488 264.25C129.821 264.92 129.987 265.716 129.987 266.636ZM128.964 266.636C128.964 265.881 128.838 265.243 128.585 264.723C128.335 264.203 127.995 263.81 127.566 263.543C127.14 263.276 126.663 263.142 126.135 263.142C125.606 263.142 125.127 263.276 124.699 263.543C124.272 263.81 123.933 264.203 123.68 264.723C123.43 265.243 123.305 265.881 123.305 266.636C123.305 267.392 123.43 268.03 123.68 268.55C123.933 269.07 124.272 269.463 124.699 269.73C125.127 269.997 125.606 270.131 126.135 270.131C126.663 270.131 127.14 269.997 127.566 269.73C127.995 269.463 128.335 269.07 128.585 268.55C128.838 268.03 128.964 267.392 128.964 266.636ZM131.764 271V262.273H134.815C135.423 262.273 135.924 262.378 136.319 262.588C136.714 262.795 137.008 263.075 137.201 263.428C137.395 263.777 137.491 264.165 137.491 264.591C137.491 264.966 137.424 265.276 137.291 265.52C137.16 265.764 136.987 265.957 136.771 266.099C136.558 266.241 136.326 266.347 136.076 266.415V266.5C136.343 266.517 136.612 266.611 136.882 266.781C137.152 266.952 137.377 267.196 137.559 267.514C137.741 267.832 137.832 268.222 137.832 268.682C137.832 269.119 137.733 269.513 137.534 269.862C137.335 270.212 137.021 270.489 136.592 270.693C136.163 270.898 135.605 271 134.917 271H131.764ZM132.821 270.062H134.917C135.608 270.062 136.098 269.929 136.387 269.662C136.68 269.392 136.826 269.065 136.826 268.682C136.826 268.386 136.751 268.114 136.6 267.864C136.45 267.611 136.235 267.409 135.957 267.259C135.679 267.105 135.349 267.028 134.968 267.028H132.821V270.062ZM132.821 266.108H134.781C135.099 266.108 135.386 266.045 135.642 265.92C135.9 265.795 136.105 265.619 136.255 265.392C136.409 265.165 136.485 264.898 136.485 264.591C136.485 264.207 136.352 263.882 136.085 263.615C135.818 263.345 135.395 263.21 134.815 263.21H132.821V266.108Z" fill="#866857"/>
<path d="M255.42 200.187C255.42 201.108 255.254 201.903 254.922 202.574C254.589 203.244 254.134 203.761 253.554 204.125C252.974 204.488 252.313 204.67 251.568 204.67C250.824 204.67 250.162 204.488 249.582 204.125C249.003 203.761 248.547 203.244 248.214 202.574C247.882 201.903 247.716 201.108 247.716 200.187C247.716 199.267 247.882 198.471 248.214 197.801C248.547 197.13 249.003 196.613 249.582 196.25C250.162 195.886 250.824 195.704 251.568 195.704C252.313 195.704 252.974 195.886 253.554 196.25C254.134 196.613 254.589 197.13 254.922 197.801C255.254 198.471 255.42 199.267 255.42 200.187ZM254.398 200.187C254.398 199.431 254.271 198.794 254.018 198.274C253.768 197.754 253.429 197.36 253 197.093C252.574 196.826 252.097 196.693 251.568 196.693C251.04 196.693 250.561 196.826 250.132 197.093C249.706 197.36 249.366 197.754 249.114 198.274C248.864 198.794 248.739 199.431 248.739 200.187C248.739 200.943 248.864 201.581 249.114 202.1C249.366 202.62 249.706 203.014 250.132 203.281C250.561 203.548 251.04 203.681 251.568 203.681C252.097 203.681 252.574 203.548 253 203.281C253.429 203.014 253.768 202.62 254.018 202.1C254.271 201.581 254.398 200.943 254.398 200.187ZM262.328 204.551L259.328 200.545H258.254V204.551H257.197V195.824H258.254V199.608H258.714L262.209 195.824H263.47L259.942 199.659L263.589 204.551H262.328ZM264.955 204.551V195.824H267.904C268.589 195.824 269.148 195.947 269.583 196.194C270.021 196.439 270.344 196.77 270.555 197.187C270.765 197.605 270.87 198.071 270.87 198.585C270.87 199.099 270.765 199.566 270.555 199.987C270.347 200.407 270.026 200.743 269.592 200.993C269.157 201.24 268.6 201.363 267.921 201.363H265.808V200.426H267.887C268.356 200.426 268.732 200.345 269.016 200.183C269.3 200.021 269.506 199.802 269.634 199.527C269.765 199.248 269.83 198.934 269.83 198.585C269.83 198.235 269.765 197.923 269.634 197.647C269.506 197.372 269.299 197.156 269.012 197C268.725 196.841 268.344 196.761 267.87 196.761H266.012V204.551H264.955ZM273.033 204.67V203.681H273.578C273.788 203.681 273.964 203.64 274.107 203.558C274.251 203.475 274.371 203.369 274.464 203.238C274.561 203.108 274.641 202.971 274.703 202.829L274.839 202.505L271.822 195.824H272.964L275.368 201.244L277.567 195.824H278.692L275.675 203.136C275.555 203.409 275.419 203.662 275.266 203.895C275.115 204.127 274.909 204.315 274.648 204.457C274.389 204.599 274.038 204.67 273.595 204.67H273.033ZM285.225 195.824V204.551H284.169V195.824H285.225ZM279.328 204.551L282.157 200L279.566 195.824H280.845L283.112 199.693H286.299L288.566 195.824H289.845L287.237 200.017L290.066 204.551H288.856L286.487 200.681H282.907L280.521 204.551H279.328ZM291.451 204.551V195.824H292.508V199.71H297.162V195.824H298.218V204.551H297.162V200.647H292.508V204.551H291.451ZM307.698 200.187C307.698 201.108 307.532 201.903 307.199 202.574C306.867 203.244 306.411 203.761 305.831 204.125C305.252 204.488 304.59 204.67 303.846 204.67C303.101 204.67 302.439 204.488 301.86 204.125C301.28 203.761 300.824 203.244 300.492 202.574C300.159 201.903 299.993 201.108 299.993 200.187C299.993 199.267 300.159 198.471 300.492 197.801C300.824 197.13 301.28 196.613 301.86 196.25C302.439 195.886 303.101 195.704 303.846 195.704C304.59 195.704 305.252 195.886 305.831 196.25C306.411 196.613 306.867 197.13 307.199 197.801C307.532 198.471 307.698 199.267 307.698 200.187ZM306.675 200.187C306.675 199.431 306.549 198.794 306.296 198.274C306.046 197.754 305.706 197.36 305.277 197.093C304.851 196.826 304.374 196.693 303.846 196.693C303.317 196.693 302.838 196.826 302.409 197.093C301.983 197.36 301.644 197.754 301.391 198.274C301.141 198.794 301.016 199.431 301.016 200.187C301.016 200.943 301.141 201.581 301.391 202.1C301.644 202.62 301.983 203.014 302.409 203.281C302.838 203.548 303.317 203.681 303.846 203.681C304.374 203.681 304.851 203.548 305.277 203.281C305.706 203.014 306.046 202.62 306.296 202.1C306.549 201.581 306.675 200.943 306.675 200.187ZM316.498 198.551H315.441C315.378 198.247 315.269 197.98 315.113 197.75C314.959 197.52 314.772 197.326 314.55 197.17C314.331 197.011 314.088 196.892 313.821 196.812C313.554 196.733 313.276 196.693 312.986 196.693C312.458 196.693 311.979 196.826 311.55 197.093C311.124 197.36 310.784 197.754 310.532 198.274C310.282 198.794 310.157 199.431 310.157 200.187C310.157 200.943 310.282 201.581 310.532 202.1C310.784 202.62 311.124 203.014 311.55 203.281C311.979 203.548 312.458 203.681 312.986 203.681C313.276 203.681 313.554 203.642 313.821 203.562C314.088 203.483 314.331 203.365 314.55 203.208C314.772 203.049 314.959 202.855 315.113 202.625C315.269 202.392 315.378 202.125 315.441 201.824H316.498C316.418 202.27 316.273 202.669 316.063 203.021C315.853 203.373 315.591 203.673 315.279 203.92C314.966 204.164 314.615 204.35 314.226 204.478C313.84 204.606 313.426 204.67 312.986 204.67C312.242 204.67 311.58 204.488 311 204.125C310.421 203.761 309.965 203.244 309.632 202.574C309.3 201.903 309.134 201.108 309.134 200.187C309.134 199.267 309.3 198.471 309.632 197.801C309.965 197.13 310.421 196.613 311 196.25C311.58 195.886 312.242 195.704 312.986 195.704C313.426 195.704 313.84 195.768 314.226 195.896C314.615 196.024 314.966 196.211 315.279 196.458C315.591 196.703 315.853 197.001 316.063 197.353C316.273 197.703 316.418 198.102 316.498 198.551ZM317.728 196.761V195.824H324.273V196.761H321.529V204.551H320.472V196.761H317.728ZM326.689 199.488H329.177C329.802 199.488 330.329 199.591 330.758 199.795C331.19 200 331.517 200.288 331.738 200.66C331.963 201.032 332.075 201.471 332.075 201.977C332.075 202.483 331.963 202.929 331.738 203.315C331.517 203.701 331.19 204.004 330.758 204.223C330.329 204.441 329.802 204.551 329.177 204.551H325.904V195.824H326.961V203.63H329.177C329.575 203.63 329.912 203.551 330.187 203.392C330.466 203.23 330.676 203.022 330.818 202.77C330.963 202.514 331.035 202.244 331.035 201.96C331.035 201.542 330.875 201.183 330.554 200.882C330.233 200.578 329.774 200.426 329.177 200.426H326.689V199.488ZM248.057 210.824H249.097V217.693H249.182L253.955 210.824H254.977V219.551H253.92V212.699H253.835L249.08 219.551H248.057V210.824ZM262.223 219.551L259.223 215.545H258.149V219.551H257.092V210.824H258.149V214.608H258.609L262.103 210.824H263.365L259.836 214.659L263.484 219.551H262.223ZM264.85 219.551V210.824H267.799C268.483 210.824 269.043 210.947 269.478 211.194C269.915 211.439 270.239 211.77 270.449 212.187C270.659 212.605 270.765 213.071 270.765 213.585C270.765 214.099 270.659 214.566 270.449 214.987C270.242 215.407 269.921 215.743 269.486 215.993C269.051 216.24 268.495 216.363 267.816 216.363H265.702V215.426H267.782C268.25 215.426 268.627 215.345 268.911 215.183C269.195 215.021 269.401 214.802 269.529 214.527C269.659 214.248 269.725 213.934 269.725 213.585C269.725 213.235 269.659 212.923 269.529 212.647C269.401 212.372 269.194 212.156 268.907 212C268.62 211.841 268.239 211.761 267.765 211.761H265.907V219.551H264.85ZM273.251 214.488H275.74C276.365 214.488 276.892 214.591 277.321 214.795C277.752 215 278.079 215.288 278.301 215.66C278.525 216.032 278.637 216.471 278.637 216.977C278.637 217.483 278.525 217.929 278.301 218.315C278.079 218.701 277.752 219.004 277.321 219.223C276.892 219.441 276.365 219.551 275.74 219.551H272.467V210.824H273.524V218.63H275.74C276.137 218.63 276.474 218.551 276.75 218.392C277.028 218.23 277.238 218.022 277.38 217.77C277.525 217.514 277.598 217.244 277.598 216.96C277.598 216.542 277.437 216.183 277.116 215.882C276.795 215.578 276.336 215.426 275.74 215.426H273.251V214.488ZM280.547 210.824V219.551H279.49V210.824H280.547Z" fill="#866857"/>
<path d="M255.42 270.187C255.42 271.108 255.254 271.903 254.922 272.574C254.589 273.244 254.134 273.761 253.554 274.125C252.974 274.488 252.313 274.67 251.568 274.67C250.824 274.67 250.162 274.488 249.582 274.125C249.003 273.761 248.547 273.244 248.214 272.574C247.882 271.903 247.716 271.108 247.716 270.187C247.716 269.267 247.882 268.471 248.214 267.801C248.547 267.13 249.003 266.613 249.582 266.25C250.162 265.886 250.824 265.704 251.568 265.704C252.313 265.704 252.974 265.886 253.554 266.25C254.134 266.613 254.589 267.13 254.922 267.801C255.254 268.471 255.42 269.267 255.42 270.187ZM254.398 270.187C254.398 269.431 254.271 268.794 254.018 268.274C253.768 267.754 253.429 267.36 253 267.093C252.574 266.826 252.097 266.693 251.568 266.693C251.04 266.693 250.561 266.826 250.132 267.093C249.706 267.36 249.366 267.754 249.114 268.274C248.864 268.794 248.739 269.431 248.739 270.187C248.739 270.943 248.864 271.581 249.114 272.1C249.366 272.62 249.706 273.014 250.132 273.281C250.561 273.548 251.04 273.681 251.568 273.681C252.097 273.681 252.574 273.548 253 273.281C253.429 273.014 253.768 272.62 254.018 272.1C254.271 271.581 254.398 270.943 254.398 270.187ZM262.328 274.551L259.328 270.545H258.254V274.551H257.197V265.824H258.254V269.608H258.714L262.209 265.824H263.47L259.942 269.659L263.589 274.551H262.328ZM264.955 274.551V265.824H267.904C268.589 265.824 269.148 265.947 269.583 266.194C270.021 266.439 270.344 266.77 270.555 267.187C270.765 267.605 270.87 268.071 270.87 268.585C270.87 269.099 270.765 269.566 270.555 269.987C270.347 270.407 270.026 270.743 269.592 270.993C269.157 271.24 268.6 271.363 267.921 271.363H265.808V270.426H267.887C268.356 270.426 268.732 270.345 269.016 270.183C269.3 270.021 269.506 269.802 269.634 269.527C269.765 269.248 269.83 268.934 269.83 268.585C269.83 268.235 269.765 267.923 269.634 267.647C269.506 267.372 269.299 267.156 269.012 267C268.725 266.841 268.344 266.761 267.87 266.761H266.012V274.551H264.955ZM273.033 274.67V273.681H273.578C273.788 273.681 273.964 273.64 274.107 273.558C274.251 273.475 274.371 273.369 274.464 273.238C274.561 273.108 274.641 272.971 274.703 272.829L274.839 272.505L271.822 265.824H272.964L275.368 271.244L277.567 265.824H278.692L275.675 273.136C275.555 273.409 275.419 273.662 275.266 273.895C275.115 274.127 274.909 274.315 274.648 274.457C274.389 274.599 274.038 274.67 273.595 274.67H273.033ZM285.225 265.824V274.551H284.169V265.824H285.225ZM279.328 274.551L282.157 270L279.566 265.824H280.845L283.112 269.693H286.299L288.566 265.824H289.845L287.237 270.017L290.066 274.551H288.856L286.487 270.681H282.907L280.521 274.551H279.328ZM291.451 274.551V265.824H292.508V269.71H297.162V265.824H298.218V274.551H297.162V270.647H292.508V274.551H291.451ZM307.698 270.187C307.698 271.108 307.532 271.903 307.199 272.574C306.867 273.244 306.411 273.761 305.831 274.125C305.252 274.488 304.59 274.67 303.846 274.67C303.101 274.67 302.439 274.488 301.86 274.125C301.28 273.761 300.824 273.244 300.492 272.574C300.159 271.903 299.993 271.108 299.993 270.187C299.993 269.267 300.159 268.471 300.492 267.801C300.824 267.13 301.28 266.613 301.86 266.25C302.439 265.886 303.101 265.704 303.846 265.704C304.59 265.704 305.252 265.886 305.831 266.25C306.411 266.613 306.867 267.13 307.199 267.801C307.532 268.471 307.698 269.267 307.698 270.187ZM306.675 270.187C306.675 269.431 306.549 268.794 306.296 268.274C306.046 267.754 305.706 267.36 305.277 267.093C304.851 266.826 304.374 266.693 303.846 266.693C303.317 266.693 302.838 266.826 302.409 267.093C301.983 267.36 301.644 267.754 301.391 268.274C301.141 268.794 301.016 269.431 301.016 270.187C301.016 270.943 301.141 271.581 301.391 272.1C301.644 272.62 301.983 273.014 302.409 273.281C302.838 273.548 303.317 273.681 303.846 273.681C304.374 273.681 304.851 273.548 305.277 273.281C305.706 273.014 306.046 272.62 306.296 272.1C306.549 271.581 306.675 270.943 306.675 270.187ZM316.498 268.551H315.441C315.378 268.247 315.269 267.98 315.113 267.75C314.959 267.52 314.772 267.326 314.55 267.17C314.331 267.011 314.088 266.892 313.821 266.812C313.554 266.733 313.276 266.693 312.986 266.693C312.458 266.693 311.979 266.826 311.55 267.093C311.124 267.36 310.784 267.754 310.532 268.274C310.282 268.794 310.157 269.431 310.157 270.187C310.157 270.943 310.282 271.581 310.532 272.1C310.784 272.62 311.124 273.014 311.55 273.281C311.979 273.548 312.458 273.681 312.986 273.681C313.276 273.681 313.554 273.642 313.821 273.562C314.088 273.483 314.331 273.365 314.55 273.208C314.772 273.049 314.959 272.855 315.113 272.625C315.269 272.392 315.378 272.125 315.441 271.824H316.498C316.418 272.27 316.273 272.669 316.063 273.021C315.853 273.373 315.591 273.673 315.279 273.92C314.966 274.164 314.615 274.35 314.226 274.478C313.84 274.606 313.426 274.67 312.986 274.67C312.242 274.67 311.58 274.488 311 274.125C310.421 273.761 309.965 273.244 309.632 272.574C309.3 271.903 309.134 271.108 309.134 270.187C309.134 269.267 309.3 268.471 309.632 267.801C309.965 267.13 310.421 266.613 311 266.25C311.58 265.886 312.242 265.704 312.986 265.704C313.426 265.704 313.84 265.768 314.226 265.896C314.615 266.024 314.966 266.211 315.279 266.458C315.591 266.703 315.853 267.001 316.063 267.353C316.273 267.703 316.418 268.102 316.498 268.551ZM317.728 266.761V265.824H324.273V266.761H321.529V274.551H320.472V266.761H317.728ZM326.689 269.488H329.177C329.802 269.488 330.329 269.591 330.758 269.795C331.19 270 331.517 270.288 331.738 270.66C331.963 271.032 332.075 271.471 332.075 271.977C332.075 272.483 331.963 272.929 331.738 273.315C331.517 273.701 331.19 274.004 330.758 274.223C330.329 274.441 329.802 274.551 329.177 274.551H325.904V265.824H326.961V273.63H329.177C329.575 273.63 329.912 273.551 330.187 273.392C330.466 273.23 330.676 273.022 330.818 272.77C330.963 272.514 331.035 272.244 331.035 271.96C331.035 271.542 330.875 271.183 330.554 270.882C330.233 270.578 329.774 270.426 329.177 270.426H326.689V269.488ZM258.216 288.613L258.097 291.613H257.057V289.551H256.222V288.613H258.216ZM248.057 280.824H249.114V288.579H252.182V280.824H253.239V288.579H256.307V280.824H257.364V289.551H248.057V280.824ZM259.822 280.824H260.862V287.693H260.947L265.72 280.824H266.743V289.551H265.686V282.699H265.601L260.845 289.551H259.822V280.824ZM273.988 289.551L270.988 285.545H269.914V289.551H268.858V280.824H269.914V284.608H270.375L273.869 280.824H275.13L271.602 284.659L275.25 289.551H273.988ZM283.569 285.187C283.569 286.108 283.403 286.903 283.07 287.574C282.738 288.244 282.282 288.761 281.702 289.125C281.123 289.488 280.461 289.67 279.717 289.67C278.972 289.67 278.31 289.488 277.731 289.125C277.151 288.761 276.695 288.244 276.363 287.574C276.031 286.903 275.864 286.108 275.864 285.187C275.864 284.267 276.031 283.471 276.363 282.801C276.695 282.13 277.151 281.613 277.731 281.25C278.31 280.886 278.972 280.704 279.717 280.704C280.461 280.704 281.123 280.886 281.702 281.25C282.282 281.613 282.738 282.13 283.07 282.801C283.403 283.471 283.569 284.267 283.569 285.187ZM282.546 285.187C282.546 284.431 282.42 283.794 282.167 283.274C281.917 282.754 281.577 282.36 281.148 282.093C280.722 281.826 280.245 281.693 279.717 281.693C279.188 281.693 278.71 281.826 278.281 282.093C277.854 282.36 277.515 282.754 277.262 283.274C277.012 283.794 276.887 284.431 276.887 285.187C276.887 285.943 277.012 286.581 277.262 287.1C277.515 287.62 277.854 288.014 278.281 288.281C278.71 288.548 279.188 288.681 279.717 288.681C280.245 288.681 280.722 288.548 281.148 288.281C281.577 288.014 281.917 287.62 282.167 287.1C282.42 286.581 282.546 285.943 282.546 285.187ZM284.596 289.551V288.579H284.852C285.215 288.579 285.498 288.463 285.7 288.23C285.901 287.997 286.046 287.62 286.134 287.1C286.225 286.581 286.286 285.892 286.317 285.034L286.471 280.824H291.789V289.551H290.732V281.761H287.477L287.34 285.238C287.306 286.153 287.222 286.931 287.089 287.574C286.955 288.216 286.721 288.706 286.386 289.044C286.05 289.382 285.562 289.551 284.92 289.551H284.596ZM301.264 285.187C301.264 286.108 301.098 286.903 300.766 287.574C300.433 288.244 299.977 288.761 299.398 289.125C298.818 289.488 298.156 289.67 297.412 289.67C296.668 289.67 296.006 289.488 295.426 289.125C294.847 288.761 294.391 288.244 294.058 287.574C293.726 286.903 293.56 286.108 293.56 285.187C293.56 284.267 293.726 283.471 294.058 282.801C294.391 282.13 294.847 281.613 295.426 281.25C296.006 280.886 296.668 280.704 297.412 280.704C298.156 280.704 298.818 280.886 299.398 281.25C299.977 281.613 300.433 282.13 300.766 282.801C301.098 283.471 301.264 284.267 301.264 285.187ZM300.241 285.187C300.241 284.431 300.115 283.794 299.862 283.274C299.612 282.754 299.273 282.36 298.844 282.093C298.418 281.826 297.94 281.693 297.412 281.693C296.884 281.693 296.405 281.826 295.976 282.093C295.55 282.36 295.21 282.754 294.957 283.274C294.707 283.794 294.582 284.431 294.582 285.187C294.582 285.943 294.707 286.581 294.957 287.1C295.21 287.62 295.55 288.014 295.976 288.281C296.405 288.548 296.884 288.681 297.412 288.681C297.94 288.681 298.418 288.548 298.844 288.281C299.273 288.014 299.612 287.62 299.862 287.1C300.115 286.581 300.241 285.943 300.241 285.187ZM302.201 281.761V280.824H308.746V281.761H306.002V289.551H304.945V281.761H302.201ZM315.508 289.551L312.508 285.545H311.434V289.551H310.377V280.824H311.434V284.608H311.894L315.388 280.824H316.65L313.121 284.659L316.769 289.551H315.508ZM318.135 280.824H319.175V287.693H319.26L324.033 280.824H325.055V289.551H323.999V282.699H323.913L319.158 289.551H318.135V280.824Z" fill="#866857"/>
<path d="M52.1541 87.2781V94.5508H51.4936V87.8746H47.5767V94.5508H46.9126V87.2781H52.1541ZM53.8048 96.5962V89.0962H54.4192V90.1367H54.4938C54.5695 89.9734 54.6737 89.8065 54.8063 89.636C54.9388 89.4632 55.114 89.3176 55.3318 89.1992C55.552 89.0808 55.829 89.0217 56.1628 89.0217C56.6126 89.0217 57.0056 89.14 57.3418 89.3768C57.6803 89.6112 57.9431 89.9402 58.1301 90.364C58.3195 90.7854 58.4142 91.2766 58.4142 91.8377C58.4142 92.4012 58.3195 92.8948 58.1301 93.3185C57.9431 93.7423 57.6803 94.0726 57.3418 94.3093C57.0056 94.546 56.615 94.6644 56.1699 94.6644C55.8408 94.6644 55.565 94.6052 55.3425 94.4869C55.1223 94.3685 54.9436 94.2229 54.8063 94.0501C54.6713 93.8749 54.5671 93.7044 54.4938 93.5387H54.4369V96.5962H53.8048ZM54.4298 91.8271C54.4298 92.2674 54.4949 92.658 54.6251 92.9989C54.7577 93.3375 54.9471 93.6038 55.1933 93.7979C55.4419 93.9897 55.7426 94.0856 56.0953 94.0856C56.4575 94.0856 56.7629 93.9862 57.0115 93.7873C57.2625 93.5861 57.453 93.315 57.5832 92.9741C57.7158 92.6332 57.7821 92.2508 57.7821 91.8271C57.7821 91.408 57.717 91.0304 57.5868 90.6942C57.4589 90.3581 57.2696 90.0917 57.0186 89.8952C56.7677 89.6964 56.4599 89.5969 56.0953 89.5969C55.7402 89.5969 55.4384 89.6928 55.1898 89.8846C54.9412 90.074 54.7518 90.3368 54.6216 90.6729C54.4938 91.0067 54.4298 91.3915 54.4298 91.8271ZM61.821 94.6644C61.3498 94.6644 60.9332 94.5449 60.571 94.3058C60.2111 94.0666 59.9294 93.7364 59.7258 93.315C59.5222 92.8912 59.4204 92.4023 59.4204 91.8484C59.4204 91.2897 59.5222 90.7984 59.7258 90.3746C59.9294 89.9485 60.2111 89.6171 60.571 89.3803C60.9332 89.1412 61.3498 89.0217 61.821 89.0217C62.2921 89.0217 62.7076 89.1412 63.0674 89.3803C63.4272 89.6194 63.709 89.9509 63.9126 90.3746C64.1185 90.7984 64.2215 91.2897 64.2215 91.8484C64.2215 92.4023 64.1197 92.8912 63.9161 93.315C63.7125 93.7364 63.4296 94.0666 63.0674 94.3058C62.7076 94.5449 62.2921 94.6644 61.821 94.6644ZM61.821 94.0856C62.1997 94.0856 62.5205 93.9838 62.7833 93.7802C63.0461 93.5766 63.245 93.3055 63.3799 92.967C63.5172 92.6284 63.5859 92.2556 63.5859 91.8484C63.5859 91.4412 63.5172 91.0671 63.3799 90.7262C63.245 90.3853 63.0461 90.1119 62.7833 89.9059C62.5205 89.6999 62.1997 89.5969 61.821 89.5969C61.4445 89.5969 61.1237 89.6999 60.8586 89.9059C60.5958 90.1119 60.3958 90.3853 60.2585 90.7262C60.1235 91.0671 60.056 91.4412 60.056 91.8484C60.056 92.2556 60.1235 92.6284 60.2585 92.967C60.3958 93.3055 60.5958 93.5766 60.8586 93.7802C61.1214 93.9838 61.4422 94.0856 61.821 94.0856ZM68.3607 93.6665L70.4097 89.0962H71.024L68.6128 94.5508H68.1086L65.7257 89.0962H66.3294L68.3607 93.6665ZM66.1412 89.0962V94.5508H65.5091V89.0962H66.1412ZM70.5802 94.5508V89.0962H71.2123V94.5508H70.5802ZM74.9972 94.6644C74.4882 94.6644 74.0479 94.546 73.6762 94.3093C73.3045 94.0702 73.0168 93.7399 72.8132 93.3185C72.612 92.8948 72.5114 92.4071 72.5114 91.8555C72.5114 91.3062 72.612 90.8185 72.8132 90.3924C73.0168 89.9639 73.2974 89.6289 73.6549 89.3874C74.0147 89.1436 74.4302 89.0217 74.9013 89.0217C75.1972 89.0217 75.4825 89.0761 75.7571 89.185C76.0318 89.2915 76.278 89.4561 76.4958 89.6786C76.7159 89.8988 76.89 90.177 77.0178 90.5131C77.1456 90.8469 77.2096 91.2423 77.2096 91.6992V92.0117H72.9482V91.4542H76.5632C76.5632 91.1038 76.4922 90.7889 76.3502 90.5096C76.2105 90.2279 76.0152 90.0053 75.7642 89.842C75.5157 89.6786 75.228 89.5969 74.9013 89.5969C74.5557 89.5969 74.2515 89.6893 73.9887 89.8739C73.7259 90.0586 73.5199 90.3024 73.3708 90.6055C73.224 90.9085 73.1494 91.2399 73.1471 91.5998V91.9336C73.1471 92.3668 73.2216 92.7456 73.3708 93.07C73.5223 93.3919 73.7365 93.6417 74.0135 93.8192C74.2905 93.9968 74.6184 94.0856 74.9972 94.0856C75.2552 94.0856 75.4813 94.0453 75.6755 93.9648C75.872 93.8844 76.0365 93.7766 76.1691 93.6417C76.304 93.5044 76.4058 93.354 76.4745 93.1907L77.0746 93.386C76.9917 93.6156 76.8556 93.8275 76.6662 94.0217C76.4792 94.2158 76.2448 94.372 75.9631 94.4904C75.6837 94.6064 75.3618 94.6644 74.9972 94.6644ZM78.0151 94.5508L80.4228 91.7951L78.0471 89.0962H78.8176L80.9093 91.5217H81.275V89.0962H81.9107V91.5217H82.2694L84.361 89.0962H85.1316L82.763 91.7951L85.1635 94.5508H84.3823L82.2587 92.1183H81.9107V94.5508H81.275V92.1183H80.927L78.7963 94.5508H78.0151ZM90.0733 91.5288V92.1254H86.8666V91.5288H90.0733ZM87.0229 89.0962V94.5508H86.3908V89.0962H87.0229ZM90.5385 89.0962V94.5508H89.9064V89.0962H90.5385ZM94.2409 94.6644C93.7698 94.6644 93.3531 94.5449 92.9909 94.3058C92.631 94.0666 92.3493 93.7364 92.1457 93.315C91.9421 92.8912 91.8403 92.4023 91.8403 91.8484C91.8403 91.2897 91.9421 90.7984 92.1457 90.3746C92.3493 89.9485 92.631 89.6171 92.9909 89.3803C93.3531 89.1412 93.7698 89.0217 94.2409 89.0217C94.712 89.0217 95.1275 89.1412 95.4873 89.3803C95.8472 89.6194 96.1289 89.9509 96.3325 90.3746C96.5385 90.7984 96.6414 91.2897 96.6414 91.8484C96.6414 92.4023 96.5396 92.8912 96.336 93.315C96.1324 93.7364 95.8495 94.0666 95.4873 94.3058C95.1275 94.5449 94.712 94.6644 94.2409 94.6644ZM94.2409 94.0856C94.6197 94.0856 94.9404 93.9838 95.2032 93.7802C95.466 93.5766 95.6649 93.3055 95.7998 92.967C95.9371 92.6284 96.0058 92.2556 96.0058 91.8484C96.0058 91.4412 95.9371 91.0671 95.7998 90.7262C95.6649 90.3853 95.466 90.1119 95.2032 89.9059C94.9404 89.6999 94.6197 89.5969 94.2409 89.5969C93.8645 89.5969 93.5437 89.6999 93.2785 89.9059C93.0157 90.1119 92.8157 90.3853 92.6784 90.7262C92.5434 91.0671 92.476 91.4412 92.476 91.8484C92.476 92.2556 92.5434 92.6284 92.6784 92.967C92.8157 93.3055 93.0157 93.5766 93.2785 93.7802C93.5413 93.9838 93.8621 94.0856 94.2409 94.0856ZM100.06 94.6644C99.572 94.6644 99.1471 94.5425 98.7849 94.2987C98.425 94.0548 98.1457 93.721 97.9468 93.2972C97.7479 92.8735 97.6485 92.3905 97.6485 91.8484C97.6485 91.3015 97.7491 90.815 97.9504 90.3888C98.154 89.9627 98.4357 89.6289 98.7955 89.3874C99.1554 89.1436 99.5732 89.0217 100.049 89.0217C100.414 89.0217 100.744 89.0927 101.04 89.2347C101.336 89.3744 101.58 89.5721 101.771 89.8278C101.966 90.0811 102.087 90.377 102.137 90.7156H101.498C101.432 90.4078 101.272 90.145 101.019 89.9272C100.768 89.707 100.448 89.5969 100.06 89.5969C99.7117 89.5969 99.404 89.6916 99.1364 89.881C98.8689 90.0681 98.6594 90.3297 98.5079 90.6658C98.3587 90.9996 98.2842 91.3867 98.2842 91.8271C98.2842 92.2698 98.3576 92.6616 98.5043 93.0025C98.6511 93.341 98.8571 93.6062 99.1222 93.7979C99.3897 93.9897 99.7022 94.0856 100.06 94.0856C100.301 94.0856 100.521 94.0406 100.72 93.9506C100.921 93.8583 101.09 93.7281 101.225 93.56C101.362 93.3919 101.454 93.1919 101.501 92.9599H102.141C102.093 93.2889 101.976 93.5825 101.789 93.8406C101.604 94.0962 101.364 94.2975 101.068 94.4442C100.775 94.591 100.439 94.6644 100.06 94.6644ZM102.944 89.6928V89.0962H107.206V89.6928H105.402V94.5508H104.77V89.6928H102.944ZM108.968 91.2021H110.562C111.175 91.2021 111.649 91.3512 111.982 91.6495C112.316 91.9478 112.483 92.3514 112.483 92.8604C112.483 93.199 112.409 93.4949 112.259 93.7482C112.11 94.0015 111.892 94.1992 111.606 94.3413C111.32 94.4809 110.972 94.5508 110.562 94.5508H108.442V89.0962H109.074V93.9542H110.562C110.948 93.9542 111.259 93.8619 111.496 93.6772C111.733 93.4925 111.851 93.2298 111.851 92.8888C111.851 92.5408 111.733 92.2721 111.496 92.0827C111.259 91.8933 110.948 91.7987 110.562 91.7987H108.968V91.2021Z" fill="black" fill-opacity="0.5"/>
<path d="M86.1541 290.278V297.551H85.4936V290.875H81.5767V297.551H80.9126V290.278H86.1541ZM89.9249 297.664C89.4537 297.664 89.0371 297.545 88.6749 297.306C88.315 297.067 88.0333 296.736 87.8297 296.315C87.6261 295.891 87.5243 295.402 87.5243 294.848C87.5243 294.29 87.6261 293.798 87.8297 293.375C88.0333 292.949 88.315 292.617 88.6749 292.38C89.0371 292.141 89.4537 292.022 89.9249 292.022C90.396 292.022 90.8115 292.141 91.1713 292.38C91.5312 292.619 91.8129 292.951 92.0165 293.375C92.2224 293.798 92.3254 294.29 92.3254 294.848C92.3254 295.402 92.2236 295.891 92.02 296.315C91.8164 296.736 91.5335 297.067 91.1713 297.306C90.8115 297.545 90.396 297.664 89.9249 297.664ZM89.9249 297.086C90.3036 297.086 90.6244 296.984 90.8872 296.78C91.15 296.577 91.3489 296.306 91.4838 295.967C91.6211 295.628 91.6898 295.256 91.6898 294.848C91.6898 294.441 91.6211 294.067 91.4838 293.726C91.3489 293.385 91.15 293.112 90.8872 292.906C90.6244 292.7 90.3036 292.597 89.9249 292.597C89.5484 292.597 89.2277 292.7 88.9625 292.906C88.6997 293.112 88.4997 293.385 88.3624 293.726C88.2274 294.067 88.1599 294.441 88.1599 294.848C88.1599 295.256 88.2274 295.628 88.3624 295.967C88.4997 296.306 88.6997 296.577 88.9625 296.78C89.2253 296.984 89.5461 297.086 89.9249 297.086ZM93.0768 297.551V296.954H93.2473C93.4414 296.954 93.5976 296.919 93.716 296.848C93.8368 296.774 93.9303 296.651 93.9966 296.478C94.0628 296.306 94.1126 296.07 94.1457 295.772C94.1788 295.473 94.2049 295.099 94.2238 294.65L94.341 292.096H97.8069V297.551H97.1713V292.693H94.9412L94.8382 294.863C94.8169 295.305 94.7814 295.695 94.7316 296.031C94.6843 296.367 94.6062 296.648 94.4973 296.873C94.3907 297.097 94.2416 297.267 94.0498 297.38C93.8604 297.494 93.6118 297.551 93.3041 297.551H93.0768Z" fill="black" fill-opacity="0.5"/>
<path d="M80.9659 206.551V199.278H81.63V202.613H85.7564V199.278H86.4205V206.551H85.7564V203.209H81.63V206.551H80.9659ZM89.6408 206.675C89.3117 206.675 89.011 206.611 88.7388 206.483C88.4665 206.353 88.2499 206.166 88.0889 205.922C87.9279 205.676 87.8474 205.378 87.8474 205.027C87.8474 204.757 87.8983 204.53 88.0001 204.346C88.1019 204.161 88.2464 204.009 88.4334 203.891C88.6204 203.773 88.8418 203.679 89.0974 203.61C89.3531 203.542 89.6348 203.489 89.9426 203.451C90.248 203.413 90.5061 203.38 90.7168 203.351C90.9298 203.323 91.092 203.278 91.2033 203.216C91.3145 203.155 91.3702 203.055 91.3702 202.918V202.79C91.3702 202.418 91.2589 202.126 91.0364 201.913C90.8162 201.698 90.499 201.59 90.0847 201.59C89.6917 201.59 89.3709 201.676 89.1223 201.849C88.8761 202.022 88.7033 202.225 88.6038 202.46L88.0037 202.243C88.1268 201.945 88.2973 201.707 88.5151 201.529C88.7329 201.35 88.9767 201.221 89.2466 201.142C89.5165 201.062 89.7899 201.022 90.0669 201.022C90.2752 201.022 90.4919 201.049 90.7168 201.103C90.944 201.158 91.1547 201.252 91.3489 201.387C91.543 201.52 91.7004 201.706 91.8212 201.945C91.9419 202.182 92.0023 202.482 92.0023 202.847V206.551H91.3702V205.688H91.3311C91.2554 205.849 91.1429 206.005 90.9938 206.157C90.8446 206.308 90.6576 206.432 90.4327 206.529C90.2078 206.627 89.9438 206.675 89.6408 206.675ZM89.726 206.096C90.0622 206.096 90.3534 206.022 90.5996 205.873C90.8458 205.723 91.0352 205.526 91.1678 205.279C91.3027 205.031 91.3702 204.757 91.3702 204.459V203.671C91.3228 203.716 91.2435 203.756 91.1322 203.792C91.0233 203.827 90.8967 203.859 90.7523 203.887C90.6102 203.913 90.4682 203.936 90.3261 203.955C90.1841 203.974 90.0563 203.99 89.9426 204.005C89.6348 204.042 89.3721 204.102 89.1543 204.182C88.9365 204.263 88.7696 204.374 88.6536 204.516C88.5375 204.656 88.4795 204.836 88.4795 205.056C88.4795 205.387 88.5979 205.644 88.8347 205.826C89.0714 206.006 89.3685 206.096 89.726 206.096ZM98.6329 206.65C98.1854 206.65 97.7853 206.57 97.4326 206.409C97.0799 206.245 96.8005 206.019 96.5945 205.73C96.3886 205.442 96.2797 205.109 96.2678 204.733H96.939C96.9508 204.998 97.0325 205.23 97.184 205.429C97.3355 205.625 97.5368 205.779 97.7877 205.89C98.0387 205.999 98.318 206.054 98.6258 206.054C98.962 206.054 99.2579 205.991 99.5136 205.865C99.7716 205.74 99.9728 205.568 100.117 205.35C100.264 205.13 100.337 204.882 100.337 204.605C100.337 204.311 100.263 204.052 100.114 203.827C99.9646 203.602 99.7503 203.427 99.471 203.301C99.194 203.176 98.8625 203.113 98.4766 203.113H98.0505V202.517H98.4766C98.7915 202.517 99.0697 202.46 99.3112 202.346C99.555 202.23 99.7468 202.068 99.8864 201.86C100.026 201.651 100.096 201.406 100.096 201.125C100.096 200.857 100.036 200.622 99.9148 200.418C99.7941 200.214 99.6237 200.055 99.4035 199.939C99.1857 199.823 98.9312 199.765 98.64 199.765C98.3583 199.765 98.1002 199.819 97.8658 199.928C97.6315 200.037 97.4421 200.191 97.2977 200.39C97.1556 200.588 97.0799 200.824 97.0704 201.096H96.4276C96.4371 200.717 96.5413 200.385 96.7401 200.098C96.9414 199.81 97.2077 199.585 97.5391 199.424C97.8729 199.26 98.2423 199.179 98.6471 199.179C99.0756 199.179 99.4461 199.266 99.7586 199.441C100.071 199.617 100.313 199.85 100.483 200.141C100.656 200.43 100.742 200.748 100.742 201.096C100.742 201.511 100.63 201.866 100.405 202.162C100.18 202.455 99.877 202.659 99.4958 202.772V202.819C99.9598 202.911 100.324 203.117 100.59 203.436C100.857 203.754 100.991 204.143 100.991 204.605C100.991 204.993 100.889 205.342 100.685 205.652C100.482 205.96 100.202 206.204 99.8474 206.384C99.4946 206.561 99.0898 206.65 98.6329 206.65ZM107.328 206.664C106.841 206.664 106.416 206.542 106.054 206.299C105.694 206.055 105.414 205.721 105.216 205.297C105.017 204.873 104.917 204.391 104.917 203.848C104.917 203.301 105.018 202.815 105.219 202.389C105.423 201.963 105.704 201.629 106.064 201.387C106.424 201.144 106.842 201.022 107.318 201.022C107.682 201.022 108.013 201.093 108.309 201.235C108.605 201.374 108.848 201.572 109.04 201.828C109.234 202.081 109.356 202.377 109.406 202.716H108.767C108.7 202.408 108.541 202.145 108.287 201.927C108.036 201.707 107.717 201.597 107.328 201.597C106.98 201.597 106.673 201.692 106.405 201.881C106.138 202.068 105.928 202.33 105.777 202.666C105.627 203 105.553 203.387 105.553 203.827C105.553 204.27 105.626 204.662 105.773 205.002C105.92 205.341 106.126 205.606 106.391 205.798C106.658 205.99 106.971 206.086 107.328 206.086C107.57 206.086 107.79 206.041 107.989 205.951C108.19 205.858 108.358 205.728 108.493 205.56C108.631 205.392 108.723 205.192 108.77 204.96H109.409C109.362 205.289 109.245 205.583 109.058 205.841C108.873 206.096 108.633 206.297 108.337 206.444C108.043 206.591 107.707 206.664 107.328 206.664ZM113.516 205.667L115.565 201.096H116.179L113.768 206.551H113.264L110.881 201.096H111.485L113.516 205.667ZM111.296 201.096V206.551H110.664V201.096H111.296ZM115.735 206.551V201.096H116.367V206.551H115.735ZM84.517 214.529V215.125H81.3104V214.529H84.517ZM81.4666 212.096V217.551H80.8345V212.096H81.4666ZM84.9822 212.096V217.551H84.3501V212.096H84.9822ZM87.1967 216.652L90.0767 212.096H90.8331V217.551H90.201V212.995L87.3316 217.551H86.5646V212.096H87.1967V216.652ZM92.0612 217.551L94.4689 214.795L92.0931 212.096H92.8637L94.9554 214.522H95.3211V212.096H95.9568V214.522H96.3154L98.4071 212.096H99.1777L96.8091 214.795L99.2096 217.551H98.4284L96.3048 215.118H95.9568V217.551H95.3211V215.118H94.9731L92.8424 217.551H92.0612ZM102.418 217.664C101.909 217.664 101.468 217.546 101.096 217.309C100.725 217.07 100.437 216.74 100.234 216.319C100.032 215.895 99.9317 215.407 99.9317 214.855C99.9317 214.306 100.032 213.819 100.234 213.392C100.437 212.964 100.718 212.629 101.075 212.387C101.435 212.144 101.851 212.022 102.322 212.022C102.618 212.022 102.903 212.076 103.177 212.185C103.452 212.292 103.698 212.456 103.916 212.679C104.136 212.899 104.31 213.177 104.438 213.513C104.566 213.847 104.63 214.242 104.63 214.699V215.012H100.369V214.454H103.984C103.984 214.104 103.913 213.789 103.77 213.51C103.631 213.228 103.436 213.005 103.185 212.842C102.936 212.679 102.648 212.597 102.322 212.597C101.976 212.597 101.672 212.689 101.409 212.874C101.146 213.059 100.94 213.302 100.791 213.605C100.644 213.908 100.57 214.24 100.567 214.6V214.934C100.567 215.367 100.642 215.746 100.791 216.07C100.943 216.392 101.157 216.642 101.434 216.819C101.711 216.997 102.039 217.086 102.418 217.086C102.676 217.086 102.902 217.045 103.096 216.965C103.292 216.884 103.457 216.777 103.589 216.642C103.724 216.504 103.826 216.354 103.895 216.191L104.495 216.386C104.412 216.616 104.276 216.828 104.087 217.022C103.9 217.216 103.665 217.372 103.383 217.49C103.104 217.606 102.782 217.664 102.418 217.664ZM80.8345 228.551V223.096H81.4666V225.55H82.0597L84.0874 223.096H84.9041L82.7166 225.721L84.9538 228.551H84.1371L82.255 226.147H81.4666V228.551H80.8345ZM87.7862 228.664C87.3151 228.664 86.8984 228.545 86.5362 228.306C86.1763 228.067 85.8946 227.736 85.691 227.315C85.4874 226.891 85.3856 226.402 85.3856 225.848C85.3856 225.29 85.4874 224.798 85.691 224.375C85.8946 223.949 86.1763 223.617 86.5362 223.38C86.8984 223.141 87.3151 223.022 87.7862 223.022C88.2573 223.022 88.6728 223.141 89.0326 223.38C89.3925 223.619 89.6742 223.951 89.8778 224.375C90.0838 224.798 90.1868 225.29 90.1868 225.848C90.1868 226.402 90.085 226.891 89.8814 227.315C89.6778 227.736 89.3949 228.067 89.0326 228.306C88.6728 228.545 88.2573 228.664 87.7862 228.664ZM87.7862 228.086C88.165 228.086 88.4858 227.984 88.7485 227.78C89.0113 227.577 89.2102 227.306 89.3451 226.967C89.4824 226.628 89.5511 226.256 89.5511 225.848C89.5511 225.441 89.4824 225.067 89.3451 224.726C89.2102 224.385 89.0113 224.112 88.7485 223.906C88.4858 223.7 88.165 223.597 87.7862 223.597C87.4098 223.597 87.089 223.7 86.8238 223.906C86.561 224.112 86.361 224.385 86.2237 224.726C86.0887 225.067 86.0213 225.441 86.0213 225.848C86.0213 226.256 86.0887 226.628 86.2237 226.967C86.361 227.306 86.561 227.577 86.8238 227.78C87.0866 227.984 87.4074 228.086 87.7862 228.086ZM90.9381 228.551V227.954H91.1086C91.3027 227.954 91.459 227.919 91.5773 227.848C91.6981 227.774 91.7916 227.651 91.8579 227.478C91.9242 227.306 91.9739 227.07 92.007 226.772C92.0402 226.473 92.0662 226.099 92.0852 225.65L92.2023 223.096H95.6683V228.551H95.0326V223.693H92.8025L92.6995 225.863C92.6782 226.305 92.6427 226.695 92.593 227.031C92.5456 227.367 92.4675 227.648 92.3586 227.873C92.2521 228.097 92.1029 228.267 91.9112 228.38C91.7218 228.494 91.4732 228.551 91.1654 228.551H90.9381ZM99.4488 228.664C98.9398 228.664 98.4994 228.546 98.1277 228.309C97.756 228.07 97.4684 227.74 97.2648 227.319C97.0636 226.895 96.963 226.407 96.963 225.855C96.963 225.306 97.0636 224.819 97.2648 224.392C97.4684 223.964 97.7489 223.629 98.1064 223.387C98.4663 223.144 98.8818 223.022 99.3529 223.022C99.6488 223.022 99.9341 223.076 100.209 223.185C100.483 223.292 100.73 223.456 100.947 223.679C101.168 223.899 101.342 224.177 101.469 224.513C101.597 224.847 101.661 225.242 101.661 225.699V226.012H97.3998V225.454H101.015C101.015 225.104 100.944 224.789 100.802 224.51C100.662 224.228 100.467 224.005 100.216 223.842C99.9672 223.679 99.6796 223.597 99.3529 223.597C99.0072 223.597 98.703 223.689 98.4402 223.874C98.1775 224.059 97.9715 224.302 97.8223 224.605C97.6756 224.908 97.601 225.24 97.5986 225.6V225.934C97.5986 226.367 97.6732 226.746 97.8223 227.07C97.9739 227.392 98.1881 227.642 98.4651 227.819C98.7421 227.997 99.07 228.086 99.4488 228.086C99.7068 228.086 99.9329 228.045 100.127 227.965C100.324 227.884 100.488 227.777 100.621 227.642C100.756 227.504 100.857 227.354 100.926 227.191L101.526 227.386C101.443 227.616 101.307 227.828 101.118 228.022C100.931 228.216 100.696 228.372 100.415 228.49C100.135 228.606 99.8133 228.664 99.4488 228.664ZM106.637 225.529V226.125H103.43V225.529H106.637ZM103.586 223.096V228.551H102.954V223.096H103.586ZM107.102 223.096V228.551H106.47V223.096H107.102ZM110.208 228.675C109.878 228.675 109.578 228.611 109.306 228.483C109.033 228.353 108.817 228.166 108.656 227.922C108.495 227.676 108.414 227.378 108.414 227.027C108.414 226.757 108.465 226.53 108.567 226.346C108.669 226.161 108.813 226.009 109 225.891C109.187 225.773 109.409 225.679 109.664 225.61C109.92 225.542 110.202 225.489 110.509 225.451C110.815 225.413 111.073 225.38 111.284 225.351C111.497 225.323 111.659 225.278 111.77 225.216C111.881 225.155 111.937 225.055 111.937 224.918V224.79C111.937 224.418 111.826 224.126 111.603 223.913C111.383 223.698 111.066 223.59 110.651 223.59C110.258 223.59 109.938 223.676 109.689 223.849C109.443 224.022 109.27 224.225 109.171 224.46L108.57 224.243C108.694 223.945 108.864 223.707 109.082 223.529C109.3 223.35 109.544 223.221 109.813 223.142C110.083 223.062 110.357 223.022 110.634 223.022C110.842 223.022 111.059 223.049 111.284 223.103C111.511 223.158 111.722 223.252 111.916 223.387C112.11 223.52 112.267 223.706 112.388 223.945C112.509 224.182 112.569 224.482 112.569 224.847V228.551H111.937V227.688H111.898C111.822 227.849 111.71 228.005 111.561 228.157C111.411 228.308 111.224 228.432 110.999 228.529C110.775 228.627 110.511 228.675 110.208 228.675ZM110.293 228.096C110.629 228.096 110.92 228.022 111.166 227.873C111.413 227.723 111.602 227.526 111.735 227.279C111.869 227.031 111.937 226.757 111.937 226.459V225.671C111.89 225.716 111.81 225.756 111.699 225.792C111.59 225.827 111.463 225.859 111.319 225.887C111.177 225.913 111.035 225.936 110.893 225.955C110.751 225.974 110.623 225.99 110.509 226.005C110.202 226.042 109.939 226.102 109.721 226.182C109.503 226.263 109.336 226.374 109.22 226.516C109.104 226.656 109.046 226.836 109.046 227.056C109.046 227.387 109.165 227.644 109.401 227.826C109.638 228.006 109.935 228.096 110.293 228.096Z" fill="black" fill-opacity="0.5"/>
</svg>
