<svg width="741" height="526" viewBox="0 0 741 526" fill="none" xmlns="http://www.w3.org/2000/svg">
<path d="M363.577 168H150.24" stroke="#866857" stroke-width="0.5" stroke-miterlimit="10" stroke-dasharray="3 3"/>
<path d="M448.584 508H149.93" stroke="#866857" stroke-miterlimit="10"/>
<path d="M414.935 48C425.473 50.1451 432 53.0308 432 56.2253C432 62.7531 404.687 68 371 68C337.313 68 310 62.7531 310 56.2253C310 53.6018 314.377 51.1944 321.727 49.2808" stroke="#866857" stroke-width="2" stroke-miterlimit="10" stroke-linecap="round"/>
<path d="M447.347 140C465.658 143.647 477 148.552 477 153.983C477 165.08 429.539 174 371 174C312.462 174 265 165.08 265 153.983C265 149.523 272.606 145.431 285.379 142.177" stroke="#866857" stroke-width="2" stroke-miterlimit="10" stroke-linecap="round"/>
<path d="M437.114 228C444.487 229.538 449 231.523 449 233.754C449 238.369 429.967 242 406.516 242C383.066 242 364 238.338 364 233.754C364 231.923 367.052 230.215 372.143 228.877" stroke="#866857" stroke-width="2" stroke-miterlimit="10" stroke-linecap="round"/>
<path d="M406.649 466.609C410.117 467.262 412.207 468.17 412.207 469.177C412.207 471.214 403.259 472.852 392.2 472.852C381.141 472.852 372.193 471.214 372.193 469.177C372.193 468.358 373.616 467.606 376.006 467.019" stroke="#866857" stroke-width="2" stroke-miterlimit="10" stroke-linecap="round"/>
<path d="M150.354 167.646C150.158 167.451 149.842 167.451 149.646 167.646L146.464 170.828C146.269 171.024 146.269 171.34 146.464 171.536C146.66 171.731 146.976 171.731 147.172 171.536L150 168.707L152.828 171.536C153.024 171.731 153.34 171.731 153.536 171.536C153.731 171.34 153.731 171.024 153.536 170.828L150.354 167.646ZM149.646 508.354C149.842 508.549 150.158 508.549 150.354 508.354L153.536 505.172C153.731 504.976 153.731 504.66 153.536 504.464C153.34 504.269 153.024 504.269 152.828 504.464L150 507.293L147.172 504.464C146.976 504.269 146.66 504.269 146.464 504.464C146.269 504.66 146.269 504.976 146.464 505.172L149.646 508.354ZM150 168L149.5 168L149.5 508L150 508L150.5 508L150.5 168L150 168Z" fill="#866857"/>
<path d="M505.42 45.6364C505.42 46.5568 505.254 47.3523 504.922 48.0227C504.589 48.6932 504.134 49.2102 503.554 49.5739C502.974 49.9375 502.313 50.1193 501.568 50.1193C500.824 50.1193 500.162 49.9375 499.582 49.5739C499.003 49.2102 498.547 48.6932 498.214 48.0227C497.882 47.3523 497.716 46.5568 497.716 45.6364C497.716 44.7159 497.882 43.9205 498.214 43.25C498.547 42.5795 499.003 42.0625 499.582 41.6989C500.162 41.3352 500.824 41.1534 501.568 41.1534C502.313 41.1534 502.974 41.3352 503.554 41.6989C504.134 42.0625 504.589 42.5795 504.922 43.25C505.254 43.9205 505.42 44.7159 505.42 45.6364ZM504.398 45.6364C504.398 44.8807 504.271 44.2429 504.018 43.723C503.768 43.2031 503.429 42.8097 503 42.5426C502.574 42.2756 502.097 42.142 501.568 42.142C501.04 42.142 500.561 42.2756 500.132 42.5426C499.706 42.8097 499.366 43.2031 499.114 43.723C498.864 44.2429 498.739 44.8807 498.739 45.6364C498.739 46.392 498.864 47.0298 499.114 47.5497C499.366 48.0696 499.706 48.4631 500.132 48.7301C500.561 48.9972 501.04 49.1307 501.568 49.1307C502.097 49.1307 502.574 48.9972 503 48.7301C503.429 48.4631 503.768 48.0696 504.018 47.5497C504.271 47.0298 504.398 46.392 504.398 45.6364ZM512.328 50L509.328 45.9943H508.254V50H507.197V41.2727H508.254V45.0568H508.714L512.209 41.2727H513.47L509.942 45.108L513.589 50H512.328ZM514.955 50V41.2727H517.904C518.589 41.2727 519.148 41.3963 519.583 41.6435C520.021 41.8878 520.344 42.2188 520.555 42.6364C520.765 43.054 520.87 43.5199 520.87 44.0341C520.87 44.5483 520.765 45.0156 520.555 45.4361C520.347 45.8565 520.026 46.1918 519.592 46.4418C519.157 46.6889 518.6 46.8125 517.921 46.8125H515.808V45.875H517.887C518.356 45.875 518.732 45.794 519.016 45.6321C519.3 45.4702 519.506 45.2514 519.634 44.9759C519.765 44.6974 519.83 44.3835 519.83 44.0341C519.83 43.6847 519.765 43.3722 519.634 43.0966C519.506 42.821 519.299 42.6051 519.012 42.4489C518.725 42.2898 518.344 42.2102 517.87 42.2102H516.012V50H514.955ZM523.033 50.1193V49.1307H523.578C523.788 49.1307 523.964 49.0895 524.107 49.0071C524.251 48.9247 524.371 48.8182 524.464 48.6875C524.561 48.5568 524.641 48.4205 524.703 48.2784L524.839 47.9545L521.822 41.2727H522.964L525.368 46.6932L527.567 41.2727H528.692L525.675 48.5852C525.555 48.858 525.419 49.1108 525.266 49.3438C525.115 49.5767 524.909 49.7642 524.648 49.9062C524.389 50.0483 524.038 50.1193 523.595 50.1193H523.033ZM535.225 41.2727V50H534.169V41.2727H535.225ZM529.328 50L532.157 45.4489L529.566 41.2727H530.845L533.112 45.142H536.299L538.566 41.2727H539.845L537.237 45.4659L540.066 50H538.856L536.487 46.1307H532.907L530.521 50H529.328ZM541.451 50V41.2727H542.508V45.1591H547.162V41.2727H548.218V50H547.162V46.0966H542.508V50H541.451ZM557.698 45.6364C557.698 46.5568 557.532 47.3523 557.199 48.0227C556.867 48.6932 556.411 49.2102 555.831 49.5739C555.252 49.9375 554.59 50.1193 553.846 50.1193C553.101 50.1193 552.439 49.9375 551.86 49.5739C551.28 49.2102 550.824 48.6932 550.492 48.0227C550.159 47.3523 549.993 46.5568 549.993 45.6364C549.993 44.7159 550.159 43.9205 550.492 43.25C550.824 42.5795 551.28 42.0625 551.86 41.6989C552.439 41.3352 553.101 41.1534 553.846 41.1534C554.59 41.1534 555.252 41.3352 555.831 41.6989C556.411 42.0625 556.867 42.5795 557.199 43.25C557.532 43.9205 557.698 44.7159 557.698 45.6364ZM556.675 45.6364C556.675 44.8807 556.549 44.2429 556.296 43.723C556.046 43.2031 555.706 42.8097 555.277 42.5426C554.851 42.2756 554.374 42.142 553.846 42.142C553.317 42.142 552.838 42.2756 552.409 42.5426C551.983 42.8097 551.644 43.2031 551.391 43.723C551.141 44.2429 551.016 44.8807 551.016 45.6364C551.016 46.392 551.141 47.0298 551.391 47.5497C551.644 48.0696 551.983 48.4631 552.409 48.7301C552.838 48.9972 553.317 49.1307 553.846 49.1307C554.374 49.1307 554.851 48.9972 555.277 48.7301C555.706 48.4631 556.046 48.0696 556.296 47.5497C556.549 47.0298 556.675 46.392 556.675 45.6364ZM566.498 44H565.441C565.378 43.696 565.269 43.429 565.113 43.1989C564.959 42.9688 564.772 42.7756 564.55 42.6193C564.331 42.4602 564.088 42.3409 563.821 42.2614C563.554 42.1818 563.276 42.142 562.986 42.142C562.458 42.142 561.979 42.2756 561.55 42.5426C561.124 42.8097 560.784 43.2031 560.532 43.723C560.282 44.2429 560.157 44.8807 560.157 45.6364C560.157 46.392 560.282 47.0298 560.532 47.5497C560.784 48.0696 561.124 48.4631 561.55 48.7301C561.979 48.9972 562.458 49.1307 562.986 49.1307C563.276 49.1307 563.554 49.0909 563.821 49.0114C564.088 48.9318 564.331 48.8139 564.55 48.6577C564.772 48.4986 564.959 48.304 565.113 48.0739C565.269 47.8409 565.378 47.5739 565.441 47.2727H566.498C566.418 47.7187 566.273 48.1179 566.063 48.4702C565.853 48.8224 565.591 49.1222 565.279 49.3693C564.966 49.6136 564.615 49.7997 564.226 49.9276C563.84 50.0554 563.426 50.1193 562.986 50.1193C562.242 50.1193 561.58 49.9375 561 49.5739C560.421 49.2102 559.965 48.6932 559.632 48.0227C559.3 47.3523 559.134 46.5568 559.134 45.6364C559.134 44.7159 559.3 43.9205 559.632 43.25C559.965 42.5795 560.421 42.0625 561 41.6989C561.58 41.3352 562.242 41.1534 562.986 41.1534C563.426 41.1534 563.84 41.2173 564.226 41.3452C564.615 41.473 564.966 41.6605 565.279 41.9077C565.591 42.152 565.853 42.4503 566.063 42.8026C566.273 43.152 566.418 43.5511 566.498 44ZM567.728 42.2102V41.2727H574.273V42.2102H571.529V50H570.472V42.2102H567.728ZM576.689 44.9375H579.177C579.802 44.9375 580.329 45.0398 580.758 45.2443C581.19 45.4489 581.517 45.7372 581.738 46.1094C581.963 46.4815 582.075 46.9205 582.075 47.4261C582.075 47.9318 581.963 48.3778 581.738 48.7642C581.517 49.1506 581.19 49.4531 580.758 49.6719C580.329 49.8906 579.802 50 579.177 50H575.904V41.2727H576.961V49.0795H579.177C579.575 49.0795 579.912 49 580.187 48.8409C580.466 48.679 580.676 48.4716 580.818 48.2188C580.963 47.9631 581.035 47.6932 581.035 47.4091C581.035 46.9915 580.875 46.6321 580.554 46.331C580.233 46.027 579.774 45.875 579.177 45.875H576.689V44.9375ZM497.58 57.2102V56.2727H504.125V57.2102H501.381V65H500.324V57.2102H497.58ZM505.094 65H503.987L507.191 56.2727H508.282L511.487 65H510.379L507.771 57.6534H507.702L505.094 65ZM505.504 61.5909H509.969V62.5284H505.504V61.5909ZM512.096 65V64.0284H512.352C512.715 64.0284 512.998 63.9119 513.2 63.679C513.401 63.446 513.546 63.0696 513.634 62.5497C513.725 62.0298 513.786 61.3409 513.817 60.483L513.971 56.2727H519.289V65H518.232V57.2102H514.977L514.84 60.6875C514.806 61.6023 514.722 62.3807 514.589 63.0227C514.455 63.6648 514.221 64.1548 513.886 64.4929C513.55 64.831 513.062 65 512.42 65H512.096ZM521.401 56.2727H522.44V63.142H522.526L527.298 56.2727H528.321V65H527.264V58.1477H527.179L522.423 65H521.401V56.2727ZM530.436 56.2727H531.475V63.142H531.561L536.333 56.2727H537.356V65H536.299V58.1477H536.214L531.458 65H530.436V56.2727Z" fill="#866857"/>
<path d="M505.42 145.636C505.42 146.557 505.254 147.352 504.922 148.023C504.589 148.693 504.134 149.21 503.554 149.574C502.974 149.938 502.313 150.119 501.568 150.119C500.824 150.119 500.162 149.938 499.582 149.574C499.003 149.21 498.547 148.693 498.214 148.023C497.882 147.352 497.716 146.557 497.716 145.636C497.716 144.716 497.882 143.92 498.214 143.25C498.547 142.58 499.003 142.062 499.582 141.699C500.162 141.335 500.824 141.153 501.568 141.153C502.313 141.153 502.974 141.335 503.554 141.699C504.134 142.062 504.589 142.58 504.922 143.25C505.254 143.92 505.42 144.716 505.42 145.636ZM504.398 145.636C504.398 144.881 504.271 144.243 504.018 143.723C503.768 143.203 503.429 142.81 503 142.543C502.574 142.276 502.097 142.142 501.568 142.142C501.04 142.142 500.561 142.276 500.132 142.543C499.706 142.81 499.366 143.203 499.114 143.723C498.864 144.243 498.739 144.881 498.739 145.636C498.739 146.392 498.864 147.03 499.114 147.55C499.366 148.07 499.706 148.463 500.132 148.73C500.561 148.997 501.04 149.131 501.568 149.131C502.097 149.131 502.574 148.997 503 148.73C503.429 148.463 503.768 148.07 504.018 147.55C504.271 147.03 504.398 146.392 504.398 145.636ZM512.328 150L509.328 145.994H508.254V150H507.197V141.273H508.254V145.057H508.714L512.209 141.273H513.47L509.942 145.108L513.589 150H512.328ZM514.955 150V141.273H517.904C518.589 141.273 519.148 141.396 519.583 141.643C520.021 141.888 520.344 142.219 520.555 142.636C520.765 143.054 520.87 143.52 520.87 144.034C520.87 144.548 520.765 145.016 520.555 145.436C520.347 145.857 520.026 146.192 519.592 146.442C519.157 146.689 518.6 146.812 517.921 146.812H515.808V145.875H517.887C518.356 145.875 518.732 145.794 519.016 145.632C519.3 145.47 519.506 145.251 519.634 144.976C519.765 144.697 519.83 144.384 519.83 144.034C519.83 143.685 519.765 143.372 519.634 143.097C519.506 142.821 519.299 142.605 519.012 142.449C518.725 142.29 518.344 142.21 517.87 142.21H516.012V150H514.955ZM523.033 150.119V149.131H523.578C523.788 149.131 523.964 149.089 524.107 149.007C524.251 148.925 524.371 148.818 524.464 148.688C524.561 148.557 524.641 148.42 524.703 148.278L524.839 147.955L521.822 141.273H522.964L525.368 146.693L527.567 141.273H528.692L525.675 148.585C525.555 148.858 525.419 149.111 525.266 149.344C525.115 149.577 524.909 149.764 524.648 149.906C524.389 150.048 524.038 150.119 523.595 150.119H523.033ZM535.225 141.273V150H534.169V141.273H535.225ZM529.328 150L532.157 145.449L529.566 141.273H530.845L533.112 145.142H536.299L538.566 141.273H539.845L537.237 145.466L540.066 150H538.856L536.487 146.131H532.907L530.521 150H529.328ZM541.451 150V141.273H542.508V145.159H547.162V141.273H548.218V150H547.162V146.097H542.508V150H541.451ZM557.698 145.636C557.698 146.557 557.532 147.352 557.199 148.023C556.867 148.693 556.411 149.21 555.831 149.574C555.252 149.938 554.59 150.119 553.846 150.119C553.101 150.119 552.439 149.938 551.86 149.574C551.28 149.21 550.824 148.693 550.492 148.023C550.159 147.352 549.993 146.557 549.993 145.636C549.993 144.716 550.159 143.92 550.492 143.25C550.824 142.58 551.28 142.062 551.86 141.699C552.439 141.335 553.101 141.153 553.846 141.153C554.59 141.153 555.252 141.335 555.831 141.699C556.411 142.062 556.867 142.58 557.199 143.25C557.532 143.92 557.698 144.716 557.698 145.636ZM556.675 145.636C556.675 144.881 556.549 144.243 556.296 143.723C556.046 143.203 555.706 142.81 555.277 142.543C554.851 142.276 554.374 142.142 553.846 142.142C553.317 142.142 552.838 142.276 552.409 142.543C551.983 142.81 551.644 143.203 551.391 143.723C551.141 144.243 551.016 144.881 551.016 145.636C551.016 146.392 551.141 147.03 551.391 147.55C551.644 148.07 551.983 148.463 552.409 148.73C552.838 148.997 553.317 149.131 553.846 149.131C554.374 149.131 554.851 148.997 555.277 148.73C555.706 148.463 556.046 148.07 556.296 147.55C556.549 147.03 556.675 146.392 556.675 145.636ZM566.498 144H565.441C565.378 143.696 565.269 143.429 565.113 143.199C564.959 142.969 564.772 142.776 564.55 142.619C564.331 142.46 564.088 142.341 563.821 142.261C563.554 142.182 563.276 142.142 562.986 142.142C562.458 142.142 561.979 142.276 561.55 142.543C561.124 142.81 560.784 143.203 560.532 143.723C560.282 144.243 560.157 144.881 560.157 145.636C560.157 146.392 560.282 147.03 560.532 147.55C560.784 148.07 561.124 148.463 561.55 148.73C561.979 148.997 562.458 149.131 562.986 149.131C563.276 149.131 563.554 149.091 563.821 149.011C564.088 148.932 564.331 148.814 564.55 148.658C564.772 148.499 564.959 148.304 565.113 148.074C565.269 147.841 565.378 147.574 565.441 147.273H566.498C566.418 147.719 566.273 148.118 566.063 148.47C565.853 148.822 565.591 149.122 565.279 149.369C564.966 149.614 564.615 149.8 564.226 149.928C563.84 150.055 563.426 150.119 562.986 150.119C562.242 150.119 561.58 149.938 561 149.574C560.421 149.21 559.965 148.693 559.632 148.023C559.3 147.352 559.134 146.557 559.134 145.636C559.134 144.716 559.3 143.92 559.632 143.25C559.965 142.58 560.421 142.062 561 141.699C561.58 141.335 562.242 141.153 562.986 141.153C563.426 141.153 563.84 141.217 564.226 141.345C564.615 141.473 564.966 141.661 565.279 141.908C565.591 142.152 565.853 142.45 566.063 142.803C566.273 143.152 566.418 143.551 566.498 144ZM567.728 142.21V141.273H574.273V142.21H571.529V150H570.472V142.21H567.728ZM576.689 144.938H579.177C579.802 144.938 580.329 145.04 580.758 145.244C581.19 145.449 581.517 145.737 581.738 146.109C581.963 146.482 582.075 146.92 582.075 147.426C582.075 147.932 581.963 148.378 581.738 148.764C581.517 149.151 581.19 149.453 580.758 149.672C580.329 149.891 579.802 150 579.177 150H575.904V141.273H576.961V149.08H579.177C579.575 149.08 579.912 149 580.187 148.841C580.466 148.679 580.676 148.472 580.818 148.219C580.963 147.963 581.035 147.693 581.035 147.409C581.035 146.991 580.875 146.632 580.554 146.331C580.233 146.027 579.774 145.875 579.177 145.875H576.689V144.938ZM498.057 165V156.273H503.324V157.21H499.114V159.938H501.33C501.955 159.938 502.482 160.04 502.911 160.244C503.342 160.449 503.669 160.737 503.891 161.109C504.115 161.482 504.227 161.92 504.227 162.426C504.227 162.932 504.115 163.378 503.891 163.764C503.669 164.151 503.342 164.453 502.911 164.672C502.482 164.891 501.955 165 501.33 165H498.057ZM499.114 164.08H501.33C501.727 164.08 502.064 164 502.339 163.841C502.618 163.679 502.828 163.472 502.97 163.219C503.115 162.963 503.188 162.693 503.188 162.409C503.188 161.991 503.027 161.632 502.706 161.331C502.385 161.027 501.926 160.875 501.33 160.875H499.114V164.08ZM505.967 165V156.273H511.234V157.21H507.024V160.159H510.961V161.097H507.024V164.062H511.302V165H505.967ZM512.389 167.114V164.062H512.951C513.145 163.886 513.326 163.638 513.497 163.317C513.67 162.993 513.816 162.561 513.936 162.021C514.058 161.479 514.139 160.79 514.179 159.955L514.366 156.273H519.548V164.062H520.554V167.097H519.548V165H513.395V167.114H512.389ZM514.213 164.062H518.542V157.21H515.321L515.184 159.955C515.15 160.591 515.091 161.168 515.005 161.685C514.92 162.199 514.811 162.655 514.677 163.053C514.544 163.447 514.389 163.784 514.213 164.062ZM522.151 165V156.273H527.418V157.21H523.207V160.159H527.145V161.097H523.207V164.062H527.486V165H522.151ZM529.322 165V156.273H532.271C532.956 156.273 533.516 156.396 533.95 156.643C534.388 156.888 534.712 157.219 534.922 157.636C535.132 158.054 535.237 158.52 535.237 159.034C535.237 159.548 535.132 160.016 534.922 160.436C534.714 160.857 534.393 161.192 533.959 161.442C533.524 161.689 532.967 161.812 532.288 161.812H530.175V160.875H532.254C532.723 160.875 533.099 160.794 533.384 160.632C533.668 160.47 533.874 160.251 534.001 159.976C534.132 159.697 534.197 159.384 534.197 159.034C534.197 158.685 534.132 158.372 534.001 158.097C533.874 157.821 533.666 157.605 533.379 157.449C533.092 157.29 532.712 157.21 532.237 157.21H530.379V165H529.322Z" fill="#866857"/>
<path d="M505.42 227.636C505.42 228.557 505.254 229.352 504.922 230.023C504.589 230.693 504.134 231.21 503.554 231.574C502.974 231.938 502.313 232.119 501.568 232.119C500.824 232.119 500.162 231.938 499.582 231.574C499.003 231.21 498.547 230.693 498.214 230.023C497.882 229.352 497.716 228.557 497.716 227.636C497.716 226.716 497.882 225.92 498.214 225.25C498.547 224.58 499.003 224.062 499.582 223.699C500.162 223.335 500.824 223.153 501.568 223.153C502.313 223.153 502.974 223.335 503.554 223.699C504.134 224.062 504.589 224.58 504.922 225.25C505.254 225.92 505.42 226.716 505.42 227.636ZM504.398 227.636C504.398 226.881 504.271 226.243 504.018 225.723C503.768 225.203 503.429 224.81 503 224.543C502.574 224.276 502.097 224.142 501.568 224.142C501.04 224.142 500.561 224.276 500.132 224.543C499.706 224.81 499.366 225.203 499.114 225.723C498.864 226.243 498.739 226.881 498.739 227.636C498.739 228.392 498.864 229.03 499.114 229.55C499.366 230.07 499.706 230.463 500.132 230.73C500.561 230.997 501.04 231.131 501.568 231.131C502.097 231.131 502.574 230.997 503 230.73C503.429 230.463 503.768 230.07 504.018 229.55C504.271 229.03 504.398 228.392 504.398 227.636ZM512.328 232L509.328 227.994H508.254V232H507.197V223.273H508.254V227.057H508.714L512.209 223.273H513.47L509.942 227.108L513.589 232H512.328ZM514.955 232V223.273H517.904C518.589 223.273 519.148 223.396 519.583 223.643C520.021 223.888 520.344 224.219 520.555 224.636C520.765 225.054 520.87 225.52 520.87 226.034C520.87 226.548 520.765 227.016 520.555 227.436C520.347 227.857 520.026 228.192 519.592 228.442C519.157 228.689 518.6 228.812 517.921 228.812H515.808V227.875H517.887C518.356 227.875 518.732 227.794 519.016 227.632C519.3 227.47 519.506 227.251 519.634 226.976C519.765 226.697 519.83 226.384 519.83 226.034C519.83 225.685 519.765 225.372 519.634 225.097C519.506 224.821 519.299 224.605 519.012 224.449C518.725 224.29 518.344 224.21 517.87 224.21H516.012V232H514.955ZM523.033 232.119V231.131H523.578C523.788 231.131 523.964 231.089 524.107 231.007C524.251 230.925 524.371 230.818 524.464 230.688C524.561 230.557 524.641 230.42 524.703 230.278L524.839 229.955L521.822 223.273H522.964L525.368 228.693L527.567 223.273H528.692L525.675 230.585C525.555 230.858 525.419 231.111 525.266 231.344C525.115 231.577 524.909 231.764 524.648 231.906C524.389 232.048 524.038 232.119 523.595 232.119H523.033ZM535.225 223.273V232H534.169V223.273H535.225ZM529.328 232L532.157 227.449L529.566 223.273H530.845L533.112 227.142H536.299L538.566 223.273H539.845L537.237 227.466L540.066 232H538.856L536.487 228.131H532.907L530.521 232H529.328ZM541.451 232V223.273H542.508V227.159H547.162V223.273H548.218V232H547.162V228.097H542.508V232H541.451ZM557.698 227.636C557.698 228.557 557.532 229.352 557.199 230.023C556.867 230.693 556.411 231.21 555.831 231.574C555.252 231.938 554.59 232.119 553.846 232.119C553.101 232.119 552.439 231.938 551.86 231.574C551.28 231.21 550.824 230.693 550.492 230.023C550.159 229.352 549.993 228.557 549.993 227.636C549.993 226.716 550.159 225.92 550.492 225.25C550.824 224.58 551.28 224.062 551.86 223.699C552.439 223.335 553.101 223.153 553.846 223.153C554.59 223.153 555.252 223.335 555.831 223.699C556.411 224.062 556.867 224.58 557.199 225.25C557.532 225.92 557.698 226.716 557.698 227.636ZM556.675 227.636C556.675 226.881 556.549 226.243 556.296 225.723C556.046 225.203 555.706 224.81 555.277 224.543C554.851 224.276 554.374 224.142 553.846 224.142C553.317 224.142 552.838 224.276 552.409 224.543C551.983 224.81 551.644 225.203 551.391 225.723C551.141 226.243 551.016 226.881 551.016 227.636C551.016 228.392 551.141 229.03 551.391 229.55C551.644 230.07 551.983 230.463 552.409 230.73C552.838 230.997 553.317 231.131 553.846 231.131C554.374 231.131 554.851 230.997 555.277 230.73C555.706 230.463 556.046 230.07 556.296 229.55C556.549 229.03 556.675 228.392 556.675 227.636ZM566.498 226H565.441C565.378 225.696 565.269 225.429 565.113 225.199C564.959 224.969 564.772 224.776 564.55 224.619C564.331 224.46 564.088 224.341 563.821 224.261C563.554 224.182 563.276 224.142 562.986 224.142C562.458 224.142 561.979 224.276 561.55 224.543C561.124 224.81 560.784 225.203 560.532 225.723C560.282 226.243 560.157 226.881 560.157 227.636C560.157 228.392 560.282 229.03 560.532 229.55C560.784 230.07 561.124 230.463 561.55 230.73C561.979 230.997 562.458 231.131 562.986 231.131C563.276 231.131 563.554 231.091 563.821 231.011C564.088 230.932 564.331 230.814 564.55 230.658C564.772 230.499 564.959 230.304 565.113 230.074C565.269 229.841 565.378 229.574 565.441 229.273H566.498C566.418 229.719 566.273 230.118 566.063 230.47C565.853 230.822 565.591 231.122 565.279 231.369C564.966 231.614 564.615 231.8 564.226 231.928C563.84 232.055 563.426 232.119 562.986 232.119C562.242 232.119 561.58 231.938 561 231.574C560.421 231.21 559.965 230.693 559.632 230.023C559.3 229.352 559.134 228.557 559.134 227.636C559.134 226.716 559.3 225.92 559.632 225.25C559.965 224.58 560.421 224.062 561 223.699C561.58 223.335 562.242 223.153 562.986 223.153C563.426 223.153 563.84 223.217 564.226 223.345C564.615 223.473 564.966 223.661 565.279 223.908C565.591 224.152 565.853 224.45 566.063 224.803C566.273 225.152 566.418 225.551 566.498 226ZM567.728 224.21V223.273H574.273V224.21H571.529V232H570.472V224.21H567.728ZM576.689 226.938H579.177C579.802 226.938 580.329 227.04 580.758 227.244C581.19 227.449 581.517 227.737 581.738 228.109C581.963 228.482 582.075 228.92 582.075 229.426C582.075 229.932 581.963 230.378 581.738 230.764C581.517 231.151 581.19 231.453 580.758 231.672C580.329 231.891 579.802 232 579.177 232H575.904V223.273H576.961V231.08H579.177C579.575 231.08 579.912 231 580.187 230.841C580.466 230.679 580.676 230.472 580.818 230.219C580.963 229.963 581.035 229.693 581.035 229.409C581.035 228.991 580.875 228.632 580.554 228.331C580.233 228.027 579.774 227.875 579.177 227.875H576.689V226.938ZM498.057 247V238.273H503.324V239.21H499.114V241.938H501.33C501.955 241.938 502.482 242.04 502.911 242.244C503.342 242.449 503.669 242.737 503.891 243.109C504.115 243.482 504.227 243.92 504.227 244.426C504.227 244.932 504.115 245.378 503.891 245.764C503.669 246.151 503.342 246.453 502.911 246.672C502.482 246.891 501.955 247 501.33 247H498.057ZM499.114 246.08H501.33C501.727 246.08 502.064 246 502.339 245.841C502.618 245.679 502.828 245.472 502.97 245.219C503.115 244.963 503.188 244.693 503.188 244.409C503.188 243.991 503.027 243.632 502.706 243.331C502.385 243.027 501.926 242.875 501.33 242.875H499.114V246.08ZM505.967 247V238.273H511.234V239.21H507.024V242.159H510.961V243.097H507.024V246.062H511.302V247H505.967ZM512.389 249.114V246.062H512.951C513.145 245.886 513.326 245.638 513.497 245.317C513.67 244.993 513.816 244.561 513.936 244.021C514.058 243.479 514.139 242.79 514.179 241.955L514.366 238.273H519.548V246.062H520.554V249.097H519.548V247H513.395V249.114H512.389ZM514.213 246.062H518.542V239.21H515.321L515.184 241.955C515.15 242.591 515.091 243.168 515.005 243.685C514.92 244.199 514.811 244.655 514.677 245.053C514.544 245.447 514.389 245.784 514.213 246.062ZM522.151 247V238.273H525.099C525.784 238.273 526.344 238.396 526.778 238.643C527.216 238.888 527.54 239.219 527.75 239.636C527.96 240.054 528.065 240.52 528.065 241.034C528.065 241.548 527.96 242.016 527.75 242.436C527.543 242.857 527.222 243.192 526.787 243.442C526.352 243.689 525.795 243.812 525.116 243.812H523.003V242.875H525.082C525.551 242.875 525.928 242.794 526.212 242.632C526.496 242.47 526.702 242.251 526.83 241.976C526.96 241.697 527.026 241.384 527.026 241.034C527.026 240.685 526.96 240.372 526.83 240.097C526.702 239.821 526.494 239.605 526.207 239.449C525.92 239.29 525.54 239.21 525.065 239.21H523.207V247H522.151ZM529.235 247H528.127L531.332 238.273H532.423L535.627 247H534.519L531.911 239.653H531.843L529.235 247ZM529.644 243.591H534.11V244.528H529.644V243.591Z" fill="#866857"/>
<path d="M116.057 312.164V303.437H117.114V307.323H121.767V303.437H122.824V312.164H121.767V308.261H117.114V312.164H116.057ZM127.854 303.437V312.164H126.798V304.545H126.746L124.616 305.96V304.886L126.798 303.437H127.854Z" fill="#866857"/>
<path d="M505.42 459.636C505.42 460.557 505.254 461.352 504.922 462.023C504.589 462.693 504.134 463.21 503.554 463.574C502.974 463.938 502.313 464.119 501.568 464.119C500.824 464.119 500.162 463.938 499.582 463.574C499.003 463.21 498.547 462.693 498.214 462.023C497.882 461.352 497.716 460.557 497.716 459.636C497.716 458.716 497.882 457.92 498.214 457.25C498.547 456.58 499.003 456.062 499.582 455.699C500.162 455.335 500.824 455.153 501.568 455.153C502.313 455.153 502.974 455.335 503.554 455.699C504.134 456.062 504.589 456.58 504.922 457.25C505.254 457.92 505.42 458.716 505.42 459.636ZM504.398 459.636C504.398 458.881 504.271 458.243 504.018 457.723C503.768 457.203 503.429 456.81 503 456.543C502.574 456.276 502.097 456.142 501.568 456.142C501.04 456.142 500.561 456.276 500.132 456.543C499.706 456.81 499.366 457.203 499.114 457.723C498.864 458.243 498.739 458.881 498.739 459.636C498.739 460.392 498.864 461.03 499.114 461.55C499.366 462.07 499.706 462.463 500.132 462.73C500.561 462.997 501.04 463.131 501.568 463.131C502.097 463.131 502.574 462.997 503 462.73C503.429 462.463 503.768 462.07 504.018 461.55C504.271 461.03 504.398 460.392 504.398 459.636ZM512.328 464L509.328 459.994H508.254V464H507.197V455.273H508.254V459.057H508.714L512.209 455.273H513.47L509.942 459.108L513.589 464H512.328ZM514.955 464V455.273H517.904C518.589 455.273 519.148 455.396 519.583 455.643C520.021 455.888 520.344 456.219 520.555 456.636C520.765 457.054 520.87 457.52 520.87 458.034C520.87 458.548 520.765 459.016 520.555 459.436C520.347 459.857 520.026 460.192 519.592 460.442C519.157 460.689 518.6 460.812 517.921 460.812H515.808V459.875H517.887C518.356 459.875 518.732 459.794 519.016 459.632C519.3 459.47 519.506 459.251 519.634 458.976C519.765 458.697 519.83 458.384 519.83 458.034C519.83 457.685 519.765 457.372 519.634 457.097C519.506 456.821 519.299 456.605 519.012 456.449C518.725 456.29 518.344 456.21 517.87 456.21H516.012V464H514.955ZM523.033 464.119V463.131H523.578C523.788 463.131 523.964 463.089 524.107 463.007C524.251 462.925 524.371 462.818 524.464 462.688C524.561 462.557 524.641 462.42 524.703 462.278L524.839 461.955L521.822 455.273H522.964L525.368 460.693L527.567 455.273H528.692L525.675 462.585C525.555 462.858 525.419 463.111 525.266 463.344C525.115 463.577 524.909 463.764 524.648 463.906C524.389 464.048 524.038 464.119 523.595 464.119H523.033ZM535.225 455.273V464H534.169V455.273H535.225ZM529.328 464L532.157 459.449L529.566 455.273H530.845L533.112 459.142H536.299L538.566 455.273H539.845L537.237 459.466L540.066 464H538.856L536.487 460.131H532.907L530.521 464H529.328ZM541.451 464V455.273H542.508V459.159H547.162V455.273H548.218V464H547.162V460.097H542.508V464H541.451ZM557.698 459.636C557.698 460.557 557.532 461.352 557.199 462.023C556.867 462.693 556.411 463.21 555.831 463.574C555.252 463.938 554.59 464.119 553.846 464.119C553.101 464.119 552.439 463.938 551.86 463.574C551.28 463.21 550.824 462.693 550.492 462.023C550.159 461.352 549.993 460.557 549.993 459.636C549.993 458.716 550.159 457.92 550.492 457.25C550.824 456.58 551.28 456.062 551.86 455.699C552.439 455.335 553.101 455.153 553.846 455.153C554.59 455.153 555.252 455.335 555.831 455.699C556.411 456.062 556.867 456.58 557.199 457.25C557.532 457.92 557.698 458.716 557.698 459.636ZM556.675 459.636C556.675 458.881 556.549 458.243 556.296 457.723C556.046 457.203 555.706 456.81 555.277 456.543C554.851 456.276 554.374 456.142 553.846 456.142C553.317 456.142 552.838 456.276 552.409 456.543C551.983 456.81 551.644 457.203 551.391 457.723C551.141 458.243 551.016 458.881 551.016 459.636C551.016 460.392 551.141 461.03 551.391 461.55C551.644 462.07 551.983 462.463 552.409 462.73C552.838 462.997 553.317 463.131 553.846 463.131C554.374 463.131 554.851 462.997 555.277 462.73C555.706 462.463 556.046 462.07 556.296 461.55C556.549 461.03 556.675 460.392 556.675 459.636ZM566.498 458H565.441C565.378 457.696 565.269 457.429 565.113 457.199C564.959 456.969 564.772 456.776 564.55 456.619C564.331 456.46 564.088 456.341 563.821 456.261C563.554 456.182 563.276 456.142 562.986 456.142C562.458 456.142 561.979 456.276 561.55 456.543C561.124 456.81 560.784 457.203 560.532 457.723C560.282 458.243 560.157 458.881 560.157 459.636C560.157 460.392 560.282 461.03 560.532 461.55C560.784 462.07 561.124 462.463 561.55 462.73C561.979 462.997 562.458 463.131 562.986 463.131C563.276 463.131 563.554 463.091 563.821 463.011C564.088 462.932 564.331 462.814 564.55 462.658C564.772 462.499 564.959 462.304 565.113 462.074C565.269 461.841 565.378 461.574 565.441 461.273H566.498C566.418 461.719 566.273 462.118 566.063 462.47C565.853 462.822 565.591 463.122 565.279 463.369C564.966 463.614 564.615 463.8 564.226 463.928C563.84 464.055 563.426 464.119 562.986 464.119C562.242 464.119 561.58 463.938 561 463.574C560.421 463.21 559.965 462.693 559.632 462.023C559.3 461.352 559.134 460.557 559.134 459.636C559.134 458.716 559.3 457.92 559.632 457.25C559.965 456.58 560.421 456.062 561 455.699C561.58 455.335 562.242 455.153 562.986 455.153C563.426 455.153 563.84 455.217 564.226 455.345C564.615 455.473 564.966 455.661 565.279 455.908C565.591 456.152 565.853 456.45 566.063 456.803C566.273 457.152 566.418 457.551 566.498 458ZM567.728 456.21V455.273H574.273V456.21H571.529V464H570.472V456.21H567.728ZM576.689 458.938H579.177C579.802 458.938 580.329 459.04 580.758 459.244C581.19 459.449 581.517 459.737 581.738 460.109C581.963 460.482 582.075 460.92 582.075 461.426C582.075 461.932 581.963 462.378 581.738 462.764C581.517 463.151 581.19 463.453 580.758 463.672C580.329 463.891 579.802 464 579.177 464H575.904V455.273H576.961V463.08H579.177C579.575 463.08 579.912 463 580.187 462.841C580.466 462.679 580.676 462.472 580.818 462.219C580.963 461.963 581.035 461.693 581.035 461.409C581.035 460.991 580.875 460.632 580.554 460.331C580.233 460.027 579.774 459.875 579.177 459.875H576.689V458.938ZM508.216 478.062L508.097 481.062H507.057V479H506.222V478.062H508.216ZM498.057 470.273H499.114V478.028H502.182V470.273H503.239V478.028H506.307V470.273H507.364V479H498.057V470.273ZM509.822 470.273H510.862V477.142H510.947L515.72 470.273H516.743V479H515.686V472.148H515.601L510.845 479H509.822V470.273ZM523.988 479L520.988 474.994H519.914V479H518.858V470.273H519.914V474.057H520.375L523.869 470.273H525.13L521.602 474.108L525.25 479H523.988ZM533.569 474.636C533.569 475.557 533.403 476.352 533.07 477.023C532.738 477.693 532.282 478.21 531.702 478.574C531.123 478.938 530.461 479.119 529.717 479.119C528.972 479.119 528.31 478.938 527.731 478.574C527.151 478.21 526.695 477.693 526.363 477.023C526.031 476.352 525.864 475.557 525.864 474.636C525.864 473.716 526.031 472.92 526.363 472.25C526.695 471.58 527.151 471.062 527.731 470.699C528.31 470.335 528.972 470.153 529.717 470.153C530.461 470.153 531.123 470.335 531.702 470.699C532.282 471.062 532.738 471.58 533.07 472.25C533.403 472.92 533.569 473.716 533.569 474.636ZM532.546 474.636C532.546 473.881 532.42 473.243 532.167 472.723C531.917 472.203 531.577 471.81 531.148 471.543C530.722 471.276 530.245 471.142 529.717 471.142C529.188 471.142 528.71 471.276 528.281 471.543C527.854 471.81 527.515 472.203 527.262 472.723C527.012 473.243 526.887 473.881 526.887 474.636C526.887 475.392 527.012 476.03 527.262 476.55C527.515 477.07 527.854 477.463 528.281 477.73C528.71 477.997 529.188 478.131 529.717 478.131C530.245 478.131 530.722 477.997 531.148 477.73C531.577 477.463 531.917 477.07 532.167 476.55C532.42 476.03 532.546 475.392 532.546 474.636ZM534.596 479V478.028H534.852C535.215 478.028 535.498 477.912 535.7 477.679C535.901 477.446 536.046 477.07 536.134 476.55C536.225 476.03 536.286 475.341 536.317 474.483L536.471 470.273H541.789V479H540.732V471.21H537.477L537.34 474.688C537.306 475.602 537.222 476.381 537.089 477.023C536.955 477.665 536.721 478.155 536.386 478.493C536.05 478.831 535.562 479 534.92 479H534.596ZM551.264 474.636C551.264 475.557 551.098 476.352 550.766 477.023C550.433 477.693 549.977 478.21 549.398 478.574C548.818 478.938 548.156 479.119 547.412 479.119C546.668 479.119 546.006 478.938 545.426 478.574C544.847 478.21 544.391 477.693 544.058 477.023C543.726 476.352 543.56 475.557 543.56 474.636C543.56 473.716 543.726 472.92 544.058 472.25C544.391 471.58 544.847 471.062 545.426 470.699C546.006 470.335 546.668 470.153 547.412 470.153C548.156 470.153 548.818 470.335 549.398 470.699C549.977 471.062 550.433 471.58 550.766 472.25C551.098 472.92 551.264 473.716 551.264 474.636ZM550.241 474.636C550.241 473.881 550.115 473.243 549.862 472.723C549.612 472.203 549.273 471.81 548.844 471.543C548.418 471.276 547.94 471.142 547.412 471.142C546.884 471.142 546.405 471.276 545.976 471.543C545.55 471.81 545.21 472.203 544.957 472.723C544.707 473.243 544.582 473.881 544.582 474.636C544.582 475.392 544.707 476.03 544.957 476.55C545.21 477.07 545.55 477.463 545.976 477.73C546.405 477.997 546.884 478.131 547.412 478.131C547.94 478.131 548.418 477.997 548.844 477.73C549.273 477.463 549.612 477.07 549.862 476.55C550.115 476.03 550.241 475.392 550.241 474.636ZM552.201 471.21V470.273H558.746V471.21H556.002V479H554.945V471.21H552.201ZM565.508 479L562.508 474.994H561.434V479H560.377V470.273H561.434V474.057H561.894L565.388 470.273H566.65L563.121 474.108L566.769 479H565.508ZM568.135 470.273H569.175V477.142H569.26L574.033 470.273H575.055V479H573.999V472.148H573.913L569.158 479H568.135V470.273Z" fill="#866857"/>
<path d="M164.817 177.727V185H164.157V178.324H160.24V185H159.576V177.727H164.817ZM166.468 187.045V179.545H167.082V180.586H167.157C167.233 180.423 167.337 180.256 167.469 180.085C167.602 179.912 167.777 179.767 167.995 179.648C168.215 179.53 168.492 179.471 168.826 179.471C169.276 179.471 169.669 179.589 170.005 179.826C170.343 180.06 170.606 180.389 170.793 180.813C170.983 181.235 171.077 181.726 171.077 182.287C171.077 182.85 170.983 183.344 170.793 183.768C170.606 184.192 170.343 184.522 170.005 184.759C169.669 184.995 169.278 185.114 168.833 185.114C168.504 185.114 168.228 185.054 168.006 184.936C167.785 184.818 167.607 184.672 167.469 184.499C167.334 184.324 167.23 184.154 167.157 183.988H167.1V187.045H166.468ZM167.093 182.276C167.093 182.717 167.158 183.107 167.288 183.448C167.421 183.787 167.61 184.053 167.856 184.247C168.105 184.439 168.406 184.535 168.758 184.535C169.121 184.535 169.426 184.435 169.675 184.237C169.926 184.035 170.116 183.764 170.246 183.423C170.379 183.082 170.445 182.7 170.445 182.276C170.445 181.857 170.38 181.48 170.25 181.143C170.122 180.807 169.933 180.541 169.682 180.344C169.431 180.146 169.123 180.046 168.758 180.046C168.403 180.046 168.101 180.142 167.853 180.334C167.604 180.523 167.415 180.786 167.285 181.122C167.157 181.456 167.093 181.841 167.093 182.276ZM174.484 185.114C174.013 185.114 173.596 184.994 173.234 184.755C172.874 184.516 172.592 184.186 172.389 183.764C172.185 183.34 172.083 182.852 172.083 182.298C172.083 181.739 172.185 181.248 172.389 180.824C172.592 180.398 172.874 180.066 173.234 179.83C173.596 179.59 174.013 179.471 174.484 179.471C174.955 179.471 175.371 179.59 175.73 179.83C176.09 180.069 176.372 180.4 176.576 180.824C176.782 181.248 176.885 181.739 176.885 182.298C176.885 182.852 176.783 183.34 176.579 183.764C176.376 184.186 176.093 184.516 175.73 184.755C175.371 184.994 174.955 185.114 174.484 185.114ZM174.484 184.535C174.863 184.535 175.184 184.433 175.446 184.229C175.709 184.026 175.908 183.755 176.043 183.416C176.18 183.078 176.249 182.705 176.249 182.298C176.249 181.89 176.18 181.516 176.043 181.175C175.908 180.835 175.709 180.561 175.446 180.355C175.184 180.149 174.863 180.046 174.484 180.046C174.108 180.046 173.787 180.149 173.522 180.355C173.259 180.561 173.059 180.835 172.922 181.175C172.787 181.516 172.719 181.89 172.719 182.298C172.719 182.705 172.787 183.078 172.922 183.416C173.059 183.755 173.259 184.026 173.522 184.229C173.784 184.433 174.105 184.535 174.484 184.535ZM181.024 184.116L183.073 179.545H183.687L181.276 185H180.772L178.389 179.545H178.993L181.024 184.116ZM178.804 179.545V185H178.172V179.545H178.804ZM183.243 185V179.545H183.875V185H183.243ZM187.66 185.114C187.151 185.114 186.711 184.995 186.339 184.759C185.968 184.519 185.68 184.189 185.476 183.768C185.275 183.344 185.174 182.856 185.174 182.305C185.174 181.755 185.275 181.268 185.476 180.842C185.68 180.413 185.96 180.078 186.318 179.837C186.678 179.593 187.093 179.471 187.564 179.471C187.86 179.471 188.146 179.525 188.42 179.634C188.695 179.741 188.941 179.905 189.159 180.128C189.379 180.348 189.553 180.626 189.681 180.962C189.809 181.296 189.873 181.692 189.873 182.148V182.461H185.611V181.903H189.226C189.226 181.553 189.155 181.238 189.013 180.959C188.874 180.677 188.678 180.455 188.427 180.291C188.179 180.128 187.891 180.046 187.564 180.046C187.219 180.046 186.915 180.138 186.652 180.323C186.389 180.508 186.183 180.752 186.034 181.055C185.887 181.358 185.813 181.689 185.81 182.049V182.383C185.81 182.816 185.885 183.195 186.034 183.519C186.185 183.841 186.4 184.091 186.677 184.268C186.954 184.446 187.281 184.535 187.66 184.535C187.918 184.535 188.144 184.495 188.339 184.414C188.535 184.334 188.7 184.226 188.832 184.091C188.967 183.954 189.069 183.803 189.138 183.64L189.738 183.835C189.655 184.065 189.519 184.277 189.329 184.471C189.142 184.665 188.908 184.821 188.626 184.94C188.347 185.056 188.025 185.114 187.66 185.114ZM190.678 185L193.086 182.244L190.71 179.545H191.481L193.572 181.971H193.938V179.545H194.574V181.971H194.932L197.024 179.545H197.795L195.426 182.244L197.827 185H197.045L194.922 182.567H194.574V185H193.938V182.567H193.59L191.459 185H190.678ZM202.736 181.978V182.575H199.53V181.978H202.736ZM199.686 179.545V185H199.054V179.545H199.686ZM203.202 179.545V185H202.569V179.545H203.202ZM206.904 185.114C206.433 185.114 206.016 184.994 205.654 184.755C205.294 184.516 205.012 184.186 204.809 183.764C204.605 183.34 204.503 182.852 204.503 182.298C204.503 181.739 204.605 181.248 204.809 180.824C205.012 180.398 205.294 180.066 205.654 179.83C206.016 179.59 206.433 179.471 206.904 179.471C207.375 179.471 207.791 179.59 208.15 179.83C208.51 180.069 208.792 180.4 208.996 180.824C209.202 181.248 209.305 181.739 209.305 182.298C209.305 182.852 209.203 183.34 208.999 183.764C208.796 184.186 208.513 184.516 208.15 184.755C207.791 184.994 207.375 185.114 206.904 185.114ZM206.904 184.535C207.283 184.535 207.604 184.433 207.866 184.229C208.129 184.026 208.328 183.755 208.463 183.416C208.6 183.078 208.669 182.705 208.669 182.298C208.669 181.89 208.6 181.516 208.463 181.175C208.328 180.835 208.129 180.561 207.866 180.355C207.604 180.149 207.283 180.046 206.904 180.046C206.528 180.046 206.207 180.149 205.942 180.355C205.679 180.561 205.479 180.835 205.341 181.175C205.207 181.516 205.139 181.89 205.139 182.298C205.139 182.705 205.207 183.078 205.341 183.416C205.479 183.755 205.679 184.026 205.942 184.229C206.204 184.433 206.525 184.535 206.904 184.535ZM212.723 185.114C212.235 185.114 211.81 184.992 211.448 184.748C211.088 184.504 210.809 184.17 210.61 183.746C210.411 183.323 210.312 182.84 210.312 182.298C210.312 181.751 210.412 181.264 210.613 180.838C210.817 180.412 211.099 180.078 211.459 179.837C211.818 179.593 212.236 179.471 212.712 179.471C213.077 179.471 213.407 179.542 213.703 179.684C213.999 179.824 214.243 180.021 214.434 180.277C214.629 180.53 214.751 180.826 214.8 181.165H214.161C214.095 180.857 213.935 180.594 213.682 180.376C213.431 180.156 213.111 180.046 212.723 180.046C212.375 180.046 212.067 180.141 211.8 180.33C211.532 180.517 211.322 180.779 211.171 181.115C211.022 181.449 210.947 181.836 210.947 182.276C210.947 182.719 211.021 183.111 211.167 183.452C211.314 183.79 211.52 184.055 211.785 184.247C212.053 184.439 212.365 184.535 212.723 184.535C212.964 184.535 213.184 184.49 213.383 184.4C213.585 184.308 213.753 184.177 213.888 184.009C214.025 183.841 214.117 183.641 214.165 183.409H214.804C214.756 183.738 214.639 184.032 214.452 184.29C214.268 184.545 214.027 184.747 213.731 184.893C213.438 185.04 213.102 185.114 212.723 185.114ZM215.608 180.142V179.545H219.869V180.142H218.065V185H217.433V180.142H215.608ZM221.631 181.651H223.225C223.838 181.651 224.312 181.8 224.646 182.099C224.979 182.397 225.146 182.801 225.146 183.31C225.146 183.648 225.072 183.944 224.922 184.197C224.773 184.451 224.556 184.648 224.269 184.79C223.983 184.93 223.635 185 223.225 185H221.105V179.545H221.737V184.403H223.225C223.611 184.403 223.922 184.311 224.159 184.126C224.396 183.942 224.514 183.679 224.514 183.338C224.514 182.99 224.396 182.721 224.159 182.532C223.922 182.343 223.611 182.248 223.225 182.248H221.631V181.651Z" fill="black" fill-opacity="0.5"/>
<path d="M412.014 27.0419C397.456 61.3091 443.422 112.677 438.651 164.159C434.461 209.174 434.461 188.407 429.726 225.169C424.991 261.93 420.801 311.617 420.801 311.617V375.02C420.801 375.02 419.604 400.482 413.66 416.459C407.716 432.435 405.615 438.362 406.519 456.133C407.422 473.904 402.646 468.269 404.16 475.698C405.675 483.127 411.098 483.719 410.098 497.907C409.164 511.353 397.474 507.202 386.304 507.944C386.304 507.944 379.121 504.421 382.419 492.871C385.717 481.321 387.208 483.342 386.903 465.302C386.597 447.263 391.057 440.737 391.057 440.737L387.465 349.94C386.945 336.464 388.998 323.999 382.748 308.944C380.354 303.213 381.408 247.282 379.756 229.99C378.923 221.358 378.008 212.745 377.229 207.93C375.278 196.129 375.434 170.056 375.434 170.056C375.434 170.056 374.344 164.93 370.543 164.799C366.712 164.93 365.593 170.056 365.593 170.056C365.593 170.056 365.796 196.099 363.797 207.93C363.019 212.745 362.085 221.358 361.271 229.99C359.637 247.3 360.672 303.237 358.278 308.944C352.035 323.999 354.088 336.458 353.549 349.94L349.958 440.737C349.958 440.737 354.423 447.227 354.1 465.302C353.777 483.378 355.255 481.344 358.547 492.871C361.84 504.397 354.71 507.944 354.71 507.944C343.547 507.202 331.82 511.353 330.904 497.907C329.905 483.719 335.37 483.109 336.842 475.698C338.315 468.287 333.538 473.904 334.448 456.133C335.358 438.362 333.251 432.393 327.307 416.423C321.363 400.452 320.166 374.966 320.166 374.966V311.617C320.166 311.617 316.041 261.852 311.277 225.127C306.512 188.401 306.488 209.156 302.352 164.117C297.563 112.677 343.529 61.2373 328.971 27" stroke="black" stroke-opacity="0.25" stroke-linecap="round" stroke-linejoin="round"/>
</svg>
