<svg width="741" height="526" viewBox="0 0 741 526" fill="none" xmlns="http://www.w3.org/2000/svg">
<path d="M311.217 25C311.217 25 282.541 70.1517 287.209 120.639C291.877 171.126 291.866 147.869 297.212 189.036C302.559 230.203 307.216 286.026 307.216 286.026V357.068C307.216 357.068 308.572 385.649 315.218 403.56C321.865 421.47 324.266 428.167 323.221 448.091C322.176 468.016 327.567 461.718 325.9 470.031C324.232 478.344 318.119 479.03 319.231 494.948C320.264 510.035 333.402 505.364 345.906 506.205C345.906 506.205 353.909 502.22 350.219 489.291C346.529 476.362 344.895 478.654 345.239 458.386C345.584 438.118 340.582 430.834 340.582 430.834L344.606 328.997C345.206 313.876 342.905 299.907 349.908 283.026C352.586 276.628 351.419 213.898 353.242 194.471C354.153 184.808 355.198 175.133 356.076 169.742C358.299 156.459 358.066 127.258 358.066 127.258C358.066 127.258 359.322 121.513 363.623 121.358C367.88 121.513 369.103 127.258 369.103 127.258C369.103 127.258 368.947 156.504 371.126 169.742C372.004 175.133 373.037 184.808 373.96 194.471C375.783 213.854 374.616 276.583 377.294 283.026C384.286 299.907 381.996 313.876 382.585 328.997L386.62 430.834C386.62 430.834 381.618 438.151 381.963 458.386C382.307 478.621 380.64 476.34 376.95 489.291C373.26 502.243 381.296 506.205 381.296 506.205C393.811 505.364 406.915 510.035 407.971 494.948C409.083 479.03 402.992 478.344 401.302 470.031C399.613 461.718 404.959 468.016 403.948 448.091C402.936 428.167 405.304 421.525 411.95 403.604C418.597 385.683 419.953 357.113 419.953 357.113V286.026C419.953 286.026 424.654 230.236 429.956 189.036C435.258 147.836 435.28 171.126 439.959 120.639C444.639 70.1517 415.952 25 415.952 25" stroke="black" stroke-opacity="0.25" stroke-linecap="round" stroke-linejoin="round"/>
<path d="M363.577 121.395H150.24" stroke="#866857" stroke-width="0.5" stroke-miterlimit="10" stroke-dasharray="3 3"/>
<path d="M448.584 508H149.93" stroke="#866857" stroke-miterlimit="10"/>
<path d="M435.824 189.07C443.504 190.609 448.261 192.679 448.261 194.97C448.261 199.653 428.354 203.416 403.802 203.416C379.249 203.416 359.343 199.653 359.343 194.97C359.343 193.088 362.533 191.362 367.89 189.989" stroke="#866857" stroke-width="2" stroke-miterlimit="10" stroke-linecap="round"/>
<path d="M423.531 343.418C428.633 344.525 431.756 345.953 431.756 347.558C431.756 350.879 418.585 353.491 402.357 353.491C386.13 353.491 372.937 350.857 372.937 347.558C372.937 346.241 375.048 345.012 378.572 344.049" stroke="#866857" stroke-width="2" stroke-miterlimit="10" stroke-linecap="round"/>
<path d="M406.649 466.609C410.117 467.262 412.207 468.17 412.207 469.177C412.207 471.214 403.259 472.852 392.2 472.852C381.141 472.852 372.193 471.214 372.193 469.177C372.193 468.358 373.616 467.606 376.006 467.019" stroke="#866857" stroke-width="2" stroke-miterlimit="10" stroke-linecap="round"/>
<path d="M150.594 121.041C150.399 120.846 150.082 120.846 149.887 121.041L146.705 124.223C146.509 124.418 146.509 124.735 146.705 124.93C146.9 125.125 147.217 125.125 147.412 124.93L150.24 122.102L153.069 124.93C153.264 125.125 153.581 125.125 153.776 124.93C153.971 124.735 153.971 124.418 153.776 124.223L150.594 121.041ZM149.887 508.034C150.082 508.229 150.399 508.229 150.594 508.034L153.776 504.852C153.971 504.657 153.971 504.34 153.776 504.145C153.581 503.95 153.264 503.95 153.069 504.145L150.24 506.973L147.412 504.145C147.217 503.95 146.9 503.95 146.705 504.145C146.509 504.34 146.509 504.657 146.705 504.852L149.887 508.034ZM150.24 121.395H149.74V507.681H150.24H150.74V121.395H150.24Z" fill="#866857"/>
<path d="M307.215 321.547H208.85" stroke="#866857" stroke-width="0.5" stroke-miterlimit="10" stroke-dasharray="3 3"/>
<path d="M209.203 321.193C209.008 320.998 208.691 320.998 208.496 321.193L205.314 324.375C205.119 324.571 205.119 324.887 205.314 325.082C205.509 325.278 205.826 325.278 206.021 325.082L208.85 322.254L211.678 325.082C211.873 325.278 212.19 325.278 212.385 325.082C212.58 324.887 212.58 324.571 212.385 324.375L209.203 321.193ZM208.496 508.031C208.691 508.226 209.008 508.226 209.203 508.031L212.385 504.849C212.58 504.654 212.58 504.337 212.385 504.142C212.19 503.947 211.873 503.947 211.678 504.142L208.85 506.97L206.021 504.142C205.826 503.947 205.509 503.947 205.314 504.142C205.119 504.337 205.119 504.654 205.314 504.849L208.496 508.031ZM208.85 321.547H208.35V507.678H208.85H209.35V321.547H208.85Z" fill="#866857"/>
<path d="M484.949 184.636C484.949 185.557 484.783 186.352 484.45 187.023C484.118 187.693 483.662 188.21 483.082 188.574C482.503 188.938 481.841 189.119 481.097 189.119C480.352 189.119 479.69 188.938 479.111 188.574C478.531 188.21 478.075 187.693 477.743 187.023C477.41 186.352 477.244 185.557 477.244 184.636C477.244 183.716 477.41 182.92 477.743 182.25C478.075 181.58 478.531 181.062 479.111 180.699C479.69 180.335 480.352 180.153 481.097 180.153C481.841 180.153 482.503 180.335 483.082 180.699C483.662 181.062 484.118 181.58 484.45 182.25C484.783 182.92 484.949 183.716 484.949 184.636ZM483.926 184.636C483.926 183.881 483.8 183.243 483.547 182.723C483.297 182.203 482.957 181.81 482.528 181.543C482.102 181.276 481.625 181.142 481.097 181.142C480.568 181.142 480.089 181.276 479.66 181.543C479.234 181.81 478.895 182.203 478.642 182.723C478.392 183.243 478.267 183.881 478.267 184.636C478.267 185.392 478.392 186.03 478.642 186.55C478.895 187.07 479.234 187.463 479.66 187.73C480.089 187.997 480.568 188.131 481.097 188.131C481.625 188.131 482.102 187.997 482.528 187.73C482.957 187.463 483.297 187.07 483.547 186.55C483.8 186.03 483.926 185.392 483.926 184.636ZM491.856 189L488.856 184.994H487.783V189H486.726V180.273H487.783V184.057H488.243L491.737 180.273H492.998L489.47 184.108L493.118 189H491.856ZM494.484 189V180.273H497.432C498.117 180.273 498.677 180.396 499.111 180.643C499.549 180.888 499.873 181.219 500.083 181.636C500.293 182.054 500.398 182.52 500.398 183.034C500.398 183.548 500.293 184.016 500.083 184.436C499.876 184.857 499.555 185.192 499.12 185.442C498.685 185.689 498.128 185.812 497.449 185.812H495.336V184.875H497.415C497.884 184.875 498.261 184.794 498.545 184.632C498.829 184.47 499.035 184.251 499.163 183.976C499.293 183.697 499.359 183.384 499.359 183.034C499.359 182.685 499.293 182.372 499.163 182.097C499.035 181.821 498.827 181.605 498.54 181.449C498.253 181.29 497.873 181.21 497.398 181.21H495.54V189H494.484ZM502.561 189.119V188.131H503.106C503.317 188.131 503.493 188.089 503.635 188.007C503.78 187.925 503.899 187.818 503.993 187.688C504.089 187.557 504.169 187.42 504.231 187.278L504.368 186.955L501.351 180.273H502.493L504.896 185.693L507.095 180.273H508.22L505.203 187.585C505.084 187.858 504.947 188.111 504.794 188.344C504.643 188.577 504.437 188.764 504.176 188.906C503.918 189.048 503.567 189.119 503.123 189.119H502.561ZM514.754 180.273V189H513.697V180.273H514.754ZM508.856 189L511.686 184.449L509.095 180.273H510.373L512.64 184.142H515.828L518.095 180.273H519.373L516.765 184.466L519.595 189H518.384L516.015 185.131H512.436L510.049 189H508.856ZM520.98 189V180.273H522.036V184.159H526.69V180.273H527.747V189H526.69V185.097H522.036V189H520.98ZM537.226 184.636C537.226 185.557 537.06 186.352 536.728 187.023C536.395 187.693 535.939 188.21 535.36 188.574C534.78 188.938 534.118 189.119 533.374 189.119C532.63 189.119 531.968 188.938 531.388 188.574C530.809 188.21 530.353 187.693 530.02 187.023C529.688 186.352 529.522 185.557 529.522 184.636C529.522 183.716 529.688 182.92 530.02 182.25C530.353 181.58 530.809 181.062 531.388 180.699C531.968 180.335 532.63 180.153 533.374 180.153C534.118 180.153 534.78 180.335 535.36 180.699C535.939 181.062 536.395 181.58 536.728 182.25C537.06 182.92 537.226 183.716 537.226 184.636ZM536.203 184.636C536.203 183.881 536.077 183.243 535.824 182.723C535.574 182.203 535.235 181.81 534.806 181.543C534.38 181.276 533.902 181.142 533.374 181.142C532.845 181.142 532.367 181.276 531.938 181.543C531.512 181.81 531.172 182.203 530.919 182.723C530.669 183.243 530.544 183.881 530.544 184.636C530.544 185.392 530.669 186.03 530.919 186.55C531.172 187.07 531.512 187.463 531.938 187.73C532.367 187.997 532.845 188.131 533.374 188.131C533.902 188.131 534.38 187.997 534.806 187.73C535.235 187.463 535.574 187.07 535.824 186.55C536.077 186.03 536.203 185.392 536.203 184.636ZM546.026 183H544.969C544.907 182.696 544.797 182.429 544.641 182.199C544.487 181.969 544.3 181.776 544.078 181.619C543.86 181.46 543.617 181.341 543.35 181.261C543.083 181.182 542.804 181.142 542.514 181.142C541.986 181.142 541.507 181.276 541.078 181.543C540.652 181.81 540.313 182.203 540.06 182.723C539.81 183.243 539.685 183.881 539.685 184.636C539.685 185.392 539.81 186.03 540.06 186.55C540.313 187.07 540.652 187.463 541.078 187.73C541.507 187.997 541.986 188.131 542.514 188.131C542.804 188.131 543.083 188.091 543.35 188.011C543.617 187.932 543.86 187.814 544.078 187.658C544.3 187.499 544.487 187.304 544.641 187.074C544.797 186.841 544.907 186.574 544.969 186.273H546.026C545.946 186.719 545.801 187.118 545.591 187.47C545.381 187.822 545.12 188.122 544.807 188.369C544.495 188.614 544.144 188.8 543.755 188.928C543.368 189.055 542.955 189.119 542.514 189.119C541.77 189.119 541.108 188.938 540.529 188.574C539.949 188.21 539.493 187.693 539.161 187.023C538.828 186.352 538.662 185.557 538.662 184.636C538.662 183.716 538.828 182.92 539.161 182.25C539.493 181.58 539.949 181.062 540.529 180.699C541.108 180.335 541.77 180.153 542.514 180.153C542.955 180.153 543.368 180.217 543.755 180.345C544.144 180.473 544.495 180.661 544.807 180.908C545.12 181.152 545.381 181.45 545.591 181.803C545.801 182.152 545.946 182.551 546.026 183ZM547.256 181.21V180.273H553.802V181.21H551.057V189H550.001V181.21H547.256ZM556.217 183.938H558.706C559.331 183.938 559.858 184.04 560.286 184.244C560.718 184.449 561.045 184.737 561.267 185.109C561.491 185.482 561.603 185.92 561.603 186.426C561.603 186.932 561.491 187.378 561.267 187.764C561.045 188.151 560.718 188.453 560.286 188.672C559.858 188.891 559.331 189 558.706 189H555.433V180.273H556.49V188.08H558.706C559.103 188.08 559.44 188 559.715 187.841C559.994 187.679 560.204 187.472 560.346 187.219C560.491 186.963 560.563 186.693 560.563 186.409C560.563 185.991 560.403 185.632 560.082 185.331C559.761 185.027 559.302 184.875 558.706 184.875H556.217V183.938ZM477.585 204V195.273H482.852V196.21H478.642V198.938H480.858C481.483 198.938 482.01 199.04 482.439 199.244C482.871 199.449 483.197 199.737 483.419 200.109C483.643 200.482 483.756 200.92 483.756 201.426C483.756 201.932 483.643 202.378 483.419 202.764C483.197 203.151 482.871 203.453 482.439 203.672C482.01 203.891 481.483 204 480.858 204H477.585ZM478.642 203.08H480.858C481.256 203.08 481.592 203 481.868 202.841C482.146 202.679 482.356 202.472 482.498 202.219C482.643 201.963 482.716 201.693 482.716 201.409C482.716 200.991 482.555 200.632 482.234 200.331C481.913 200.027 481.454 199.875 480.858 199.875H478.642V203.08ZM485.495 204V195.273H490.762V196.21H486.552V199.159H490.49V200.097H486.552V203.062H490.831V204H485.495ZM491.917 206.114V203.062H492.48C492.673 202.886 492.855 202.638 493.025 202.317C493.198 201.993 493.345 201.561 493.464 201.021C493.586 200.479 493.667 199.79 493.707 198.955L493.894 195.273H499.076V203.062H500.082V206.097H499.076V204H492.923V206.114H491.917ZM493.741 203.062H498.071V196.21H494.849L494.713 198.955C494.679 199.591 494.619 200.168 494.534 200.685C494.448 201.199 494.339 201.655 494.206 202.053C494.072 202.447 493.917 202.784 493.741 203.062ZM501.679 204V195.273H504.628C505.312 195.273 505.872 195.396 506.307 195.643C506.744 195.888 507.068 196.219 507.278 196.636C507.489 197.054 507.594 197.52 507.594 198.034C507.594 198.548 507.489 199.016 507.278 199.436C507.071 199.857 506.75 200.192 506.315 200.442C505.881 200.689 505.324 200.812 504.645 200.812H502.531V199.875H504.611C505.079 199.875 505.456 199.794 505.74 199.632C506.024 199.47 506.23 199.251 506.358 198.976C506.489 198.697 506.554 198.384 506.554 198.034C506.554 197.685 506.489 197.372 506.358 197.097C506.23 196.821 506.023 196.605 505.736 196.449C505.449 196.29 505.068 196.21 504.594 196.21H502.736V204H501.679ZM508.763 204H507.655L510.86 195.273H511.951L515.155 204H514.047L511.44 196.653H511.371L508.763 204ZM509.172 200.591H513.638V201.528H509.172V200.591Z" fill="#866857"/>
<path d="M116.057 312.164V303.437H117.114V307.323H121.767V303.437H122.824V312.164H121.767V308.261H117.114V312.164H116.057ZM127.854 303.437V312.164H126.798V304.545H126.746L124.616 305.96V304.886L126.798 303.437H127.854Z" fill="#866857"/>
<path d="M171.945 413.461V404.734H173.002V408.62H177.656V404.734H178.713V413.461H177.656V409.558H173.002V413.461H171.945ZM180.675 413.461V412.694L183.556 409.54C183.894 409.171 184.172 408.85 184.391 408.577C184.61 408.302 184.771 408.043 184.877 407.802C184.985 407.558 185.039 407.302 185.039 407.035C185.039 406.728 184.965 406.462 184.817 406.238C184.672 406.013 184.473 405.84 184.22 405.718C183.968 405.596 183.683 405.535 183.368 405.535C183.033 405.535 182.74 405.604 182.49 405.744C182.243 405.88 182.051 406.072 181.915 406.319C181.781 406.566 181.715 406.856 181.715 407.188H180.709C180.709 406.677 180.827 406.228 181.063 405.842C181.298 405.455 181.619 405.154 182.026 404.938C182.435 404.722 182.894 404.614 183.402 404.614C183.914 404.614 184.367 404.722 184.762 404.938C185.156 405.154 185.466 405.445 185.691 405.812C185.915 406.178 186.027 406.586 186.027 407.035C186.027 407.356 185.969 407.67 185.852 407.977C185.739 408.281 185.54 408.62 185.256 408.995C184.975 409.367 184.584 409.822 184.084 410.359L182.124 412.455V412.523H186.181V413.461H180.675Z" fill="#866857"/>
<path d="M484.949 340.636C484.949 341.557 484.783 342.352 484.45 343.023C484.118 343.693 483.662 344.21 483.082 344.574C482.503 344.938 481.841 345.119 481.097 345.119C480.352 345.119 479.69 344.938 479.111 344.574C478.531 344.21 478.075 343.693 477.743 343.023C477.41 342.352 477.244 341.557 477.244 340.636C477.244 339.716 477.41 338.92 477.743 338.25C478.075 337.58 478.531 337.062 479.111 336.699C479.69 336.335 480.352 336.153 481.097 336.153C481.841 336.153 482.503 336.335 483.082 336.699C483.662 337.062 484.118 337.58 484.45 338.25C484.783 338.92 484.949 339.716 484.949 340.636ZM483.926 340.636C483.926 339.881 483.8 339.243 483.547 338.723C483.297 338.203 482.957 337.81 482.528 337.543C482.102 337.276 481.625 337.142 481.097 337.142C480.568 337.142 480.089 337.276 479.66 337.543C479.234 337.81 478.895 338.203 478.642 338.723C478.392 339.243 478.267 339.881 478.267 340.636C478.267 341.392 478.392 342.03 478.642 342.55C478.895 343.07 479.234 343.463 479.66 343.73C480.089 343.997 480.568 344.131 481.097 344.131C481.625 344.131 482.102 343.997 482.528 343.73C482.957 343.463 483.297 343.07 483.547 342.55C483.8 342.03 483.926 341.392 483.926 340.636ZM491.856 345L488.856 340.994H487.783V345H486.726V336.273H487.783V340.057H488.243L491.737 336.273H492.998L489.47 340.108L493.118 345H491.856ZM494.484 345V336.273H497.432C498.117 336.273 498.677 336.396 499.111 336.643C499.549 336.888 499.873 337.219 500.083 337.636C500.293 338.054 500.398 338.52 500.398 339.034C500.398 339.548 500.293 340.016 500.083 340.436C499.876 340.857 499.555 341.192 499.12 341.442C498.685 341.689 498.128 341.812 497.449 341.812H495.336V340.875H497.415C497.884 340.875 498.261 340.794 498.545 340.632C498.829 340.47 499.035 340.251 499.163 339.976C499.293 339.697 499.359 339.384 499.359 339.034C499.359 338.685 499.293 338.372 499.163 338.097C499.035 337.821 498.827 337.605 498.54 337.449C498.253 337.29 497.873 337.21 497.398 337.21H495.54V345H494.484ZM502.561 345.119V344.131H503.106C503.317 344.131 503.493 344.089 503.635 344.007C503.78 343.925 503.899 343.818 503.993 343.688C504.089 343.557 504.169 343.42 504.231 343.278L504.368 342.955L501.351 336.273H502.493L504.896 341.693L507.095 336.273H508.22L505.203 343.585C505.084 343.858 504.947 344.111 504.794 344.344C504.643 344.577 504.437 344.764 504.176 344.906C503.918 345.048 503.567 345.119 503.123 345.119H502.561ZM514.754 336.273V345H513.697V336.273H514.754ZM508.856 345L511.686 340.449L509.095 336.273H510.373L512.64 340.142H515.828L518.095 336.273H519.373L516.765 340.466L519.595 345H518.384L516.015 341.131H512.436L510.049 345H508.856ZM520.98 345V336.273H522.036V340.159H526.69V336.273H527.747V345H526.69V341.097H522.036V345H520.98ZM537.226 340.636C537.226 341.557 537.06 342.352 536.728 343.023C536.395 343.693 535.939 344.21 535.36 344.574C534.78 344.938 534.118 345.119 533.374 345.119C532.63 345.119 531.968 344.938 531.388 344.574C530.809 344.21 530.353 343.693 530.02 343.023C529.688 342.352 529.522 341.557 529.522 340.636C529.522 339.716 529.688 338.92 530.02 338.25C530.353 337.58 530.809 337.062 531.388 336.699C531.968 336.335 532.63 336.153 533.374 336.153C534.118 336.153 534.78 336.335 535.36 336.699C535.939 337.062 536.395 337.58 536.728 338.25C537.06 338.92 537.226 339.716 537.226 340.636ZM536.203 340.636C536.203 339.881 536.077 339.243 535.824 338.723C535.574 338.203 535.235 337.81 534.806 337.543C534.38 337.276 533.902 337.142 533.374 337.142C532.845 337.142 532.367 337.276 531.938 337.543C531.512 337.81 531.172 338.203 530.919 338.723C530.669 339.243 530.544 339.881 530.544 340.636C530.544 341.392 530.669 342.03 530.919 342.55C531.172 343.07 531.512 343.463 531.938 343.73C532.367 343.997 532.845 344.131 533.374 344.131C533.902 344.131 534.38 343.997 534.806 343.73C535.235 343.463 535.574 343.07 535.824 342.55C536.077 342.03 536.203 341.392 536.203 340.636ZM546.026 339H544.969C544.907 338.696 544.797 338.429 544.641 338.199C544.487 337.969 544.3 337.776 544.078 337.619C543.86 337.46 543.617 337.341 543.35 337.261C543.083 337.182 542.804 337.142 542.514 337.142C541.986 337.142 541.507 337.276 541.078 337.543C540.652 337.81 540.313 338.203 540.06 338.723C539.81 339.243 539.685 339.881 539.685 340.636C539.685 341.392 539.81 342.03 540.06 342.55C540.313 343.07 540.652 343.463 541.078 343.73C541.507 343.997 541.986 344.131 542.514 344.131C542.804 344.131 543.083 344.091 543.35 344.011C543.617 343.932 543.86 343.814 544.078 343.658C544.3 343.499 544.487 343.304 544.641 343.074C544.797 342.841 544.907 342.574 544.969 342.273H546.026C545.946 342.719 545.801 343.118 545.591 343.47C545.381 343.822 545.12 344.122 544.807 344.369C544.495 344.614 544.144 344.8 543.755 344.928C543.368 345.055 542.955 345.119 542.514 345.119C541.77 345.119 541.108 344.938 540.529 344.574C539.949 344.21 539.493 343.693 539.161 343.023C538.828 342.352 538.662 341.557 538.662 340.636C538.662 339.716 538.828 338.92 539.161 338.25C539.493 337.58 539.949 337.062 540.529 336.699C541.108 336.335 541.77 336.153 542.514 336.153C542.955 336.153 543.368 336.217 543.755 336.345C544.144 336.473 544.495 336.661 544.807 336.908C545.12 337.152 545.381 337.45 545.591 337.803C545.801 338.152 545.946 338.551 546.026 339ZM547.256 337.21V336.273H553.802V337.21H551.057V345H550.001V337.21H547.256ZM556.217 339.938H558.706C559.331 339.938 559.858 340.04 560.286 340.244C560.718 340.449 561.045 340.737 561.267 341.109C561.491 341.482 561.603 341.92 561.603 342.426C561.603 342.932 561.491 343.378 561.267 343.764C561.045 344.151 560.718 344.453 560.286 344.672C559.858 344.891 559.331 345 558.706 345H555.433V336.273H556.49V344.08H558.706C559.103 344.08 559.44 344 559.715 343.841C559.994 343.679 560.204 343.472 560.346 343.219C560.491 342.963 560.563 342.693 560.563 342.409C560.563 341.991 560.403 341.632 560.082 341.331C559.761 341.027 559.302 340.875 558.706 340.875H556.217V339.938ZM477.585 351.273H478.625V358.142H478.71L483.483 351.273H484.506V360H483.449V353.148H483.364L478.608 360H477.585V351.273ZM491.751 360L488.751 355.994H487.677V360H486.62V351.273H487.677V355.057H488.137L491.632 351.273H492.893L489.365 355.108L493.012 360H491.751ZM494.378 360V351.273H497.327C498.012 351.273 498.571 351.396 499.006 351.643C499.443 351.888 499.767 352.219 499.978 352.636C500.188 353.054 500.293 353.52 500.293 354.034C500.293 354.548 500.188 355.016 499.978 355.436C499.77 355.857 499.449 356.192 499.014 356.442C498.58 356.689 498.023 356.812 497.344 356.812H495.23V355.875H497.31C497.779 355.875 498.155 355.794 498.439 355.632C498.723 355.47 498.929 355.251 499.057 354.976C499.188 354.697 499.253 354.384 499.253 354.034C499.253 353.685 499.188 353.372 499.057 353.097C498.929 352.821 498.722 352.605 498.435 352.449C498.148 352.29 497.767 352.21 497.293 352.21H495.435V360H494.378ZM502.779 354.938H505.268C505.893 354.938 506.42 355.04 506.849 355.244C507.281 355.449 507.608 355.737 507.829 356.109C508.054 356.482 508.166 356.92 508.166 357.426C508.166 357.932 508.054 358.378 507.829 358.764C507.608 359.151 507.281 359.453 506.849 359.672C506.42 359.891 505.893 360 505.268 360H501.995V351.273H503.052V359.08H505.268C505.666 359.08 506.002 359 506.278 358.841C506.556 358.679 506.767 358.472 506.909 358.219C507.054 357.963 507.126 357.693 507.126 357.409C507.126 356.991 506.965 356.632 506.644 356.331C506.323 356.027 505.865 355.875 505.268 355.875H502.779V354.938ZM510.075 351.273V360H509.018V351.273H510.075Z" fill="#866857"/>
<path d="M484.949 459.636C484.949 460.557 484.783 461.352 484.45 462.023C484.118 462.693 483.662 463.21 483.082 463.574C482.503 463.938 481.841 464.119 481.097 464.119C480.352 464.119 479.69 463.938 479.111 463.574C478.531 463.21 478.075 462.693 477.743 462.023C477.41 461.352 477.244 460.557 477.244 459.636C477.244 458.716 477.41 457.92 477.743 457.25C478.075 456.58 478.531 456.062 479.111 455.699C479.69 455.335 480.352 455.153 481.097 455.153C481.841 455.153 482.503 455.335 483.082 455.699C483.662 456.062 484.118 456.58 484.45 457.25C484.783 457.92 484.949 458.716 484.949 459.636ZM483.926 459.636C483.926 458.881 483.8 458.243 483.547 457.723C483.297 457.203 482.957 456.81 482.528 456.543C482.102 456.276 481.625 456.142 481.097 456.142C480.568 456.142 480.089 456.276 479.66 456.543C479.234 456.81 478.895 457.203 478.642 457.723C478.392 458.243 478.267 458.881 478.267 459.636C478.267 460.392 478.392 461.03 478.642 461.55C478.895 462.07 479.234 462.463 479.66 462.73C480.089 462.997 480.568 463.131 481.097 463.131C481.625 463.131 482.102 462.997 482.528 462.73C482.957 462.463 483.297 462.07 483.547 461.55C483.8 461.03 483.926 460.392 483.926 459.636ZM491.856 464L488.856 459.994H487.783V464H486.726V455.273H487.783V459.057H488.243L491.737 455.273H492.998L489.47 459.108L493.118 464H491.856ZM494.484 464V455.273H497.432C498.117 455.273 498.677 455.396 499.111 455.643C499.549 455.888 499.873 456.219 500.083 456.636C500.293 457.054 500.398 457.52 500.398 458.034C500.398 458.548 500.293 459.016 500.083 459.436C499.876 459.857 499.555 460.192 499.12 460.442C498.685 460.689 498.128 460.812 497.449 460.812H495.336V459.875H497.415C497.884 459.875 498.261 459.794 498.545 459.632C498.829 459.47 499.035 459.251 499.163 458.976C499.293 458.697 499.359 458.384 499.359 458.034C499.359 457.685 499.293 457.372 499.163 457.097C499.035 456.821 498.827 456.605 498.54 456.449C498.253 456.29 497.873 456.21 497.398 456.21H495.54V464H494.484ZM502.561 464.119V463.131H503.106C503.317 463.131 503.493 463.089 503.635 463.007C503.78 462.925 503.899 462.818 503.993 462.688C504.089 462.557 504.169 462.42 504.231 462.278L504.368 461.955L501.351 455.273H502.493L504.896 460.693L507.095 455.273H508.22L505.203 462.585C505.084 462.858 504.947 463.111 504.794 463.344C504.643 463.577 504.437 463.764 504.176 463.906C503.918 464.048 503.567 464.119 503.123 464.119H502.561ZM514.754 455.273V464H513.697V455.273H514.754ZM508.856 464L511.686 459.449L509.095 455.273H510.373L512.64 459.142H515.828L518.095 455.273H519.373L516.765 459.466L519.595 464H518.384L516.015 460.131H512.436L510.049 464H508.856ZM520.98 464V455.273H522.036V459.159H526.69V455.273H527.747V464H526.69V460.097H522.036V464H520.98ZM537.226 459.636C537.226 460.557 537.06 461.352 536.728 462.023C536.395 462.693 535.939 463.21 535.36 463.574C534.78 463.938 534.118 464.119 533.374 464.119C532.63 464.119 531.968 463.938 531.388 463.574C530.809 463.21 530.353 462.693 530.02 462.023C529.688 461.352 529.522 460.557 529.522 459.636C529.522 458.716 529.688 457.92 530.02 457.25C530.353 456.58 530.809 456.062 531.388 455.699C531.968 455.335 532.63 455.153 533.374 455.153C534.118 455.153 534.78 455.335 535.36 455.699C535.939 456.062 536.395 456.58 536.728 457.25C537.06 457.92 537.226 458.716 537.226 459.636ZM536.203 459.636C536.203 458.881 536.077 458.243 535.824 457.723C535.574 457.203 535.235 456.81 534.806 456.543C534.38 456.276 533.902 456.142 533.374 456.142C532.845 456.142 532.367 456.276 531.938 456.543C531.512 456.81 531.172 457.203 530.919 457.723C530.669 458.243 530.544 458.881 530.544 459.636C530.544 460.392 530.669 461.03 530.919 461.55C531.172 462.07 531.512 462.463 531.938 462.73C532.367 462.997 532.845 463.131 533.374 463.131C533.902 463.131 534.38 462.997 534.806 462.73C535.235 462.463 535.574 462.07 535.824 461.55C536.077 461.03 536.203 460.392 536.203 459.636ZM546.026 458H544.969C544.907 457.696 544.797 457.429 544.641 457.199C544.487 456.969 544.3 456.776 544.078 456.619C543.86 456.46 543.617 456.341 543.35 456.261C543.083 456.182 542.804 456.142 542.514 456.142C541.986 456.142 541.507 456.276 541.078 456.543C540.652 456.81 540.313 457.203 540.06 457.723C539.81 458.243 539.685 458.881 539.685 459.636C539.685 460.392 539.81 461.03 540.06 461.55C540.313 462.07 540.652 462.463 541.078 462.73C541.507 462.997 541.986 463.131 542.514 463.131C542.804 463.131 543.083 463.091 543.35 463.011C543.617 462.932 543.86 462.814 544.078 462.658C544.3 462.499 544.487 462.304 544.641 462.074C544.797 461.841 544.907 461.574 544.969 461.273H546.026C545.946 461.719 545.801 462.118 545.591 462.47C545.381 462.822 545.12 463.122 544.807 463.369C544.495 463.614 544.144 463.8 543.755 463.928C543.368 464.055 542.955 464.119 542.514 464.119C541.77 464.119 541.108 463.938 540.529 463.574C539.949 463.21 539.493 462.693 539.161 462.023C538.828 461.352 538.662 460.557 538.662 459.636C538.662 458.716 538.828 457.92 539.161 457.25C539.493 456.58 539.949 456.062 540.529 455.699C541.108 455.335 541.77 455.153 542.514 455.153C542.955 455.153 543.368 455.217 543.755 455.345C544.144 455.473 544.495 455.661 544.807 455.908C545.12 456.152 545.381 456.45 545.591 456.803C545.801 457.152 545.946 457.551 546.026 458ZM547.256 456.21V455.273H553.802V456.21H551.057V464H550.001V456.21H547.256ZM556.217 458.938H558.706C559.331 458.938 559.858 459.04 560.286 459.244C560.718 459.449 561.045 459.737 561.267 460.109C561.491 460.482 561.603 460.92 561.603 461.426C561.603 461.932 561.491 462.378 561.267 462.764C561.045 463.151 560.718 463.453 560.286 463.672C559.858 463.891 559.331 464 558.706 464H555.433V455.273H556.49V463.08H558.706C559.103 463.08 559.44 463 559.715 462.841C559.994 462.679 560.204 462.472 560.346 462.219C560.491 461.963 560.563 461.693 560.563 461.409C560.563 460.991 560.403 460.632 560.082 460.331C559.761 460.027 559.302 459.875 558.706 459.875H556.217V458.938ZM487.744 478.062L487.625 481.062H486.585V479H485.75V478.062H487.744ZM477.585 470.273H478.642V478.028H481.71V470.273H482.767V478.028H485.835V470.273H486.892V479H477.585V470.273ZM489.351 470.273H490.391V477.142H490.476L495.248 470.273H496.271V479H495.214V472.148H495.129L490.373 479H489.351V470.273ZM503.517 479L500.517 474.994H499.443V479H498.386V470.273H499.443V474.057H499.903L503.397 470.273H504.659L501.13 474.108L504.778 479H503.517ZM513.097 474.636C513.097 475.557 512.931 476.352 512.599 477.023C512.266 477.693 511.81 478.21 511.231 478.574C510.651 478.938 509.989 479.119 509.245 479.119C508.501 479.119 507.839 478.938 507.259 478.574C506.68 478.21 506.224 477.693 505.891 477.023C505.559 476.352 505.393 475.557 505.393 474.636C505.393 473.716 505.559 472.92 505.891 472.25C506.224 471.58 506.68 471.062 507.259 470.699C507.839 470.335 508.501 470.153 509.245 470.153C509.989 470.153 510.651 470.335 511.231 470.699C511.81 471.062 512.266 471.58 512.599 472.25C512.931 472.92 513.097 473.716 513.097 474.636ZM512.074 474.636C512.074 473.881 511.948 473.243 511.695 472.723C511.445 472.203 511.106 471.81 510.677 471.543C510.251 471.276 509.773 471.142 509.245 471.142C508.717 471.142 508.238 471.276 507.809 471.543C507.383 471.81 507.043 472.203 506.79 472.723C506.54 473.243 506.415 473.881 506.415 474.636C506.415 475.392 506.54 476.03 506.79 476.55C507.043 477.07 507.383 477.463 507.809 477.73C508.238 477.997 508.717 478.131 509.245 478.131C509.773 478.131 510.251 477.997 510.677 477.73C511.106 477.463 511.445 477.07 511.695 476.55C511.948 476.03 512.074 475.392 512.074 474.636ZM514.124 479V478.028H514.38C514.744 478.028 515.026 477.912 515.228 477.679C515.43 477.446 515.574 477.07 515.663 476.55C515.753 476.03 515.815 475.341 515.846 474.483L515.999 470.273H521.317V479H520.261V471.21H517.005L516.869 474.688C516.834 475.602 516.751 476.381 516.617 477.023C516.484 477.665 516.249 478.155 515.914 478.493C515.579 478.831 515.09 479 514.448 479H514.124ZM530.793 474.636C530.793 475.557 530.626 476.352 530.294 477.023C529.962 477.693 529.506 478.21 528.926 478.574C528.347 478.938 527.685 479.119 526.94 479.119C526.196 479.119 525.534 478.938 524.954 478.574C524.375 478.21 523.919 477.693 523.587 477.023C523.254 476.352 523.088 475.557 523.088 474.636C523.088 473.716 523.254 472.92 523.587 472.25C523.919 471.58 524.375 471.062 524.954 470.699C525.534 470.335 526.196 470.153 526.94 470.153C527.685 470.153 528.347 470.335 528.926 470.699C529.506 471.062 529.962 471.58 530.294 472.25C530.626 472.92 530.793 473.716 530.793 474.636ZM529.77 474.636C529.77 473.881 529.643 473.243 529.391 472.723C529.141 472.203 528.801 471.81 528.372 471.543C527.946 471.276 527.469 471.142 526.94 471.142C526.412 471.142 525.933 471.276 525.504 471.543C525.078 471.81 524.739 472.203 524.486 472.723C524.236 473.243 524.111 473.881 524.111 474.636C524.111 475.392 524.236 476.03 524.486 476.55C524.739 477.07 525.078 477.463 525.504 477.73C525.933 477.997 526.412 478.131 526.94 478.131C527.469 478.131 527.946 477.997 528.372 477.73C528.801 477.463 529.141 477.07 529.391 476.55C529.643 476.03 529.77 475.392 529.77 474.636ZM531.729 471.21V470.273H538.274V471.21H535.53V479H534.473V471.21H531.729ZM545.036 479L542.036 474.994H540.962V479H539.905V470.273H540.962V474.057H541.422L544.917 470.273H546.178L542.65 474.108L546.297 479H545.036ZM547.663 470.273H548.703V477.142H548.788L553.561 470.273H554.584V479H553.527V472.148H553.442L548.686 479H547.663V470.273Z" fill="#866857"/>
<path d="M164.817 130.989V138.262H164.157V131.586H160.24V138.262H159.576V130.989H164.817ZM166.468 140.307V132.807H167.082V133.848H167.157C167.233 133.684 167.337 133.517 167.469 133.347C167.602 133.174 167.777 133.029 167.995 132.91C168.215 132.792 168.492 132.733 168.826 132.733C169.276 132.733 169.669 132.851 170.005 133.088C170.343 133.322 170.606 133.651 170.793 134.075C170.983 134.496 171.077 134.988 171.077 135.549C171.077 136.112 170.983 136.606 170.793 137.029C170.606 137.453 170.343 137.783 170.005 138.02C169.669 138.257 169.278 138.375 168.833 138.375C168.504 138.375 168.228 138.316 168.006 138.198C167.785 138.079 167.607 137.934 167.469 137.761C167.334 137.586 167.23 137.415 167.157 137.25H167.1V140.307H166.468ZM167.093 135.538C167.093 135.978 167.158 136.369 167.288 136.71C167.421 137.048 167.61 137.315 167.856 137.509C168.105 137.701 168.406 137.797 168.758 137.797C169.121 137.797 169.426 137.697 169.675 137.498C169.926 137.297 170.116 137.026 170.246 136.685C170.379 136.344 170.445 135.962 170.445 135.538C170.445 135.119 170.38 134.741 170.25 134.405C170.122 134.069 169.933 133.803 169.682 133.606C169.431 133.407 169.123 133.308 168.758 133.308C168.403 133.308 168.101 133.404 167.853 133.596C167.604 133.785 167.415 134.048 167.285 134.384C167.157 134.718 167.093 135.102 167.093 135.538ZM174.484 138.375C174.013 138.375 173.596 138.256 173.234 138.017C172.874 137.778 172.592 137.447 172.389 137.026C172.185 136.602 172.083 136.113 172.083 135.559C172.083 135.001 172.185 134.509 172.389 134.086C172.592 133.659 172.874 133.328 173.234 133.091C173.596 132.852 174.013 132.733 174.484 132.733C174.955 132.733 175.371 132.852 175.73 133.091C176.09 133.33 176.372 133.662 176.576 134.086C176.782 134.509 176.885 135.001 176.885 135.559C176.885 136.113 176.783 136.602 176.579 137.026C176.376 137.447 176.093 137.778 175.73 138.017C175.371 138.256 174.955 138.375 174.484 138.375ZM174.484 137.797C174.863 137.797 175.184 137.695 175.446 137.491C175.709 137.288 175.908 137.016 176.043 136.678C176.18 136.339 176.249 135.967 176.249 135.559C176.249 135.152 176.18 134.778 176.043 134.437C175.908 134.096 175.709 133.823 175.446 133.617C175.184 133.411 174.863 133.308 174.484 133.308C174.108 133.308 173.787 133.411 173.522 133.617C173.259 133.823 173.059 134.096 172.922 134.437C172.787 134.778 172.719 135.152 172.719 135.559C172.719 135.967 172.787 136.339 172.922 136.678C173.059 137.016 173.259 137.288 173.522 137.491C173.784 137.695 174.105 137.797 174.484 137.797ZM181.024 137.377L183.073 132.807H183.687L181.276 138.262H180.772L178.389 132.807H178.993L181.024 137.377ZM178.804 132.807V138.262H178.172V132.807H178.804ZM183.243 138.262V132.807H183.875V138.262H183.243ZM187.66 138.375C187.151 138.375 186.711 138.257 186.339 138.02C185.968 137.781 185.68 137.451 185.476 137.029C185.275 136.606 185.174 136.118 185.174 135.566C185.174 135.017 185.275 134.529 185.476 134.103C185.68 133.675 185.96 133.34 186.318 133.098C186.678 132.855 187.093 132.733 187.564 132.733C187.86 132.733 188.146 132.787 188.42 132.896C188.695 133.002 188.941 133.167 189.159 133.39C189.379 133.61 189.553 133.888 189.681 134.224C189.809 134.558 189.873 134.953 189.873 135.41V135.723H185.611V135.165H189.226C189.226 134.815 189.155 134.5 189.013 134.221C188.874 133.939 188.678 133.716 188.427 133.553C188.179 133.39 187.891 133.308 187.564 133.308C187.219 133.308 186.915 133.4 186.652 133.585C186.389 133.77 186.183 134.013 186.034 134.316C185.887 134.619 185.813 134.951 185.81 135.311V135.645C185.81 136.078 185.885 136.457 186.034 136.781C186.185 137.103 186.4 137.353 186.677 137.53C186.954 137.708 187.281 137.797 187.66 137.797C187.918 137.797 188.144 137.756 188.339 137.676C188.535 137.595 188.7 137.488 188.832 137.353C188.967 137.215 189.069 137.065 189.138 136.902L189.738 137.097C189.655 137.327 189.519 137.538 189.329 137.733C189.142 137.927 188.908 138.083 188.626 138.201C188.347 138.317 188.025 138.375 187.66 138.375ZM190.678 138.262L193.086 135.506L190.71 132.807H191.481L193.572 135.233H193.938V132.807H194.574V135.233H194.932L197.024 132.807H197.795L195.426 135.506L197.827 138.262H197.045L194.922 135.829H194.574V138.262H193.938V135.829H193.59L191.459 138.262H190.678ZM202.736 135.24V135.836H199.53V135.24H202.736ZM199.686 132.807V138.262H199.054V132.807H199.686ZM203.202 132.807V138.262H202.569V132.807H203.202ZM206.904 138.375C206.433 138.375 206.016 138.256 205.654 138.017C205.294 137.778 205.012 137.447 204.809 137.026C204.605 136.602 204.503 136.113 204.503 135.559C204.503 135.001 204.605 134.509 204.809 134.086C205.012 133.659 205.294 133.328 205.654 133.091C206.016 132.852 206.433 132.733 206.904 132.733C207.375 132.733 207.791 132.852 208.15 133.091C208.51 133.33 208.792 133.662 208.996 134.086C209.202 134.509 209.305 135.001 209.305 135.559C209.305 136.113 209.203 136.602 208.999 137.026C208.796 137.447 208.513 137.778 208.15 138.017C207.791 138.256 207.375 138.375 206.904 138.375ZM206.904 137.797C207.283 137.797 207.604 137.695 207.866 137.491C208.129 137.288 208.328 137.016 208.463 136.678C208.6 136.339 208.669 135.967 208.669 135.559C208.669 135.152 208.6 134.778 208.463 134.437C208.328 134.096 208.129 133.823 207.866 133.617C207.604 133.411 207.283 133.308 206.904 133.308C206.528 133.308 206.207 133.411 205.942 133.617C205.679 133.823 205.479 134.096 205.341 134.437C205.207 134.778 205.139 135.152 205.139 135.559C205.139 135.967 205.207 136.339 205.341 136.678C205.479 137.016 205.679 137.288 205.942 137.491C206.204 137.695 206.525 137.797 206.904 137.797ZM212.723 138.375C212.235 138.375 211.81 138.253 211.448 138.01C211.088 137.766 210.809 137.432 210.61 137.008C210.411 136.584 210.312 136.101 210.312 135.559C210.312 135.012 210.412 134.526 210.613 134.1C210.817 133.674 211.099 133.34 211.459 133.098C211.818 132.855 212.236 132.733 212.712 132.733C213.077 132.733 213.407 132.804 213.703 132.946C213.999 133.085 214.243 133.283 214.434 133.539C214.629 133.792 214.751 134.088 214.8 134.426H214.161C214.095 134.119 213.935 133.856 213.682 133.638C213.431 133.418 213.111 133.308 212.723 133.308C212.375 133.308 212.067 133.403 211.8 133.592C211.532 133.779 211.322 134.041 211.171 134.377C211.022 134.711 210.947 135.098 210.947 135.538C210.947 135.981 211.021 136.373 211.167 136.713C211.314 137.052 211.52 137.317 211.785 137.509C212.053 137.701 212.365 137.797 212.723 137.797C212.964 137.797 213.184 137.752 213.383 137.662C213.585 137.569 213.753 137.439 213.888 137.271C214.025 137.103 214.117 136.903 214.165 136.671H214.804C214.756 137 214.639 137.293 214.452 137.551C214.268 137.807 214.027 138.008 213.731 138.155C213.438 138.302 213.102 138.375 212.723 138.375ZM215.608 133.404V132.807H219.869V133.404H218.065V138.262H217.433V133.404H215.608ZM221.631 134.913H223.225C223.838 134.913 224.312 135.062 224.646 135.36C224.979 135.659 225.146 136.062 225.146 136.571C225.146 136.91 225.072 137.206 224.922 137.459C224.773 137.712 224.556 137.91 224.269 138.052C223.983 138.192 223.635 138.262 223.225 138.262H221.105V132.807H221.737V137.665H223.225C223.611 137.665 223.922 137.573 224.159 137.388C224.396 137.203 224.514 136.941 224.514 136.6C224.514 136.252 224.396 135.983 224.159 135.794C223.922 135.604 223.611 135.51 223.225 135.51H221.631V134.913Z" fill="black" fill-opacity="0.5"/>
<path d="M227.691 485.528V492.801H227.031V486.125H223.114V492.801H222.45V485.528H227.691ZM231.462 492.914C230.991 492.914 230.574 492.795 230.212 492.556C229.852 492.317 229.57 491.986 229.367 491.565C229.163 491.141 229.061 490.652 229.061 490.098C229.061 489.54 229.163 489.048 229.367 488.625C229.57 488.199 229.852 487.867 230.212 487.63C230.574 487.391 230.991 487.272 231.462 487.272C231.933 487.272 232.349 487.391 232.708 487.63C233.068 487.869 233.35 488.201 233.554 488.625C233.76 489.048 233.863 489.54 233.863 490.098C233.863 490.652 233.761 491.141 233.557 491.565C233.354 491.986 233.071 492.317 232.708 492.556C232.349 492.795 231.933 492.914 231.462 492.914ZM231.462 492.336C231.841 492.336 232.162 492.234 232.424 492.03C232.687 491.827 232.886 491.556 233.021 491.217C233.158 490.878 233.227 490.506 233.227 490.098C233.227 489.691 233.158 489.317 233.021 488.976C232.886 488.635 232.687 488.362 232.424 488.156C232.162 487.95 231.841 487.847 231.462 487.847C231.086 487.847 230.765 487.95 230.5 488.156C230.237 488.362 230.037 488.635 229.899 488.976C229.765 489.317 229.697 489.691 229.697 490.098C229.697 490.506 229.765 490.878 229.899 491.217C230.037 491.556 230.237 491.827 230.5 492.03C230.762 492.234 231.083 492.336 231.462 492.336ZM234.614 492.801V492.204H234.784C234.979 492.204 235.135 492.169 235.253 492.098C235.374 492.024 235.467 491.901 235.534 491.728C235.6 491.556 235.65 491.32 235.683 491.022C235.716 490.723 235.742 490.349 235.761 489.9L235.878 487.346H239.344V492.801H238.708V487.943H236.478L236.375 490.113C236.354 490.555 236.318 490.945 236.269 491.281C236.221 491.617 236.143 491.898 236.034 492.123C235.928 492.347 235.779 492.517 235.587 492.63C235.398 492.744 235.149 492.801 234.841 492.801H234.614Z" fill="black" fill-opacity="0.5"/>
<path d="M222.503 335.363V328.091H223.167V331.425H227.294V328.091H227.958V335.363H227.294V332.022H223.167V335.363H222.503ZM231.178 335.488C230.849 335.488 230.548 335.424 230.276 335.296C230.004 335.166 229.787 334.979 229.626 334.735C229.465 334.489 229.385 334.19 229.385 333.84C229.385 333.57 229.435 333.343 229.537 333.158C229.639 332.973 229.783 332.822 229.97 332.703C230.158 332.585 230.379 332.492 230.635 332.423C230.89 332.354 231.172 332.301 231.48 332.263C231.785 332.225 232.043 332.192 232.254 332.164C232.467 332.135 232.629 332.09 232.74 332.029C232.852 331.967 232.907 331.868 232.907 331.73V331.603C232.907 331.231 232.796 330.939 232.573 330.725C232.353 330.51 232.036 330.402 231.622 330.402C231.229 330.402 230.908 330.489 230.659 330.662C230.413 330.834 230.24 331.038 230.141 331.272L229.541 331.056C229.664 330.757 229.834 330.52 230.052 330.342C230.27 330.162 230.514 330.033 230.784 329.955C231.054 329.874 231.327 329.834 231.604 329.834C231.812 329.834 232.029 329.861 232.254 329.916C232.481 329.97 232.692 330.065 232.886 330.2C233.08 330.333 233.238 330.518 233.358 330.757C233.479 330.994 233.539 331.295 233.539 331.659V335.363H232.907V334.5H232.868C232.792 334.661 232.68 334.818 232.531 334.969C232.382 335.121 232.195 335.245 231.97 335.342C231.745 335.439 231.481 335.488 231.178 335.488ZM231.263 334.909C231.599 334.909 231.89 334.834 232.137 334.685C232.383 334.536 232.572 334.338 232.705 334.092C232.84 333.843 232.907 333.57 232.907 333.272V332.483C232.86 332.528 232.781 332.569 232.669 332.604C232.56 332.64 232.434 332.672 232.289 332.7C232.147 332.726 232.005 332.748 231.863 332.767C231.721 332.786 231.593 332.803 231.48 332.817C231.172 332.855 230.909 332.914 230.691 332.995C230.474 333.075 230.307 333.186 230.191 333.328C230.075 333.468 230.017 333.648 230.017 333.868C230.017 334.2 230.135 334.457 230.372 334.639C230.609 334.819 230.906 334.909 231.263 334.909ZM240.17 335.463C239.723 335.463 239.322 335.382 238.97 335.221C238.617 335.058 238.338 334.832 238.132 334.543C237.926 334.254 237.817 333.922 237.805 333.545H238.476C238.488 333.81 238.57 334.042 238.721 334.241C238.873 334.438 239.074 334.592 239.325 334.703C239.576 334.812 239.855 334.866 240.163 334.866C240.499 334.866 240.795 334.803 241.051 334.678C241.309 334.552 241.51 334.381 241.654 334.163C241.801 333.943 241.875 333.694 241.875 333.417C241.875 333.124 241.8 332.864 241.651 332.64C241.502 332.415 241.287 332.239 241.008 332.114C240.731 331.989 240.4 331.926 240.014 331.926H239.588V331.329H240.014C240.329 331.329 240.607 331.272 240.848 331.159C241.092 331.043 241.284 330.881 241.424 330.672C241.563 330.464 241.633 330.219 241.633 329.937C241.633 329.67 241.573 329.434 241.452 329.23C241.331 329.027 241.161 328.867 240.941 328.751C240.723 328.635 240.468 328.577 240.177 328.577C239.895 328.577 239.637 328.632 239.403 328.74C239.169 328.849 238.979 329.003 238.835 329.202C238.693 329.401 238.617 329.636 238.607 329.909H237.965C237.974 329.53 238.078 329.197 238.277 328.911C238.478 328.622 238.745 328.397 239.076 328.236C239.41 328.073 239.779 327.991 240.184 327.991C240.613 327.991 240.983 328.079 241.296 328.254C241.608 328.429 241.85 328.662 242.02 328.953C242.193 329.242 242.279 329.561 242.279 329.909C242.279 330.323 242.167 330.678 241.942 330.974C241.717 331.268 241.414 331.471 241.033 331.585V331.631C241.497 331.723 241.862 331.929 242.127 332.249C242.394 332.566 242.528 332.956 242.528 333.417C242.528 333.806 242.426 334.155 242.223 334.465C242.019 334.773 241.74 335.016 241.384 335.196C241.032 335.374 240.627 335.463 240.17 335.463ZM248.866 335.477C248.378 335.477 247.953 335.355 247.591 335.111C247.231 334.867 246.952 334.533 246.753 334.11C246.554 333.686 246.454 333.203 246.454 332.661C246.454 332.114 246.555 331.627 246.756 331.201C246.96 330.775 247.242 330.441 247.601 330.2C247.961 329.956 248.379 329.834 248.855 329.834C249.22 329.834 249.55 329.905 249.846 330.047C250.142 330.187 250.385 330.385 250.577 330.64C250.771 330.894 250.893 331.19 250.943 331.528H250.304C250.238 331.22 250.078 330.958 249.824 330.74C249.573 330.52 249.254 330.409 248.866 330.409C248.518 330.409 248.21 330.504 247.942 330.694C247.675 330.881 247.465 331.142 247.314 331.478C247.165 331.812 247.09 332.199 247.09 332.64C247.09 333.082 247.163 333.474 247.31 333.815C247.457 334.154 247.663 334.419 247.928 334.61C248.196 334.802 248.508 334.898 248.866 334.898C249.107 334.898 249.327 334.853 249.526 334.763C249.727 334.671 249.895 334.541 250.03 334.373C250.168 334.204 250.26 334.004 250.307 333.772H250.947C250.899 334.101 250.782 334.395 250.595 334.653C250.41 334.909 250.17 335.11 249.874 335.257C249.581 335.404 249.244 335.477 248.866 335.477ZM255.053 334.479L257.102 329.909H257.716L255.305 335.363H254.801L252.418 329.909H253.022L255.053 334.479ZM252.833 329.909V335.363H252.201V329.909H252.833ZM257.272 335.363V329.909H257.904V335.363H257.272ZM226.054 343.341V343.938H222.847V343.341H226.054ZM223.004 340.909V346.363H222.372V340.909H223.004ZM226.519 340.909V346.363H225.887V340.909H226.519ZM228.734 345.465L231.614 340.909H232.37V346.363H231.738V341.807L228.869 346.363H228.102V340.909H228.734V345.465ZM233.598 346.363L236.006 343.608L233.63 340.909H234.401L236.492 343.334H236.858V340.909H237.494V343.334H237.853L239.944 340.909H240.715L238.346 343.608L240.747 346.363H239.965L237.842 343.931H237.494V346.363H236.858V343.931H236.51L234.38 346.363H233.598ZM243.955 346.477C243.446 346.477 243.005 346.359 242.634 346.122C242.262 345.883 241.974 345.552 241.771 345.131C241.569 344.707 241.469 344.22 241.469 343.668C241.469 343.119 241.569 342.631 241.771 342.205C241.974 341.776 242.255 341.441 242.612 341.2C242.972 340.956 243.388 340.834 243.859 340.834C244.155 340.834 244.44 340.889 244.715 340.998C244.989 341.104 245.235 341.269 245.453 341.491C245.673 341.711 245.847 341.989 245.975 342.326C246.103 342.659 246.167 343.055 246.167 343.512V343.824H241.906V343.267H245.521C245.521 342.916 245.45 342.601 245.308 342.322C245.168 342.04 244.973 341.818 244.722 341.654C244.473 341.491 244.185 341.409 243.859 341.409C243.513 341.409 243.209 341.502 242.946 341.686C242.683 341.871 242.477 342.115 242.328 342.418C242.181 342.721 242.107 343.052 242.104 343.412V343.746C242.104 344.179 242.179 344.558 242.328 344.882C242.48 345.204 242.694 345.454 242.971 345.632C243.248 345.809 243.576 345.898 243.955 345.898C244.213 345.898 244.439 345.858 244.633 345.777C244.829 345.697 244.994 345.589 245.126 345.454C245.261 345.317 245.363 345.167 245.432 345.003L246.032 345.199C245.949 345.428 245.813 345.64 245.624 345.834C245.437 346.028 245.202 346.185 244.921 346.303C244.641 346.419 244.319 346.477 243.955 346.477ZM222.372 357.363V351.909H223.004V354.363H223.597L225.624 351.909H226.441L224.254 354.533L226.491 357.363H225.674L223.792 354.959H223.004V357.363H222.372ZM229.323 357.477C228.852 357.477 228.436 357.357 228.073 357.118C227.713 356.879 227.432 356.549 227.228 356.127C227.025 355.704 226.923 355.215 226.923 354.661C226.923 354.102 227.025 353.611 227.228 353.187C227.432 352.761 227.713 352.43 228.073 352.193C228.436 351.954 228.852 351.834 229.323 351.834C229.794 351.834 230.21 351.954 230.57 352.193C230.93 352.432 231.211 352.763 231.415 353.187C231.621 353.611 231.724 354.102 231.724 354.661C231.724 355.215 231.622 355.704 231.418 356.127C231.215 356.549 230.932 356.879 230.57 357.118C230.21 357.357 229.794 357.477 229.323 357.477ZM229.323 356.898C229.702 356.898 230.023 356.796 230.286 356.593C230.548 356.389 230.747 356.118 230.882 355.779C231.02 355.441 231.088 355.068 231.088 354.661C231.088 354.254 231.02 353.88 230.882 353.539C230.747 353.198 230.548 352.924 230.286 352.718C230.023 352.512 229.702 352.409 229.323 352.409C228.947 352.409 228.626 352.512 228.361 352.718C228.098 352.924 227.898 353.198 227.761 353.539C227.626 353.88 227.558 354.254 227.558 354.661C227.558 355.068 227.626 355.441 227.761 355.779C227.898 356.118 228.098 356.389 228.361 356.593C228.624 356.796 228.945 356.898 229.323 356.898ZM232.475 357.363V356.767H232.646C232.84 356.767 232.996 356.731 233.114 356.66C233.235 356.587 233.329 356.464 233.395 356.291C233.461 356.118 233.511 355.882 233.544 355.584C233.577 355.286 233.603 354.912 233.622 354.462L233.739 351.909H237.205V357.363H236.57V352.505H234.34L234.237 354.675C234.215 355.118 234.18 355.507 234.13 355.843C234.083 356.18 234.005 356.46 233.896 356.685C233.789 356.91 233.64 357.079 233.448 357.193C233.259 357.306 233.01 357.363 232.703 357.363H232.475ZM240.986 357.477C240.477 357.477 240.037 357.359 239.665 357.122C239.293 356.883 239.006 356.552 238.802 356.131C238.601 355.707 238.5 355.22 238.5 354.668C238.5 354.119 238.601 353.631 238.802 353.205C239.006 352.776 239.286 352.441 239.644 352.2C240.003 351.956 240.419 351.834 240.89 351.834C241.186 351.834 241.471 351.889 241.746 351.998C242.02 352.104 242.267 352.269 242.484 352.491C242.705 352.711 242.879 352.989 243.006 353.326C243.134 353.659 243.198 354.055 243.198 354.512V354.824H238.937V354.267H242.552C242.552 353.916 242.481 353.601 242.339 353.322C242.199 353.04 242.004 352.818 241.753 352.654C241.504 352.491 241.217 352.409 240.89 352.409C240.544 352.409 240.24 352.502 239.977 352.686C239.715 352.871 239.509 353.115 239.359 353.418C239.213 353.721 239.138 354.052 239.136 354.412V354.746C239.136 355.179 239.21 355.558 239.359 355.882C239.511 356.204 239.725 356.454 240.002 356.632C240.279 356.809 240.607 356.898 240.986 356.898C241.244 356.898 241.47 356.858 241.664 356.777C241.861 356.697 242.025 356.589 242.158 356.454C242.293 356.317 242.394 356.167 242.463 356.003L243.063 356.199C242.98 356.428 242.844 356.64 242.655 356.834C242.468 357.028 242.233 357.185 241.952 357.303C241.672 357.419 241.35 357.477 240.986 357.477ZM248.174 354.341V354.938H244.967V354.341H248.174ZM245.123 351.909V357.363H244.491V351.909H245.123ZM248.639 351.909V357.363H248.007V351.909H248.639ZM251.745 357.488C251.416 357.488 251.115 357.424 250.843 357.296C250.57 357.166 250.354 356.979 250.193 356.735C250.032 356.489 249.951 356.19 249.951 355.84C249.951 355.57 250.002 355.343 250.104 355.158C250.206 354.973 250.35 354.822 250.537 354.703C250.724 354.585 250.946 354.492 251.201 354.423C251.457 354.354 251.739 354.301 252.047 354.263C252.352 354.225 252.61 354.192 252.821 354.164C253.034 354.135 253.196 354.09 253.307 354.029C253.418 353.967 253.474 353.868 253.474 353.73V353.603C253.474 353.231 253.363 352.939 253.14 352.725C252.92 352.51 252.603 352.402 252.189 352.402C251.796 352.402 251.475 352.489 251.226 352.662C250.98 352.834 250.807 353.038 250.708 353.272L250.108 353.056C250.231 352.757 250.401 352.52 250.619 352.342C250.837 352.162 251.081 352.033 251.35 351.955C251.62 351.874 251.894 351.834 252.171 351.834C252.379 351.834 252.596 351.861 252.821 351.916C253.048 351.97 253.259 352.065 253.453 352.2C253.647 352.333 253.804 352.518 253.925 352.757C254.046 352.994 254.106 353.295 254.106 353.659V357.363H253.474V356.5H253.435C253.359 356.661 253.247 356.818 253.098 356.969C252.949 357.121 252.761 357.245 252.537 357.342C252.312 357.439 252.048 357.488 251.745 357.488ZM251.83 356.909C252.166 356.909 252.457 356.834 252.703 356.685C252.95 356.536 253.139 356.338 253.272 356.092C253.407 355.843 253.474 355.57 253.474 355.272V354.483C253.427 354.528 253.347 354.569 253.236 354.604C253.127 354.64 253.001 354.672 252.856 354.7C252.714 354.726 252.572 354.748 252.43 354.767C252.288 354.786 252.16 354.803 252.047 354.817C251.739 354.855 251.476 354.914 251.258 354.995C251.04 355.075 250.873 355.186 250.757 355.328C250.641 355.468 250.583 355.648 250.583 355.868C250.583 356.2 250.702 356.457 250.939 356.639C251.175 356.819 251.472 356.909 251.83 356.909Z" fill="black" fill-opacity="0.5"/>
</svg>
