<svg width="373" height="327" viewBox="0 0 373 327" fill="none" xmlns="http://www.w3.org/2000/svg">
<path d="M187 104H60" stroke="#866857" stroke-width="0.5" stroke-miterlimit="10" stroke-dasharray="3 3"/>
<path d="M231 301.551H60" stroke="#866857" stroke-miterlimit="10"/>
<path d="M215.09 43C221.827 44.287 226 46.0185 226 47.9352C226 51.8518 208.538 55 187 55C165.462 55 148 51.8518 148 47.9352C148 46.3611 150.798 44.9167 155.498 43.7685" stroke="#866857" stroke-width="2" stroke-miterlimit="10" stroke-linecap="round"/>
<path d="M222.568 150C226.557 150.989 229 152.265 229 153.699C229 156.666 218.7 159 206.009 159C193.318 159 183 156.646 183 153.699C183 152.522 184.652 151.424 187.407 150.564" stroke="#866857" stroke-width="2" stroke-miterlimit="10" stroke-linecap="round"/>
<path d="M231.199 93C241 94.5385 247 96.5231 247 98.7538C247 103.369 221.697 107 190.521 107C159.346 107 134 103.338 134 98.7538C134 96.9231 138.057 95.2154 144.826 93.8769" stroke="#866857" stroke-width="2" stroke-miterlimit="10" stroke-linecap="round"/>
<path d="M210.728 277.852C212.714 278.226 213.91 278.745 213.91 279.322C213.91 280.488 208.787 281.426 202.455 281.426C196.123 281.426 191 280.488 191 279.322C191 278.853 191.815 278.422 193.183 278.086" stroke="#866857" stroke-width="2" stroke-miterlimit="10" stroke-linecap="round"/>
<path d="M60.3536 103.646C60.1583 103.451 59.8417 103.451 59.6464 103.646L56.4645 106.828C56.2692 107.024 56.2692 107.34 56.4645 107.536C56.6597 107.731 56.9763 107.731 57.1716 107.536L60 104.707L62.8284 107.536C63.0237 107.731 63.3403 107.731 63.5355 107.536C63.7308 107.34 63.7308 107.024 63.5355 106.828L60.3536 103.646ZM59.6465 301.354C59.8417 301.549 60.1583 301.549 60.3536 301.354L63.5355 298.172C63.7308 297.976 63.7308 297.66 63.5355 297.464C63.3403 297.269 63.0237 297.269 62.8284 297.464L60 300.293L57.1716 297.464C56.9763 297.269 56.6597 297.269 56.4645 297.464C56.2692 297.66 56.2692 297.976 56.4645 298.172L59.6465 301.354ZM60 104L59.5 104L59.5 301L60 301L60.5 301L60.5 104L60 104Z" fill="#866857"/>
<path d="M265.42 41.6364C265.42 42.5568 265.254 43.3523 264.922 44.0227C264.589 44.6932 264.134 45.2102 263.554 45.5739C262.974 45.9375 262.313 46.1193 261.568 46.1193C260.824 46.1193 260.162 45.9375 259.582 45.5739C259.003 45.2102 258.547 44.6932 258.214 44.0227C257.882 43.3523 257.716 42.5568 257.716 41.6364C257.716 40.7159 257.882 39.9205 258.214 39.25C258.547 38.5795 259.003 38.0625 259.582 37.6989C260.162 37.3352 260.824 37.1534 261.568 37.1534C262.313 37.1534 262.974 37.3352 263.554 37.6989C264.134 38.0625 264.589 38.5795 264.922 39.25C265.254 39.9205 265.42 40.7159 265.42 41.6364ZM264.398 41.6364C264.398 40.8807 264.271 40.2429 264.018 39.723C263.768 39.2031 263.429 38.8097 263 38.5426C262.574 38.2756 262.097 38.142 261.568 38.142C261.04 38.142 260.561 38.2756 260.132 38.5426C259.706 38.8097 259.366 39.2031 259.114 39.723C258.864 40.2429 258.739 40.8807 258.739 41.6364C258.739 42.392 258.864 43.0298 259.114 43.5497C259.366 44.0696 259.706 44.4631 260.132 44.7301C260.561 44.9972 261.04 45.1307 261.568 45.1307C262.097 45.1307 262.574 44.9972 263 44.7301C263.429 44.4631 263.768 44.0696 264.018 43.5497C264.271 43.0298 264.398 42.392 264.398 41.6364ZM272.328 46L269.328 41.9943H268.254V46H267.197V37.2727H268.254V41.0568H268.714L272.209 37.2727H273.47L269.942 41.108L273.589 46H272.328ZM274.955 46V37.2727H277.904C278.589 37.2727 279.148 37.3963 279.583 37.6435C280.021 37.8878 280.344 38.2188 280.555 38.6364C280.765 39.054 280.87 39.5199 280.87 40.0341C280.87 40.5483 280.765 41.0156 280.555 41.4361C280.347 41.8565 280.026 42.1918 279.592 42.4418C279.157 42.6889 278.6 42.8125 277.921 42.8125H275.808V41.875H277.887C278.356 41.875 278.732 41.794 279.016 41.6321C279.3 41.4702 279.506 41.2514 279.634 40.9759C279.765 40.6974 279.83 40.3835 279.83 40.0341C279.83 39.6847 279.765 39.3722 279.634 39.0966C279.506 38.821 279.299 38.6051 279.012 38.4489C278.725 38.2898 278.344 38.2102 277.87 38.2102H276.012V46H274.955ZM283.033 46.1193V45.1307H283.578C283.788 45.1307 283.964 45.0895 284.107 45.0071C284.251 44.9247 284.371 44.8182 284.464 44.6875C284.561 44.5568 284.641 44.4205 284.703 44.2784L284.839 43.9545L281.822 37.2727H282.964L285.368 42.6932L287.567 37.2727H288.692L285.675 44.5852C285.555 44.858 285.419 45.1108 285.266 45.3438C285.115 45.5767 284.909 45.7642 284.648 45.9062C284.389 46.0483 284.038 46.1193 283.595 46.1193H283.033ZM295.225 37.2727V46H294.169V37.2727H295.225ZM289.328 46L292.157 41.4489L289.566 37.2727H290.845L293.112 41.142H296.299L298.566 37.2727H299.845L297.237 41.4659L300.066 46H298.856L296.487 42.1307H292.907L290.521 46H289.328ZM301.451 46V37.2727H302.508V41.1591H307.162V37.2727H308.218V46H307.162V42.0966H302.508V46H301.451ZM317.698 41.6364C317.698 42.5568 317.532 43.3523 317.199 44.0227C316.867 44.6932 316.411 45.2102 315.831 45.5739C315.252 45.9375 314.59 46.1193 313.846 46.1193C313.101 46.1193 312.439 45.9375 311.86 45.5739C311.28 45.2102 310.824 44.6932 310.492 44.0227C310.159 43.3523 309.993 42.5568 309.993 41.6364C309.993 40.7159 310.159 39.9205 310.492 39.25C310.824 38.5795 311.28 38.0625 311.86 37.6989C312.439 37.3352 313.101 37.1534 313.846 37.1534C314.59 37.1534 315.252 37.3352 315.831 37.6989C316.411 38.0625 316.867 38.5795 317.199 39.25C317.532 39.9205 317.698 40.7159 317.698 41.6364ZM316.675 41.6364C316.675 40.8807 316.549 40.2429 316.296 39.723C316.046 39.2031 315.706 38.8097 315.277 38.5426C314.851 38.2756 314.374 38.142 313.846 38.142C313.317 38.142 312.838 38.2756 312.409 38.5426C311.983 38.8097 311.644 39.2031 311.391 39.723C311.141 40.2429 311.016 40.8807 311.016 41.6364C311.016 42.392 311.141 43.0298 311.391 43.5497C311.644 44.0696 311.983 44.4631 312.409 44.7301C312.838 44.9972 313.317 45.1307 313.846 45.1307C314.374 45.1307 314.851 44.9972 315.277 44.7301C315.706 44.4631 316.046 44.0696 316.296 43.5497C316.549 43.0298 316.675 42.392 316.675 41.6364ZM326.498 40H325.441C325.378 39.696 325.269 39.429 325.113 39.1989C324.959 38.9688 324.772 38.7756 324.55 38.6193C324.331 38.4602 324.088 38.3409 323.821 38.2614C323.554 38.1818 323.276 38.142 322.986 38.142C322.458 38.142 321.979 38.2756 321.55 38.5426C321.124 38.8097 320.784 39.2031 320.532 39.723C320.282 40.2429 320.157 40.8807 320.157 41.6364C320.157 42.392 320.282 43.0298 320.532 43.5497C320.784 44.0696 321.124 44.4631 321.55 44.7301C321.979 44.9972 322.458 45.1307 322.986 45.1307C323.276 45.1307 323.554 45.0909 323.821 45.0114C324.088 44.9318 324.331 44.8139 324.55 44.6577C324.772 44.4986 324.959 44.304 325.113 44.0739C325.269 43.8409 325.378 43.5739 325.441 43.2727H326.498C326.418 43.7187 326.273 44.1179 326.063 44.4702C325.853 44.8224 325.591 45.1222 325.279 45.3693C324.966 45.6136 324.615 45.7997 324.226 45.9276C323.84 46.0554 323.426 46.1193 322.986 46.1193C322.242 46.1193 321.58 45.9375 321 45.5739C320.421 45.2102 319.965 44.6932 319.632 44.0227C319.3 43.3523 319.134 42.5568 319.134 41.6364C319.134 40.7159 319.3 39.9205 319.632 39.25C319.965 38.5795 320.421 38.0625 321 37.6989C321.58 37.3352 322.242 37.1534 322.986 37.1534C323.426 37.1534 323.84 37.2173 324.226 37.3452C324.615 37.473 324.966 37.6605 325.279 37.9077C325.591 38.152 325.853 38.4503 326.063 38.8026C326.273 39.152 326.418 39.5511 326.498 40ZM327.728 38.2102V37.2727H334.273V38.2102H331.529V46H330.472V38.2102H327.728ZM336.689 40.9375H339.177C339.802 40.9375 340.329 41.0398 340.758 41.2443C341.19 41.4489 341.517 41.7372 341.738 42.1094C341.963 42.4815 342.075 42.9205 342.075 43.4261C342.075 43.9318 341.963 44.3778 341.738 44.7642C341.517 45.1506 341.19 45.4531 340.758 45.6719C340.329 45.8906 339.802 46 339.177 46H335.904V37.2727H336.961V45.0795H339.177C339.575 45.0795 339.912 45 340.187 44.8409C340.466 44.679 340.676 44.4716 340.818 44.2188C340.963 43.9631 341.035 43.6932 341.035 43.4091C341.035 42.9915 340.875 42.6321 340.554 42.331C340.233 42.027 339.774 41.875 339.177 41.875H336.689V40.9375ZM257.58 53.2102V52.2727H264.125V53.2102H261.381V61H260.324V53.2102H257.58ZM265.094 61H263.987L267.191 52.2727H268.282L271.487 61H270.379L267.771 53.6534H267.702L265.094 61ZM265.504 57.5909H269.969V58.5284H265.504V57.5909ZM272.096 61V60.0284H272.352C272.715 60.0284 272.998 59.9119 273.2 59.679C273.401 59.446 273.546 59.0696 273.634 58.5497C273.725 58.0298 273.786 57.3409 273.817 56.483L273.971 52.2727H279.289V61H278.232V53.2102H274.977L274.84 56.6875C274.806 57.6023 274.722 58.3807 274.589 59.0227C274.455 59.6648 274.221 60.1548 273.886 60.4929C273.55 60.831 273.062 61 272.42 61H272.096ZM281.401 52.2727H282.44V59.142H282.526L287.298 52.2727H288.321V61H287.264V54.1477H287.179L282.423 61H281.401V52.2727ZM290.436 52.2727H291.475V59.142H291.561L296.333 52.2727H297.356V61H296.299V54.1477H296.214L291.458 61H290.436V52.2727Z" fill="#866857"/>
<path d="M41.0568 194.551V185.824H42.1136V189.71H46.767V185.824H47.8239V194.551H46.767V190.647H42.1136V194.551H41.0568ZM52.8544 185.824V194.551H51.7976V186.931H51.7464L49.6158 188.346V187.272L51.7976 185.824H52.8544Z" fill="#866857"/>
<path d="M265.42 88.6364C265.42 89.5568 265.254 90.3523 264.922 91.0227C264.589 91.6932 264.134 92.2102 263.554 92.5739C262.974 92.9375 262.313 93.1193 261.568 93.1193C260.824 93.1193 260.162 92.9375 259.582 92.5739C259.003 92.2102 258.547 91.6932 258.214 91.0227C257.882 90.3523 257.716 89.5568 257.716 88.6364C257.716 87.7159 257.882 86.9205 258.214 86.25C258.547 85.5795 259.003 85.0625 259.582 84.6989C260.162 84.3352 260.824 84.1534 261.568 84.1534C262.313 84.1534 262.974 84.3352 263.554 84.6989C264.134 85.0625 264.589 85.5795 264.922 86.25C265.254 86.9205 265.42 87.7159 265.42 88.6364ZM264.398 88.6364C264.398 87.8807 264.271 87.2429 264.018 86.723C263.768 86.2031 263.429 85.8097 263 85.5426C262.574 85.2756 262.097 85.142 261.568 85.142C261.04 85.142 260.561 85.2756 260.132 85.5426C259.706 85.8097 259.366 86.2031 259.114 86.723C258.864 87.2429 258.739 87.8807 258.739 88.6364C258.739 89.392 258.864 90.0298 259.114 90.5497C259.366 91.0696 259.706 91.4631 260.132 91.7301C260.561 91.9972 261.04 92.1307 261.568 92.1307C262.097 92.1307 262.574 91.9972 263 91.7301C263.429 91.4631 263.768 91.0696 264.018 90.5497C264.271 90.0298 264.398 89.392 264.398 88.6364ZM272.328 93L269.328 88.9943H268.254V93H267.197V84.2727H268.254V88.0568H268.714L272.209 84.2727H273.47L269.942 88.108L273.589 93H272.328ZM274.955 93V84.2727H277.904C278.589 84.2727 279.148 84.3963 279.583 84.6435C280.021 84.8878 280.344 85.2188 280.555 85.6364C280.765 86.054 280.87 86.5199 280.87 87.0341C280.87 87.5483 280.765 88.0156 280.555 88.4361C280.347 88.8565 280.026 89.1918 279.592 89.4418C279.157 89.6889 278.6 89.8125 277.921 89.8125H275.808V88.875H277.887C278.356 88.875 278.732 88.794 279.016 88.6321C279.3 88.4702 279.506 88.2514 279.634 87.9759C279.765 87.6974 279.83 87.3835 279.83 87.0341C279.83 86.6847 279.765 86.3722 279.634 86.0966C279.506 85.821 279.299 85.6051 279.012 85.4489C278.725 85.2898 278.344 85.2102 277.87 85.2102H276.012V93H274.955ZM283.033 93.1193V92.1307H283.578C283.788 92.1307 283.964 92.0895 284.107 92.0071C284.251 91.9247 284.371 91.8182 284.464 91.6875C284.561 91.5568 284.641 91.4205 284.703 91.2784L284.839 90.9545L281.822 84.2727H282.964L285.368 89.6932L287.567 84.2727H288.692L285.675 91.5852C285.555 91.858 285.419 92.1108 285.266 92.3438C285.115 92.5767 284.909 92.7642 284.648 92.9062C284.389 93.0483 284.038 93.1193 283.595 93.1193H283.033ZM295.225 84.2727V93H294.169V84.2727H295.225ZM289.328 93L292.157 88.4489L289.566 84.2727H290.845L293.112 88.142H296.299L298.566 84.2727H299.845L297.237 88.4659L300.066 93H298.856L296.487 89.1307H292.907L290.521 93H289.328ZM301.451 93V84.2727H302.508V88.1591H307.162V84.2727H308.218V93H307.162V89.0966H302.508V93H301.451ZM317.698 88.6364C317.698 89.5568 317.532 90.3523 317.199 91.0227C316.867 91.6932 316.411 92.2102 315.831 92.5739C315.252 92.9375 314.59 93.1193 313.846 93.1193C313.101 93.1193 312.439 92.9375 311.86 92.5739C311.28 92.2102 310.824 91.6932 310.492 91.0227C310.159 90.3523 309.993 89.5568 309.993 88.6364C309.993 87.7159 310.159 86.9205 310.492 86.25C310.824 85.5795 311.28 85.0625 311.86 84.6989C312.439 84.3352 313.101 84.1534 313.846 84.1534C314.59 84.1534 315.252 84.3352 315.831 84.6989C316.411 85.0625 316.867 85.5795 317.199 86.25C317.532 86.9205 317.698 87.7159 317.698 88.6364ZM316.675 88.6364C316.675 87.8807 316.549 87.2429 316.296 86.723C316.046 86.2031 315.706 85.8097 315.277 85.5426C314.851 85.2756 314.374 85.142 313.846 85.142C313.317 85.142 312.838 85.2756 312.409 85.5426C311.983 85.8097 311.644 86.2031 311.391 86.723C311.141 87.2429 311.016 87.8807 311.016 88.6364C311.016 89.392 311.141 90.0298 311.391 90.5497C311.644 91.0696 311.983 91.4631 312.409 91.7301C312.838 91.9972 313.317 92.1307 313.846 92.1307C314.374 92.1307 314.851 91.9972 315.277 91.7301C315.706 91.4631 316.046 91.0696 316.296 90.5497C316.549 90.0298 316.675 89.392 316.675 88.6364ZM326.498 87H325.441C325.378 86.696 325.269 86.429 325.113 86.1989C324.959 85.9688 324.772 85.7756 324.55 85.6193C324.331 85.4602 324.088 85.3409 323.821 85.2614C323.554 85.1818 323.276 85.142 322.986 85.142C322.458 85.142 321.979 85.2756 321.55 85.5426C321.124 85.8097 320.784 86.2031 320.532 86.723C320.282 87.2429 320.157 87.8807 320.157 88.6364C320.157 89.392 320.282 90.0298 320.532 90.5497C320.784 91.0696 321.124 91.4631 321.55 91.7301C321.979 91.9972 322.458 92.1307 322.986 92.1307C323.276 92.1307 323.554 92.0909 323.821 92.0114C324.088 91.9318 324.331 91.8139 324.55 91.6577C324.772 91.4986 324.959 91.304 325.113 91.0739C325.269 90.8409 325.378 90.5739 325.441 90.2727H326.498C326.418 90.7187 326.273 91.1179 326.063 91.4702C325.853 91.8224 325.591 92.1222 325.279 92.3693C324.966 92.6136 324.615 92.7997 324.226 92.9276C323.84 93.0554 323.426 93.1193 322.986 93.1193C322.242 93.1193 321.58 92.9375 321 92.5739C320.421 92.2102 319.965 91.6932 319.632 91.0227C319.3 90.3523 319.134 89.5568 319.134 88.6364C319.134 87.7159 319.3 86.9205 319.632 86.25C319.965 85.5795 320.421 85.0625 321 84.6989C321.58 84.3352 322.242 84.1534 322.986 84.1534C323.426 84.1534 323.84 84.2173 324.226 84.3452C324.615 84.473 324.966 84.6605 325.279 84.9077C325.591 85.152 325.853 85.4503 326.063 85.8026C326.273 86.152 326.418 86.5511 326.498 87ZM327.728 85.2102V84.2727H334.273V85.2102H331.529V93H330.472V85.2102H327.728ZM336.689 87.9375H339.177C339.802 87.9375 340.329 88.0398 340.758 88.2443C341.19 88.4489 341.517 88.7372 341.738 89.1094C341.963 89.4815 342.075 89.9205 342.075 90.4261C342.075 90.9318 341.963 91.3778 341.738 91.7642C341.517 92.1506 341.19 92.4531 340.758 92.6719C340.329 92.8906 339.802 93 339.177 93H335.904V84.2727H336.961V92.0795H339.177C339.575 92.0795 339.912 92 340.187 91.8409C340.466 91.679 340.676 91.4716 340.818 91.2188C340.963 90.9631 341.035 90.6932 341.035 90.4091C341.035 89.9915 340.875 89.6321 340.554 89.331C340.233 89.027 339.774 88.875 339.177 88.875H336.689V87.9375ZM258.057 108V99.2727H263.324V100.21H259.114V102.938H261.33C261.955 102.938 262.482 103.04 262.911 103.244C263.342 103.449 263.669 103.737 263.891 104.109C264.115 104.482 264.227 104.92 264.227 105.426C264.227 105.932 264.115 106.378 263.891 106.764C263.669 107.151 263.342 107.453 262.911 107.672C262.482 107.891 261.955 108 261.33 108H258.057ZM259.114 107.08H261.33C261.727 107.08 262.064 107 262.339 106.841C262.618 106.679 262.828 106.472 262.97 106.219C263.115 105.963 263.188 105.693 263.188 105.409C263.188 104.991 263.027 104.632 262.706 104.331C262.385 104.027 261.926 103.875 261.33 103.875H259.114V107.08ZM265.967 108V99.2727H271.234V100.21H267.024V103.159H270.961V104.097H267.024V107.062H271.302V108H265.967ZM272.389 110.114V107.062H272.951C273.145 106.886 273.326 106.638 273.497 106.317C273.67 105.993 273.816 105.561 273.936 105.021C274.058 104.479 274.139 103.79 274.179 102.955L274.366 99.2727H279.548V107.062H280.554V110.097H279.548V108H273.395V110.114H272.389ZM274.213 107.062H278.542V100.21H275.321L275.184 102.955C275.15 103.591 275.091 104.168 275.005 104.685C274.92 105.199 274.811 105.655 274.677 106.053C274.544 106.447 274.389 106.784 274.213 107.062ZM282.151 108V99.2727H287.418V100.21H283.207V103.159H287.145V104.097H283.207V107.062H287.486V108H282.151ZM289.322 108V99.2727H292.271C292.956 99.2727 293.516 99.3963 293.95 99.6435C294.388 99.8878 294.712 100.219 294.922 100.636C295.132 101.054 295.237 101.52 295.237 102.034C295.237 102.548 295.132 103.016 294.922 103.436C294.714 103.857 294.393 104.192 293.959 104.442C293.524 104.689 292.967 104.812 292.288 104.812H290.175V103.875H292.254C292.723 103.875 293.099 103.794 293.384 103.632C293.668 103.47 293.874 103.251 294.001 102.976C294.132 102.697 294.197 102.384 294.197 102.034C294.197 101.685 294.132 101.372 294.001 101.097C293.874 100.821 293.666 100.605 293.379 100.449C293.092 100.29 292.712 100.21 292.237 100.21H290.379V108H289.322Z" fill="#866857"/>
<path d="M265.42 145.636C265.42 146.557 265.254 147.352 264.922 148.023C264.589 148.693 264.134 149.21 263.554 149.574C262.974 149.938 262.313 150.119 261.568 150.119C260.824 150.119 260.162 149.938 259.582 149.574C259.003 149.21 258.547 148.693 258.214 148.023C257.882 147.352 257.716 146.557 257.716 145.636C257.716 144.716 257.882 143.92 258.214 143.25C258.547 142.58 259.003 142.062 259.582 141.699C260.162 141.335 260.824 141.153 261.568 141.153C262.313 141.153 262.974 141.335 263.554 141.699C264.134 142.062 264.589 142.58 264.922 143.25C265.254 143.92 265.42 144.716 265.42 145.636ZM264.398 145.636C264.398 144.881 264.271 144.243 264.018 143.723C263.768 143.203 263.429 142.81 263 142.543C262.574 142.276 262.097 142.142 261.568 142.142C261.04 142.142 260.561 142.276 260.132 142.543C259.706 142.81 259.366 143.203 259.114 143.723C258.864 144.243 258.739 144.881 258.739 145.636C258.739 146.392 258.864 147.03 259.114 147.55C259.366 148.07 259.706 148.463 260.132 148.73C260.561 148.997 261.04 149.131 261.568 149.131C262.097 149.131 262.574 148.997 263 148.73C263.429 148.463 263.768 148.07 264.018 147.55C264.271 147.03 264.398 146.392 264.398 145.636ZM272.328 150L269.328 145.994H268.254V150H267.197V141.273H268.254V145.057H268.714L272.209 141.273H273.47L269.942 145.108L273.589 150H272.328ZM274.955 150V141.273H277.904C278.589 141.273 279.148 141.396 279.583 141.643C280.021 141.888 280.344 142.219 280.555 142.636C280.765 143.054 280.87 143.52 280.87 144.034C280.87 144.548 280.765 145.016 280.555 145.436C280.347 145.857 280.026 146.192 279.592 146.442C279.157 146.689 278.6 146.812 277.921 146.812H275.808V145.875H277.887C278.356 145.875 278.732 145.794 279.016 145.632C279.3 145.47 279.506 145.251 279.634 144.976C279.765 144.697 279.83 144.384 279.83 144.034C279.83 143.685 279.765 143.372 279.634 143.097C279.506 142.821 279.299 142.605 279.012 142.449C278.725 142.29 278.344 142.21 277.87 142.21H276.012V150H274.955ZM283.033 150.119V149.131H283.578C283.788 149.131 283.964 149.089 284.107 149.007C284.251 148.925 284.371 148.818 284.464 148.688C284.561 148.557 284.641 148.42 284.703 148.278L284.839 147.955L281.822 141.273H282.964L285.368 146.693L287.567 141.273H288.692L285.675 148.585C285.555 148.858 285.419 149.111 285.266 149.344C285.115 149.577 284.909 149.764 284.648 149.906C284.389 150.048 284.038 150.119 283.595 150.119H283.033ZM295.225 141.273V150H294.169V141.273H295.225ZM289.328 150L292.157 145.449L289.566 141.273H290.845L293.112 145.142H296.299L298.566 141.273H299.845L297.237 145.466L300.066 150H298.856L296.487 146.131H292.907L290.521 150H289.328ZM301.451 150V141.273H302.508V145.159H307.162V141.273H308.218V150H307.162V146.097H302.508V150H301.451ZM317.698 145.636C317.698 146.557 317.532 147.352 317.199 148.023C316.867 148.693 316.411 149.21 315.831 149.574C315.252 149.938 314.59 150.119 313.846 150.119C313.101 150.119 312.439 149.938 311.86 149.574C311.28 149.21 310.824 148.693 310.492 148.023C310.159 147.352 309.993 146.557 309.993 145.636C309.993 144.716 310.159 143.92 310.492 143.25C310.824 142.58 311.28 142.062 311.86 141.699C312.439 141.335 313.101 141.153 313.846 141.153C314.59 141.153 315.252 141.335 315.831 141.699C316.411 142.062 316.867 142.58 317.199 143.25C317.532 143.92 317.698 144.716 317.698 145.636ZM316.675 145.636C316.675 144.881 316.549 144.243 316.296 143.723C316.046 143.203 315.706 142.81 315.277 142.543C314.851 142.276 314.374 142.142 313.846 142.142C313.317 142.142 312.838 142.276 312.409 142.543C311.983 142.81 311.644 143.203 311.391 143.723C311.141 144.243 311.016 144.881 311.016 145.636C311.016 146.392 311.141 147.03 311.391 147.55C311.644 148.07 311.983 148.463 312.409 148.73C312.838 148.997 313.317 149.131 313.846 149.131C314.374 149.131 314.851 148.997 315.277 148.73C315.706 148.463 316.046 148.07 316.296 147.55C316.549 147.03 316.675 146.392 316.675 145.636ZM326.498 144H325.441C325.378 143.696 325.269 143.429 325.113 143.199C324.959 142.969 324.772 142.776 324.55 142.619C324.331 142.46 324.088 142.341 323.821 142.261C323.554 142.182 323.276 142.142 322.986 142.142C322.458 142.142 321.979 142.276 321.55 142.543C321.124 142.81 320.784 143.203 320.532 143.723C320.282 144.243 320.157 144.881 320.157 145.636C320.157 146.392 320.282 147.03 320.532 147.55C320.784 148.07 321.124 148.463 321.55 148.73C321.979 148.997 322.458 149.131 322.986 149.131C323.276 149.131 323.554 149.091 323.821 149.011C324.088 148.932 324.331 148.814 324.55 148.658C324.772 148.499 324.959 148.304 325.113 148.074C325.269 147.841 325.378 147.574 325.441 147.273H326.498C326.418 147.719 326.273 148.118 326.063 148.47C325.853 148.822 325.591 149.122 325.279 149.369C324.966 149.614 324.615 149.8 324.226 149.928C323.84 150.055 323.426 150.119 322.986 150.119C322.242 150.119 321.58 149.938 321 149.574C320.421 149.21 319.965 148.693 319.632 148.023C319.3 147.352 319.134 146.557 319.134 145.636C319.134 144.716 319.3 143.92 319.632 143.25C319.965 142.58 320.421 142.062 321 141.699C321.58 141.335 322.242 141.153 322.986 141.153C323.426 141.153 323.84 141.217 324.226 141.345C324.615 141.473 324.966 141.661 325.279 141.908C325.591 142.152 325.853 142.45 326.063 142.803C326.273 143.152 326.418 143.551 326.498 144ZM327.728 142.21V141.273H334.273V142.21H331.529V150H330.472V142.21H327.728ZM336.689 144.938H339.177C339.802 144.938 340.329 145.04 340.758 145.244C341.19 145.449 341.517 145.737 341.738 146.109C341.963 146.482 342.075 146.92 342.075 147.426C342.075 147.932 341.963 148.378 341.738 148.764C341.517 149.151 341.19 149.453 340.758 149.672C340.329 149.891 339.802 150 339.177 150H335.904V141.273H336.961V149.08H339.177C339.575 149.08 339.912 149 340.187 148.841C340.466 148.679 340.676 148.472 340.818 148.219C340.963 147.963 341.035 147.693 341.035 147.409C341.035 146.991 340.875 146.632 340.554 146.331C340.233 146.027 339.774 145.875 339.177 145.875H336.689V144.938ZM258.057 165V156.273H263.324V157.21H259.114V159.938H261.33C261.955 159.938 262.482 160.04 262.911 160.244C263.342 160.449 263.669 160.737 263.891 161.109C264.115 161.482 264.227 161.92 264.227 162.426C264.227 162.932 264.115 163.378 263.891 163.764C263.669 164.151 263.342 164.453 262.911 164.672C262.482 164.891 261.955 165 261.33 165H258.057ZM259.114 164.08H261.33C261.727 164.08 262.064 164 262.339 163.841C262.618 163.679 262.828 163.472 262.97 163.219C263.115 162.963 263.188 162.693 263.188 162.409C263.188 161.991 263.027 161.632 262.706 161.331C262.385 161.027 261.926 160.875 261.33 160.875H259.114V164.08ZM265.967 165V156.273H271.234V157.21H267.024V160.159H270.961V161.097H267.024V164.062H271.302V165H265.967ZM272.389 167.114V164.062H272.951C273.145 163.886 273.326 163.638 273.497 163.317C273.67 162.993 273.816 162.561 273.936 162.021C274.058 161.479 274.139 160.79 274.179 159.955L274.366 156.273H279.548V164.062H280.554V167.097H279.548V165H273.395V167.114H272.389ZM274.213 164.062H278.542V157.21H275.321L275.184 159.955C275.15 160.591 275.091 161.168 275.005 161.685C274.92 162.199 274.811 162.655 274.677 163.053C274.544 163.447 274.389 163.784 274.213 164.062ZM282.151 165V156.273H285.099C285.784 156.273 286.344 156.396 286.778 156.643C287.216 156.888 287.54 157.219 287.75 157.636C287.96 158.054 288.065 158.52 288.065 159.034C288.065 159.548 287.96 160.016 287.75 160.436C287.543 160.857 287.222 161.192 286.787 161.442C286.352 161.689 285.795 161.812 285.116 161.812H283.003V160.875H285.082C285.551 160.875 285.928 160.794 286.212 160.632C286.496 160.47 286.702 160.251 286.83 159.976C286.96 159.697 287.026 159.384 287.026 159.034C287.026 158.685 286.96 158.372 286.83 158.097C286.702 157.821 286.494 157.605 286.207 157.449C285.92 157.29 285.54 157.21 285.065 157.21H283.207V165H282.151ZM289.235 165H288.127L291.332 156.273H292.423L295.627 165H294.519L291.911 157.653H291.843L289.235 165ZM289.644 161.591H294.11V162.528H289.644V161.591Z" fill="#866857"/>
<path d="M265.42 268.636C265.42 269.557 265.254 270.352 264.922 271.023C264.589 271.693 264.134 272.21 263.554 272.574C262.974 272.938 262.313 273.119 261.568 273.119C260.824 273.119 260.162 272.938 259.582 272.574C259.003 272.21 258.547 271.693 258.214 271.023C257.882 270.352 257.716 269.557 257.716 268.636C257.716 267.716 257.882 266.92 258.214 266.25C258.547 265.58 259.003 265.062 259.582 264.699C260.162 264.335 260.824 264.153 261.568 264.153C262.313 264.153 262.974 264.335 263.554 264.699C264.134 265.062 264.589 265.58 264.922 266.25C265.254 266.92 265.42 267.716 265.42 268.636ZM264.398 268.636C264.398 267.881 264.271 267.243 264.018 266.723C263.768 266.203 263.429 265.81 263 265.543C262.574 265.276 262.097 265.142 261.568 265.142C261.04 265.142 260.561 265.276 260.132 265.543C259.706 265.81 259.366 266.203 259.114 266.723C258.864 267.243 258.739 267.881 258.739 268.636C258.739 269.392 258.864 270.03 259.114 270.55C259.366 271.07 259.706 271.463 260.132 271.73C260.561 271.997 261.04 272.131 261.568 272.131C262.097 272.131 262.574 271.997 263 271.73C263.429 271.463 263.768 271.07 264.018 270.55C264.271 270.03 264.398 269.392 264.398 268.636ZM272.328 273L269.328 268.994H268.254V273H267.197V264.273H268.254V268.057H268.714L272.209 264.273H273.47L269.942 268.108L273.589 273H272.328ZM274.955 273V264.273H277.904C278.589 264.273 279.148 264.396 279.583 264.643C280.021 264.888 280.344 265.219 280.555 265.636C280.765 266.054 280.87 266.52 280.87 267.034C280.87 267.548 280.765 268.016 280.555 268.436C280.347 268.857 280.026 269.192 279.592 269.442C279.157 269.689 278.6 269.812 277.921 269.812H275.808V268.875H277.887C278.356 268.875 278.732 268.794 279.016 268.632C279.3 268.47 279.506 268.251 279.634 267.976C279.765 267.697 279.83 267.384 279.83 267.034C279.83 266.685 279.765 266.372 279.634 266.097C279.506 265.821 279.299 265.605 279.012 265.449C278.725 265.29 278.344 265.21 277.87 265.21H276.012V273H274.955ZM283.033 273.119V272.131H283.578C283.788 272.131 283.964 272.089 284.107 272.007C284.251 271.925 284.371 271.818 284.464 271.688C284.561 271.557 284.641 271.42 284.703 271.278L284.839 270.955L281.822 264.273H282.964L285.368 269.693L287.567 264.273H288.692L285.675 271.585C285.555 271.858 285.419 272.111 285.266 272.344C285.115 272.577 284.909 272.764 284.648 272.906C284.389 273.048 284.038 273.119 283.595 273.119H283.033ZM295.225 264.273V273H294.169V264.273H295.225ZM289.328 273L292.157 268.449L289.566 264.273H290.845L293.112 268.142H296.299L298.566 264.273H299.845L297.237 268.466L300.066 273H298.856L296.487 269.131H292.907L290.521 273H289.328ZM301.451 273V264.273H302.508V268.159H307.162V264.273H308.218V273H307.162V269.097H302.508V273H301.451ZM317.698 268.636C317.698 269.557 317.532 270.352 317.199 271.023C316.867 271.693 316.411 272.21 315.831 272.574C315.252 272.938 314.59 273.119 313.846 273.119C313.101 273.119 312.439 272.938 311.86 272.574C311.28 272.21 310.824 271.693 310.492 271.023C310.159 270.352 309.993 269.557 309.993 268.636C309.993 267.716 310.159 266.92 310.492 266.25C310.824 265.58 311.28 265.062 311.86 264.699C312.439 264.335 313.101 264.153 313.846 264.153C314.59 264.153 315.252 264.335 315.831 264.699C316.411 265.062 316.867 265.58 317.199 266.25C317.532 266.92 317.698 267.716 317.698 268.636ZM316.675 268.636C316.675 267.881 316.549 267.243 316.296 266.723C316.046 266.203 315.706 265.81 315.277 265.543C314.851 265.276 314.374 265.142 313.846 265.142C313.317 265.142 312.838 265.276 312.409 265.543C311.983 265.81 311.644 266.203 311.391 266.723C311.141 267.243 311.016 267.881 311.016 268.636C311.016 269.392 311.141 270.03 311.391 270.55C311.644 271.07 311.983 271.463 312.409 271.73C312.838 271.997 313.317 272.131 313.846 272.131C314.374 272.131 314.851 271.997 315.277 271.73C315.706 271.463 316.046 271.07 316.296 270.55C316.549 270.03 316.675 269.392 316.675 268.636ZM326.498 267H325.441C325.378 266.696 325.269 266.429 325.113 266.199C324.959 265.969 324.772 265.776 324.55 265.619C324.331 265.46 324.088 265.341 323.821 265.261C323.554 265.182 323.276 265.142 322.986 265.142C322.458 265.142 321.979 265.276 321.55 265.543C321.124 265.81 320.784 266.203 320.532 266.723C320.282 267.243 320.157 267.881 320.157 268.636C320.157 269.392 320.282 270.03 320.532 270.55C320.784 271.07 321.124 271.463 321.55 271.73C321.979 271.997 322.458 272.131 322.986 272.131C323.276 272.131 323.554 272.091 323.821 272.011C324.088 271.932 324.331 271.814 324.55 271.658C324.772 271.499 324.959 271.304 325.113 271.074C325.269 270.841 325.378 270.574 325.441 270.273H326.498C326.418 270.719 326.273 271.118 326.063 271.47C325.853 271.822 325.591 272.122 325.279 272.369C324.966 272.614 324.615 272.8 324.226 272.928C323.84 273.055 323.426 273.119 322.986 273.119C322.242 273.119 321.58 272.938 321 272.574C320.421 272.21 319.965 271.693 319.632 271.023C319.3 270.352 319.134 269.557 319.134 268.636C319.134 267.716 319.3 266.92 319.632 266.25C319.965 265.58 320.421 265.062 321 264.699C321.58 264.335 322.242 264.153 322.986 264.153C323.426 264.153 323.84 264.217 324.226 264.345C324.615 264.473 324.966 264.661 325.279 264.908C325.591 265.152 325.853 265.45 326.063 265.803C326.273 266.152 326.418 266.551 326.498 267ZM327.728 265.21V264.273H334.273V265.21H331.529V273H330.472V265.21H327.728ZM336.689 267.938H339.177C339.802 267.938 340.329 268.04 340.758 268.244C341.19 268.449 341.517 268.737 341.738 269.109C341.963 269.482 342.075 269.92 342.075 270.426C342.075 270.932 341.963 271.378 341.738 271.764C341.517 272.151 341.19 272.453 340.758 272.672C340.329 272.891 339.802 273 339.177 273H335.904V264.273H336.961V272.08H339.177C339.575 272.08 339.912 272 340.187 271.841C340.466 271.679 340.676 271.472 340.818 271.219C340.963 270.963 341.035 270.693 341.035 270.409C341.035 269.991 340.875 269.632 340.554 269.331C340.233 269.027 339.774 268.875 339.177 268.875H336.689V267.938ZM268.216 287.062L268.097 290.062H267.057V288H266.222V287.062H268.216ZM258.057 279.273H259.114V287.028H262.182V279.273H263.239V287.028H266.307V279.273H267.364V288H258.057V279.273ZM269.822 279.273H270.862V286.142H270.947L275.72 279.273H276.743V288H275.686V281.148H275.601L270.845 288H269.822V279.273ZM283.988 288L280.988 283.994H279.914V288H278.858V279.273H279.914V283.057H280.375L283.869 279.273H285.13L281.602 283.108L285.25 288H283.988ZM293.569 283.636C293.569 284.557 293.403 285.352 293.07 286.023C292.738 286.693 292.282 287.21 291.702 287.574C291.123 287.938 290.461 288.119 289.717 288.119C288.972 288.119 288.31 287.938 287.731 287.574C287.151 287.21 286.695 286.693 286.363 286.023C286.031 285.352 285.864 284.557 285.864 283.636C285.864 282.716 286.031 281.92 286.363 281.25C286.695 280.58 287.151 280.062 287.731 279.699C288.31 279.335 288.972 279.153 289.717 279.153C290.461 279.153 291.123 279.335 291.702 279.699C292.282 280.062 292.738 280.58 293.07 281.25C293.403 281.92 293.569 282.716 293.569 283.636ZM292.546 283.636C292.546 282.881 292.42 282.243 292.167 281.723C291.917 281.203 291.577 280.81 291.148 280.543C290.722 280.276 290.245 280.142 289.717 280.142C289.188 280.142 288.71 280.276 288.281 280.543C287.854 280.81 287.515 281.203 287.262 281.723C287.012 282.243 286.887 282.881 286.887 283.636C286.887 284.392 287.012 285.03 287.262 285.55C287.515 286.07 287.854 286.463 288.281 286.73C288.71 286.997 289.188 287.131 289.717 287.131C290.245 287.131 290.722 286.997 291.148 286.73C291.577 286.463 291.917 286.07 292.167 285.55C292.42 285.03 292.546 284.392 292.546 283.636ZM294.596 288V287.028H294.852C295.215 287.028 295.498 286.912 295.7 286.679C295.901 286.446 296.046 286.07 296.134 285.55C296.225 285.03 296.286 284.341 296.317 283.483L296.471 279.273H301.789V288H300.732V280.21H297.477L297.34 283.688C297.306 284.602 297.222 285.381 297.089 286.023C296.955 286.665 296.721 287.155 296.386 287.493C296.05 287.831 295.562 288 294.92 288H294.596ZM311.264 283.636C311.264 284.557 311.098 285.352 310.766 286.023C310.433 286.693 309.977 287.21 309.398 287.574C308.818 287.938 308.156 288.119 307.412 288.119C306.668 288.119 306.006 287.938 305.426 287.574C304.847 287.21 304.391 286.693 304.058 286.023C303.726 285.352 303.56 284.557 303.56 283.636C303.56 282.716 303.726 281.92 304.058 281.25C304.391 280.58 304.847 280.062 305.426 279.699C306.006 279.335 306.668 279.153 307.412 279.153C308.156 279.153 308.818 279.335 309.398 279.699C309.977 280.062 310.433 280.58 310.766 281.25C311.098 281.92 311.264 282.716 311.264 283.636ZM310.241 283.636C310.241 282.881 310.115 282.243 309.862 281.723C309.612 281.203 309.273 280.81 308.844 280.543C308.418 280.276 307.94 280.142 307.412 280.142C306.884 280.142 306.405 280.276 305.976 280.543C305.55 280.81 305.21 281.203 304.957 281.723C304.707 282.243 304.582 282.881 304.582 283.636C304.582 284.392 304.707 285.03 304.957 285.55C305.21 286.07 305.55 286.463 305.976 286.73C306.405 286.997 306.884 287.131 307.412 287.131C307.94 287.131 308.418 286.997 308.844 286.73C309.273 286.463 309.612 286.07 309.862 285.55C310.115 285.03 310.241 284.392 310.241 283.636ZM312.201 280.21V279.273H318.746V280.21H316.002V288H314.945V280.21H312.201ZM325.508 288L322.508 283.994H321.434V288H320.377V279.273H321.434V283.057H321.894L325.388 279.273H326.65L323.121 283.108L326.769 288H325.508ZM328.135 279.273H329.175V286.142H329.26L334.033 279.273H335.055V288H333.999V281.148H333.913L329.158 288H328.135V279.273Z" fill="#866857"/>
<path d="M71.1541 110.727V118H70.4936V111.324H66.5767V118H65.9126V110.727H71.1541ZM72.8048 120.045V112.545H73.4192V113.586H73.4938C73.5695 113.423 73.6737 113.256 73.8063 113.085C73.9388 112.912 74.114 112.767 74.3318 112.648C74.552 112.53 74.829 112.471 75.1628 112.471C75.6126 112.471 76.0056 112.589 76.3418 112.826C76.6803 113.06 76.9431 113.389 77.1301 113.813C77.3195 114.235 77.4142 114.726 77.4142 115.287C77.4142 115.85 77.3195 116.344 77.1301 116.768C76.9431 117.192 76.6803 117.522 76.3418 117.759C76.0056 117.995 75.615 118.114 75.1699 118.114C74.8408 118.114 74.565 118.054 74.3425 117.936C74.1223 117.818 73.9436 117.672 73.8063 117.499C73.6713 117.324 73.5671 117.154 73.4938 116.988H73.4369V120.045H72.8048ZM73.4298 115.276C73.4298 115.717 73.4949 116.107 73.6251 116.448C73.7577 116.787 73.9471 117.053 74.1933 117.247C74.4419 117.439 74.7426 117.535 75.0953 117.535C75.4575 117.535 75.7629 117.435 76.0115 117.237C76.2625 117.035 76.453 116.764 76.5832 116.423C76.7158 116.082 76.7821 115.7 76.7821 115.276C76.7821 114.857 76.717 114.48 76.5868 114.143C76.4589 113.807 76.2696 113.541 76.0186 113.344C75.7677 113.146 75.4599 113.046 75.0953 113.046C74.7402 113.046 74.4384 113.142 74.1898 113.334C73.9412 113.523 73.7518 113.786 73.6216 114.122C73.4938 114.456 73.4298 114.841 73.4298 115.276ZM80.821 118.114C80.3498 118.114 79.9332 117.994 79.571 117.755C79.2111 117.516 78.9294 117.186 78.7258 116.764C78.5222 116.34 78.4204 115.852 78.4204 115.298C78.4204 114.739 78.5222 114.248 78.7258 113.824C78.9294 113.398 79.2111 113.066 79.571 112.83C79.9332 112.59 80.3498 112.471 80.821 112.471C81.2921 112.471 81.7076 112.59 82.0674 112.83C82.4272 113.069 82.709 113.4 82.9126 113.824C83.1185 114.248 83.2215 114.739 83.2215 115.298C83.2215 115.852 83.1197 116.34 82.9161 116.764C82.7125 117.186 82.4296 117.516 82.0674 117.755C81.7076 117.994 81.2921 118.114 80.821 118.114ZM80.821 117.535C81.1997 117.535 81.5205 117.433 81.7833 117.229C82.0461 117.026 82.245 116.755 82.3799 116.416C82.5172 116.078 82.5859 115.705 82.5859 115.298C82.5859 114.89 82.5172 114.516 82.3799 114.175C82.245 113.835 82.0461 113.561 81.7833 113.355C81.5205 113.149 81.1997 113.046 80.821 113.046C80.4445 113.046 80.1237 113.149 79.8586 113.355C79.5958 113.561 79.3958 113.835 79.2585 114.175C79.1235 114.516 79.056 114.89 79.056 115.298C79.056 115.705 79.1235 116.078 79.2585 116.416C79.3958 116.755 79.5958 117.026 79.8586 117.229C80.1214 117.433 80.4422 117.535 80.821 117.535ZM87.3607 117.116L89.4097 112.545H90.024L87.6128 118H87.1086L84.7257 112.545H85.3294L87.3607 117.116ZM85.1412 112.545V118H84.5091V112.545H85.1412ZM89.5802 118V112.545H90.2123V118H89.5802ZM93.9972 118.114C93.4882 118.114 93.0479 117.995 92.6762 117.759C92.3045 117.519 92.0168 117.189 91.8132 116.768C91.612 116.344 91.5114 115.856 91.5114 115.305C91.5114 114.755 91.612 114.268 91.8132 113.842C92.0168 113.413 92.2974 113.078 92.6549 112.837C93.0147 112.593 93.4302 112.471 93.9013 112.471C94.1972 112.471 94.4825 112.525 94.7571 112.634C95.0318 112.741 95.278 112.905 95.4958 113.128C95.7159 113.348 95.89 113.626 96.0178 113.962C96.1456 114.296 96.2096 114.692 96.2096 115.148V115.461H91.9482V114.903H95.5632C95.5632 114.553 95.4922 114.238 95.3502 113.959C95.2105 113.677 95.0152 113.455 94.7642 113.291C94.5157 113.128 94.228 113.046 93.9013 113.046C93.5557 113.046 93.2515 113.138 92.9887 113.323C92.7259 113.508 92.5199 113.752 92.3708 114.055C92.224 114.358 92.1494 114.689 92.1471 115.049V115.383C92.1471 115.816 92.2216 116.195 92.3708 116.519C92.5223 116.841 92.7365 117.091 93.0135 117.268C93.2905 117.446 93.6184 117.535 93.9972 117.535C94.2552 117.535 94.4813 117.495 94.6755 117.414C94.872 117.334 95.0365 117.226 95.1691 117.091C95.304 116.954 95.4058 116.803 95.4745 116.64L96.0746 116.835C95.9917 117.065 95.8556 117.277 95.6662 117.471C95.4792 117.665 95.2448 117.821 94.9631 117.94C94.6837 118.056 94.3618 118.114 93.9972 118.114ZM97.0151 118L99.4228 115.244L97.0471 112.545H97.8176L99.9093 114.971H100.275V112.545H100.911V114.971H101.269L103.361 112.545H104.132L101.763 115.244L104.164 118H103.382L101.259 115.567H100.911V118H100.275V115.567H99.927L97.7963 118H97.0151ZM109.073 114.978V115.575H105.867V114.978H109.073ZM106.023 112.545V118H105.391V112.545H106.023ZM109.538 112.545V118H108.906V112.545H109.538ZM113.241 118.114C112.77 118.114 112.353 117.994 111.991 117.755C111.631 117.516 111.349 117.186 111.146 116.764C110.942 116.34 110.84 115.852 110.84 115.298C110.84 114.739 110.942 114.248 111.146 113.824C111.349 113.398 111.631 113.066 111.991 112.83C112.353 112.59 112.77 112.471 113.241 112.471C113.712 112.471 114.127 112.59 114.487 112.83C114.847 113.069 115.129 113.4 115.332 113.824C115.538 114.248 115.641 114.739 115.641 115.298C115.641 115.852 115.54 116.34 115.336 116.764C115.132 117.186 114.85 117.516 114.487 117.755C114.127 117.994 113.712 118.114 113.241 118.114ZM113.241 117.535C113.62 117.535 113.94 117.433 114.203 117.229C114.466 117.026 114.665 116.755 114.8 116.416C114.937 116.078 115.006 115.705 115.006 115.298C115.006 114.89 114.937 114.516 114.8 114.175C114.665 113.835 114.466 113.561 114.203 113.355C113.94 113.149 113.62 113.046 113.241 113.046C112.864 113.046 112.544 113.149 112.279 113.355C112.016 113.561 111.816 113.835 111.678 114.175C111.543 114.516 111.476 114.89 111.476 115.298C111.476 115.705 111.543 116.078 111.678 116.416C111.816 116.755 112.016 117.026 112.279 117.229C112.541 117.433 112.862 117.535 113.241 117.535ZM119.06 118.114C118.572 118.114 118.147 117.992 117.785 117.748C117.425 117.504 117.146 117.17 116.947 116.746C116.748 116.323 116.649 115.84 116.649 115.298C116.649 114.751 116.749 114.264 116.95 113.838C117.154 113.412 117.436 113.078 117.796 112.837C118.155 112.593 118.573 112.471 119.049 112.471C119.414 112.471 119.744 112.542 120.04 112.684C120.336 112.824 120.58 113.021 120.771 113.277C120.966 113.53 121.087 113.826 121.137 114.165H120.498C120.432 113.857 120.272 113.594 120.019 113.376C119.768 113.156 119.448 113.046 119.06 113.046C118.712 113.046 118.404 113.141 118.136 113.33C117.869 113.517 117.659 113.779 117.508 114.115C117.359 114.449 117.284 114.836 117.284 115.276C117.284 115.719 117.358 116.111 117.504 116.452C117.651 116.79 117.857 117.055 118.122 117.247C118.39 117.439 118.702 117.535 119.06 117.535C119.301 117.535 119.521 117.49 119.72 117.4C119.921 117.308 120.09 117.177 120.225 117.009C120.362 116.841 120.454 116.641 120.501 116.409H121.141C121.093 116.738 120.976 117.032 120.789 117.29C120.604 117.545 120.364 117.747 120.068 117.893C119.775 118.04 119.439 118.114 119.06 118.114ZM121.944 113.142V112.545H126.206V113.142H124.402V118H123.77V113.142H121.944ZM127.968 114.651H129.562C130.175 114.651 130.649 114.8 130.982 115.099C131.316 115.397 131.483 115.801 131.483 116.31C131.483 116.648 131.409 116.944 131.259 117.197C131.11 117.451 130.892 117.648 130.606 117.79C130.32 117.93 129.972 118 129.562 118H127.442V112.545H128.074V117.403H129.562C129.948 117.403 130.259 117.311 130.496 117.126C130.733 116.942 130.851 116.679 130.851 116.338C130.851 115.99 130.733 115.721 130.496 115.532C130.259 115.343 129.948 115.248 129.562 115.248H127.968V114.651Z" fill="black" fill-opacity="0.5"/>
<path d="M210.439 25.0241C202.044 44.7581 228.55 74.34 225.799 103.987C223.383 129.911 223.383 117.952 220.652 139.122C217.922 160.292 215.506 188.906 215.506 188.906V225.419C215.506 225.419 214.815 240.082 211.388 249.283C207.96 258.483 206.749 261.897 207.27 272.131C207.791 282.364 205.037 279.12 205.91 283.398C206.783 287.676 209.91 288.017 209.334 296.188C208.795 303.931 202.054 301.54 195.613 301.968C195.613 301.968 191.471 299.939 193.373 293.287C195.275 286.636 196.135 287.8 195.958 277.411C195.782 267.022 198.354 263.264 198.354 263.264L196.283 210.976C195.983 203.215 197.167 196.037 193.563 187.367C192.182 184.067 192.79 151.857 191.837 141.898C191.357 136.928 190.829 131.968 190.38 129.195C189.255 122.399 189.345 107.384 189.345 107.384C189.345 107.384 188.717 104.432 186.525 104.356C184.316 104.432 183.67 107.384 183.67 107.384C183.67 107.384 183.788 122.381 182.635 129.195C182.186 131.968 181.648 136.928 181.178 141.898C180.236 151.867 180.833 184.081 179.452 187.367C175.852 196.037 177.036 203.212 176.725 210.976L174.654 263.264C174.654 263.264 177.229 267.002 177.043 277.411C176.857 287.821 177.709 286.65 179.608 293.287C181.506 299.925 177.395 301.968 177.395 301.968C170.958 301.54 164.196 303.931 163.668 296.188C163.091 288.017 166.243 287.666 167.092 283.398C167.941 279.13 165.186 282.364 165.711 272.131C166.236 261.897 165.021 258.459 161.593 249.262C158.165 240.065 157.475 225.388 157.475 225.388V188.906C157.475 188.906 155.097 160.248 152.349 139.098C149.602 117.948 149.588 129.901 147.203 103.963C144.441 74.34 170.947 44.7167 162.553 25" stroke="black" stroke-opacity="0.25" stroke-linecap="round" stroke-linejoin="round"/>
</svg>
