<svg width="373" height="327" viewBox="0 0 373 327" fill="none" xmlns="http://www.w3.org/2000/svg">
<path d="M152.348 25C152.348 25 135.929 50.8525 138.602 79.7599C141.275 108.667 141.268 95.3512 144.329 118.922C147.39 142.493 150.057 174.455 150.057 174.455V215.132C150.057 215.132 150.833 231.497 154.639 241.751C158.445 252.006 159.819 255.841 159.221 267.249C158.623 278.657 161.709 275.051 160.755 279.811C159.8 284.571 156.3 284.964 156.936 294.078C157.528 302.716 165.05 300.042 172.21 300.523C172.21 300.523 176.792 298.242 174.679 290.839C172.566 283.436 171.631 284.748 171.828 273.143C172.025 261.539 169.162 257.368 169.162 257.368L171.465 199.059C171.809 190.401 170.492 182.403 174.501 172.738C176.035 169.074 175.367 133.157 176.41 122.034C176.932 116.501 177.53 110.962 178.033 107.875C179.306 100.269 179.172 83.55 179.172 83.55C179.172 83.55 179.891 80.2606 182.354 80.1718C184.792 80.2606 185.492 83.55 185.492 83.55C185.492 83.55 185.402 100.295 186.65 107.875C187.153 110.962 187.744 116.501 188.273 122.034C189.316 133.132 188.648 169.049 190.182 172.738C194.185 182.403 192.874 190.401 193.211 199.059L195.521 257.368C195.521 257.368 192.657 261.558 192.855 273.143C193.052 284.729 192.097 283.423 189.985 290.839C187.872 298.254 192.473 300.523 192.473 300.523C199.639 300.042 207.142 302.716 207.746 294.078C208.383 284.964 204.895 284.571 203.928 279.811C202.961 275.051 206.022 278.657 205.443 267.249C204.864 255.841 206.219 252.038 210.025 241.777C213.83 231.516 214.607 215.157 214.607 215.157V174.455C214.607 174.455 217.299 142.512 220.334 118.922C223.37 95.3322 223.383 108.667 226.062 79.7599C228.741 50.8525 212.316 25 212.316 25" stroke="black" stroke-opacity="0.25" stroke-linecap="round" stroke-linejoin="round"/>
<path d="M182.328 80.1914H60.1777" stroke="#866857" stroke-width="0.5" stroke-miterlimit="10" stroke-dasharray="3 3"/>
<path d="M231 301.551H60" stroke="#866857" stroke-miterlimit="10"/>
<path d="M223.694 118.941C228.091 119.822 230.815 121.008 230.815 122.32C230.815 125 219.417 127.155 205.359 127.155C191.301 127.155 179.903 125 179.903 122.32C179.903 121.242 181.73 120.253 184.797 119.467" stroke="#866857" stroke-width="2" stroke-miterlimit="10" stroke-linecap="round"/>
<path d="M216.655 207.316C219.576 207.95 221.365 208.768 221.365 209.687C221.365 211.588 213.823 213.084 204.532 213.084C195.241 213.084 187.687 211.576 187.687 209.687C187.687 208.933 188.896 208.229 190.913 207.678" stroke="#866857" stroke-width="2" stroke-miterlimit="10" stroke-linecap="round"/>
<path d="M206.989 277.852C208.975 278.226 210.171 278.745 210.171 279.322C210.171 280.488 205.048 281.426 198.716 281.426C192.384 281.426 187.261 280.488 187.261 279.322C187.261 278.853 188.075 278.422 189.444 278.086" stroke="#866857" stroke-width="2" stroke-miterlimit="10" stroke-linecap="round"/>
<path d="M60.5313 79.8379C60.336 79.6426 60.0194 79.6426 59.8242 79.8379L56.6422 83.0198C56.4469 83.2151 56.4469 83.5317 56.6422 83.7269C56.8375 83.9222 57.154 83.9222 57.3493 83.7269L60.1777 80.8985L63.0062 83.7269C63.2014 83.9222 63.518 83.9222 63.7133 83.7269C63.9085 83.5317 63.9085 83.2151 63.7133 83.0198L60.5313 79.8379ZM59.8242 301.72C60.0194 301.916 60.336 301.916 60.5313 301.72L63.7133 298.538C63.9085 298.343 63.9085 298.027 63.7133 297.831C63.518 297.636 63.2014 297.636 63.0062 297.831L60.1777 300.66L57.3493 297.831C57.154 297.636 56.8375 297.636 56.6422 297.831C56.4469 298.027 56.4469 298.343 56.6422 298.538L59.8242 301.72ZM60.1777 80.1914H59.6777V301.367H60.1777H60.6777V80.1914H60.1777Z" fill="#866857"/>
<path d="M150.057 194.793H93.7354" stroke="#866857" stroke-width="0.5" stroke-miterlimit="10" stroke-dasharray="3 3"/>
<path d="M94.0889 194.439C93.8936 194.244 93.5771 194.244 93.3818 194.439L90.1998 197.621C90.0046 197.817 90.0046 198.133 90.1998 198.329C90.3951 198.524 90.7117 198.524 90.9069 198.329L93.7354 195.5L96.5638 198.329C96.759 198.524 97.0756 198.524 97.2709 198.329C97.4661 198.133 97.4661 197.817 97.2709 197.621L94.0889 194.439ZM93.3818 301.719C93.5771 301.914 93.8936 301.914 94.0889 301.719L97.2709 298.537C97.4661 298.342 97.4661 298.025 97.2709 297.83C97.0756 297.635 96.759 297.635 96.5638 297.83L93.7354 300.658L90.9069 297.83C90.7117 297.635 90.3951 297.635 90.1998 297.83C90.0046 298.025 90.0046 298.342 90.1998 298.537L93.3818 301.719ZM93.7354 194.793H93.2354V301.366H93.7354H94.2354V194.793H93.7354Z" fill="#866857"/>
<path d="M255.42 114.187C255.42 115.108 255.254 115.903 254.922 116.574C254.589 117.244 254.134 117.761 253.554 118.125C252.974 118.488 252.313 118.67 251.568 118.67C250.824 118.67 250.162 118.488 249.582 118.125C249.003 117.761 248.547 117.244 248.214 116.574C247.882 115.903 247.716 115.108 247.716 114.187C247.716 113.267 247.882 112.471 248.214 111.801C248.547 111.13 249.003 110.613 249.582 110.25C250.162 109.886 250.824 109.704 251.568 109.704C252.313 109.704 252.974 109.886 253.554 110.25C254.134 110.613 254.589 111.13 254.922 111.801C255.254 112.471 255.42 113.267 255.42 114.187ZM254.398 114.187C254.398 113.431 254.271 112.794 254.018 112.274C253.768 111.754 253.429 111.36 253 111.093C252.574 110.826 252.097 110.693 251.568 110.693C251.04 110.693 250.561 110.826 250.132 111.093C249.706 111.36 249.366 111.754 249.114 112.274C248.864 112.794 248.739 113.431 248.739 114.187C248.739 114.943 248.864 115.581 249.114 116.1C249.366 116.62 249.706 117.014 250.132 117.281C250.561 117.548 251.04 117.681 251.568 117.681C252.097 117.681 252.574 117.548 253 117.281C253.429 117.014 253.768 116.62 254.018 116.1C254.271 115.581 254.398 114.943 254.398 114.187ZM262.328 118.551L259.328 114.545H258.254V118.551H257.197V109.824H258.254V113.608H258.714L262.209 109.824H263.47L259.942 113.659L263.589 118.551H262.328ZM264.955 118.551V109.824H267.904C268.589 109.824 269.148 109.947 269.583 110.194C270.021 110.439 270.344 110.77 270.555 111.187C270.765 111.605 270.87 112.071 270.87 112.585C270.87 113.099 270.765 113.566 270.555 113.987C270.347 114.407 270.026 114.743 269.592 114.993C269.157 115.24 268.6 115.363 267.921 115.363H265.808V114.426H267.887C268.356 114.426 268.732 114.345 269.016 114.183C269.3 114.021 269.506 113.802 269.634 113.527C269.765 113.248 269.83 112.934 269.83 112.585C269.83 112.235 269.765 111.923 269.634 111.647C269.506 111.372 269.299 111.156 269.012 111C268.725 110.841 268.344 110.761 267.87 110.761H266.012V118.551H264.955ZM273.033 118.67V117.681H273.578C273.788 117.681 273.964 117.64 274.107 117.558C274.251 117.475 274.371 117.369 274.464 117.238C274.561 117.108 274.641 116.971 274.703 116.829L274.839 116.505L271.822 109.824H272.964L275.368 115.244L277.567 109.824H278.692L275.675 117.136C275.555 117.409 275.419 117.662 275.266 117.895C275.115 118.127 274.909 118.315 274.648 118.457C274.389 118.599 274.038 118.67 273.595 118.67H273.033ZM285.225 109.824V118.551H284.169V109.824H285.225ZM279.328 118.551L282.157 114L279.566 109.824H280.845L283.112 113.693H286.299L288.566 109.824H289.845L287.237 114.017L290.066 118.551H288.856L286.487 114.681H282.907L280.521 118.551H279.328ZM291.451 118.551V109.824H292.508V113.71H297.162V109.824H298.218V118.551H297.162V114.647H292.508V118.551H291.451ZM307.698 114.187C307.698 115.108 307.532 115.903 307.199 116.574C306.867 117.244 306.411 117.761 305.831 118.125C305.252 118.488 304.59 118.67 303.846 118.67C303.101 118.67 302.439 118.488 301.86 118.125C301.28 117.761 300.824 117.244 300.492 116.574C300.159 115.903 299.993 115.108 299.993 114.187C299.993 113.267 300.159 112.471 300.492 111.801C300.824 111.13 301.28 110.613 301.86 110.25C302.439 109.886 303.101 109.704 303.846 109.704C304.59 109.704 305.252 109.886 305.831 110.25C306.411 110.613 306.867 111.13 307.199 111.801C307.532 112.471 307.698 113.267 307.698 114.187ZM306.675 114.187C306.675 113.431 306.549 112.794 306.296 112.274C306.046 111.754 305.706 111.36 305.277 111.093C304.851 110.826 304.374 110.693 303.846 110.693C303.317 110.693 302.838 110.826 302.409 111.093C301.983 111.36 301.644 111.754 301.391 112.274C301.141 112.794 301.016 113.431 301.016 114.187C301.016 114.943 301.141 115.581 301.391 116.1C301.644 116.62 301.983 117.014 302.409 117.281C302.838 117.548 303.317 117.681 303.846 117.681C304.374 117.681 304.851 117.548 305.277 117.281C305.706 117.014 306.046 116.62 306.296 116.1C306.549 115.581 306.675 114.943 306.675 114.187ZM316.498 112.551H315.441C315.378 112.247 315.269 111.98 315.113 111.75C314.959 111.52 314.772 111.326 314.55 111.17C314.331 111.011 314.088 110.892 313.821 110.812C313.554 110.733 313.276 110.693 312.986 110.693C312.458 110.693 311.979 110.826 311.55 111.093C311.124 111.36 310.784 111.754 310.532 112.274C310.282 112.794 310.157 113.431 310.157 114.187C310.157 114.943 310.282 115.581 310.532 116.1C310.784 116.62 311.124 117.014 311.55 117.281C311.979 117.548 312.458 117.681 312.986 117.681C313.276 117.681 313.554 117.642 313.821 117.562C314.088 117.483 314.331 117.365 314.55 117.208C314.772 117.049 314.959 116.855 315.113 116.625C315.269 116.392 315.378 116.125 315.441 115.824H316.498C316.418 116.27 316.273 116.669 316.063 117.021C315.853 117.373 315.591 117.673 315.279 117.92C314.966 118.164 314.615 118.35 314.226 118.478C313.84 118.606 313.426 118.67 312.986 118.67C312.242 118.67 311.58 118.488 311 118.125C310.421 117.761 309.965 117.244 309.632 116.574C309.3 115.903 309.134 115.108 309.134 114.187C309.134 113.267 309.3 112.471 309.632 111.801C309.965 111.13 310.421 110.613 311 110.25C311.58 109.886 312.242 109.704 312.986 109.704C313.426 109.704 313.84 109.768 314.226 109.896C314.615 110.024 314.966 110.211 315.279 110.458C315.591 110.703 315.853 111.001 316.063 111.353C316.273 111.703 316.418 112.102 316.498 112.551ZM317.728 110.761V109.824H324.273V110.761H321.529V118.551H320.472V110.761H317.728ZM326.689 113.488H329.177C329.802 113.488 330.329 113.591 330.758 113.795C331.19 114 331.517 114.288 331.738 114.66C331.963 115.032 332.075 115.471 332.075 115.977C332.075 116.483 331.963 116.929 331.738 117.315C331.517 117.701 331.19 118.004 330.758 118.223C330.329 118.441 329.802 118.551 329.177 118.551H325.904V109.824H326.961V117.63H329.177C329.575 117.63 329.912 117.551 330.187 117.392C330.466 117.23 330.676 117.022 330.818 116.77C330.963 116.514 331.035 116.244 331.035 115.96C331.035 115.542 330.875 115.183 330.554 114.882C330.233 114.578 329.774 114.426 329.177 114.426H326.689V113.488ZM248.057 133.551V124.824H253.324V125.761H249.114V128.488H251.33C251.955 128.488 252.482 128.591 252.911 128.795C253.342 129 253.669 129.288 253.891 129.66C254.115 130.032 254.227 130.471 254.227 130.977C254.227 131.483 254.115 131.929 253.891 132.315C253.669 132.701 253.342 133.004 252.911 133.223C252.482 133.441 251.955 133.551 251.33 133.551H248.057ZM249.114 132.63H251.33C251.727 132.63 252.064 132.551 252.339 132.392C252.618 132.23 252.828 132.022 252.97 131.77C253.115 131.514 253.188 131.244 253.188 130.96C253.188 130.542 253.027 130.183 252.706 129.882C252.385 129.578 251.926 129.426 251.33 129.426H249.114V132.63ZM255.967 133.551V124.824H261.234V125.761H257.024V128.71H260.961V129.647H257.024V132.613H261.302V133.551H255.967ZM262.389 135.664V132.613H262.951C263.145 132.437 263.326 132.189 263.497 131.868C263.67 131.544 263.816 131.112 263.936 130.572C264.058 130.029 264.139 129.341 264.179 128.505L264.366 124.824H269.548V132.613H270.554V135.647H269.548V133.551H263.395V135.664H262.389ZM264.213 132.613H268.542V125.761H265.321L265.184 128.505C265.15 129.142 265.091 129.718 265.005 130.235C264.92 130.75 264.811 131.206 264.677 131.603C264.544 131.998 264.389 132.335 264.213 132.613ZM272.151 133.551V124.824H275.099C275.784 124.824 276.344 124.947 276.778 125.194C277.216 125.439 277.54 125.77 277.75 126.187C277.96 126.605 278.065 127.071 278.065 127.585C278.065 128.099 277.96 128.566 277.75 128.987C277.543 129.407 277.222 129.743 276.787 129.993C276.352 130.24 275.795 130.363 275.116 130.363H273.003V129.426H275.082C275.551 129.426 275.928 129.345 276.212 129.183C276.496 129.021 276.702 128.802 276.83 128.527C276.96 128.248 277.026 127.934 277.026 127.585C277.026 127.235 276.96 126.923 276.83 126.647C276.702 126.372 276.494 126.156 276.207 126C275.92 125.841 275.54 125.761 275.065 125.761H273.207V133.551H272.151ZM279.235 133.551H278.127L281.332 124.824H282.423L285.627 133.551H284.519L281.911 126.204H281.843L279.235 133.551ZM279.644 130.142H284.11V131.079H279.644V130.142Z" fill="#866857"/>
<path d="M41.0568 194.551V185.824H42.1136V189.71H46.767V185.824H47.8239V194.551H46.767V190.647H42.1136V194.551H41.0568ZM52.8544 185.824V194.551H51.7976V186.931H51.7464L49.6158 188.346V187.272L51.7976 185.824H52.8544Z" fill="#866857"/>
<path d="M73.0568 252.551V243.824H74.1136V247.71H78.767V243.824H79.8239V252.551H78.767V248.647H74.1136V252.551H73.0568ZM81.7862 252.551V251.784L84.6669 248.63C85.005 248.261 85.2834 247.94 85.5021 247.667C85.7209 247.392 85.8828 247.133 85.9879 246.892C86.0959 246.647 86.1499 246.392 86.1499 246.125C86.1499 245.818 86.076 245.552 85.9283 245.328C85.7834 245.103 85.5845 244.93 85.3317 244.808C85.0788 244.686 84.7947 244.625 84.4794 244.625C84.1442 244.625 83.8516 244.694 83.6016 244.833C83.3544 244.97 83.1626 245.162 83.0263 245.409C82.8928 245.656 82.826 245.946 82.826 246.278H81.8203C81.8203 245.767 81.9382 245.318 82.174 244.931C82.4098 244.545 82.7308 244.244 83.1371 244.028C83.5462 243.812 84.005 243.704 84.5135 243.704C85.0249 243.704 85.478 243.812 85.8729 244.028C86.2678 244.244 86.5774 244.535 86.8018 244.902C87.0263 245.268 87.1385 245.676 87.1385 246.125C87.1385 246.446 87.0803 246.76 86.9638 247.066C86.8501 247.37 86.6513 247.71 86.3672 248.085C86.0859 248.457 85.6953 248.912 85.1953 249.449L83.2351 251.545V251.613H87.2919V252.551H81.7862Z" fill="#866857"/>
<path d="M255.42 200.187C255.42 201.108 255.254 201.903 254.922 202.574C254.589 203.244 254.134 203.761 253.554 204.125C252.974 204.488 252.313 204.67 251.568 204.67C250.824 204.67 250.162 204.488 249.582 204.125C249.003 203.761 248.547 203.244 248.214 202.574C247.882 201.903 247.716 201.108 247.716 200.187C247.716 199.267 247.882 198.471 248.214 197.801C248.547 197.13 249.003 196.613 249.582 196.25C250.162 195.886 250.824 195.704 251.568 195.704C252.313 195.704 252.974 195.886 253.554 196.25C254.134 196.613 254.589 197.13 254.922 197.801C255.254 198.471 255.42 199.267 255.42 200.187ZM254.398 200.187C254.398 199.431 254.271 198.794 254.018 198.274C253.768 197.754 253.429 197.36 253 197.093C252.574 196.826 252.097 196.693 251.568 196.693C251.04 196.693 250.561 196.826 250.132 197.093C249.706 197.36 249.366 197.754 249.114 198.274C248.864 198.794 248.739 199.431 248.739 200.187C248.739 200.943 248.864 201.581 249.114 202.1C249.366 202.62 249.706 203.014 250.132 203.281C250.561 203.548 251.04 203.681 251.568 203.681C252.097 203.681 252.574 203.548 253 203.281C253.429 203.014 253.768 202.62 254.018 202.1C254.271 201.581 254.398 200.943 254.398 200.187ZM262.328 204.551L259.328 200.545H258.254V204.551H257.197V195.824H258.254V199.608H258.714L262.209 195.824H263.47L259.942 199.659L263.589 204.551H262.328ZM264.955 204.551V195.824H267.904C268.589 195.824 269.148 195.947 269.583 196.194C270.021 196.439 270.344 196.77 270.555 197.187C270.765 197.605 270.87 198.071 270.87 198.585C270.87 199.099 270.765 199.566 270.555 199.987C270.347 200.407 270.026 200.743 269.592 200.993C269.157 201.24 268.6 201.363 267.921 201.363H265.808V200.426H267.887C268.356 200.426 268.732 200.345 269.016 200.183C269.3 200.021 269.506 199.802 269.634 199.527C269.765 199.248 269.83 198.934 269.83 198.585C269.83 198.235 269.765 197.923 269.634 197.647C269.506 197.372 269.299 197.156 269.012 197C268.725 196.841 268.344 196.761 267.87 196.761H266.012V204.551H264.955ZM273.033 204.67V203.681H273.578C273.788 203.681 273.964 203.64 274.107 203.558C274.251 203.475 274.371 203.369 274.464 203.238C274.561 203.108 274.641 202.971 274.703 202.829L274.839 202.505L271.822 195.824H272.964L275.368 201.244L277.567 195.824H278.692L275.675 203.136C275.555 203.409 275.419 203.662 275.266 203.895C275.115 204.127 274.909 204.315 274.648 204.457C274.389 204.599 274.038 204.67 273.595 204.67H273.033ZM285.225 195.824V204.551H284.169V195.824H285.225ZM279.328 204.551L282.157 200L279.566 195.824H280.845L283.112 199.693H286.299L288.566 195.824H289.845L287.237 200.017L290.066 204.551H288.856L286.487 200.681H282.907L280.521 204.551H279.328ZM291.451 204.551V195.824H292.508V199.71H297.162V195.824H298.218V204.551H297.162V200.647H292.508V204.551H291.451ZM307.698 200.187C307.698 201.108 307.532 201.903 307.199 202.574C306.867 203.244 306.411 203.761 305.831 204.125C305.252 204.488 304.59 204.67 303.846 204.67C303.101 204.67 302.439 204.488 301.86 204.125C301.28 203.761 300.824 203.244 300.492 202.574C300.159 201.903 299.993 201.108 299.993 200.187C299.993 199.267 300.159 198.471 300.492 197.801C300.824 197.13 301.28 196.613 301.86 196.25C302.439 195.886 303.101 195.704 303.846 195.704C304.59 195.704 305.252 195.886 305.831 196.25C306.411 196.613 306.867 197.13 307.199 197.801C307.532 198.471 307.698 199.267 307.698 200.187ZM306.675 200.187C306.675 199.431 306.549 198.794 306.296 198.274C306.046 197.754 305.706 197.36 305.277 197.093C304.851 196.826 304.374 196.693 303.846 196.693C303.317 196.693 302.838 196.826 302.409 197.093C301.983 197.36 301.644 197.754 301.391 198.274C301.141 198.794 301.016 199.431 301.016 200.187C301.016 200.943 301.141 201.581 301.391 202.1C301.644 202.62 301.983 203.014 302.409 203.281C302.838 203.548 303.317 203.681 303.846 203.681C304.374 203.681 304.851 203.548 305.277 203.281C305.706 203.014 306.046 202.62 306.296 202.1C306.549 201.581 306.675 200.943 306.675 200.187ZM316.498 198.551H315.441C315.378 198.247 315.269 197.98 315.113 197.75C314.959 197.52 314.772 197.326 314.55 197.17C314.331 197.011 314.088 196.892 313.821 196.812C313.554 196.733 313.276 196.693 312.986 196.693C312.458 196.693 311.979 196.826 311.55 197.093C311.124 197.36 310.784 197.754 310.532 198.274C310.282 198.794 310.157 199.431 310.157 200.187C310.157 200.943 310.282 201.581 310.532 202.1C310.784 202.62 311.124 203.014 311.55 203.281C311.979 203.548 312.458 203.681 312.986 203.681C313.276 203.681 313.554 203.642 313.821 203.562C314.088 203.483 314.331 203.365 314.55 203.208C314.772 203.049 314.959 202.855 315.113 202.625C315.269 202.392 315.378 202.125 315.441 201.824H316.498C316.418 202.27 316.273 202.669 316.063 203.021C315.853 203.373 315.591 203.673 315.279 203.92C314.966 204.164 314.615 204.35 314.226 204.478C313.84 204.606 313.426 204.67 312.986 204.67C312.242 204.67 311.58 204.488 311 204.125C310.421 203.761 309.965 203.244 309.632 202.574C309.3 201.903 309.134 201.108 309.134 200.187C309.134 199.267 309.3 198.471 309.632 197.801C309.965 197.13 310.421 196.613 311 196.25C311.58 195.886 312.242 195.704 312.986 195.704C313.426 195.704 313.84 195.768 314.226 195.896C314.615 196.024 314.966 196.211 315.279 196.458C315.591 196.703 315.853 197.001 316.063 197.353C316.273 197.703 316.418 198.102 316.498 198.551ZM317.728 196.761V195.824H324.273V196.761H321.529V204.551H320.472V196.761H317.728ZM326.689 199.488H329.177C329.802 199.488 330.329 199.591 330.758 199.795C331.19 200 331.517 200.288 331.738 200.66C331.963 201.032 332.075 201.471 332.075 201.977C332.075 202.483 331.963 202.929 331.738 203.315C331.517 203.701 331.19 204.004 330.758 204.223C330.329 204.441 329.802 204.551 329.177 204.551H325.904V195.824H326.961V203.63H329.177C329.575 203.63 329.912 203.551 330.187 203.392C330.466 203.23 330.676 203.022 330.818 202.77C330.963 202.514 331.035 202.244 331.035 201.96C331.035 201.542 330.875 201.183 330.554 200.882C330.233 200.578 329.774 200.426 329.177 200.426H326.689V199.488ZM248.057 210.824H249.097V217.693H249.182L253.955 210.824H254.977V219.551H253.92V212.699H253.835L249.08 219.551H248.057V210.824ZM262.223 219.551L259.223 215.545H258.149V219.551H257.092V210.824H258.149V214.608H258.609L262.103 210.824H263.365L259.836 214.659L263.484 219.551H262.223ZM264.85 219.551V210.824H267.799C268.483 210.824 269.043 210.947 269.478 211.194C269.915 211.439 270.239 211.77 270.449 212.187C270.659 212.605 270.765 213.071 270.765 213.585C270.765 214.099 270.659 214.566 270.449 214.987C270.242 215.407 269.921 215.743 269.486 215.993C269.051 216.24 268.495 216.363 267.816 216.363H265.702V215.426H267.782C268.25 215.426 268.627 215.345 268.911 215.183C269.195 215.021 269.401 214.802 269.529 214.527C269.659 214.248 269.725 213.934 269.725 213.585C269.725 213.235 269.659 212.923 269.529 212.647C269.401 212.372 269.194 212.156 268.907 212C268.62 211.841 268.239 211.761 267.765 211.761H265.907V219.551H264.85ZM273.251 214.488H275.74C276.365 214.488 276.892 214.591 277.321 214.795C277.752 215 278.079 215.288 278.301 215.66C278.525 216.032 278.637 216.471 278.637 216.977C278.637 217.483 278.525 217.929 278.301 218.315C278.079 218.701 277.752 219.004 277.321 219.223C276.892 219.441 276.365 219.551 275.74 219.551H272.467V210.824H273.524V218.63H275.74C276.137 218.63 276.474 218.551 276.75 218.392C277.028 218.23 277.238 218.022 277.38 217.77C277.525 217.514 277.598 217.244 277.598 216.96C277.598 216.542 277.437 216.183 277.116 215.882C276.795 215.578 276.336 215.426 275.74 215.426H273.251V214.488ZM280.547 210.824V219.551H279.49V210.824H280.547Z" fill="#866857"/>
<path d="M255.42 270.187C255.42 271.108 255.254 271.903 254.922 272.574C254.589 273.244 254.134 273.761 253.554 274.125C252.974 274.488 252.313 274.67 251.568 274.67C250.824 274.67 250.162 274.488 249.582 274.125C249.003 273.761 248.547 273.244 248.214 272.574C247.882 271.903 247.716 271.108 247.716 270.187C247.716 269.267 247.882 268.471 248.214 267.801C248.547 267.13 249.003 266.613 249.582 266.25C250.162 265.886 250.824 265.704 251.568 265.704C252.313 265.704 252.974 265.886 253.554 266.25C254.134 266.613 254.589 267.13 254.922 267.801C255.254 268.471 255.42 269.267 255.42 270.187ZM254.398 270.187C254.398 269.431 254.271 268.794 254.018 268.274C253.768 267.754 253.429 267.36 253 267.093C252.574 266.826 252.097 266.693 251.568 266.693C251.04 266.693 250.561 266.826 250.132 267.093C249.706 267.36 249.366 267.754 249.114 268.274C248.864 268.794 248.739 269.431 248.739 270.187C248.739 270.943 248.864 271.581 249.114 272.1C249.366 272.62 249.706 273.014 250.132 273.281C250.561 273.548 251.04 273.681 251.568 273.681C252.097 273.681 252.574 273.548 253 273.281C253.429 273.014 253.768 272.62 254.018 272.1C254.271 271.581 254.398 270.943 254.398 270.187ZM262.328 274.551L259.328 270.545H258.254V274.551H257.197V265.824H258.254V269.608H258.714L262.209 265.824H263.47L259.942 269.659L263.589 274.551H262.328ZM264.955 274.551V265.824H267.904C268.589 265.824 269.148 265.947 269.583 266.194C270.021 266.439 270.344 266.77 270.555 267.187C270.765 267.605 270.87 268.071 270.87 268.585C270.87 269.099 270.765 269.566 270.555 269.987C270.347 270.407 270.026 270.743 269.592 270.993C269.157 271.24 268.6 271.363 267.921 271.363H265.808V270.426H267.887C268.356 270.426 268.732 270.345 269.016 270.183C269.3 270.021 269.506 269.802 269.634 269.527C269.765 269.248 269.83 268.934 269.83 268.585C269.83 268.235 269.765 267.923 269.634 267.647C269.506 267.372 269.299 267.156 269.012 267C268.725 266.841 268.344 266.761 267.87 266.761H266.012V274.551H264.955ZM273.033 274.67V273.681H273.578C273.788 273.681 273.964 273.64 274.107 273.558C274.251 273.475 274.371 273.369 274.464 273.238C274.561 273.108 274.641 272.971 274.703 272.829L274.839 272.505L271.822 265.824H272.964L275.368 271.244L277.567 265.824H278.692L275.675 273.136C275.555 273.409 275.419 273.662 275.266 273.895C275.115 274.127 274.909 274.315 274.648 274.457C274.389 274.599 274.038 274.67 273.595 274.67H273.033ZM285.225 265.824V274.551H284.169V265.824H285.225ZM279.328 274.551L282.157 270L279.566 265.824H280.845L283.112 269.693H286.299L288.566 265.824H289.845L287.237 270.017L290.066 274.551H288.856L286.487 270.681H282.907L280.521 274.551H279.328ZM291.451 274.551V265.824H292.508V269.71H297.162V265.824H298.218V274.551H297.162V270.647H292.508V274.551H291.451ZM307.698 270.187C307.698 271.108 307.532 271.903 307.199 272.574C306.867 273.244 306.411 273.761 305.831 274.125C305.252 274.488 304.59 274.67 303.846 274.67C303.101 274.67 302.439 274.488 301.86 274.125C301.28 273.761 300.824 273.244 300.492 272.574C300.159 271.903 299.993 271.108 299.993 270.187C299.993 269.267 300.159 268.471 300.492 267.801C300.824 267.13 301.28 266.613 301.86 266.25C302.439 265.886 303.101 265.704 303.846 265.704C304.59 265.704 305.252 265.886 305.831 266.25C306.411 266.613 306.867 267.13 307.199 267.801C307.532 268.471 307.698 269.267 307.698 270.187ZM306.675 270.187C306.675 269.431 306.549 268.794 306.296 268.274C306.046 267.754 305.706 267.36 305.277 267.093C304.851 266.826 304.374 266.693 303.846 266.693C303.317 266.693 302.838 266.826 302.409 267.093C301.983 267.36 301.644 267.754 301.391 268.274C301.141 268.794 301.016 269.431 301.016 270.187C301.016 270.943 301.141 271.581 301.391 272.1C301.644 272.62 301.983 273.014 302.409 273.281C302.838 273.548 303.317 273.681 303.846 273.681C304.374 273.681 304.851 273.548 305.277 273.281C305.706 273.014 306.046 272.62 306.296 272.1C306.549 271.581 306.675 270.943 306.675 270.187ZM316.498 268.551H315.441C315.378 268.247 315.269 267.98 315.113 267.75C314.959 267.52 314.772 267.326 314.55 267.17C314.331 267.011 314.088 266.892 313.821 266.812C313.554 266.733 313.276 266.693 312.986 266.693C312.458 266.693 311.979 266.826 311.55 267.093C311.124 267.36 310.784 267.754 310.532 268.274C310.282 268.794 310.157 269.431 310.157 270.187C310.157 270.943 310.282 271.581 310.532 272.1C310.784 272.62 311.124 273.014 311.55 273.281C311.979 273.548 312.458 273.681 312.986 273.681C313.276 273.681 313.554 273.642 313.821 273.562C314.088 273.483 314.331 273.365 314.55 273.208C314.772 273.049 314.959 272.855 315.113 272.625C315.269 272.392 315.378 272.125 315.441 271.824H316.498C316.418 272.27 316.273 272.669 316.063 273.021C315.853 273.373 315.591 273.673 315.279 273.92C314.966 274.164 314.615 274.35 314.226 274.478C313.84 274.606 313.426 274.67 312.986 274.67C312.242 274.67 311.58 274.488 311 274.125C310.421 273.761 309.965 273.244 309.632 272.574C309.3 271.903 309.134 271.108 309.134 270.187C309.134 269.267 309.3 268.471 309.632 267.801C309.965 267.13 310.421 266.613 311 266.25C311.58 265.886 312.242 265.704 312.986 265.704C313.426 265.704 313.84 265.768 314.226 265.896C314.615 266.024 314.966 266.211 315.279 266.458C315.591 266.703 315.853 267.001 316.063 267.353C316.273 267.703 316.418 268.102 316.498 268.551ZM317.728 266.761V265.824H324.273V266.761H321.529V274.551H320.472V266.761H317.728ZM326.689 269.488H329.177C329.802 269.488 330.329 269.591 330.758 269.795C331.19 270 331.517 270.288 331.738 270.66C331.963 271.032 332.075 271.471 332.075 271.977C332.075 272.483 331.963 272.929 331.738 273.315C331.517 273.701 331.19 274.004 330.758 274.223C330.329 274.441 329.802 274.551 329.177 274.551H325.904V265.824H326.961V273.63H329.177C329.575 273.63 329.912 273.551 330.187 273.392C330.466 273.23 330.676 273.022 330.818 272.77C330.963 272.514 331.035 272.244 331.035 271.96C331.035 271.542 330.875 271.183 330.554 270.882C330.233 270.578 329.774 270.426 329.177 270.426H326.689V269.488ZM258.216 288.613L258.097 291.613H257.057V289.551H256.222V288.613H258.216ZM248.057 280.824H249.114V288.579H252.182V280.824H253.239V288.579H256.307V280.824H257.364V289.551H248.057V280.824ZM259.822 280.824H260.862V287.693H260.947L265.72 280.824H266.743V289.551H265.686V282.699H265.601L260.845 289.551H259.822V280.824ZM273.988 289.551L270.988 285.545H269.914V289.551H268.858V280.824H269.914V284.608H270.375L273.869 280.824H275.13L271.602 284.659L275.25 289.551H273.988ZM283.569 285.187C283.569 286.108 283.403 286.903 283.07 287.574C282.738 288.244 282.282 288.761 281.702 289.125C281.123 289.488 280.461 289.67 279.717 289.67C278.972 289.67 278.31 289.488 277.731 289.125C277.151 288.761 276.695 288.244 276.363 287.574C276.031 286.903 275.864 286.108 275.864 285.187C275.864 284.267 276.031 283.471 276.363 282.801C276.695 282.13 277.151 281.613 277.731 281.25C278.31 280.886 278.972 280.704 279.717 280.704C280.461 280.704 281.123 280.886 281.702 281.25C282.282 281.613 282.738 282.13 283.07 282.801C283.403 283.471 283.569 284.267 283.569 285.187ZM282.546 285.187C282.546 284.431 282.42 283.794 282.167 283.274C281.917 282.754 281.577 282.36 281.148 282.093C280.722 281.826 280.245 281.693 279.717 281.693C279.188 281.693 278.71 281.826 278.281 282.093C277.854 282.36 277.515 282.754 277.262 283.274C277.012 283.794 276.887 284.431 276.887 285.187C276.887 285.943 277.012 286.581 277.262 287.1C277.515 287.62 277.854 288.014 278.281 288.281C278.71 288.548 279.188 288.681 279.717 288.681C280.245 288.681 280.722 288.548 281.148 288.281C281.577 288.014 281.917 287.62 282.167 287.1C282.42 286.581 282.546 285.943 282.546 285.187ZM284.596 289.551V288.579H284.852C285.215 288.579 285.498 288.463 285.7 288.23C285.901 287.997 286.046 287.62 286.134 287.1C286.225 286.581 286.286 285.892 286.317 285.034L286.471 280.824H291.789V289.551H290.732V281.761H287.477L287.34 285.238C287.306 286.153 287.222 286.931 287.089 287.574C286.955 288.216 286.721 288.706 286.386 289.044C286.05 289.382 285.562 289.551 284.92 289.551H284.596ZM301.264 285.187C301.264 286.108 301.098 286.903 300.766 287.574C300.433 288.244 299.977 288.761 299.398 289.125C298.818 289.488 298.156 289.67 297.412 289.67C296.668 289.67 296.006 289.488 295.426 289.125C294.847 288.761 294.391 288.244 294.058 287.574C293.726 286.903 293.56 286.108 293.56 285.187C293.56 284.267 293.726 283.471 294.058 282.801C294.391 282.13 294.847 281.613 295.426 281.25C296.006 280.886 296.668 280.704 297.412 280.704C298.156 280.704 298.818 280.886 299.398 281.25C299.977 281.613 300.433 282.13 300.766 282.801C301.098 283.471 301.264 284.267 301.264 285.187ZM300.241 285.187C300.241 284.431 300.115 283.794 299.862 283.274C299.612 282.754 299.273 282.36 298.844 282.093C298.418 281.826 297.94 281.693 297.412 281.693C296.884 281.693 296.405 281.826 295.976 282.093C295.55 282.36 295.21 282.754 294.957 283.274C294.707 283.794 294.582 284.431 294.582 285.187C294.582 285.943 294.707 286.581 294.957 287.1C295.21 287.62 295.55 288.014 295.976 288.281C296.405 288.548 296.884 288.681 297.412 288.681C297.94 288.681 298.418 288.548 298.844 288.281C299.273 288.014 299.612 287.62 299.862 287.1C300.115 286.581 300.241 285.943 300.241 285.187ZM302.201 281.761V280.824H308.746V281.761H306.002V289.551H304.945V281.761H302.201ZM315.508 289.551L312.508 285.545H311.434V289.551H310.377V280.824H311.434V284.608H311.894L315.388 280.824H316.65L313.121 284.659L316.769 289.551H315.508ZM318.135 280.824H319.175V287.693H319.26L324.033 280.824H325.055V289.551H323.999V282.699H323.913L319.158 289.551H318.135V280.824Z" fill="#866857"/>
<path d="M71.1541 87.2781V94.5508H70.4936V87.8746H66.5767V94.5508H65.9126V87.2781H71.1541ZM72.8048 96.5962V89.0962H73.4192V90.1367H73.4938C73.5695 89.9734 73.6737 89.8065 73.8063 89.636C73.9388 89.4632 74.114 89.3176 74.3318 89.1992C74.552 89.0808 74.829 89.0217 75.1628 89.0217C75.6126 89.0217 76.0056 89.14 76.3418 89.3768C76.6803 89.6112 76.9431 89.9402 77.1301 90.364C77.3195 90.7854 77.4142 91.2766 77.4142 91.8377C77.4142 92.4012 77.3195 92.8948 77.1301 93.3185C76.9431 93.7423 76.6803 94.0726 76.3418 94.3093C76.0056 94.546 75.615 94.6644 75.1699 94.6644C74.8408 94.6644 74.565 94.6052 74.3425 94.4869C74.1223 94.3685 73.9436 94.2229 73.8063 94.0501C73.6713 93.8749 73.5671 93.7044 73.4938 93.5387H73.4369V96.5962H72.8048ZM73.4298 91.8271C73.4298 92.2674 73.4949 92.658 73.6251 92.9989C73.7577 93.3375 73.9471 93.6038 74.1933 93.7979C74.4419 93.9897 74.7426 94.0856 75.0953 94.0856C75.4575 94.0856 75.7629 93.9862 76.0115 93.7873C76.2625 93.5861 76.453 93.315 76.5832 92.9741C76.7158 92.6332 76.7821 92.2508 76.7821 91.8271C76.7821 91.408 76.717 91.0304 76.5868 90.6942C76.4589 90.3581 76.2696 90.0917 76.0186 89.8952C75.7677 89.6964 75.4599 89.5969 75.0953 89.5969C74.7402 89.5969 74.4384 89.6928 74.1898 89.8846C73.9412 90.074 73.7518 90.3368 73.6216 90.6729C73.4938 91.0067 73.4298 91.3915 73.4298 91.8271ZM80.821 94.6644C80.3498 94.6644 79.9332 94.5449 79.571 94.3058C79.2111 94.0666 78.9294 93.7364 78.7258 93.315C78.5222 92.8912 78.4204 92.4023 78.4204 91.8484C78.4204 91.2897 78.5222 90.7984 78.7258 90.3746C78.9294 89.9485 79.2111 89.6171 79.571 89.3803C79.9332 89.1412 80.3498 89.0217 80.821 89.0217C81.2921 89.0217 81.7076 89.1412 82.0674 89.3803C82.4272 89.6194 82.709 89.9509 82.9126 90.3746C83.1185 90.7984 83.2215 91.2897 83.2215 91.8484C83.2215 92.4023 83.1197 92.8912 82.9161 93.315C82.7125 93.7364 82.4296 94.0666 82.0674 94.3058C81.7076 94.5449 81.2921 94.6644 80.821 94.6644ZM80.821 94.0856C81.1997 94.0856 81.5205 93.9838 81.7833 93.7802C82.0461 93.5766 82.245 93.3055 82.3799 92.967C82.5172 92.6284 82.5859 92.2556 82.5859 91.8484C82.5859 91.4412 82.5172 91.0671 82.3799 90.7262C82.245 90.3853 82.0461 90.1119 81.7833 89.9059C81.5205 89.6999 81.1997 89.5969 80.821 89.5969C80.4445 89.5969 80.1237 89.6999 79.8586 89.9059C79.5958 90.1119 79.3958 90.3853 79.2585 90.7262C79.1235 91.0671 79.056 91.4412 79.056 91.8484C79.056 92.2556 79.1235 92.6284 79.2585 92.967C79.3958 93.3055 79.5958 93.5766 79.8586 93.7802C80.1214 93.9838 80.4422 94.0856 80.821 94.0856ZM87.3607 93.6665L89.4097 89.0962H90.024L87.6128 94.5508H87.1086L84.7257 89.0962H85.3294L87.3607 93.6665ZM85.1412 89.0962V94.5508H84.5091V89.0962H85.1412ZM89.5802 94.5508V89.0962H90.2123V94.5508H89.5802ZM93.9972 94.6644C93.4882 94.6644 93.0479 94.546 92.6762 94.3093C92.3045 94.0702 92.0168 93.7399 91.8132 93.3185C91.612 92.8948 91.5114 92.4071 91.5114 91.8555C91.5114 91.3062 91.612 90.8185 91.8132 90.3924C92.0168 89.9639 92.2974 89.6289 92.6549 89.3874C93.0147 89.1436 93.4302 89.0217 93.9013 89.0217C94.1972 89.0217 94.4825 89.0761 94.7571 89.185C95.0318 89.2915 95.278 89.4561 95.4958 89.6786C95.7159 89.8988 95.89 90.177 96.0178 90.5131C96.1456 90.8469 96.2096 91.2423 96.2096 91.6992V92.0117H91.9482V91.4542H95.5632C95.5632 91.1038 95.4922 90.7889 95.3502 90.5096C95.2105 90.2279 95.0152 90.0053 94.7642 89.842C94.5157 89.6786 94.228 89.5969 93.9013 89.5969C93.5557 89.5969 93.2515 89.6893 92.9887 89.8739C92.7259 90.0586 92.5199 90.3024 92.3708 90.6055C92.224 90.9085 92.1494 91.2399 92.1471 91.5998V91.9336C92.1471 92.3668 92.2216 92.7456 92.3708 93.07C92.5223 93.3919 92.7365 93.6417 93.0135 93.8192C93.2905 93.9968 93.6184 94.0856 93.9972 94.0856C94.2552 94.0856 94.4813 94.0453 94.6755 93.9648C94.872 93.8844 95.0365 93.7766 95.1691 93.6417C95.304 93.5044 95.4058 93.354 95.4745 93.1907L96.0746 93.386C95.9917 93.6156 95.8556 93.8275 95.6662 94.0217C95.4792 94.2158 95.2448 94.372 94.9631 94.4904C94.6837 94.6064 94.3618 94.6644 93.9972 94.6644ZM97.0151 94.5508L99.4228 91.7951L97.0471 89.0962H97.8176L99.9093 91.5217H100.275V89.0962H100.911V91.5217H101.269L103.361 89.0962H104.132L101.763 91.7951L104.164 94.5508H103.382L101.259 92.1183H100.911V94.5508H100.275V92.1183H99.927L97.7963 94.5508H97.0151ZM109.073 91.5288V92.1254H105.867V91.5288H109.073ZM106.023 89.0962V94.5508H105.391V89.0962H106.023ZM109.538 89.0962V94.5508H108.906V89.0962H109.538ZM113.241 94.6644C112.77 94.6644 112.353 94.5449 111.991 94.3058C111.631 94.0666 111.349 93.7364 111.146 93.315C110.942 92.8912 110.84 92.4023 110.84 91.8484C110.84 91.2897 110.942 90.7984 111.146 90.3746C111.349 89.9485 111.631 89.6171 111.991 89.3803C112.353 89.1412 112.77 89.0217 113.241 89.0217C113.712 89.0217 114.127 89.1412 114.487 89.3803C114.847 89.6194 115.129 89.9509 115.332 90.3746C115.538 90.7984 115.641 91.2897 115.641 91.8484C115.641 92.4023 115.54 92.8912 115.336 93.315C115.132 93.7364 114.85 94.0666 114.487 94.3058C114.127 94.5449 113.712 94.6644 113.241 94.6644ZM113.241 94.0856C113.62 94.0856 113.94 93.9838 114.203 93.7802C114.466 93.5766 114.665 93.3055 114.8 92.967C114.937 92.6284 115.006 92.2556 115.006 91.8484C115.006 91.4412 114.937 91.0671 114.8 90.7262C114.665 90.3853 114.466 90.1119 114.203 89.9059C113.94 89.6999 113.62 89.5969 113.241 89.5969C112.864 89.5969 112.544 89.6999 112.279 89.9059C112.016 90.1119 111.816 90.3853 111.678 90.7262C111.543 91.0671 111.476 91.4412 111.476 91.8484C111.476 92.2556 111.543 92.6284 111.678 92.967C111.816 93.3055 112.016 93.5766 112.279 93.7802C112.541 93.9838 112.862 94.0856 113.241 94.0856ZM119.06 94.6644C118.572 94.6644 118.147 94.5425 117.785 94.2987C117.425 94.0548 117.146 93.721 116.947 93.2972C116.748 92.8735 116.649 92.3905 116.649 91.8484C116.649 91.3015 116.749 90.815 116.95 90.3888C117.154 89.9627 117.436 89.6289 117.796 89.3874C118.155 89.1436 118.573 89.0217 119.049 89.0217C119.414 89.0217 119.744 89.0927 120.04 89.2347C120.336 89.3744 120.58 89.5721 120.771 89.8278C120.966 90.0811 121.087 90.377 121.137 90.7156H120.498C120.432 90.4078 120.272 90.145 120.019 89.9272C119.768 89.707 119.448 89.5969 119.06 89.5969C118.712 89.5969 118.404 89.6916 118.136 89.881C117.869 90.0681 117.659 90.3297 117.508 90.6658C117.359 90.9996 117.284 91.3867 117.284 91.8271C117.284 92.2698 117.358 92.6616 117.504 93.0025C117.651 93.341 117.857 93.6062 118.122 93.7979C118.39 93.9897 118.702 94.0856 119.06 94.0856C119.301 94.0856 119.521 94.0406 119.72 93.9506C119.921 93.8583 120.09 93.7281 120.225 93.56C120.362 93.3919 120.454 93.1919 120.501 92.9599H121.141C121.093 93.2889 120.976 93.5825 120.789 93.8406C120.604 94.0962 120.364 94.2975 120.068 94.4442C119.775 94.591 119.439 94.6644 119.06 94.6644ZM121.944 89.6928V89.0962H126.206V89.6928H124.402V94.5508H123.77V89.6928H121.944ZM127.968 91.2021H129.562C130.175 91.2021 130.649 91.3512 130.982 91.6495C131.316 91.9478 131.483 92.3514 131.483 92.8604C131.483 93.199 131.409 93.4949 131.259 93.7482C131.11 94.0015 130.892 94.1992 130.606 94.3413C130.32 94.4809 129.972 94.5508 129.562 94.5508H127.442V89.0962H128.074V93.9542H129.562C129.948 93.9542 130.259 93.8619 130.496 93.6772C130.733 93.4925 130.851 93.2298 130.851 92.8888C130.851 92.5408 130.733 92.2721 130.496 92.0827C130.259 91.8933 129.948 91.7987 129.562 91.7987H127.968V91.2021Z" fill="black" fill-opacity="0.5"/>
<path d="M107.154 290.278V297.551H106.494V290.875H102.577V297.551H101.913V290.278H107.154ZM110.925 297.664C110.454 297.664 110.037 297.545 109.675 297.306C109.315 297.067 109.033 296.736 108.83 296.315C108.626 295.891 108.524 295.402 108.524 294.848C108.524 294.29 108.626 293.798 108.83 293.375C109.033 292.949 109.315 292.617 109.675 292.38C110.037 292.141 110.454 292.022 110.925 292.022C111.396 292.022 111.811 292.141 112.171 292.38C112.531 292.619 112.813 292.951 113.016 293.375C113.222 293.798 113.325 294.29 113.325 294.848C113.325 295.402 113.224 295.891 113.02 296.315C112.816 296.736 112.534 297.067 112.171 297.306C111.811 297.545 111.396 297.664 110.925 297.664ZM110.925 297.086C111.304 297.086 111.624 296.984 111.887 296.78C112.15 296.577 112.349 296.306 112.484 295.967C112.621 295.628 112.69 295.256 112.69 294.848C112.69 294.441 112.621 294.067 112.484 293.726C112.349 293.385 112.15 293.112 111.887 292.906C111.624 292.7 111.304 292.597 110.925 292.597C110.548 292.597 110.228 292.7 109.963 292.906C109.7 293.112 109.5 293.385 109.362 293.726C109.227 294.067 109.16 294.441 109.16 294.848C109.16 295.256 109.227 295.628 109.362 295.967C109.5 296.306 109.7 296.577 109.963 296.78C110.225 296.984 110.546 297.086 110.925 297.086ZM114.077 297.551V296.954H114.247C114.441 296.954 114.598 296.919 114.716 296.848C114.837 296.774 114.93 296.651 114.997 296.478C115.063 296.306 115.113 296.07 115.146 295.772C115.179 295.473 115.205 295.099 115.224 294.65L115.341 292.096H118.807V297.551H118.171V292.693H115.941L115.838 294.863C115.817 295.305 115.781 295.695 115.732 296.031C115.684 296.367 115.606 296.648 115.497 296.873C115.391 297.097 115.242 297.267 115.05 297.38C114.86 297.494 114.612 297.551 114.304 297.551H114.077Z" fill="black" fill-opacity="0.5"/>
<path d="M101.966 206.551V199.278H102.63V202.613H106.756V199.278H107.42V206.551H106.756V203.209H102.63V206.551H101.966ZM110.641 206.675C110.312 206.675 110.011 206.611 109.739 206.483C109.467 206.353 109.25 206.166 109.089 205.922C108.928 205.676 108.847 205.378 108.847 205.027C108.847 204.757 108.898 204.53 109 204.346C109.102 204.161 109.246 204.009 109.433 203.891C109.62 203.773 109.842 203.679 110.097 203.61C110.353 203.542 110.635 203.489 110.943 203.451C111.248 203.413 111.506 203.38 111.717 203.351C111.93 203.323 112.092 203.278 112.203 203.216C112.315 203.155 112.37 203.055 112.37 202.918V202.79C112.37 202.418 112.259 202.126 112.036 201.913C111.816 201.698 111.499 201.59 111.085 201.59C110.692 201.59 110.371 201.676 110.122 201.849C109.876 202.022 109.703 202.225 109.604 202.46L109.004 202.243C109.127 201.945 109.297 201.707 109.515 201.529C109.733 201.35 109.977 201.221 110.247 201.142C110.516 201.062 110.79 201.022 111.067 201.022C111.275 201.022 111.492 201.049 111.717 201.103C111.944 201.158 112.155 201.252 112.349 201.387C112.543 201.52 112.7 201.706 112.821 201.945C112.942 202.182 113.002 202.482 113.002 202.847V206.551H112.37V205.688H112.331C112.255 205.849 112.143 206.005 111.994 206.157C111.845 206.308 111.658 206.432 111.433 206.529C111.208 206.627 110.944 206.675 110.641 206.675ZM110.726 206.096C111.062 206.096 111.353 206.022 111.6 205.873C111.846 205.723 112.035 205.526 112.168 205.279C112.303 205.031 112.37 204.757 112.37 204.459V203.671C112.323 203.716 112.244 203.756 112.132 203.792C112.023 203.827 111.897 203.859 111.752 203.887C111.61 203.913 111.468 203.936 111.326 203.955C111.184 203.974 111.056 203.99 110.943 204.005C110.635 204.042 110.372 204.102 110.154 204.182C109.936 204.263 109.77 204.374 109.654 204.516C109.538 204.656 109.48 204.836 109.48 205.056C109.48 205.387 109.598 205.644 109.835 205.826C110.071 206.006 110.369 206.096 110.726 206.096ZM119.633 206.65C119.185 206.65 118.785 206.57 118.433 206.409C118.08 206.245 117.8 206.019 117.595 205.73C117.389 205.442 117.28 205.109 117.268 204.733H117.939C117.951 204.998 118.033 205.23 118.184 205.429C118.336 205.625 118.537 205.779 118.788 205.89C119.039 205.999 119.318 206.054 119.626 206.054C119.962 206.054 120.258 205.991 120.514 205.865C120.772 205.74 120.973 205.568 121.117 205.35C121.264 205.13 121.337 204.882 121.337 204.605C121.337 204.311 121.263 204.052 121.114 203.827C120.965 203.602 120.75 203.427 120.471 203.301C120.194 203.176 119.863 203.113 119.477 203.113H119.05V202.517H119.477C119.792 202.517 120.07 202.46 120.311 202.346C120.555 202.23 120.747 202.068 120.886 201.86C121.026 201.651 121.096 201.406 121.096 201.125C121.096 200.857 121.036 200.622 120.915 200.418C120.794 200.214 120.624 200.055 120.403 199.939C120.186 199.823 119.931 199.765 119.64 199.765C119.358 199.765 119.1 199.819 118.866 199.928C118.631 200.037 118.442 200.191 118.298 200.39C118.156 200.588 118.08 200.824 118.07 201.096H117.428C117.437 200.717 117.541 200.385 117.74 200.098C117.941 199.81 118.208 199.585 118.539 199.424C118.873 199.26 119.242 199.179 119.647 199.179C120.076 199.179 120.446 199.266 120.759 199.441C121.071 199.617 121.313 199.85 121.483 200.141C121.656 200.43 121.742 200.748 121.742 201.096C121.742 201.511 121.63 201.866 121.405 202.162C121.18 202.455 120.877 202.659 120.496 202.772V202.819C120.96 202.911 121.324 203.117 121.59 203.436C121.857 203.754 121.991 204.143 121.991 204.605C121.991 204.993 121.889 205.342 121.685 205.652C121.482 205.96 121.202 206.204 120.847 206.384C120.495 206.561 120.09 206.65 119.633 206.65ZM128.328 206.664C127.841 206.664 127.416 206.542 127.054 206.299C126.694 206.055 126.414 205.721 126.216 205.297C126.017 204.873 125.917 204.391 125.917 203.848C125.917 203.301 126.018 202.815 126.219 202.389C126.423 201.963 126.704 201.629 127.064 201.387C127.424 201.144 127.842 201.022 128.318 201.022C128.682 201.022 129.013 201.093 129.309 201.235C129.605 201.374 129.848 201.572 130.04 201.828C130.234 202.081 130.356 202.377 130.406 202.716H129.767C129.7 202.408 129.541 202.145 129.287 201.927C129.036 201.707 128.717 201.597 128.328 201.597C127.98 201.597 127.673 201.692 127.405 201.881C127.138 202.068 126.928 202.33 126.777 202.666C126.627 203 126.553 203.387 126.553 203.827C126.553 204.27 126.626 204.662 126.773 205.002C126.92 205.341 127.126 205.606 127.391 205.798C127.658 205.99 127.971 206.086 128.328 206.086C128.57 206.086 128.79 206.041 128.989 205.951C129.19 205.858 129.358 205.728 129.493 205.56C129.631 205.392 129.723 205.192 129.77 204.96H130.409C130.362 205.289 130.245 205.583 130.058 205.841C129.873 206.096 129.633 206.297 129.337 206.444C129.043 206.591 128.707 206.664 128.328 206.664ZM134.516 205.667L136.565 201.096H137.179L134.768 206.551H134.264L131.881 201.096H132.485L134.516 205.667ZM132.296 201.096V206.551H131.664V201.096H132.296ZM136.735 206.551V201.096H137.367V206.551H136.735ZM105.517 214.529V215.125H102.31V214.529H105.517ZM102.467 212.096V217.551H101.835V212.096H102.467ZM105.982 212.096V217.551H105.35V212.096H105.982ZM108.197 216.652L111.077 212.096H111.833V217.551H111.201V212.995L108.332 217.551H107.565V212.096H108.197V216.652ZM113.061 217.551L115.469 214.795L113.093 212.096H113.864L115.955 214.522H116.321V212.096H116.957V214.522H117.315L119.407 212.096H120.178L117.809 214.795L120.21 217.551H119.428L117.305 215.118H116.957V217.551H116.321V215.118H115.973L113.842 217.551H113.061ZM123.418 217.664C122.909 217.664 122.468 217.546 122.096 217.309C121.725 217.07 121.437 216.74 121.234 216.319C121.032 215.895 120.932 215.407 120.932 214.855C120.932 214.306 121.032 213.819 121.234 213.392C121.437 212.964 121.718 212.629 122.075 212.387C122.435 212.144 122.851 212.022 123.322 212.022C123.618 212.022 123.903 212.076 124.177 212.185C124.452 212.292 124.698 212.456 124.916 212.679C125.136 212.899 125.31 213.177 125.438 213.513C125.566 213.847 125.63 214.242 125.63 214.699V215.012H121.369V214.454H124.984C124.984 214.104 124.913 213.789 124.77 213.51C124.631 213.228 124.436 213.005 124.185 212.842C123.936 212.679 123.648 212.597 123.322 212.597C122.976 212.597 122.672 212.689 122.409 212.874C122.146 213.059 121.94 213.302 121.791 213.605C121.644 213.908 121.57 214.24 121.567 214.6V214.934C121.567 215.367 121.642 215.746 121.791 216.07C121.943 216.392 122.157 216.642 122.434 216.819C122.711 216.997 123.039 217.086 123.418 217.086C123.676 217.086 123.902 217.045 124.096 216.965C124.292 216.884 124.457 216.777 124.589 216.642C124.724 216.504 124.826 216.354 124.895 216.191L125.495 216.386C125.412 216.616 125.276 216.828 125.087 217.022C124.9 217.216 124.665 217.372 124.383 217.49C124.104 217.606 123.782 217.664 123.418 217.664ZM101.835 228.551V223.096H102.467V225.55H103.06L105.087 223.096H105.904L103.717 225.721L105.954 228.551H105.137L103.255 226.147H102.467V228.551H101.835ZM108.786 228.664C108.315 228.664 107.898 228.545 107.536 228.306C107.176 228.067 106.895 227.736 106.691 227.315C106.487 226.891 106.386 226.402 106.386 225.848C106.386 225.29 106.487 224.798 106.691 224.375C106.895 223.949 107.176 223.617 107.536 223.38C107.898 223.141 108.315 223.022 108.786 223.022C109.257 223.022 109.673 223.141 110.033 223.38C110.392 223.619 110.674 223.951 110.878 224.375C111.084 224.798 111.187 225.29 111.187 225.848C111.187 226.402 111.085 226.891 110.881 227.315C110.678 227.736 110.395 228.067 110.033 228.306C109.673 228.545 109.257 228.664 108.786 228.664ZM108.786 228.086C109.165 228.086 109.486 227.984 109.749 227.78C110.011 227.577 110.21 227.306 110.345 226.967C110.482 226.628 110.551 226.256 110.551 225.848C110.551 225.441 110.482 225.067 110.345 224.726C110.21 224.385 110.011 224.112 109.749 223.906C109.486 223.7 109.165 223.597 108.786 223.597C108.41 223.597 108.089 223.7 107.824 223.906C107.561 224.112 107.361 224.385 107.224 224.726C107.089 225.067 107.021 225.441 107.021 225.848C107.021 226.256 107.089 226.628 107.224 226.967C107.361 227.306 107.561 227.577 107.824 227.78C108.087 227.984 108.407 228.086 108.786 228.086ZM111.938 228.551V227.954H112.109C112.303 227.954 112.459 227.919 112.577 227.848C112.698 227.774 112.792 227.651 112.858 227.478C112.924 227.306 112.974 227.07 113.007 226.772C113.04 226.473 113.066 226.099 113.085 225.65L113.202 223.096H116.668V228.551H116.033V223.693H113.802L113.7 225.863C113.678 226.305 113.643 226.695 113.593 227.031C113.546 227.367 113.467 227.648 113.359 227.873C113.252 228.097 113.103 228.267 112.911 228.38C112.722 228.494 112.473 228.551 112.165 228.551H111.938ZM120.449 228.664C119.94 228.664 119.499 228.546 119.128 228.309C118.756 228.07 118.468 227.74 118.265 227.319C118.064 226.895 117.963 226.407 117.963 225.855C117.963 225.306 118.064 224.819 118.265 224.392C118.468 223.964 118.749 223.629 119.106 223.387C119.466 223.144 119.882 223.022 120.353 223.022C120.649 223.022 120.934 223.076 121.209 223.185C121.483 223.292 121.73 223.456 121.947 223.679C122.168 223.899 122.342 224.177 122.469 224.513C122.597 224.847 122.661 225.242 122.661 225.699V226.012H118.4V225.454H122.015C122.015 225.104 121.944 224.789 121.802 224.51C121.662 224.228 121.467 224.005 121.216 223.842C120.967 223.679 120.68 223.597 120.353 223.597C120.007 223.597 119.703 223.689 119.44 223.874C119.177 224.059 118.971 224.302 118.822 224.605C118.676 224.908 118.601 225.24 118.599 225.6V225.934C118.599 226.367 118.673 226.746 118.822 227.07C118.974 227.392 119.188 227.642 119.465 227.819C119.742 227.997 120.07 228.086 120.449 228.086C120.707 228.086 120.933 228.045 121.127 227.965C121.324 227.884 121.488 227.777 121.621 227.642C121.756 227.504 121.857 227.354 121.926 227.191L122.526 227.386C122.443 227.616 122.307 227.828 122.118 228.022C121.931 228.216 121.696 228.372 121.415 228.49C121.135 228.606 120.813 228.664 120.449 228.664ZM127.637 225.529V226.125H124.43V225.529H127.637ZM124.586 223.096V228.551H123.954V223.096H124.586ZM128.102 223.096V228.551H127.47V223.096H128.102ZM131.208 228.675C130.878 228.675 130.578 228.611 130.306 228.483C130.033 228.353 129.817 228.166 129.656 227.922C129.495 227.676 129.414 227.378 129.414 227.027C129.414 226.757 129.465 226.53 129.567 226.346C129.669 226.161 129.813 226.009 130 225.891C130.187 225.773 130.409 225.679 130.664 225.61C130.92 225.542 131.202 225.489 131.509 225.451C131.815 225.413 132.073 225.38 132.284 225.351C132.497 225.323 132.659 225.278 132.77 225.216C132.881 225.155 132.937 225.055 132.937 224.918V224.79C132.937 224.418 132.826 224.126 132.603 223.913C132.383 223.698 132.066 223.59 131.651 223.59C131.258 223.59 130.938 223.676 130.689 223.849C130.443 224.022 130.27 224.225 130.171 224.46L129.57 224.243C129.694 223.945 129.864 223.707 130.082 223.529C130.3 223.35 130.544 223.221 130.813 223.142C131.083 223.062 131.357 223.022 131.634 223.022C131.842 223.022 132.059 223.049 132.284 223.103C132.511 223.158 132.722 223.252 132.916 223.387C133.11 223.52 133.267 223.706 133.388 223.945C133.509 224.182 133.569 224.482 133.569 224.847V228.551H132.937V227.688H132.898C132.822 227.849 132.71 228.005 132.561 228.157C132.411 228.308 132.224 228.432 131.999 228.529C131.775 228.627 131.511 228.675 131.208 228.675ZM131.293 228.096C131.629 228.096 131.92 228.022 132.166 227.873C132.413 227.723 132.602 227.526 132.735 227.279C132.869 227.031 132.937 226.757 132.937 226.459V225.671C132.89 225.716 132.81 225.756 132.699 225.792C132.59 225.827 132.463 225.859 132.319 225.887C132.177 225.913 132.035 225.936 131.893 225.955C131.751 225.974 131.623 225.99 131.509 226.005C131.202 226.042 130.939 226.102 130.721 226.182C130.503 226.263 130.336 226.374 130.22 226.516C130.104 226.656 130.046 226.836 130.046 227.056C130.046 227.387 130.165 227.644 130.401 227.826C130.638 228.006 130.935 228.096 131.293 228.096Z" fill="black" fill-opacity="0.5"/>
</svg>
