<svg width="427" height="600" viewBox="0 0 427 600" fill="none" xmlns="http://www.w3.org/2000/svg">
<rect width="426.667" height="600" fill="#F3F3F3"/>
<path d="M186.852 284.066C186.126 282.938 185.022 282.106 183.738 281.718C181.697 281.217 170.234 281.076 168.616 282.049C167.561 282.689 166.801 283.719 166.5 284.916C166.306 285.758 166.292 287.712 165.538 288.209C165.432 288.279 165.312 288.326 165.187 288.346C165.062 288.366 164.934 288.359 164.811 288.325C164.631 288.272 164.464 288.181 164.32 288.06C164.176 287.939 164.059 287.789 163.976 287.62C163.5 286.746 163.789 284.859 164.081 283.943C164.635 282.24 166.007 280.917 167.583 280.128C168.172 279.831 168.807 279.638 169.462 279.556C171.969 279.204 182.86 279.024 185.106 279.761C186.549 280.237 187.797 281.422 188.654 282.638C188.993 283.21 189.393 283.744 189.845 284.232C190.272 288.752 189.845 292.408 189.916 296.654L190.039 314.435C190.039 316.688 190.36 319.265 189.958 321.487C189.803 322.326 188.9 323.468 188.343 324.131C187.069 325.616 185.27 326.55 183.322 326.737C180.9 326.945 171.334 327.072 169.275 326.518C168.105 326.161 167.023 325.56 166.102 324.755C164.388 323.31 164.046 321.582 163.877 319.438C163.609 316.134 163.789 312.707 163.789 309.386C163.789 306.167 163.479 300.321 164.081 297.493C164.251 296.696 164.903 295.751 165.425 295.141C166.659 293.702 169.416 292.793 171.267 292.673C172.783 292.578 183.731 292.43 184.366 292.944L184.401 292.98C185.48 293.822 186.376 293.731 187.747 294.178C187.816 293.151 187.816 292.12 187.747 291.093C187.772 289.651 188.005 286.139 187.233 285.046C187.003 284.794 186.868 284.47 186.852 284.13V284.066ZM186.908 321.529C187.302 320.83 187.542 320.054 187.613 319.255C187.821 316.265 187.769 313.109 187.751 310.087C187.73 306.505 187.892 302.782 187.546 299.238C187.455 298.3 187.088 298.103 186.788 297.123C186.041 296.128 183.742 294.732 182.494 294.714C178.993 294.64 175.044 294.397 171.563 294.795C168.919 295.099 166.342 296.608 166.275 299.566C166.126 306.424 165.894 313.694 166.402 320.524C166.532 322.287 169.198 324.773 170.964 324.65C175.001 324.759 179.155 324.914 183.174 324.551C184.015 324.442 184.81 324.102 185.469 323.568C186.128 323.035 186.626 322.329 186.908 321.529Z" fill="black" fill-opacity="0.1"/>
<path d="M186.805 297.122C187.104 298.113 187.471 298.311 187.563 299.238C187.915 302.781 187.746 306.505 187.767 310.087C187.767 313.098 187.838 316.254 187.63 319.255C187.559 320.054 187.318 320.829 186.925 321.529C186.674 319.826 186.851 318.828 186.865 317.111L186.907 309.795C186.907 307.439 186.907 305.091 186.907 302.743C186.868 301.346 186.501 298.356 186.805 297.122Z" fill="#FEFDFE"/>
<path d="M198.7 279.779C200.068 279.697 201.697 279.75 203.111 279.779C209.088 279.835 215.945 278.869 220.406 283.812C221.171 284.662 221.414 285.847 222.264 286.686V286.813C222.44 289.203 222.676 298.991 222.137 300.797C221.665 302.38 220.374 304.026 219.084 305.028C217.924 305.927 215.385 306.498 214.941 307.045C214.496 307.591 214.69 308.392 214.768 309.019C214.997 309.262 215.216 309.513 215.431 309.767C217.088 311.776 218.562 316.843 219.87 319.248C220.459 320.306 223.061 324.766 222.793 325.69C221.647 329.628 218.181 320.313 217.596 319.17C217.091 317.337 215.304 314.491 214.391 312.647C214.056 311.97 214.08 311.057 213.703 310.426C213.506 310.091 212.998 310.003 212.822 309.689C212.43 309.037 212.8 308.088 212.056 307.521C211.58 307.168 202.067 307.207 201.077 307.348C200.724 307.401 200.199 307.468 199.998 307.817C199.106 309.379 200.312 325.379 199.515 326.353C199.438 326.447 199.344 326.524 199.236 326.581C199.129 326.637 199.012 326.671 198.891 326.681C198.654 326.693 198.421 326.614 198.242 326.458C198.083 326.325 197.955 326.158 197.868 325.97C197.781 325.782 197.736 325.576 197.738 325.369C197.586 323.514 197.709 321.568 197.709 319.703L197.766 306.583C197.714 301.007 197.698 295.431 197.717 289.856C197.717 287.116 197.688 284.239 197.819 281.499C197.858 280.872 198.309 280.237 198.7 279.779ZM217.768 303.293C219.397 301.689 220.353 300.017 220.363 297.697C220.363 296.287 220.586 287.825 219.87 287.12L219.796 287.056C218.879 286.22 219.408 285.265 217.649 283.974C214.909 281.965 207.818 282.352 204.409 282.328C203.196 282.328 201.493 282.426 200.379 281.912C200.126 282.579 199.93 283.267 199.793 283.967C199.733 290.377 199.716 296.798 199.793 303.208C199.805 303.825 199.924 304.435 200.146 305.01C201.253 305.648 211.249 305.13 213.231 305.137C213.562 305.155 217.225 303.614 217.768 303.293Z" fill="black" fill-opacity="0.1"/>
<path d="M285.66 285.37L285.699 285.339C286.538 284.598 287.145 283.177 288.121 282.165C291.623 278.586 296.471 279.45 300.998 279.464C302.941 279.464 303.643 279.923 305.338 280.836C308.928 282.715 309.087 286.03 309.661 289.601C309.695 290.083 309.695 290.566 309.661 291.047C308.956 296.255 310.751 302.052 308.861 306.97C305.973 307.506 288.608 306.886 287.751 307.559C287.244 309.065 287.688 317.234 287.663 319.248C290.896 322.774 290.854 323.546 296.192 323.56C299.366 323.56 302.796 324.082 305.275 321.769C306.64 320.496 306.238 320.619 306.999 319.241C307.5 318.659 306.477 318.602 308.018 317.696C308.455 316.991 307.761 315.228 308.762 314.488L309.065 314.533C309.263 314.964 309.185 316.857 309.221 317.58C308.868 320.288 308.515 322.125 306.125 323.817C305.839 324.06 304.196 325.097 303.921 325.104C302.581 325.154 297.846 326.49 296.799 326.187C293.008 325.097 289.655 325.753 287.169 322.156C285.223 319.336 285.646 318.049 285.646 314.897L285.664 307.845L285.66 285.37ZM289.74 283.283C289.207 283.971 288.079 285.109 287.892 285.935C287.222 288.946 287.402 301.974 287.846 305.186C291.842 305.245 295.828 305.266 299.803 305.25C301.626 305.25 305.592 305.514 307.013 304.83C306.707 298.702 306.96 291.84 306.872 285.585C305.501 283.382 304.027 282.394 301.481 281.682C300.423 281.393 296.192 281.273 295.068 281.45C291.771 281.703 292.233 282.536 289.74 283.283Z" fill="black" fill-opacity="0.1"/>
<path d="M92.0236 280.945C93.5645 280.593 94.3578 280.011 95.8528 279.694C100.084 278.794 103.874 279.422 107.993 279.694L108.035 279.729C108.941 280.512 110.15 280.829 111.208 281.418C113.324 282.578 114.061 284.718 115.196 286.058C115.33 288.204 115.384 290.354 115.358 292.507C112.65 293.127 113.07 291.731 113.098 289.587C113.123 288.776 113.101 287.963 113.031 287.154C112.746 286.796 112.509 286.401 112.326 285.98C110.915 283.413 109.544 283.188 107.1 282.423C104.537 280.935 98.4338 281.308 95.7364 282.444L94.788 282.863C93.9664 283.022 93.3494 283.163 92.7676 283.808C93.2133 284.111 93.6144 284.474 93.9594 284.887C94.6645 285.991 95.3133 287.355 96.1243 288.413C99.5162 292.743 103.021 296.953 106.603 301.128C106.91 301.48 107.308 301.946 107.562 302.32L108.327 303.067C111.42 303.994 113.243 304.855 115.136 307.845C116.314 309.699 116.176 316.959 115.841 319.107C115.316 321.666 112.883 324.462 110.369 325.245C110.327 326.733 109.696 327.361 109.442 328.56C108.856 331.356 107.806 333.387 106.688 335.964C104.898 340.091 102.776 344.064 100.341 347.846C100.123 347.972 99.8928 348.075 99.6537 348.153C99.1389 348.1 99.1389 348.185 98.811 347.906C99.0619 347.131 99.2471 346.336 99.3646 345.53C100.585 344.758 100.355 343.439 100.793 342.501C102.598 338.623 104.167 335.079 104.347 330.749C104.385 329.783 106.268 327.636 104.752 326.793C105.182 326.218 105.81 325.277 105.246 324.554C105.281 323.165 105.528 322.421 105.468 320.725C105.422 318.195 105.015 315.685 104.259 313.271C103.938 312.185 103.962 311.261 103.441 310.024C102.794 308.482 102.006 307.004 101.085 305.609C100.454 304.611 100.835 304.301 99.6467 303.176C98.5113 302.376 97.8661 302.425 96.6743 302.03C94.6963 301.435 93.2083 300.846 91.5406 299.654C89.6401 298.293 89.3087 296.675 87.9265 295.285C87.803 293.761 87.7677 292.23 87.8207 290.702C87.9653 290.137 87.9688 288.142 87.9618 287.465C87.9547 284.993 90.3559 282.602 92.0236 280.945ZM111.173 321.846C111.981 321.137 112.725 320.358 113.398 319.519C113.8 317.273 113.676 314.452 113.68 312.15C113.68 309.16 112.559 307.157 109.533 306.321C109.653 306.787 110.475 307.841 110.478 308.264C110.496 310.161 111.127 311.554 111.554 313.261C111.959 314.893 112.047 318.003 111.857 319.752C111.473 320.284 110.633 321.219 111.173 321.832V321.846ZM95.6588 298.868L95.7012 298.628C94.4861 297.305 93.341 295.92 92.2704 294.478C91.1598 293.311 91.1316 293.893 90.2325 292.01C89.2875 294.799 92.8064 298.952 95.6694 298.854L95.6588 298.868Z" fill="black" fill-opacity="0.1"/>
<path d="M99.6548 303.177C101.065 303.244 105.822 304.939 107.338 305.514C107.634 305.631 109.362 306.308 109.534 306.308C109.654 306.773 110.476 307.827 110.479 308.25C110.497 310.147 111.128 311.54 111.555 313.247C111.96 314.879 112.048 317.989 111.858 319.738C111.474 320.284 110.635 321.219 111.174 321.832C110.469 322.816 110.179 324.039 110.367 325.235C110.324 326.723 109.693 327.35 109.439 328.549C108.854 331.345 107.803 333.376 106.685 335.954C104.896 340.08 102.773 344.054 100.339 347.836C100.121 347.962 99.8904 348.064 99.6513 348.143C99.1365 348.09 99.1365 348.175 98.8086 347.896C99.0595 347.121 99.2446 346.326 99.3622 345.52C100.582 344.747 100.353 343.429 100.79 342.491C102.595 338.612 104.164 335.069 104.344 330.739C104.383 329.773 106.266 327.625 104.75 326.783C105.18 326.208 105.808 325.267 105.243 324.544C105.279 323.154 105.525 322.411 105.466 320.715C105.42 318.189 105.014 315.682 104.26 313.271C103.939 312.185 103.963 311.261 103.442 310.024C102.795 308.482 102.007 307.005 101.086 305.609C100.462 304.612 100.843 304.301 99.6548 303.177Z" fill="#E4E4E4"/>
<path d="M90.2344 292.01L90.3719 291.88C90.2097 289.112 89.9241 285.498 92.7237 283.915L92.7695 283.816C93.2152 284.118 93.6164 284.482 93.9613 284.895C94.6665 285.999 95.3152 287.363 96.1262 288.421C99.5181 292.751 103.023 296.961 106.605 301.136C106.912 301.488 107.31 301.954 107.564 302.327C105.269 302.532 100.576 300.508 98.1712 299.891C97.6 299.743 96.4929 298.946 95.6678 298.872L95.7101 298.632C94.4914 297.309 93.3427 295.922 92.2688 294.479C91.1617 293.308 91.1335 293.89 90.2344 292.01Z" fill="#E4E4E4"/>
<path d="M90.2344 292.01L90.3719 291.88C90.2097 289.112 89.9241 285.498 92.7237 283.915L92.7695 283.816C93.2152 284.118 93.6164 284.482 93.9613 284.895V284.994C94.0092 285.359 94.0846 285.719 94.1869 286.073C92.6108 287.656 93.9613 292.828 92.974 294.419C92.6214 294.606 92.7343 294.556 92.2688 294.475C91.1617 293.308 91.1335 293.89 90.2344 292.01Z" fill="#E4E4E4"/>
<path d="M138.605 315.816C140.869 313.45 140.407 313.436 141.535 310.555C142.822 307.276 144.455 304.022 145.611 300.644C146.576 297.945 147.681 295.298 148.922 292.714C149.2 292.132 149.275 291.152 149.564 290.598C150.269 289.251 150.565 287.742 151.168 286.402C152.071 284.393 153.016 282.302 153.911 280.271C154.102 279.844 155.24 279.005 155.734 279.615C156.298 280.828 155.819 283.578 155.872 284.904C156.224 293.698 156.065 302.534 156.08 311.313V320.558C156.131 322.3 156.088 324.043 155.949 325.78C155.872 326.503 155.42 326.757 154.743 326.626C154.525 326.496 154.235 326.309 154.204 326.052C153.876 323.495 153.996 320.142 153.999 317.561V296.053C153.999 294.371 154.352 287.859 153.647 286.773H153.477C153.153 287.291 153.083 288.021 152.822 288.603C152.25 289.883 151.552 290.902 151.263 292.298C150.974 293.486 150.318 294.526 149.853 295.637C149.627 296.155 149.645 296.956 149.423 297.432C146.419 303.838 144.173 310.566 141.38 317.078C140.992 317.984 140.097 319.871 138.838 319.546C137.318 318.298 135.823 312.431 134.769 310.449C134.508 309.775 134.325 309.072 134.226 308.355C132.988 307.297 133.084 306.194 132.385 304.917C131.486 303.267 131.377 301.871 130.859 300.168L130.249 299.688C129.501 297.675 128.722 295.358 127.802 293.416C127.038 291.966 126.568 290.379 126.42 288.747C126.384 288.462 126.183 288.342 125.965 288.187C124.41 288.38 124.907 292.397 124.942 293.539C124.966 295.342 124.976 297.146 124.974 298.951V317.043C124.974 319.888 124.974 322.741 124.999 325.59C124.999 326.231 124.868 326.454 124.212 326.545C124.08 326.571 123.945 326.57 123.813 326.543C123.682 326.515 123.557 326.46 123.447 326.383C122.763 325.59 122.968 323.107 122.95 322.12C123.045 320.206 122.95 317.484 122.95 315.498C122.971 310.83 122.955 306.162 122.901 301.493C122.88 297.164 122.929 292.88 122.693 288.55C122.615 287.104 122.869 285.764 122.742 284.125C122.703 283.035 122.788 281.117 122.668 280.158C123.25 279.968 123.874 279.675 124.47 279.968C124.822 280.144 128.112 288.352 128.447 289.417C128.666 290.122 128.863 291.445 129.417 291.91C129.699 292.146 131.419 296.353 131.613 296.931C131.925 297.817 132.161 298.727 132.318 299.653C134.113 301.314 134.688 306.574 136.401 308.009C136.719 310.411 137.107 310.784 137.963 313.013C138.229 313.934 138.444 314.87 138.605 315.816Z" fill="black" fill-opacity="0.1"/>
<path d="M326.903 279.476C329.147 279.342 331.398 279.38 333.637 279.588C336.225 279.983 338.845 282.198 340.199 284.356C340.548 284.83 340.788 285.375 340.904 285.953C341.047 288.076 341.029 290.207 340.848 292.328C340.826 292.62 340.71 292.656 340.53 292.775C338.577 292.881 339.064 290.039 339.064 288.809C339.098 287.732 339.025 286.655 338.845 285.593C337.949 284.888 338.115 284.941 337.54 284.116C336.715 282.928 333.574 281.648 332.139 281.535C328.451 281.288 324.484 280.995 321.437 283.502C320.129 284.56 319.928 284.983 319.766 286.587C319.605 288.626 319.55 290.671 319.6 292.716V301.4C319.6 304.453 319.248 318.212 320.009 320.412C320.214 321.004 321.896 322.132 322.478 322.855C325.609 323.853 330.161 323.659 333.433 323.363C336.289 323.106 337.311 321.279 338.979 319.209C339.116 317.598 339.06 315.282 339.064 313.617C339.064 312.27 339.095 310.916 339.134 309.57C339.173 308.223 339.134 307.807 338.334 306.749C336.521 307.225 331.634 307.239 329.621 307.101C329.586 306.163 329.385 304.781 330.679 304.767C333.813 304.728 337.65 305.197 340.742 304.767C341.214 306.914 340.897 317.521 340.858 320.38C340.858 320.838 340.153 321.226 339.762 321.438C337.999 325.591 333.549 325.38 329.752 326.106C328.324 326.381 325.362 325.426 323.701 325.313C321.748 325.179 319.139 322.845 318.18 321.219C317.474 319.862 317.704 315.289 317.704 313.575V303.307L317.679 293.177C317.679 290.004 317.57 286.979 318.113 283.841C318.507 283.506 319.199 282.635 319.657 282.194C322.231 279.74 323.648 279.744 326.903 279.476Z" fill="black" fill-opacity="0.1"/>
<path d="M224.602 279.695C225.684 279.649 226.816 279.667 227.902 279.695C235.659 279.85 243.497 279.614 251.261 279.695C251.261 280.312 251.339 281.282 251.089 281.811C250.496 282.146 240.98 282.005 239.379 282.086C238.878 284.226 239.072 290.971 239.072 293.587V315.145C239.072 316.968 239.397 325.236 238.833 326.29C238.783 326.385 238.711 326.467 238.624 326.528C238.536 326.59 238.435 326.629 238.328 326.643C237.966 326.697 237.596 326.607 237.299 326.393C236.646 325.62 236.897 316.259 236.897 314.665V293.965C236.897 290.728 237.133 284.758 236.512 281.804C234.21 282.079 227.144 282.248 224.986 281.804C224.542 281.409 224.066 281.07 224.062 280.429C224.193 279.995 224.271 279.956 224.602 279.695Z" fill="black" fill-opacity="0.1"/>
<path d="M258.756 279.545C259.035 279.565 259.306 279.645 259.549 279.782C259.877 280.332 259.705 289.302 259.705 290.687V313.282C259.705 315.288 259.581 321.599 259.846 323.256C260.424 324.015 263.019 323.609 264.006 323.609H274.602C275.807 323.609 279.288 323.524 280.296 323.729C280.881 324.117 280.846 325.785 280.458 326.359C279.619 326.497 275.169 326.359 273.9 326.359H264.62C262.814 326.359 260.297 326.588 258.626 326.148C258.055 325.749 257.822 324.385 257.815 323.708C257.776 320.862 257.79 318.013 257.79 315.168V298.762C257.79 293.575 257.698 285.596 257.885 280.215C257.882 279.944 258.485 279.669 258.756 279.545Z" fill="black" fill-opacity="0.1"/>
<path d="M93.4476 259.764C94.2162 259.57 94.3114 259.556 94.9778 259.95C95.0836 260.014 95.1894 260.077 95.2916 260.144C94.5265 261.051 93.9588 262.161 93.3206 263.177C91.265 266.477 89.8723 270.934 90.0627 274.812C90.105 275.623 90.507 276.254 90.715 277.009C91.0676 278.247 90.7749 280.182 92.0231 280.933C90.3553 282.59 87.9542 284.981 87.9683 287.449C87.9683 288.126 87.9683 290.122 87.8273 290.686C87.6651 287.643 88.3844 284.808 86.2089 282.111C85.8245 279.773 86.0714 275.923 86.1595 273.511C86.1595 273.247 87.8731 268.166 88.0318 267.887C89.4915 265.37 91.2368 261.685 93.4476 259.764Z" fill="#E4E4E4"/>
<path d="M104.761 326.779C102.173 326.779 98.6649 326.797 96.091 326.48C95.5409 326.286 95.0332 325.817 94.462 325.686C91.3133 324.981 87.9426 321.889 87.6464 318.596C87.6253 317.686 87.0399 314.643 87.8121 313.963C89.8607 312.157 89.9277 315.049 89.8854 316.396C89.8642 317.245 89.9347 318.359 89.9806 319.177C90.9467 320.352 91.0701 321.124 92.5298 322.27C93.9895 323.416 96.0557 323.19 97.1875 324.28C98.3335 324.357 99.4829 324.431 100.629 324.445C102.194 324.463 103.707 324.28 105.255 324.54C105.822 325.263 105.191 326.212 104.761 326.779Z" fill="black" fill-opacity="0.1"/>
<path d="M122.788 284.125C122.915 285.765 122.661 287.105 122.738 288.55C122.975 292.88 122.925 297.164 122.946 301.494C122.998 306.162 123.015 310.831 122.996 315.499C122.996 317.484 123.073 320.206 122.996 322.121C122.266 322.72 123.278 325.745 122.241 326.299C122.051 326.07 122.167 304.999 122.171 302.651C122.171 299.089 121.744 293.205 121.857 289.7C121.849 289.095 121.875 288.49 121.934 287.887C122.428 285.976 122.784 286.1 122.788 284.125Z" fill="#FEFDFE"/>
<path d="M95.7414 282.45C97.723 283.099 101.312 281.424 103.636 282.097C104.694 282.404 106.076 283.056 107.105 282.45C109.549 283.215 110.917 283.441 112.331 286.008C112.514 286.428 112.751 286.823 113.036 287.182C113.106 287.991 113.128 288.803 113.103 289.615C112.947 290.227 112.86 290.855 112.842 291.487L112.68 291.191C112.616 291.286 112.531 291.365 112.433 291.424C111.918 290.888 112.433 287.291 112.081 286.868C110.864 285.5 109.26 284.372 107.962 283.039C107.677 283.039 104.997 283.109 104.866 283.039C101.739 281.495 99.2568 283.268 96.0799 283.064C95.5792 283.028 95.1914 283.092 94.793 282.88L95.7414 282.45Z" fill="#FEFDFE"/>
<path d="M108.33 303.057C111.257 302.052 114.832 305.789 115.946 308.099C116.863 309.996 117.505 317.802 116.348 319.551L116.144 319.618C116.009 319.465 115.905 319.288 115.837 319.096C116.189 316.949 116.316 309.689 115.132 307.834C113.245 304.844 111.422 303.998 108.33 303.057Z" fill="#FEFDFE"/>
<path d="M307.124 313.486C309.292 312.591 309.659 313.486 309.75 315.708C309.779 316.374 309.465 316.973 309.211 317.594C309.176 316.871 309.253 314.978 309.056 314.548L308.753 314.502C307.751 315.246 308.446 317.016 308.009 317.71C306.468 318.617 307.49 318.673 306.99 319.255C306.736 318.239 306.827 314.576 307.124 313.486Z" fill="black" fill-opacity="0.1"/>
<path d="M186.792 285.872C186.834 286.15 186.898 286.876 187.046 287.035L187.473 286.817C187.793 288.192 187.42 289.912 187.758 291.079C187.827 292.107 187.827 293.137 187.758 294.165C186.387 293.717 185.491 293.812 184.412 292.966C184.818 292.966 186.528 292.899 186.796 292.694C187.025 291.305 186.623 287.747 186.792 285.872Z" fill="#FEFDFE"/>
<path d="M97.7852 254.458C98.1095 253.753 101.748 250.812 102.524 250.058C102.877 249.705 103.127 249.187 103.582 249L103.74 249.155C103.702 249.896 101.11 252.103 100.479 253.309L99.3894 253.929C99.2131 254.536 99.1003 255.213 98.5961 255.594C98.4621 255.34 97.9756 254.716 97.7852 254.458Z" fill="#E4E4E4"/>
<path d="M121.837 289.701C121.375 287.818 121.974 283.27 121.9 281.143C121.9 281.091 122.468 280.692 122.514 280.244L122.711 280.16C122.831 281.119 122.746 283.037 122.785 284.126C122.785 286.101 122.433 285.977 121.914 287.889C121.855 288.491 121.829 289.096 121.837 289.701Z" fill="#FEFDFE"/>
<path d="M98.8234 347.892C99.1513 348.171 99.1513 348.086 99.666 348.139C98.2557 348.869 99.6061 349.549 98.8692 350.674C98.164 350.642 97.7515 349.909 97.7092 349.243C97.6633 348.453 98.3685 348.442 98.8234 347.892Z" fill="#E4E4E4"/>
<path d="M94.3464 257.991L95.2419 257.177C95.1996 258.167 95.1009 258.71 95.7567 259.482C95.6192 259.715 95.4636 259.937 95.2913 260.145C95.1891 260.078 95.0833 260.015 94.9775 259.951C94.3111 259.557 94.2159 259.571 93.4473 259.765C94.1666 259.151 94.1489 258.911 94.3464 257.991Z" fill="#E4E4E4"/>
<path d="M96.1197 256.094C96.296 255.896 96.5922 255.65 96.7967 255.466C97.1775 256.09 97.2233 256.284 97.9778 256.242C97.8217 256.491 97.6872 256.753 97.5759 257.025C97.2233 258.019 96.6979 257.458 96.0174 258.396C95.8799 257.028 96.8531 257.307 96.1197 256.094Z" fill="#E4E4E4"/>
<path d="M186.85 284.066V284.115C186.866 284.456 187.001 284.78 187.231 285.032C188.003 286.125 187.77 289.637 187.745 291.079C187.393 289.912 187.781 288.191 187.46 286.816L187.033 287.035C186.885 286.876 186.822 286.15 186.779 285.871C186.762 284.926 186.631 285.088 186.85 284.066Z" fill="#FEFDFE"/>
<path d="M96.1184 256.094C96.8236 257.307 95.8786 257.029 96.0161 258.397C95.9512 258.764 95.8641 259.126 95.7552 259.483C95.0994 258.71 95.1981 258.167 95.2404 257.177L96.1184 256.094Z" fill="#E4E4E4"/>
<path d="M96.7969 255.466C97.1533 255.156 97.4846 254.819 97.7877 254.457C97.9781 254.715 98.4646 255.335 98.5986 255.586L97.978 256.241C97.2235 256.284 97.1777 256.09 96.7969 255.466Z" fill="#E4E4E4"/>
</svg>
