<svg width="140" height="140" viewBox="0 0 140 140" fill="none" xmlns="http://www.w3.org/2000/svg">
<mask id="mask0_2526_3910" style="mask-type:alpha" maskUnits="userSpaceOnUse" x="0" y="0" width="140" height="140">
<rect width="140" height="140" fill="#D9D9D9"/>
</mask>
<g mask="url(#mask0_2526_3910)">
<path d="M37.5524 119.365C36.0455 117.858 35.292 115.987 35.292 113.751C35.292 111.515 36.0455 109.643 37.5524 108.136C39.0594 106.629 40.9309 105.876 43.167 105.876C45.4031 105.876 47.2746 106.629 48.7816 108.136C50.2885 109.643 51.042 111.515 51.042 113.751C51.042 115.987 50.2885 117.858 48.7816 119.365C47.2746 120.872 45.4031 121.626 43.167 121.626C40.9309 121.626 39.0594 120.872 37.5524 119.365ZM91.2191 119.365C89.7121 117.858 88.9587 115.987 88.9587 113.751C88.9587 111.515 89.7121 109.643 91.2191 108.136C92.726 106.629 94.5975 105.876 96.8337 105.876C99.0698 105.876 100.941 106.629 102.448 108.136C103.955 109.643 104.709 111.515 104.709 113.751C104.709 115.987 103.955 117.858 102.448 119.365C100.941 120.872 99.0698 121.626 96.8337 121.626C94.5975 121.626 92.726 120.872 91.2191 119.365ZM13.417 19.5423V15.459H26.2503L49.8753 65.0423H87.9378C88.8128 65.0423 89.5906 64.8236 90.2712 64.3861C90.9517 63.9486 91.535 63.3409 92.0212 62.5631L111.709 27.1257H116.375L95.3753 65.0423C94.5975 66.3062 93.601 67.3027 92.3857 68.0319C91.1705 68.7611 89.8337 69.1256 88.3753 69.1256H47.2503L39.9587 82.5423C39.1809 83.709 39.1566 84.9729 39.8857 86.334C40.6149 87.6951 41.7087 88.3756 43.167 88.3756H104.709V92.459H43.167C40.0559 92.459 37.7469 91.1708 36.2399 88.5944C34.733 86.018 34.7087 83.4173 36.167 80.7923L45.2087 64.7506L23.6253 19.5423H13.417Z" fill="#866857"/>
</g>
</svg>
