<svg width="86" height="36" viewBox="0 0 86 36" fill="none" xmlns="http://www.w3.org/2000/svg">
<path d="M43.0677 16.7661C43.0677 18.3279 42.0291 19.0385 39.702 19.0385H36.3753V11.6824H39.702C41.787 11.6824 42.8725 12.3461 43.0287 13.7205C43.0366 13.8401 43.0366 13.9602 43.0287 14.0798L43.0677 16.7661ZM40.397 19.6008L43.2629 25.6138C43.2865 25.6809 43.3312 25.7385 43.3904 25.7779C43.4496 25.8174 43.5199 25.8365 43.5909 25.8325H43.669C43.7066 25.8362 43.7445 25.8311 43.7798 25.8175C43.815 25.804 43.8466 25.7823 43.872 25.7544C43.89 25.7179 43.8993 25.6779 43.8993 25.6372C43.8993 25.5966 43.89 25.5566 43.872 25.5201L40.9983 19.5305C42.7944 19.265 43.63 18.3826 43.63 16.7661V14.0798C43.6414 13.9342 43.6414 13.788 43.63 13.6424C43.4425 11.9557 42.1228 11.0967 39.7254 11.0967H36.0239C35.9692 11.0967 35.8443 11.0967 35.7896 11.3388V25.567C35.7873 25.6014 35.7924 25.6359 35.8045 25.6682C35.8167 25.7006 35.8356 25.7299 35.86 25.7543C35.8844 25.7787 35.9137 25.7976 35.946 25.8097C35.9783 25.8219 36.0129 25.827 36.0473 25.8247H36.1254C36.1592 25.8258 36.1929 25.8199 36.2242 25.8073C36.2556 25.7946 36.284 25.7755 36.3075 25.7513C36.3311 25.727 36.3492 25.698 36.3609 25.6663C36.3726 25.6345 36.3775 25.6007 36.3753 25.567V19.593L40.397 19.6008Z" fill="white"/>
<path d="M55.046 25.3249C55.0416 25.3582 55.0443 25.392 55.054 25.4241C55.0638 25.4563 55.0803 25.4859 55.1025 25.5111C55.1248 25.5363 55.1521 25.5564 55.1828 25.5701C55.2135 25.5838 55.2467 25.5907 55.2803 25.5904H62.4022C62.4374 25.5928 62.4726 25.5876 62.5055 25.575C62.5384 25.5624 62.5682 25.5428 62.5928 25.5175C62.6173 25.4922 62.636 25.4619 62.6476 25.4286C62.6592 25.3953 62.6634 25.3599 62.6599 25.3249V25.239C62.6611 25.2052 62.6552 25.1715 62.6425 25.1401C62.6299 25.1088 62.6108 25.0804 62.5865 25.0569C62.5622 25.0333 62.5333 25.0151 62.5015 25.0035C62.4698 24.9918 62.436 24.9869 62.4022 24.9891H55.6239V11.1748C55.6397 11.1433 55.6479 11.1085 55.6479 11.0732C55.6479 11.038 55.6397 11.0032 55.6239 10.9717C55.5993 10.9449 55.569 10.9239 55.5352 10.9104C55.5014 10.8969 55.465 10.8911 55.4287 10.8936H55.3428C55.2569 10.8936 55.1319 10.8936 55.0851 11.1435L55.046 25.3249Z" fill="white"/>
<path d="M74.2432 23.2241C74.4228 24.786 75.641 25.5669 77.9681 25.5669C80.5685 25.5669 81.7321 24.6923 81.7321 22.7244V19.1634C81.7356 19.1294 81.7316 19.095 81.7204 19.0626C81.7092 19.0303 81.6911 19.0008 81.6673 18.9763C81.6434 18.9517 81.6145 18.9327 81.5826 18.9205C81.5506 18.9083 81.5163 18.9032 81.4822 18.9057H78.179C78.1448 18.9032 78.1106 18.9083 78.0786 18.9205C78.0466 18.9327 78.0177 18.9517 77.9939 18.9763C77.9701 19.0008 77.952 19.0303 77.9407 19.0626C77.9295 19.095 77.9256 19.1294 77.9291 19.1634V19.2571C77.9385 19.3206 77.9706 19.3785 78.0194 19.4201C78.0682 19.4617 78.1304 19.4843 78.1946 19.4836H81.2011V22.7634C81.2011 23.802 80.8419 24.9968 78.015 24.9968C75.4145 24.9968 74.985 23.9972 74.8913 23.1226V23.0758C74.884 22.9587 74.884 22.8414 74.8913 22.7244V13.7439C74.8913 12.6818 75.2505 11.4714 78.0618 11.4714C80.7091 11.4714 81.1386 12.5491 81.2323 13.3456C81.2323 13.4159 81.2323 13.4862 81.2323 13.5565C81.2358 13.6163 81.2358 13.6762 81.2323 13.7361V14.8684C81.2383 14.9333 81.2694 14.9933 81.319 15.0356C81.3686 15.078 81.4328 15.0992 81.4978 15.0949H81.5681C81.6033 15.0973 81.6385 15.0915 81.6711 15.078C81.7036 15.0644 81.7325 15.0435 81.7555 15.0168C81.7777 14.9915 81.7935 14.9613 81.8017 14.9287C81.8098 14.8961 81.8101 14.8621 81.8024 14.8293V13.7283C81.7978 13.5767 81.7848 13.4255 81.7633 13.2753C81.5759 11.6432 80.3967 10.8857 78.0384 10.8857C75.4458 10.8857 74.3134 11.7604 74.3134 13.7283L74.2432 23.2241Z" fill="white"/>
<path d="M64.0791 22.7166C64.0791 24.6845 65.2348 25.5591 67.8275 25.5591C70.1702 25.5591 71.365 24.7782 71.5524 23.1695C71.5605 23.0186 71.5605 22.8674 71.5524 22.7166V21.6077C71.5658 21.5782 71.5727 21.5463 71.5727 21.514C71.5727 21.4816 71.5658 21.4497 71.5524 21.4202C71.5284 21.3948 71.4993 21.3748 71.467 21.3613C71.4347 21.3479 71.4 21.3413 71.365 21.3422H71.2869C71.2228 21.3415 71.1605 21.364 71.1117 21.4056C71.0629 21.4473 71.0308 21.5052 71.0214 21.5686V22.7009C71.0252 22.7634 71.0252 22.8259 71.0214 22.8884C71.018 22.9508 71.018 23.0134 71.0214 23.0758C70.9277 23.8567 70.4982 24.9734 67.8509 24.9734C65.0396 24.9734 64.6726 23.7552 64.6726 22.7009V19.5773H71.365C71.3988 19.5785 71.4325 19.5725 71.4638 19.5599C71.4952 19.5472 71.5236 19.5282 71.5471 19.5039C71.5707 19.4796 71.5889 19.4507 71.6005 19.4189C71.6122 19.3872 71.6171 19.3533 71.6149 19.3196V13.7517C71.6149 11.7838 70.4513 10.9092 67.8509 10.9092C65.5082 10.9092 64.2821 11.6901 64.1025 13.2519L64.0791 22.7166ZM64.6492 13.7361C64.6414 13.6165 64.6414 13.4965 64.6492 13.3769V13.33C64.7351 12.4632 65.1646 11.4636 67.7728 11.4636C70.5997 11.4636 70.9667 12.6506 70.9667 13.6892V18.9838H64.6179L64.6492 13.7361Z" fill="white"/>
<path d="M30.0959 10.8701H28.1593C26.082 10.8701 24.9575 11.2371 24.9575 13.2129V13.4627C24.9575 13.5643 25.0434 13.697 25.3011 13.697C25.5588 13.697 25.6369 13.5643 25.6369 13.4627V13.3144C25.6369 11.6276 26.3554 11.4792 28.3935 11.4792H29.7133C31.689 11.4792 32.6183 11.6979 32.6183 13.7048V15.7821C32.1888 15.3525 31.4157 15.1261 29.5571 15.1261H28.6747C25.7228 15.1261 24.9575 15.6571 24.9575 17.7031V22.8805C24.9575 25.2233 25.7384 25.848 28.292 25.848H29.9397C32.5011 25.848 33.2742 25.2076 33.2742 23.107V14.0875C33.2742 12.143 33.0556 10.8701 30.0959 10.8701ZM32.6183 17.9608V22.6463C32.6183 25.028 32.0013 25.2701 29.3775 25.2701H28.8777C26.41 25.2701 25.6291 25.1608 25.6291 22.7946V18.0311C25.6291 16.1569 25.918 15.6883 28.7527 15.6883H29.4243C31.9154 15.6883 32.548 15.9695 32.548 17.9608" fill="white"/>
<path d="M53.087 11.3076C53.0882 11.2748 53.0825 11.2422 53.0702 11.2118C53.058 11.1813 53.0395 11.1538 53.0159 11.131C52.9923 11.1082 52.9643 11.0906 52.9335 11.0793C52.9027 11.068 52.8699 11.0633 52.8371 11.0655H44.6063C44.5706 11.0623 44.5345 11.0665 44.5005 11.078C44.4665 11.0895 44.4352 11.1079 44.4088 11.1322C44.3823 11.1565 44.3612 11.186 44.3468 11.2189C44.3324 11.2518 44.325 11.2873 44.3252 11.3232V11.4169C44.3271 11.4505 44.3358 11.4833 44.3508 11.5134C44.3657 11.5435 44.3865 11.5703 44.412 11.5922C44.4376 11.6141 44.4672 11.6306 44.4993 11.6407C44.5313 11.6508 44.5651 11.6544 44.5985 11.6512H48.425V25.567C48.4228 25.6018 48.4279 25.6367 48.44 25.6694C48.452 25.702 48.4708 25.7318 48.4951 25.7568C48.5193 25.7818 48.5486 25.8015 48.5809 25.8145C48.6132 25.8276 48.6479 25.8337 48.6827 25.8326H48.7608C48.7956 25.8337 48.8303 25.8276 48.8626 25.8145C48.8949 25.8015 48.9241 25.7818 48.9484 25.7568C48.9727 25.7318 48.9914 25.702 49.0035 25.6694C49.0156 25.6367 49.0207 25.6018 49.0185 25.567V11.6512H52.8606C52.895 11.6535 52.9295 11.6484 52.9618 11.6363C52.9941 11.6241 53.0235 11.6052 53.0479 11.5808C53.0723 11.5564 53.0912 11.5271 53.1033 11.4948C53.1155 11.4625 53.1206 11.4279 53.1183 11.3935L53.087 11.3076Z" fill="white"/>
<path d="M22.3743 11.1436C22.3844 11.1104 22.3861 11.0752 22.3793 11.0411C22.3725 11.0071 22.3574 10.9752 22.3353 10.9484C22.3115 10.9206 22.2813 10.8989 22.2473 10.8853C22.2133 10.8717 22.1765 10.8666 22.1401 10.8703H22.0307C21.9774 10.8694 21.9251 10.8846 21.8805 10.9138C21.836 10.9431 21.8012 10.9851 21.7809 11.0343L17.2125 22.256L17.072 22.5918L16.9158 22.256L12.3084 11.0421C12.2899 10.9894 12.2547 10.9442 12.2082 10.9132C12.1618 10.8822 12.1065 10.8672 12.0507 10.8703H12.0117C11.9426 10.8703 11.8762 10.8972 11.8266 10.9453C11.777 10.9934 11.7482 11.059 11.7461 11.128V25.5124C11.7438 25.5468 11.7489 25.5814 11.7611 25.6137C11.7732 25.646 11.7921 25.6753 11.8165 25.6997C11.8409 25.7242 11.8703 25.7431 11.9026 25.7552C11.9349 25.7673 11.9694 25.7724 12.0038 25.7701H12.0663C12.1014 25.7736 12.1368 25.7694 12.17 25.7578C12.2033 25.7462 12.2337 25.7275 12.2589 25.7029C12.2842 25.6784 12.3038 25.6486 12.3164 25.6157C12.329 25.5828 12.3343 25.5476 12.3318 25.5124V12.7055L16.6971 23.3024C16.7068 23.3687 16.7411 23.4288 16.7933 23.4708C16.8454 23.5128 16.9115 23.5335 16.9782 23.5289H17.1657C17.2339 23.5295 17.3009 23.5098 17.3579 23.4723C17.4149 23.4347 17.4595 23.381 17.4858 23.318L21.773 12.7133V25.5515C21.7719 25.5863 21.778 25.621 21.7911 25.6533C21.8041 25.6856 21.8238 25.7148 21.8488 25.7391C21.8738 25.7633 21.9036 25.7821 21.9362 25.7942C21.9689 25.8063 22.0038 25.8114 22.0386 25.8092H22.1245C22.1589 25.8115 22.1934 25.8064 22.2257 25.7942C22.258 25.7821 22.2874 25.7632 22.3118 25.7388C22.3362 25.7144 22.3551 25.685 22.3672 25.6527C22.3794 25.6204 22.3845 25.5859 22.3822 25.5515L22.3743 11.1436Z" fill="white"/>
<path d="M84.4013 8.84796C84.3418 8.8392 84.2812 8.8392 84.2217 8.84796V9.43365H84.3701C84.5809 9.43365 84.7683 9.35556 84.7683 9.11347C84.7683 8.87139 84.5653 8.81673 84.4013 8.81673M84.8074 10.277L84.2842 9.55859H84.2217V10.277H84.0421V8.71521C84.1632 8.66505 84.2937 8.6411 84.4247 8.64493C84.7059 8.64493 84.9557 8.78549 84.9557 9.08224C84.9557 9.37898 84.7527 9.49612 84.4794 9.51174L85.026 10.2458L84.8074 10.277ZM84.4638 8.38723C84.1524 8.38514 83.8528 8.50631 83.6304 8.72431C83.408 8.9423 83.2809 9.2394 83.2768 9.55078C83.2768 9.70629 83.3075 9.86027 83.3673 10.0038C83.427 10.1474 83.5146 10.2778 83.6249 10.3874C83.7352 10.497 83.8662 10.5837 84.0101 10.6425C84.1541 10.7012 84.3083 10.731 84.4638 10.73C84.6186 10.732 84.7724 10.7036 84.9162 10.6462C85.0601 10.5888 85.1912 10.5037 85.3022 10.3957C85.4131 10.2876 85.5017 10.1588 85.5629 10.0165C85.624 9.8742 85.6565 9.72126 85.6586 9.5664C85.6586 9.41023 85.6276 9.25561 85.5673 9.11151C85.5071 8.96742 85.4188 8.83673 85.3077 8.72703C85.1965 8.61733 85.0647 8.5308 84.9198 8.47247C84.7749 8.41413 84.6199 8.38516 84.4638 8.38723ZM84.4638 10.8783C84.1089 10.8804 83.7676 10.742 83.5144 10.4932C83.2613 10.2445 83.1169 9.90566 83.1128 9.55078C83.1169 9.19591 83.2613 8.85709 83.5144 8.60835C83.7676 8.3596 84.1089 8.22115 84.4638 8.22324C84.6402 8.22117 84.8152 8.25387 84.979 8.31947C85.1427 8.38508 85.292 8.48229 85.4181 8.60557C85.5443 8.72885 85.645 8.87577 85.7144 9.03795C85.7838 9.20013 85.8205 9.37439 85.8226 9.55078C85.8205 9.72717 85.7838 9.90144 85.7144 10.0636C85.645 10.2258 85.5443 10.3727 85.4181 10.496C85.292 10.6193 85.1427 10.7165 84.979 10.7821C84.8152 10.8477 84.6402 10.8804 84.4638 10.8783Z" fill="white"/>
<mask id="mask0_2520_1098" style="mask-type:luminance" maskUnits="userSpaceOnUse" x="0" y="0" width="8" height="14">
<path d="M0.694152 7.12191C0.24903 8.08185 0.0126055 9.1253 0.000490432 10.1834C-0.0116247 11.2414 0.200845 12.29 0.623869 13.2599C0.681086 12.895 0.820485 12.548 1.03153 12.245C1.24258 11.9419 1.51974 11.6908 1.84209 11.5106C1.50339 10.851 1.30242 10.1294 1.25141 9.38973C1.20039 8.65001 1.3004 7.90765 1.54535 7.20781C2.91194 3.53752 7.25381 0 7.25381 0C7.25381 0 2.49025 3.44381 0.717579 7.12191" fill="white"/>
</mask>
<g mask="url(#mask0_2520_1098)">
<path d="M7.23208 0H-0.319336V13.2677H7.23208V0Z" fill="url(#paint0_linear_2520_1098)"/>
</g>
<mask id="mask1_2520_1098" style="mask-type:luminance" maskUnits="userSpaceOnUse" x="1" y="12" width="6" height="7">
<path d="M1.26855 13.7986V14.5795C1.7212 15.3643 2.27812 16.084 2.92409 16.7192C3.09589 16.891 3.26769 17.0628 3.42387 17.2424L6.92235 18.3201C6.68057 17.9188 6.40356 17.5399 6.09459 17.1878C4.62123 15.6437 3.31265 13.9504 2.19003 12.1353C1.90893 12.3102 1.67874 12.556 1.5225 12.8479C1.36626 13.1398 1.28946 13.4677 1.29979 13.7986" fill="white"/>
</mask>
<g mask="url(#mask1_2520_1098)">
<path d="M6.92235 12.1431H1.26855V18.3279H6.92235V12.1431Z" fill="url(#paint1_linear_2520_1098)"/>
</g>
<path d="M4.95739 25.1298C2.61466 25.1298 1.29492 24.4191 1.16216 23.0525C1.15168 22.9356 1.15168 22.818 1.16216 22.7011V21.9202C1.16564 21.8841 1.16123 21.8477 1.14923 21.8135C1.13723 21.7793 1.11793 21.7481 1.09267 21.7221C1.06741 21.6961 1.03679 21.6759 1.00294 21.6629C0.969094 21.6499 0.932825 21.6445 0.896653 21.6469H0.763898C0.718601 21.6436 0.6731 21.6495 0.630148 21.6642C0.587196 21.679 0.547685 21.7023 0.514007 21.7328C0.492047 21.7613 0.476493 21.7942 0.468407 21.8292C0.46032 21.8642 0.459893 21.9006 0.467152 21.9358V22.7167C0.453658 22.8648 0.453658 23.0138 0.467152 23.1619C0.654571 24.8252 2.32572 25.817 4.95739 25.817C5.35143 25.8147 5.74505 25.7912 6.13657 25.7467C6.13657 25.5046 6.18342 25.2703 6.19123 25.0282C5.78255 25.0865 5.3702 25.1152 4.95739 25.1141" fill="white"/>
<mask id="mask2_2520_1098" style="mask-type:luminance" maskUnits="userSpaceOnUse" x="1" y="18" width="8" height="18">
<path d="M6.23154 25.0439C6.23154 25.286 6.23154 25.5203 6.17687 25.7624C5.72394 30.2838 3.05323 34.4149 1.93652 36.0001C3.8888 33.3762 5.88793 30.6821 7.01245 27.6287C7.29708 26.8911 7.52932 26.1344 7.70746 25.3641C7.77774 25.0595 7.84021 24.7628 7.88707 24.4582C8.21655 22.7084 8.03769 20.9009 7.37167 19.2496L7.02026 19.1324L4.22459 18.2422C5.66308 20.2076 6.37265 22.6124 6.23154 25.0439Z" fill="white"/>
</mask>
<g mask="url(#mask2_2520_1098)">
<path d="M8.19697 18.25H1.89502V36.0079H8.19697V18.25Z" fill="url(#paint2_linear_2520_1098)"/>
</g>
<path d="M9.52786 21.0687C9.53679 20.9205 9.53679 20.7719 9.52786 20.6236C9.42635 19.5928 8.66886 18.8432 7.34912 18.4449L6.95867 18.3199L3.46018 17.2423L3.02287 17.1017C2.60266 17.0181 2.21581 16.8142 1.90941 16.5147C1.603 16.2152 1.39026 15.8331 1.29706 15.4149V15.0089V13.7907C1.28673 13.4597 1.36353 13.1319 1.51977 12.8399C1.67601 12.548 1.9062 12.3023 2.1873 12.1273C3.03123 11.662 3.98973 11.4454 4.95172 11.5026C8.02851 11.5026 8.53611 12.8692 8.6142 13.4549C8.62771 13.642 8.62771 13.8299 8.6142 14.0171V14.8683C8.61824 14.9436 8.65153 15.0143 8.70697 15.0653C8.76241 15.1164 8.8356 15.1438 8.91094 15.1416H9.0437C9.07987 15.1441 9.11614 15.1386 9.14999 15.1256C9.18383 15.1126 9.21445 15.0924 9.23971 15.0664C9.26498 15.0404 9.28428 15.0092 9.29628 14.975C9.30828 14.9408 9.31269 14.9044 9.30921 14.8683V13.9937C9.32208 13.7935 9.32208 13.5926 9.30921 13.3924C9.12179 11.7915 7.48969 10.831 4.95172 10.831C3.88365 10.7736 2.81941 10.9999 1.86712 11.487C1.5429 11.6687 1.26455 11.9223 1.0534 12.2282C0.842249 12.5341 0.703886 12.8842 0.648902 13.2518C0.618231 13.43 0.599966 13.61 0.594238 13.7907V15.0245V15.4618C0.702556 16.0042 0.959151 16.5059 1.33551 16.9112C1.71186 17.3165 2.19324 17.6095 2.72613 17.7577L4.28795 18.234L7.08361 19.1243L7.43502 19.2414C7.78675 19.3184 8.10757 19.4984 8.35654 19.7585C8.60551 20.0186 8.77134 20.347 8.83285 20.7017C8.84163 20.8317 8.84163 20.9622 8.83285 21.0922V22.8102C8.83822 23.1388 8.75741 23.4631 8.59848 23.7509C8.43955 24.0386 8.20804 24.2797 7.92699 24.4501C7.88014 24.7546 7.81767 25.0514 7.74739 25.3559C8.27721 25.181 8.73795 24.8426 9.06346 24.3894C9.38896 23.9362 9.56248 23.3916 9.5591 22.8336L9.52786 21.0687Z" fill="white"/>
<defs>
<linearGradient id="paint0_linear_2520_1098" x1="-0.56259" y1="5.59531" x2="6.86208" y2="5.59531" gradientUnits="userSpaceOnUse">
<stop stop-color="#F3CE7A"/>
<stop offset="0.09" stop-color="#F3CE7A"/>
<stop offset="1" stop-color="#AC803B"/>
</linearGradient>
<linearGradient id="paint1_linear_2520_1098" x1="0.903322" y1="14.3598" x2="6.51886" y2="14.3598" gradientUnits="userSpaceOnUse">
<stop stop-color="#F3CE7A"/>
<stop offset="0.09" stop-color="#F3CE7A"/>
<stop offset="1" stop-color="#AC803B"/>
</linearGradient>
<linearGradient id="paint2_linear_2520_1098" x1="0.95246" y1="25.484" x2="7.47658" y2="25.484" gradientUnits="userSpaceOnUse">
<stop stop-color="#F3CE7A"/>
<stop offset="0.09" stop-color="#F3CE7A"/>
<stop offset="1" stop-color="#AC803B"/>
</linearGradient>
</defs>
</svg>
