<svg width="151" height="60" viewBox="0 0 151 60" fill="none" xmlns="http://www.w3.org/2000/svg">
<path d="M59.5156 20.6936C59.0873 20.028 58.436 19.5367 57.6783 19.3078C56.4735 19.0124 49.7091 18.9292 48.754 19.5034C48.1314 19.881 47.6828 20.4888 47.5056 21.1951C47.3912 21.6924 47.3828 22.8451 46.9375 23.1385C46.8752 23.18 46.8047 23.2076 46.7307 23.2195C46.6567 23.2313 46.5811 23.2271 46.5089 23.2071C46.4025 23.1754 46.3038 23.1221 46.219 23.0505C46.1341 22.9789 46.0649 22.8905 46.0158 22.791C45.7349 22.275 45.9055 21.1618 46.0782 20.6208C46.4049 19.6158 47.2143 18.8355 48.1444 18.3694C48.492 18.1943 48.8671 18.0803 49.2534 18.0324C50.7328 17.8243 57.1602 17.7182 58.4856 18.153C59.3366 18.4339 60.0732 19.1331 60.5788 19.8509C60.7794 20.1883 61.0152 20.5036 61.2821 20.7914C61.5339 23.4589 61.2821 25.6166 61.3237 28.1218L61.3966 38.615C61.3966 39.9446 61.5859 41.4656 61.3487 42.7764C61.2571 43.2716 60.7245 43.9458 60.3957 44.337C59.6439 45.2132 58.582 45.7642 57.4328 45.8746C56.0033 45.9974 50.3583 46.0723 49.1431 45.7456C48.4525 45.5349 47.8142 45.1804 47.2705 44.7053C46.2592 43.8522 46.0574 42.8326 45.9575 41.5675C45.7994 39.6179 45.9055 37.5954 45.9055 35.6354C45.9055 33.7356 45.7224 30.2858 46.0782 28.617C46.1781 28.1468 46.563 27.5892 46.871 27.2292C47.5992 26.3803 49.2263 25.8434 50.3187 25.7727C51.2134 25.7165 57.6741 25.6291 58.0487 25.9329L58.0695 25.9537C58.7062 26.451 59.2347 26.3969 60.0441 26.6612C60.0846 26.055 60.0846 25.4467 60.0441 24.8405C60.0586 23.9895 60.196 21.9171 59.7403 21.2721C59.6046 21.1234 59.5252 20.9321 59.5156 20.7311V20.6936ZM59.5489 42.8014C59.7812 42.3886 59.923 41.9311 59.965 41.4593C60.0878 39.6949 60.0566 37.8326 60.0462 36.0494C60.0337 33.9354 60.1294 31.7381 59.9255 29.647C59.8714 29.0935 59.655 28.977 59.4781 28.3986C59.037 27.8118 57.6804 26.9878 56.9438 26.9774C54.8776 26.9337 52.5472 26.7902 50.4935 27.0253C48.933 27.2042 47.412 28.0948 47.3724 29.8405C47.285 33.8875 47.1477 38.178 47.4473 42.2084C47.5243 43.2488 49.0973 44.7157 50.1398 44.6429C52.5222 44.7074 54.9733 44.7989 57.3454 44.5846C57.8417 44.5203 58.3104 44.3196 58.6994 44.0047C59.0884 43.6899 59.3825 43.2734 59.5489 42.8014Z" fill="black"/>
<path d="M59.4868 28.3984C59.6637 28.9831 59.8801 29.0996 59.9342 29.6469C60.1422 31.738 60.0424 33.9353 60.0549 36.0493C60.0549 37.8262 60.0965 39.6885 59.9737 41.4592C59.9317 41.931 59.7899 42.3885 59.5576 42.8013C59.4098 41.7963 59.5139 41.2074 59.5222 40.1941L59.5472 35.8766C59.5472 34.4867 59.5472 33.1009 59.5472 31.7151C59.5243 30.8912 59.3079 29.1267 59.4868 28.3984Z" fill="url(#paint0_linear_2514_1263)"/>
<path d="M66.5072 18.1622C67.3145 18.1143 68.2758 18.1455 69.1102 18.1622C72.637 18.1955 76.684 17.6254 79.3162 20.5425C79.7677 21.044 79.9112 21.7431 80.4127 22.2383V22.3133C80.5167 23.724 80.6561 29.5001 80.3378 30.5654C80.059 31.4997 79.2974 32.4714 78.5359 33.0623C77.8513 33.5929 76.3532 33.93 76.091 34.2525C75.8288 34.575 75.9433 35.0473 75.9891 35.4177C76.1243 35.5613 76.2533 35.709 76.3802 35.8588C77.3582 37.0448 78.2279 40.0349 78.9999 41.4539C79.3474 42.0781 80.8829 44.7103 80.7248 45.2554C80.0486 47.5796 78.0032 42.0823 77.6578 41.4081C77.3603 40.3262 76.3053 38.647 75.7664 37.5588C75.5688 37.1593 75.5833 36.6204 75.3607 36.2479C75.2442 36.0502 74.9445 35.9982 74.8405 35.813C74.6095 35.4281 74.828 34.8684 74.389 34.5334C74.1081 34.3253 68.4943 34.3482 67.9096 34.4314C67.7015 34.4627 67.3915 34.5022 67.2729 34.7082C66.7464 35.6299 67.4581 45.0723 66.9878 45.6466C66.9428 45.7022 66.8869 45.748 66.8236 45.7813C66.7603 45.8145 66.6908 45.8346 66.6195 45.8401C66.4798 45.8476 66.3425 45.8006 66.2367 45.709C66.1428 45.6303 66.0675 45.5319 66.0161 45.4208C65.9646 45.3096 65.9384 45.1885 65.9391 45.0661C65.8497 43.9716 65.9225 42.823 65.9225 41.7223L65.9558 33.9799C65.9253 30.6896 65.9155 27.3993 65.9266 24.1089C65.9266 22.4922 65.91 20.7943 65.987 19.1776C66.0099 18.8072 66.2762 18.4327 66.5072 18.1622ZM77.7598 32.0386C78.7211 31.0919 79.2849 30.1056 79.2912 28.7365C79.2912 27.9042 79.4223 22.9104 78.9999 22.4943L78.9562 22.4568C78.4152 21.9637 78.7273 21.3998 77.689 20.6383C76.0723 19.4522 71.8879 19.6811 69.8759 19.6666C69.1601 19.6666 68.1551 19.7248 67.4976 19.421C67.3486 19.815 67.233 20.2208 67.1522 20.6341C67.1168 24.4169 67.1064 28.2059 67.1522 31.9887C67.159 32.3525 67.2295 32.7123 67.3603 33.0519C68.0136 33.4285 73.9125 33.1227 75.0819 33.1268C75.2775 33.1372 77.4393 32.2279 77.7598 32.0386Z" fill="black"/>
<path d="M117.826 21.463L117.849 21.4443C118.344 21.0073 118.702 20.1688 119.279 19.5716C121.345 17.4597 124.206 17.9695 126.877 17.9778C128.024 17.9778 128.438 18.2483 129.439 18.7872C131.557 19.8962 131.651 21.8521 131.99 23.9599C132.009 24.2439 132.009 24.529 131.99 24.813C131.574 27.8862 132.633 31.307 131.517 34.2096C129.813 34.5259 119.566 34.1597 119.06 34.5571C118.76 35.4456 119.023 40.2666 119.008 41.4547C120.916 43.5354 120.891 43.9911 124.041 43.9994C125.914 43.9994 127.939 44.3074 129.401 42.9424C130.207 42.1913 129.969 42.2641 130.419 41.4505C130.714 41.1072 130.111 41.0739 131.02 40.5392C131.278 40.123 130.868 39.0827 131.459 38.6457L131.638 38.6728C131.755 38.9266 131.709 40.044 131.73 40.4705C131.522 42.0685 131.313 43.1526 129.903 44.1513C129.734 44.2949 128.765 44.9066 128.602 44.9108C127.812 44.9399 125.017 45.7285 124.399 45.5496C122.162 44.9066 120.184 45.2937 118.717 43.1713C117.568 41.5067 117.818 40.7473 117.818 38.8871L117.828 34.7256L117.826 21.463ZM120.234 20.2312C119.919 20.637 119.254 21.3091 119.143 21.7959C118.748 23.5729 118.854 31.2612 119.116 33.1567C121.474 33.1914 123.826 33.2039 126.172 33.1942C127.248 33.1942 129.589 33.3503 130.427 32.9466C130.246 29.3303 130.396 25.2812 130.344 21.5899C129.534 20.2895 128.665 19.7069 127.162 19.2866C126.538 19.116 124.041 19.0452 123.378 19.1493C121.432 19.2991 121.705 19.7901 120.234 20.2312Z" fill="black" fill-opacity="0.99"/>
<path d="M3.55438 18.8502C4.46366 18.6421 4.93182 18.2988 5.81405 18.1115C8.31093 17.581 10.5477 17.9513 12.978 18.1115L13.003 18.1323C13.5377 18.5943 14.2514 18.7815 14.8757 19.129C16.1241 19.8136 16.559 21.0766 17.229 21.8673C17.308 23.1337 17.3399 24.4023 17.3247 25.6729C15.7267 26.0391 15.9743 25.2152 15.9909 23.9501C16.0058 23.4711 15.9926 22.9918 15.9514 22.5144C15.783 22.3026 15.6431 22.0696 15.5352 21.8215C14.7029 20.3067 13.8935 20.1735 12.4516 19.722C10.9389 18.844 7.33716 19.0645 5.74539 19.7345L5.18568 19.9821C4.70087 20.0758 4.33673 20.159 3.99341 20.5398C4.25642 20.7181 4.49316 20.9324 4.6967 21.1765C5.11284 21.8277 5.4957 22.633 5.97427 23.2572C7.97593 25.8123 10.0442 28.2967 12.1582 30.7603C12.3392 30.9684 12.5744 31.243 12.7242 31.4636L13.1757 31.9047C15.0005 32.452 16.0762 32.9597 17.1936 34.7241C17.8885 35.8186 17.8074 40.1028 17.6097 41.37C17.2997 42.8806 15.864 44.5306 14.3804 44.9925C14.3555 45.8706 13.983 46.241 13.8332 46.9484C13.4878 48.5984 12.8677 49.7969 12.2081 51.318C11.1521 53.7531 9.89952 56.0982 8.46283 58.33C8.33416 58.4041 8.19819 58.4648 8.05709 58.5111C7.7533 58.4798 7.7533 58.5298 7.55979 58.3654C7.70783 57.9079 7.81711 57.4388 7.88646 56.963C8.6064 56.5073 8.47115 55.7291 8.72916 55.1756C9.79449 52.8868 10.7204 50.7957 10.8265 48.2406C10.8494 47.6704 11.9605 46.4033 11.0658 45.906C11.3197 45.5668 11.69 45.0113 11.3571 44.5847C11.3779 43.7649 11.5236 43.3259 11.4882 42.325C11.4611 40.8323 11.2208 39.3511 10.7745 37.9264C10.5852 37.2855 10.5997 36.7403 10.2918 36.01C9.9104 35.1004 9.44508 34.2282 8.90186 33.4049C8.52941 32.8161 8.75413 32.633 8.05292 31.9692C7.38292 31.4969 7.00215 31.526 6.29886 31.293C5.13157 30.9413 4.2535 30.5939 3.26932 29.8906C2.1478 29.0874 1.95221 28.1323 1.13657 27.3125C1.0637 26.4128 1.04286 25.5097 1.07415 24.6076C1.15946 24.2747 1.16154 23.097 1.15738 22.6975C1.15322 21.2389 2.57019 19.8281 3.55438 18.8502ZM14.8548 42.9867C15.3315 42.5679 15.7708 42.1084 16.1678 41.6134C16.405 40.288 16.3322 38.6234 16.3342 37.2647C16.3342 35.5002 15.6726 34.3184 13.8873 33.8252C13.958 34.0999 14.4429 34.722 14.4449 34.9717C14.4553 36.0912 14.8278 36.913 15.0796 37.9201C15.3188 38.8835 15.3709 40.7187 15.2585 41.7507C15.0317 42.0649 14.5365 42.6163 14.8548 42.9784V42.9867ZM5.69961 29.4266L5.72458 29.2851C5.00755 28.5045 4.33178 27.6871 3.70003 26.8361C3.0446 26.1473 3.02795 26.4907 2.49736 25.3795C1.93972 27.0254 4.0163 29.4765 5.70586 29.4182L5.69961 29.4266Z" fill="black"/>
<path d="M8.057 31.9688C8.88929 32.0083 11.6962 33.0091 12.5909 33.3483C12.7657 33.4169 13.7853 33.8164 13.8872 33.8164C13.958 34.0911 14.4428 34.7132 14.4448 34.9629C14.4553 36.0824 14.8277 36.9042 15.0795 37.9113C15.3188 38.8747 15.3708 40.7099 15.2584 41.742C15.0316 42.0645 14.5364 42.6159 14.8547 42.9779C14.4385 43.5587 14.2673 44.2799 14.3783 44.9858C14.3533 45.8639 13.9808 46.2343 13.831 46.9417C13.4856 48.5917 12.8656 49.7902 12.206 51.3112C11.1499 53.7464 9.89735 56.0915 8.46066 58.3233C8.33199 58.3974 8.19602 58.4581 8.05492 58.5043C7.75113 58.4731 7.75113 58.5231 7.55762 58.3587C7.70566 57.9012 7.81493 57.4321 7.88429 56.9563C8.60423 56.5006 8.46898 55.7224 8.72699 55.1689C9.79232 52.8801 10.7183 50.789 10.8244 48.2338C10.8473 47.6637 11.9584 46.3966 11.0637 45.8993C11.3175 45.5601 11.6879 45.0045 11.355 44.578C11.3758 43.7582 11.5214 43.3191 11.486 42.3183C11.459 40.8278 11.2194 39.3487 10.7744 37.9259C10.5851 37.285 10.5997 36.7399 10.2917 36.0095C9.91031 35.0999 9.44499 34.2278 8.90178 33.4045C8.53349 32.8156 8.75821 32.6325 8.057 31.9688Z" fill="url(#paint1_linear_2514_1263)"/>
<path d="M2.49902 25.3825L2.58018 25.3055C2.48446 23.6721 2.31592 21.5394 3.96802 20.6051L3.99507 20.5469C4.25809 20.7252 4.49482 20.9395 4.69836 21.1836C5.11451 21.8349 5.49736 22.6401 5.97593 23.2643C7.9776 25.8195 10.0458 28.3038 12.1599 30.7674C12.3409 30.9755 12.576 31.2502 12.7258 31.4707C11.3713 31.5914 8.60181 30.3971 7.18275 30.0329C6.84568 29.9455 6.19233 29.4753 5.70544 29.4316L5.73041 29.2901C5.01119 28.5091 4.33333 27.6909 3.69961 26.839C3.04626 26.1482 3.02961 26.4915 2.49902 25.3825Z" fill="url(#paint2_linear_2514_1263)"/>
<path d="M2.49902 25.3825L2.58018 25.3055C2.48446 23.6721 2.31592 21.5394 3.96802 20.6051L3.99507 20.5469C4.25809 20.7252 4.49482 20.9395 4.69836 21.1836V21.2418C4.72664 21.4571 4.77115 21.67 4.83153 21.8785C3.90144 22.8128 4.69836 25.8652 4.11576 26.8036C3.90768 26.9139 3.97427 26.8848 3.69961 26.8369C3.04626 26.1482 3.02961 26.4915 2.49902 25.3825Z" fill="#F3CC79"/>
<path d="M31.0446 39.4311C32.3804 38.0349 32.1078 38.0266 32.7737 36.3266C33.5331 34.3916 34.4965 32.471 35.179 30.4777C35.7486 28.885 36.4008 27.323 37.1328 25.7981C37.2972 25.4548 37.3409 24.8764 37.5115 24.5497C37.9276 23.7548 38.1024 22.8643 38.4582 22.0736C38.9909 20.8876 39.5485 19.6537 40.077 18.4552C40.1894 18.2035 40.8615 17.7082 41.1528 18.0682C41.4857 18.784 41.2027 20.4069 41.2339 21.1893C41.442 26.3786 41.3484 31.593 41.3567 36.774V42.2297C41.3873 43.2575 41.3616 44.2862 41.2797 45.3112C41.2339 45.7378 40.9676 45.8876 40.5681 45.8106C40.4391 45.7336 40.2684 45.6233 40.2497 45.4714C40.0562 43.9629 40.127 41.9841 40.129 40.461V27.7686C40.129 26.7761 40.3371 22.933 39.921 22.2921H39.8211C39.6297 22.598 39.5881 23.0287 39.4341 23.372C39.097 24.1273 38.685 24.7286 38.5144 25.5526C38.3438 26.2538 37.9568 26.8676 37.6821 27.523C37.5489 27.8289 37.5593 28.3012 37.4282 28.5821C35.6555 32.3628 34.33 36.3329 32.6821 40.176C32.4532 40.7107 31.9247 41.8239 31.1819 41.6325C30.2851 40.8959 29.4029 37.4336 28.7807 36.2642C28.6265 35.866 28.519 35.4512 28.4603 35.0283C27.73 34.404 27.7861 33.7528 27.3742 32.9995C26.8436 32.0258 26.7791 31.2018 26.4732 30.1968L26.1132 29.9138C25.6721 28.7257 25.2123 27.3587 24.6692 26.2122C24.2183 25.3567 23.9411 24.4204 23.8536 23.4573C23.8327 23.2888 23.7141 23.218 23.5851 23.1265C22.6675 23.2409 22.9609 25.6109 22.9817 26.285C22.9956 27.349 23.0018 28.4136 23.0005 29.4789V40.1552C23.0005 41.8343 23.0005 43.5176 23.015 45.1989C23.015 45.5776 22.938 45.7087 22.551 45.7628C22.4732 45.7782 22.3931 45.7776 22.3155 45.7612C22.2378 45.7447 22.1644 45.7127 22.0995 45.667C21.6958 45.1989 21.8165 43.734 21.8061 43.1514C21.8623 42.0216 21.8061 40.4153 21.8061 39.2438C21.8186 36.4889 21.8089 33.734 21.777 30.9791C21.7645 28.424 21.7936 25.8959 21.6542 23.3408C21.6084 22.4877 21.7583 21.697 21.6833 20.7295C21.6605 20.0865 21.7104 18.9546 21.6396 18.3886C21.983 18.2763 22.3513 18.1036 22.7029 18.2763C22.911 18.3803 24.8523 23.2243 25.05 23.8526C25.179 24.2688 25.2955 25.0491 25.6222 25.3237C25.7886 25.4631 26.804 27.9454 26.9185 28.2867C27.1026 28.8093 27.2418 29.3467 27.3346 29.893C28.3937 30.873 28.7329 33.9775 29.7441 34.8243C29.9314 36.2413 30.1602 36.4619 30.6659 37.7769C30.8228 38.3208 30.9492 38.8731 31.0446 39.4311Z" fill="black"/>
<path d="M142.162 17.9835C143.487 17.9048 144.815 17.9271 146.136 18.0501C147.663 18.2831 149.209 19.5898 150.008 20.8632C150.214 21.1433 150.356 21.465 150.425 21.8058C150.509 23.0588 150.498 24.3164 150.391 25.5678C150.379 25.7405 150.31 25.7613 150.204 25.832C149.051 25.8944 149.338 24.2174 149.338 23.4912C149.359 22.8559 149.316 22.2202 149.209 21.5936C148.681 21.1774 148.779 21.2086 148.44 20.7217C147.953 20.0205 146.099 19.2652 145.252 19.1986C143.075 19.053 140.735 18.8803 138.937 20.3597C138.165 20.9839 138.046 21.2336 137.951 22.1803C137.856 23.3833 137.823 24.5903 137.853 25.7966V30.9215C137.853 32.7234 137.645 40.8424 138.094 42.1408C138.215 42.4904 139.207 43.1562 139.551 43.5828C141.398 44.1716 144.085 44.0572 146.016 43.8824C147.701 43.7305 148.304 42.6527 149.289 41.4313C149.37 40.4804 149.336 39.1133 149.338 38.1312C149.338 37.3364 149.357 36.5374 149.38 35.7425C149.403 34.9477 149.38 34.7022 148.908 34.078C147.838 34.3589 144.954 34.3672 143.766 34.286C143.745 33.7326 143.627 32.9169 144.39 32.9086C146.24 32.8857 148.504 33.1624 150.329 32.9086C150.608 34.1758 150.42 40.4346 150.398 42.1221C150.398 42.3926 149.981 42.6215 149.75 42.7463C148.71 45.1974 146.084 45.0726 143.843 45.5012C143.001 45.6635 141.253 45.0996 140.273 45.033C139.12 44.954 137.58 43.5765 137.014 42.6173C136.598 41.8162 136.733 39.1175 136.733 38.1063V32.0472L136.719 26.0692C136.719 24.1966 136.654 22.4113 136.975 20.5594C137.208 20.3618 137.616 19.8478 137.886 19.5877C139.405 18.1395 140.242 18.1416 142.162 17.9835Z" fill="black"/>
<path d="M81.792 18.1143C82.4308 18.0872 83.0987 18.0976 83.7396 18.1143C88.3172 18.2058 92.9426 18.0664 97.5244 18.1143C97.5244 18.4784 97.5702 19.0506 97.4224 19.3627C97.0729 19.5604 91.457 19.4771 90.5123 19.525C90.2169 20.788 90.3313 24.7685 90.3313 26.3124V39.034C90.3313 40.1097 90.5227 44.989 90.1898 45.6112C90.1606 45.6672 90.1183 45.7154 90.0665 45.7516C90.0147 45.7878 89.9549 45.811 89.8923 45.8192C89.6782 45.8508 89.4603 45.7978 89.2847 45.6715C88.8998 45.2158 89.0475 39.6915 89.0475 38.751V26.535C89.0475 24.6249 89.1869 21.1022 88.8207 19.3585C87.462 19.5208 83.2922 19.6207 82.0188 19.3585C81.7566 19.1255 81.4757 18.9258 81.4736 18.5471C81.5506 18.2911 81.5964 18.2682 81.792 18.1143Z" fill="black"/>
<path d="M101.948 18.0234C102.113 18.0349 102.272 18.0825 102.416 18.1628C102.61 18.4874 102.508 23.7808 102.508 24.5986V37.9319C102.508 39.1158 102.435 42.8403 102.591 43.8183C102.932 44.2656 104.464 44.0264 105.046 44.0264H111.299C112.011 44.0264 114.064 43.9764 114.659 44.0971C115.005 44.326 114.984 45.3102 114.755 45.6493C114.26 45.7305 111.634 45.6493 110.885 45.6493H105.408C104.343 45.6493 102.857 45.7846 101.871 45.5245C101.534 45.2894 101.397 44.4841 101.393 44.0846C101.37 42.4055 101.378 40.7242 101.378 39.0451V29.3634C101.378 26.3027 101.324 21.594 101.434 18.4188C101.432 18.2586 101.788 18.0963 101.948 18.0234Z" fill="black" fill-opacity="0.98"/>
<path d="M4.39501 6.35146C4.84861 6.23702 4.90478 6.2287 5.29804 6.46174C5.36046 6.4992 5.42289 6.53665 5.48323 6.57618C5.03171 7.11093 4.69671 7.76636 4.3201 8.36561C3.10703 10.3132 2.28514 12.9432 2.3975 15.232C2.42247 15.7106 2.65968 16.0831 2.78244 16.5283C2.99052 17.2587 2.81781 18.401 3.55439 18.8442C2.5702 19.8221 1.15322 21.2329 1.16154 22.6894C1.16154 23.0889 1.16155 24.2666 1.07832 24.5995C0.982609 22.8038 1.40707 21.1309 0.123261 19.5391C-0.103539 18.1596 0.0421095 15.8875 0.0941278 14.4642C0.0941278 14.3082 1.10536 11.3098 1.199 11.1455C2.06042 9.65983 3.09039 7.48546 4.39501 6.35146Z" fill="#F3CC79"/>
<path d="M11.0724 45.8997C9.54518 45.8997 7.47485 45.9101 5.95592 45.7228C5.63132 45.6084 5.33169 45.3317 4.99461 45.2547C3.13651 44.8385 1.14734 43.0137 0.972562 41.0703C0.960078 40.5335 0.61467 38.7378 1.07035 38.3362C2.27926 37.2709 2.31879 38.9771 2.29382 39.7719C2.28134 40.2734 2.32296 40.9309 2.35001 41.4136C2.92013 42.1065 2.99295 42.5622 3.85437 43.2384C4.71579 43.9147 5.93511 43.7815 6.60302 44.4244C7.27926 44.4702 7.95758 44.5139 8.63382 44.5222C9.55767 44.5326 10.4503 44.4245 11.3637 44.5784C11.6987 45.005 11.3263 45.5647 11.0724 45.8997Z" fill="black"/>
<path d="M21.709 20.7266C21.7839 21.6941 21.6341 22.4848 21.6798 23.3379C21.8192 25.893 21.7901 28.4211 21.8026 30.9763C21.8331 33.7311 21.8428 36.486 21.8317 39.2409C21.8317 40.4124 21.8775 42.0187 21.8317 43.1485C21.401 43.5023 21.9982 45.2875 21.3865 45.6142C21.2741 45.479 21.3428 33.0445 21.3448 31.6587C21.3448 29.5572 21.0931 26.0844 21.1596 24.0162C21.155 23.6591 21.1703 23.3021 21.2054 22.9467C21.4967 21.8189 21.7069 21.8918 21.709 20.7266Z" fill="url(#paint3_linear_2514_1263)"/>
<path d="M5.74771 19.7417C6.91708 20.1245 9.03525 19.1362 10.4065 19.5336C11.0307 19.7146 11.8463 20.0996 12.4539 19.7417C13.8959 20.1932 14.7032 20.3264 15.5376 21.8411C15.6454 22.0893 15.7853 22.3222 15.9537 22.534C15.9949 23.0114 16.0081 23.4908 15.9932 23.9697C15.9014 24.3312 15.8498 24.7018 15.8393 25.0746L15.7435 24.8998C15.7057 24.9557 15.6559 25.0026 15.5979 25.0371C15.2941 24.7209 15.5979 22.5985 15.3898 22.3488C14.672 21.5415 13.7252 20.8757 12.9595 20.0892C12.791 20.0892 11.2096 20.1308 11.1326 20.0892C9.28702 19.1778 7.82219 20.2244 5.94745 20.1037C5.65198 20.0829 5.42311 20.1204 5.18799 19.9955L5.74771 19.7417Z" fill="#FEFDFE" fill-opacity="0.05"/>
<path d="M13.1777 31.8999C14.9047 31.3069 17.0146 33.5124 17.6721 34.8753C18.2131 35.9948 18.5918 40.6015 17.9093 41.6335L17.7886 41.6731C17.7095 41.5827 17.6481 41.4783 17.6076 41.3651C17.8157 40.098 17.8906 35.8137 17.1915 34.7193C16.0783 32.9548 15.0025 32.4554 13.1777 31.8999Z" fill="#FEFDFE" fill-opacity="0.02"/>
<path d="M130.491 38.0543C131.771 37.5258 131.988 38.0543 132.042 39.3651C132.058 39.7584 131.873 40.1121 131.723 40.4783C131.702 40.0518 131.748 38.9344 131.632 38.6806L131.453 38.6535C130.862 39.0926 131.272 40.1371 131.014 40.547C130.104 41.0817 130.708 41.115 130.412 41.4583C130.263 40.8591 130.317 38.6972 130.491 38.0543Z" fill="black" fill-opacity="0.91"/>
<path d="M59.4777 21.7578C59.5027 21.9222 59.5402 22.3508 59.6275 22.4445L59.8793 22.3155C60.0687 23.1269 59.8481 24.1423 60.0479 24.8311C60.0884 25.4373 60.0884 26.0455 60.0479 26.6517C59.2385 26.3874 58.7099 26.4436 58.0732 25.9442C58.3125 25.9442 59.3217 25.9047 59.4798 25.784C59.6151 24.9642 59.3779 22.8648 59.4777 21.7578Z" fill="#FEFDFE" fill-opacity="0.04"/>
<path d="M6.95605 3.22097C7.14748 2.80483 9.2948 1.0695 9.75256 0.62422C9.96063 0.416147 10.1084 0.110279 10.3768 0L10.4704 0.0915519C10.4475 0.528506 8.91818 1.83104 8.54572 2.54266L7.90279 2.90886C7.79875 3.26675 7.73217 3.66625 7.43462 3.89097C7.35555 3.74116 7.06841 3.37287 6.95605 3.22097Z" fill="#D6A85C" fill-opacity="0.99"/>
<path d="M21.1481 24.0172C20.8755 22.9061 21.2292 20.2219 21.1855 18.9672C21.1855 18.936 21.5205 18.7009 21.5476 18.4367L21.6641 18.3867C21.7349 18.9527 21.6849 20.0846 21.7078 20.7275C21.7078 21.8928 21.4997 21.8199 21.1939 22.9477C21.1587 23.3031 21.1435 23.6601 21.1481 24.0172Z" fill="#FEFDFE" fill-opacity="0.07"/>
<path d="M7.56649 58.3594C7.76 58.5238 7.75999 58.4738 8.06377 58.505C7.23148 58.9357 8.02841 59.3373 7.59354 60.0011C7.17739 59.9823 6.93394 59.5496 6.90897 59.1563C6.88192 58.6902 7.29807 58.684 7.56649 58.3594Z" fill="#D6A85C" fill-opacity="0.99"/>
<path d="M4.9256 5.30487L5.45411 4.82422C5.42914 5.4089 5.37088 5.72934 5.7579 6.18502C5.67675 6.32241 5.58491 6.45321 5.48324 6.5762C5.4229 6.53666 5.36047 6.49921 5.29805 6.46176C4.90479 6.22871 4.84862 6.23704 4.39502 6.35148C4.81949 5.98943 4.80908 5.84794 4.9256 5.30487Z" fill="#D6A85C"/>
<path d="M5.97213 4.18678C6.07617 4.07026 6.25096 3.9246 6.37164 3.81641C6.59636 4.1847 6.6234 4.29914 7.06868 4.27417C6.97652 4.42106 6.89716 4.5756 6.83147 4.73609C6.6234 5.32286 6.31338 4.99202 5.91179 5.54549C5.83065 4.73817 6.40492 4.90255 5.97213 4.18678Z" fill="#D6A85C" fill-opacity="0.99"/>
<path d="M59.5153 20.6914V20.7205C59.5249 20.9215 59.6043 21.1129 59.74 21.2615C60.1957 21.9066 60.0583 23.979 60.0438 24.83C59.8357 24.1413 60.0646 23.1259 59.8752 22.3144L59.6235 22.4434C59.5361 22.3497 59.4986 21.9211 59.4737 21.7567C59.4633 21.1991 59.3863 21.2948 59.5153 20.6914Z" fill="#FEFDFE" fill-opacity="0.16"/>
<path d="M5.97221 4.1875C6.38836 4.90327 5.83072 4.73889 5.91187 5.54622C5.87355 5.76276 5.82213 5.97677 5.7579 6.18708C5.37088 5.7314 5.42914 5.41097 5.45411 4.82628L5.97221 4.1875Z" fill="#F3CC79" fill-opacity="0.99"/>
<path d="M6.37109 3.81775C6.58141 3.63515 6.77692 3.43616 6.95578 3.22266C7.06814 3.37455 7.35528 3.74076 7.43435 3.88849L7.06813 4.27551C6.62286 4.30048 6.59581 4.18604 6.37109 3.81775Z" fill="#F3CC79" fill-opacity="0.98"/>
<defs>
<linearGradient id="paint0_linear_2514_1263" x1="61.2277" y1="34.9776" x2="60.9356" y2="34.9776" gradientUnits="userSpaceOnUse">
<stop stop-color="#FFFEFE" stop-opacity="0.04"/>
<stop offset="1" stop-color="#FCFCFC" stop-opacity="0.11"/>
</linearGradient>
<linearGradient id="paint1_linear_2514_1263" x1="17.1722" y1="44.2482" x2="9.6784" y2="44.5206" gradientUnits="userSpaceOnUse">
<stop stop-color="#B18644"/>
<stop offset="1" stop-color="#DEB368"/>
</linearGradient>
<linearGradient id="paint2_linear_2514_1263" x1="14.8218" y1="26.2702" x2="5.97562" y2="24.8152" gradientUnits="userSpaceOnUse">
<stop stop-color="#BA8C4D"/>
<stop offset="1" stop-color="#EEC876"/>
</linearGradient>
<linearGradient id="paint3_linear_2514_1263" x1="24.8301" y1="32.752" x2="22.3307" y2="32.4504" gradientUnits="userSpaceOnUse">
<stop stop-color="white" stop-opacity="0"/>
<stop offset="1" stop-color="#FDFEFE" stop-opacity="0.04"/>
</linearGradient>
</defs>
</svg>
