<svg width="137" height="60" viewBox="0 0 137 60" fill="none" xmlns="http://www.w3.org/2000/svg">
<g clip-path="url(#clip0_2765_9444)">
<path d="M36.0014 42.5111H36.1744C36.2957 42.5099 36.4116 42.4612 36.4974 42.3753C36.5831 42.2893 36.6318 42.1731 36.6329 42.0516V18.5033C36.6339 18.3788 36.5911 18.258 36.512 18.1621C36.4329 18.0661 36.3225 18.0013 36.2004 17.9788C36.078 17.9528 35.9503 17.9712 35.8402 18.0307C35.7301 18.0902 35.6447 18.1871 35.5992 18.3039L27.8963 37.3446L27.8574 37.2535L20.1934 18.3039C20.1479 18.1871 20.0625 18.0902 19.9524 18.0307C19.8423 17.9712 19.7146 17.9528 19.5922 17.9788C19.4697 18.0004 19.3589 18.0651 19.2796 18.1612C19.2003 18.2573 19.1578 18.3786 19.1597 18.5033V42.0516C19.1609 42.1731 19.2095 42.2893 19.2952 42.3753C19.381 42.4612 19.4969 42.5099 19.6182 42.5111H19.7912C19.9128 42.5111 20.0294 42.4627 20.1154 42.3765C20.2013 42.2903 20.2496 42.1735 20.2496 42.0516V21.3552L20.3275 21.546L27.3081 38.7966C27.3539 38.9152 27.4348 39.0169 27.5399 39.0882C27.6451 39.1595 27.7694 39.1968 27.8963 39.1953C28.0232 39.1968 28.1476 39.1595 28.2527 39.0882C28.3578 39.0169 28.4387 38.9152 28.4845 38.7966L35.543 21.3552V42.0516C35.543 42.1735 35.5913 42.2903 35.6773 42.3765C35.7632 42.4627 35.8798 42.5111 36.0014 42.5111Z" fill="black"/>
<path d="M44.6429 42.5285H50.7412C51.6998 42.5274 52.6188 42.1453 53.2966 41.466C53.9745 40.7867 54.3558 39.8657 54.3569 38.905V21.7975C54.3558 20.7839 53.9535 19.8122 53.2384 19.0956C52.5232 18.3789 51.5536 17.9758 50.5422 17.9746H44.0936C43.2295 17.9758 42.4011 18.3206 41.7905 18.9333C41.1798 19.5461 40.8368 20.3767 40.8368 21.2427V22.0879C40.8363 22.1486 40.8477 22.2088 40.8705 22.265C40.8933 22.3213 40.927 22.3724 40.9696 22.4156C41.0122 22.4587 41.063 22.4929 41.1189 22.5163C41.1748 22.5396 41.2347 22.5517 41.2953 22.5517H41.4683C41.5903 22.5505 41.7069 22.5011 41.7927 22.4143C41.8786 22.3274 41.9268 22.2101 41.9268 22.0879V21.247C41.9268 20.6722 42.1546 20.121 42.5601 19.7146C42.9657 19.3082 43.5157 19.0799 44.0893 19.0799H50.5379C51.2602 19.081 51.9526 19.3691 52.4634 19.8809C52.9741 20.3927 53.2615 21.0866 53.2627 21.8105V26.0581L53.1935 25.9974C52.5347 25.3854 51.6698 25.0449 50.7715 25.0439H44.2104C43.3145 25.0439 42.4553 25.4005 41.8219 26.0354C41.1884 26.6702 40.8325 27.5312 40.8325 28.429V38.7273C40.8371 39.7371 41.2406 40.7039 41.9546 41.4163C42.6687 42.1286 43.6353 42.5285 44.6429 42.5285ZM41.9268 28.416C41.9268 28.1149 41.9859 27.8167 42.1009 27.5386C42.2159 27.2604 42.3844 27.0076 42.5969 26.7947C42.8093 26.5818 43.0616 26.4129 43.3391 26.2977C43.6167 26.1824 43.9142 26.1231 44.2147 26.1231H50.7758C51.4361 26.1243 52.0691 26.3877 52.5361 26.8556C53.003 27.3236 53.2659 27.9579 53.267 28.6197V38.9007C53.2659 39.5717 52.9994 40.2149 52.526 40.6893C52.0525 41.1638 51.4107 41.4308 50.7412 41.432H44.6429C43.9225 41.432 43.2317 41.1452 42.7223 40.6347C42.2129 40.1243 41.9268 39.4319 41.9268 38.71V28.416Z" fill="black"/>
<path d="M71.8521 41.7917L67.2459 32.0525H67.3022C68.4057 31.9085 69.4194 31.3675 70.1546 30.5303C70.8897 29.6931 71.2963 28.6167 71.2985 27.5015V22.6557C71.2974 21.4145 70.8049 20.2246 69.9291 19.3469C69.0534 18.4693 67.8659 17.9758 66.6275 17.9746H58.9635C58.8121 17.9746 58.6669 18.0349 58.5598 18.1422C58.4527 18.2495 58.3926 18.395 58.3926 18.5467V42.0431C58.3937 42.1653 58.443 42.2822 58.5296 42.3682C58.6163 42.4543 58.7334 42.5025 58.8554 42.5025H59.024C59.1456 42.5025 59.2622 42.4541 59.3482 42.368C59.4342 42.2818 59.4825 42.1649 59.4825 42.0431V32.0742H66.0609V32.1002L70.8617 42.2468C70.9247 42.377 71.0367 42.4767 71.1731 42.5242C71.2424 42.5523 71.317 42.5649 71.3917 42.5612C71.4664 42.5574 71.5394 42.5374 71.6056 42.5025C71.7305 42.4391 71.8261 42.3296 71.8721 42.197C71.9181 42.0644 71.9109 41.9191 71.8521 41.7917ZM59.4782 30.9949V19.0669H66.6231C67.5729 19.0669 68.4838 19.445 69.1554 20.118C69.827 20.791 70.2043 21.7039 70.2043 22.6557V27.5015C70.2031 28.4284 69.8349 29.3169 69.1804 29.972C68.526 30.627 67.6389 30.9949 66.714 30.9949H59.4782Z" fill="black"/>
<path d="M79.5375 42.5112H79.6802C79.8064 42.5112 79.9274 42.4609 80.0166 42.3715C80.1058 42.2821 80.156 42.1608 80.156 42.0344V19.0625H86.2932C86.3555 19.0631 86.4172 19.0513 86.4749 19.0278C86.5326 19.0043 86.5851 18.9696 86.6293 18.9257C86.6736 18.8817 86.7087 18.8295 86.7327 18.7718C86.7566 18.7142 86.7689 18.6525 86.7689 18.5901V18.4427C86.7689 18.3803 86.7566 18.3185 86.7327 18.2609C86.7087 18.2033 86.6736 18.151 86.6293 18.1071C86.5851 18.0631 86.5326 18.0284 86.4749 18.0049C86.4172 17.9815 86.3555 17.9697 86.2932 17.9702H72.9245C72.8622 17.9697 72.8004 17.9815 72.7428 18.0049C72.6851 18.0284 72.6326 18.0631 72.5883 18.1071C72.5441 18.151 72.509 18.2033 72.485 18.2609C72.4611 18.3185 72.4487 18.3803 72.4487 18.4427V18.5901C72.4487 18.6525 72.4611 18.7142 72.485 18.7718C72.509 18.8295 72.5441 18.8817 72.5883 18.9257C72.6326 18.9696 72.6851 19.0043 72.7428 19.0278C72.8004 19.0513 72.8622 19.0631 72.9245 19.0625H79.0833V42.0344C79.0821 42.1575 79.1289 42.2762 79.2137 42.3652C79.2986 42.4543 79.4147 42.5066 79.5375 42.5112Z" fill="black"/>
<path d="M90.5359 17.979H90.2591C90.1513 17.979 90.0479 18.0219 89.9716 18.0983C89.8954 18.1747 89.8525 18.2784 89.8525 18.3864V41.9348C89.8525 42.0858 89.9121 42.2307 90.0182 42.3378C90.1244 42.445 90.2685 42.5058 90.4191 42.5069H101.911C102.017 42.5007 102.116 42.4558 102.191 42.3807C102.266 42.3056 102.311 42.2055 102.317 42.0995V41.8221C102.317 41.714 102.274 41.6104 102.198 41.534C102.122 41.4576 102.019 41.4147 101.911 41.4147H90.9425V18.3864C90.9425 18.2784 90.8996 18.1747 90.8234 18.0983C90.7471 18.0219 90.6437 17.979 90.5359 17.979Z" fill="black"/>
<path d="M116.91 22.2699C116.909 21.1326 116.459 20.042 115.657 19.237C114.855 18.432 113.768 17.978 112.633 17.9746H108.926C107.808 17.9758 106.735 18.422 105.944 19.2152C105.154 20.0084 104.709 21.0837 104.709 22.2049V38.3156C104.709 39.4379 105.154 40.5144 105.946 41.3084C106.737 42.1024 107.811 42.5491 108.931 42.5502H112.616C113.75 42.5479 114.837 42.095 115.639 41.2906C116.441 40.4863 116.892 39.3962 116.893 38.2592V36.014C116.893 35.8929 116.845 35.7767 116.76 35.6907C116.675 35.6047 116.56 35.5558 116.439 35.5546H116.279C116.158 35.5557 116.042 35.6045 115.956 35.6904C115.87 35.7763 115.822 35.8925 115.821 36.014V38.2549C115.819 39.1033 115.483 39.9167 114.885 40.517C114.286 41.1173 113.475 41.4557 112.629 41.458H108.926C108.097 41.4568 107.301 41.1257 106.715 40.5373C106.129 39.9489 105.799 39.1514 105.799 38.3199V32.4556H116.327C116.477 32.4556 116.621 32.3958 116.727 32.2893C116.833 32.1828 116.893 32.0384 116.893 31.8878L116.91 22.2699ZM115.821 31.372H105.817V22.2049C105.817 21.3734 106.146 20.5759 106.732 19.9875C107.319 19.3991 108.114 19.068 108.944 19.0669H112.633C113.479 19.0691 114.29 19.4076 114.887 20.0081C115.485 20.6085 115.821 21.4219 115.821 22.2699V31.372Z" fill="black"/>
<path d="M133.488 22.2699C133.486 21.1314 133.034 20.0402 132.23 19.2352C131.427 18.4302 130.338 17.9769 129.202 17.9746H125.513C124.394 17.9769 123.322 18.4235 122.532 19.2164C121.742 20.0094 121.297 21.0841 121.296 22.2049V38.3199C121.297 39.4408 121.742 40.5154 122.532 41.3084C123.322 42.1013 124.394 42.5479 125.513 42.5502H129.202C130.338 42.5479 131.427 42.0946 132.23 41.2896C133.034 40.4846 133.486 39.3934 133.488 38.2549V32.0308C133.488 31.8791 133.428 31.7335 133.321 31.6263C133.214 31.519 133.069 31.4587 132.917 31.4587H127.788C127.667 31.4598 127.551 31.5087 127.466 31.5948C127.381 31.6808 127.334 31.797 127.334 31.9181V32.0958C127.334 32.2169 127.381 32.3331 127.466 32.4192C127.551 32.5052 127.667 32.5541 127.788 32.5553H132.398V38.2549C132.397 39.1041 132.06 39.9181 131.461 40.5185C130.862 41.119 130.049 41.4568 129.202 41.458H125.517C124.686 41.4568 123.89 41.1252 123.303 40.536C122.716 39.9469 122.386 39.1482 122.386 38.3156V22.2049C122.387 21.3737 122.717 20.5769 123.303 19.9888C123.889 19.4006 124.683 19.0691 125.513 19.0669H129.202C130.049 19.068 130.862 19.4058 131.461 20.0063C132.06 20.6067 132.397 21.4208 132.398 22.2699V24.4631C132.398 24.5806 132.443 24.6937 132.523 24.7791C132.604 24.8646 132.714 24.9159 132.831 24.9225H133.008C133.129 24.9214 133.245 24.8726 133.331 24.7867C133.417 24.7008 133.465 24.5846 133.467 24.4631L133.488 22.2699Z" fill="black"/>
<path d="M135.149 15.0619C135.074 15.0624 134.999 15.0756 134.928 15.1009V15.8724H135.11C135.382 15.8724 135.633 15.7684 135.633 15.439C135.633 15.1095 135.369 15.0489 135.149 15.0489M135.681 16.9863L135.002 16.0241H134.928V16.9863H134.695V14.9535C134.847 14.8863 135.012 14.8523 135.179 14.8538C135.264 14.8422 135.35 14.8487 135.433 14.8728C135.515 14.8969 135.591 14.9381 135.656 14.9937C135.722 15.0493 135.775 15.1181 135.812 15.1956C135.849 15.273 135.869 15.3574 135.871 15.4433C135.871 15.7944 135.607 15.9894 135.253 16.0111L135.958 16.9863H135.681ZM135.248 14.4247C134.84 14.4259 134.449 14.5888 134.161 14.8779C133.872 15.1671 133.71 15.5589 133.709 15.9677C133.709 16.377 133.871 16.7694 134.159 17.0588C134.448 17.3482 134.84 17.5108 135.248 17.5108C135.451 17.5113 135.651 17.4718 135.839 17.3946C136.026 17.3173 136.196 17.2037 136.34 17.0604C136.483 16.917 136.597 16.7467 136.675 16.5592C136.752 16.3717 136.792 16.1707 136.792 15.9677C136.791 15.5581 136.628 15.1656 136.339 14.8764C136.049 14.5871 135.657 14.4247 135.248 14.4247ZM135.248 17.7275C135.018 17.7275 134.79 17.6819 134.577 17.5934C134.364 17.505 134.171 17.3753 134.008 17.2118C133.845 17.0483 133.716 16.8543 133.629 16.6408C133.541 16.4274 133.496 16.1986 133.497 15.9677C133.496 15.7369 133.541 15.5081 133.629 15.2946C133.716 15.0812 133.845 14.8872 134.008 14.7237C134.171 14.5602 134.364 14.4305 134.577 14.342C134.79 14.2536 135.018 14.208 135.248 14.208C135.714 14.208 136.161 14.3934 136.49 14.7234C136.819 15.0534 137.004 15.501 137.004 15.9677C137.004 16.4345 136.819 16.882 136.49 17.2121C136.161 17.5421 135.714 17.7275 135.248 17.7275Z" fill="black"/>
<path d="M15.505 34.8089V37.8776C15.505 39.6113 14.48 41.0893 12.6765 41.9085L12.6332 41.9302C12.6851 41.7004 12.7327 41.4664 12.7759 41.2367C12.8192 41.007 12.8668 40.7772 12.9014 40.5432L12.9489 40.5085C13.3923 40.2264 13.7588 39.8382 14.0155 39.379C14.2722 38.9198 14.411 38.4039 14.4195 37.8776V34.8089C14.4218 34.1402 14.21 33.4885 13.8153 32.9494C13.4206 32.4103 12.8638 32.0123 12.2267 31.8139L12.0277 31.7488L6.86793 30.1105L4.20371 29.2436C3.25087 28.9475 2.41806 28.3526 1.82788 27.5466C1.23769 26.7406 0.921325 25.766 0.925331 24.7663V22.4907C0.92669 22.2757 0.945496 22.0612 0.981558 21.8493C0.981558 21.8276 0.981558 21.8146 0.981558 21.7929C1.11477 21.2227 1.36408 20.6862 1.71388 20.2171C2.06367 19.7479 2.50641 19.3563 3.01432 19.0666C4.17003 18.3614 5.49752 17.9894 6.85063 17.9917H9.35483C12.1488 17.9917 15.1677 19.7644 15.1677 22.6381V24.4368C15.1677 24.5598 15.1189 24.6778 15.0321 24.7648C14.9454 24.8517 14.8276 24.9006 14.7049 24.9006H14.5362C14.4135 24.9006 14.2958 24.8517 14.209 24.7648C14.1222 24.6778 14.0735 24.5598 14.0735 24.4368V22.6381C14.0735 20.51 11.6341 19.0796 9.35483 19.0796H6.85063C5.6617 19.0754 4.49665 19.4139 3.49441 20.0548C3.06152 20.3026 2.69789 20.6556 2.4371 21.0813C2.17631 21.5071 2.02676 21.9918 2.00226 22.4907V24.7663C2.00049 25.534 2.24385 26.2821 2.69675 26.9013C3.14965 27.5205 3.78835 27.9783 4.51944 28.2077L5.61367 28.5544L11.3184 30.3619L12.5467 30.752C13.4085 31.0213 14.1611 31.5609 14.6937 32.2913C15.2263 33.0217 15.5108 33.9042 15.505 34.8089Z" fill="black"/>
<path d="M10.1161 41.4359C10.1161 41.7956 10.0728 42.1554 10.0339 42.5108H6.24084C3.53769 42.5108 0.748047 40.7771 0.748047 37.8904V36.0223C0.748026 35.8996 0.796042 35.7819 0.881779 35.6943C0.967516 35.6068 1.08412 35.5565 1.2065 35.5542H1.37517C1.4983 35.5553 1.61601 35.6052 1.70268 35.6928C1.78934 35.7805 1.83796 35.8989 1.83795 36.0223V37.8904C1.83795 40.1009 4.074 41.4185 6.24084 41.4185H10.1334V41.4445L10.1161 41.4359Z" fill="black"/>
<path d="M3.04042 19.084C2.5325 19.3737 2.08978 19.7653 1.73999 20.2345C1.39019 20.7036 1.14087 21.2401 1.00765 21.8103C1.00765 21.832 1.00765 21.845 1.00765 21.8667L0.977376 21.806C-0.19471 18.7719 -0.493136 15.2091 1.14173 11.7764C3.94868 5.88168 11.3402 0.338077 11.803 0C11.3704 0.377086 4.65366 6.06805 2.50412 11.9194C1.60883 14.3509 1.98943 16.7305 3.01447 19.0103V19.0493L3.04042 19.084Z" fill="url(#paint0_linear_2765_9444)"/>
<path d="M11.323 30.3316L11.3489 30.3793L5.64421 28.5719L5.60095 28.5199C5.34145 28.2295 5.07762 27.9434 4.78784 27.653C3.73232 26.5984 2.8218 25.4076 2.08036 24.1119L2.03711 24.0252V22.5082C2.06161 22.0092 2.21117 21.5245 2.47196 21.0987C2.73275 20.673 3.09637 20.32 3.52925 20.0723L3.55087 20.1113C5.18574 23.1106 7.80673 25.9279 9.95627 28.4332C10.4627 29.0153 10.9157 29.642 11.31 30.3056L11.323 30.3316Z" fill="url(#paint1_linear_2765_9444)"/>
<path d="M12.9317 40.4566C12.9317 40.4566 12.9317 40.4783 12.9317 40.487V40.5433C12.8971 40.7774 12.8539 41.0071 12.8063 41.2368C12.7587 41.4665 12.7154 41.7006 12.6635 41.9303C12.6635 41.9303 12.6635 41.952 12.6635 41.965C12.3675 43.2324 11.9889 44.479 11.5304 45.6968C9.57979 50.898 6.21491 55.5357 2.81543 60.0001C4.4503 57.7636 9.25975 50.5556 10.0512 42.6151V42.5501C10.0512 42.5501 10.0512 42.5241 10.0512 42.5111C10.0902 42.1557 10.1161 41.7959 10.1334 41.4362V41.4102C10.1353 41.3972 10.1353 41.3841 10.1334 41.3712C10.3881 37.3875 9.26719 33.4374 6.95881 30.1843L6.91124 30.1279L12.0451 31.749L12.071 31.801L12.097 31.8443C13.2561 34.5663 13.3988 37.5266 12.9317 40.4566Z" fill="url(#paint2_linear_2765_9444)"/>
</g>
<defs>
<linearGradient id="paint0_linear_2765_9444" x1="-8.19279e-05" y1="10.9312" x2="11.7943" y2="10.9312" gradientUnits="userSpaceOnUse">
<stop stop-color="#F3CC71"/>
<stop offset="0.4" stop-color="#F3CC71"/>
<stop offset="1" stop-color="#B08039"/>
</linearGradient>
<linearGradient id="paint1_linear_2765_9444" x1="2.03278" y1="25.2258" x2="11.3489" y2="25.2258" gradientUnits="userSpaceOnUse">
<stop stop-color="#F3CC71"/>
<stop offset="0.4" stop-color="#F3CC71"/>
<stop offset="1" stop-color="#B08039"/>
</linearGradient>
<linearGradient id="paint2_linear_2765_9444" x1="2.7938" y1="45.0553" x2="13.1825" y2="45.0553" gradientUnits="userSpaceOnUse">
<stop stop-color="#F3CC71"/>
<stop offset="0.4" stop-color="#F3CC71"/>
<stop offset="1" stop-color="#B08039"/>
</linearGradient>
<clipPath id="clip0_2765_9444">
<rect width="137" height="60" fill="white"/>
</clipPath>
</defs>
</svg>
