<svg width="40" height="40" viewBox="0 0 40 40" fill="none" xmlns="http://www.w3.org/2000/svg">
<mask id="mask0_2488_4926" style="mask-type:alpha" maskUnits="userSpaceOnUse" x="0" y="0" width="40" height="40">
<rect width="40" height="40" fill="#D9D9D9"/>
</mask>
<g mask="url(#mask0_2488_4926)">
<path d="M14.455 33.3346L6.6665 25.5462V14.4564L14.455 6.66797H25.5447L33.3332 14.4564V25.5462L25.5447 33.3346H14.455ZM15.2498 25.9308L19.9998 21.1808L24.7498 25.9308L25.9293 24.7513L21.1793 20.0013L25.9293 15.2513L24.7498 14.0718L19.9998 18.8218L15.2498 14.0718L14.0703 15.2513L18.8203 20.0013L14.0703 24.7513L15.2498 25.9308ZM15.1665 31.668H24.8332L31.6665 24.8346V15.168L24.8332 8.33464H15.1665L8.33317 15.168V24.8346L15.1665 31.668Z" fill="#F24D33"/>
</g>
</svg>
