<svg version="1.1" xmlns="http://www.w3.org/2000/svg" xmlns:xlink="http://www.w3.org/1999/xlink">

    <symbol viewBox="0 0 20 20" id="icon-search">
        <path d="M16.2373 16.7944L11.0194 11.5765C10.6027 11.9312 10.1235 12.2058 9.58188 12.4002C9.04022 12.5947 8.49591 12.6919 7.94897 12.6919C6.61674 12.6919 5.48772 12.229 4.56188 11.3033C3.63619 10.3775 3.17334 9.24847 3.17334 7.91625C3.17334 6.58403 3.63619 5.455 4.56188 4.52917C5.48772 3.60347 6.61674 3.14062 7.94897 3.14062C9.28119 3.14062 10.4102 3.60347 11.336 4.52917C12.2617 5.455 12.7246 6.58403 12.7246 7.91625C12.7246 8.49528 12.622 9.05562 12.4169 9.59729C12.2117 10.139 11.9425 10.6021 11.6092 10.9867L16.8271 16.2048L16.2373 16.7944ZM7.94897 11.8585C9.05466 11.8585 9.98813 11.4779 10.7494 10.7167C11.5106 9.95556 11.8913 9.02208 11.8913 7.91625C11.8913 6.81042 11.5106 5.87694 10.7494 5.11583C9.98813 4.35458 9.05466 3.97396 7.94897 3.97396C6.84313 3.97396 5.90966 4.35458 5.14855 5.11583C4.3873 5.87694 4.00667 6.81042 4.00667 7.91625C4.00667 9.02208 4.3873 9.95556 5.14855 10.7167C5.90966 11.4779 6.84313 11.8585 7.94897 11.8585Z" />
    </symbol>

    <symbol viewBox="0 0 24 24" id="icon-user">
        <path d="M6.19625 17.4845C7.04625 16.873 7.94817 16.3894 8.902 16.0337C9.85583 15.6779 10.8885 15.5 12 15.5C13.1115 15.5 14.1442 15.6779 15.098 16.0337C16.0518 16.3894 16.9538 16.873 17.8038 17.4845C18.4641 16.8012 18.9952 15.9942 19.397 15.0635C19.799 14.1327 20 13.1115 20 12C20 9.78333 19.2208 7.89583 17.6625 6.3375C16.1042 4.77917 14.2167 4 12 4C9.78333 4 7.89583 4.77917 6.3375 6.3375C4.77917 7.89583 4 9.78333 4 12C4 13.1115 4.201 14.1327 4.603 15.0635C5.00483 15.9942 5.53592 16.8012 6.19625 17.4845ZM9.86825 11.6318C9.28942 11.0529 9 10.3423 9 9.5C9 8.65767 9.28942 7.94708 9.86825 7.36825C10.4471 6.78942 11.1577 6.5 12 6.5C12.8423 6.5 13.5529 6.78942 14.1318 7.36825C14.7106 7.94708 15 8.65767 15 9.5C15 10.3423 14.7106 11.0529 14.1318 11.6318C13.5529 12.2106 12.8423 12.5 12 12.5C11.1577 12.5 10.4471 12.2106 9.86825 11.6318ZM12 21C10.7448 21 9.56983 20.7663 8.475 20.299C7.38017 19.8317 6.42758 19.1929 5.61725 18.3828C4.80708 17.5724 4.16833 16.6198 3.701 15.525C3.23367 14.4302 3 13.2552 3 12C3 10.7448 3.23367 9.56983 3.701 8.475C4.16833 7.38017 4.80708 6.42758 5.61725 5.61725C6.42758 4.80708 7.38017 4.16833 8.475 3.701C9.56983 3.23367 10.7448 3 12 3C13.2552 3 14.4302 3.23367 15.525 3.701C16.6198 4.16833 17.5724 4.80708 18.3828 5.61725C19.1929 6.42758 19.8317 7.38017 20.299 8.475C20.7663 9.56983 21 10.7448 21 12C21 13.2552 20.7663 14.4302 20.299 15.525C19.8317 16.6198 19.1929 17.5724 18.3828 18.3828C17.5724 19.1929 16.6198 19.8317 15.525 20.299C14.4302 20.7663 13.2552 21 12 21ZM14.7212 19.5163C15.6134 19.1939 16.3845 18.7526 17.0345 18.1923C16.3845 17.6704 15.6326 17.2579 14.7788 16.9548C13.9249 16.6516 12.9987 16.5 12 16.5C11.0013 16.5 10.0718 16.6484 9.2115 16.9453C8.35133 17.2421 7.60267 17.6578 6.9655 18.1923C7.6155 18.7526 8.38658 19.1939 9.27875 19.5163C10.1711 19.8388 11.0782 20 12 20C12.9218 20 13.8289 19.8388 14.7212 19.5163ZM13.4212 10.9212C13.8071 10.5352 14 10.0615 14 9.5C14 8.9385 13.8071 8.46475 13.4212 8.07875C13.0352 7.69292 12.5615 7.5 12 7.5C11.4385 7.5 10.9648 7.69292 10.5788 8.07875C10.1929 8.46475 10 8.9385 10 9.5C10 10.0615 10.1929 10.5352 10.5788 10.9212C10.9648 11.3071 11.4385 11.5 12 11.5C12.5615 11.5 13.0352 11.3071 13.4212 10.9212Z" />
    </symbol>

    <symbol viewBox="0 0 20 20" id="icon-cart">
        <path d="M5.20088 17.2335C4.96005 16.9925 4.83963 16.6963 4.83963 16.3449C4.83963 15.9934 4.96005 15.6972 5.20088 15.4562C5.44185 15.2154 5.7381 15.0949 6.08963 15.0949C6.44116 15.0949 6.73734 15.2154 6.97817 15.4562C7.21914 15.6972 7.33963 15.9934 7.33963 16.3449C7.33963 16.6963 7.21914 16.9925 6.97817 17.2335C6.73734 17.4745 6.44116 17.5949 6.08963 17.5949C5.7381 17.5949 5.44185 17.4745 5.20088 17.2335ZM13.0215 17.2335C12.7805 16.9925 12.66 16.6963 12.66 16.3449C12.66 15.9934 12.7805 15.6972 13.0215 15.4562C13.2623 15.2154 13.5585 15.0949 13.91 15.0949C14.2616 15.0949 14.5578 15.2154 14.7988 15.4562C15.0396 15.6972 15.16 15.9934 15.16 16.3449C15.16 16.6963 15.0396 16.9925 14.7988 17.2335C14.5578 17.4745 14.2616 17.5949 13.91 17.5949C13.5585 17.5949 13.2623 17.4745 13.0215 17.2335ZM4.90046 4.58203L7.12484 9.26162H12.6536C12.7498 9.26162 12.8353 9.23752 12.91 9.18932C12.9849 9.14127 13.049 9.07453 13.1023 8.98911L15.2819 5.03078C15.3459 4.91328 15.3513 4.80911 15.298 4.71828C15.2445 4.62745 15.1537 4.58203 15.0255 4.58203H4.90046ZM4.49338 3.7487H15.3428C15.705 3.7487 15.9774 3.89641 16.16 4.19182C16.3428 4.48724 16.3525 4.79148 16.189 5.10453L13.8075 9.44412C13.6869 9.64717 13.53 9.80641 13.3371 9.92182C13.1444 10.0372 12.9325 10.0949 12.7017 10.0949H6.74984L5.73692 11.9539C5.6515 12.0821 5.64887 12.221 5.729 12.3706C5.80914 12.5202 5.92935 12.5949 6.08963 12.5949H15.16V13.4283H6.08963C5.60352 13.4283 5.24081 13.2234 5.0015 12.8137C4.7622 12.404 4.7563 11.9924 4.9838 11.5789L6.23692 9.34495L3.17296 2.91536H1.6665V2.08203H3.70171L4.49338 3.7487Z" />
    </symbol>

    <symbol viewBox="0 0 24 24" id="mobile-menu-link">
        <path d="M4.2998 17.0502V16.3502H19.6998V17.0502H4.2998ZM4.2998 12.3502V11.6502H19.6998V12.3502H4.2998ZM4.2998 7.6502V6.9502H19.6998V7.6502H4.2998Z" />
    </symbol>

    <symbol viewBox="0 0 15 15" id="breadcrumbs">
        <path d="M8.09131 7.49848L5.21631 4.62348L5.87495 3.96484L9.40859 7.49848L5.87495 11.0321L5.21631 10.3735L8.09131 7.49848Z" />
    </symbol>

    <symbol viewBox="0 0 16 16" id="breadcrumbs-mobile">
        <path d="M6.14036 8.00007L9.20703 11.0667L8.7352 11.5386L5.1967 8.00007L8.7352 4.46157L9.20703 4.93341L6.14036 8.00007Z" />
    </symbol>

    <symbol viewBox="0 0 32 32" id="footer-social-fb">
        <path d="M24 16C24 11.6 20.4 8 16 8C11.6 8 8 11.6 8 16C8 20 10.9 23.3 14.7 23.9V18.3H12.7V16H14.7V14.2C14.7 12.2 15.9 11.1 17.7 11.1C18.6 11.1 19.5 11.3 19.5 11.3V13.3H18.5C17.5 13.3 17.2 13.9 17.2 14.5V16H19.4L19 18.3H17.1V24C21.1 23.4 24 20 24 16Z" />
    </symbol>

    <symbol viewBox="0 0 32 32" id="footer-social-yt">
        <path d="M23.6 11.7C23.4 11 22.9 10.5 22.2 10.3C21 10 15.9 10 15.9 10C15.9 10 10.9 10 9.60001 10.3C8.90001 10.5 8.4 11 8.2 11.7C8 13 8 15.6 8 15.6C8 15.6 8 18.2 8.3 19.5C8.5 20.2 9 20.7 9.7 20.9C10.9 21.2 16 21.2 16 21.2C16 21.2 21 21.2 22.3 20.9C23 20.7 23.5 20.2 23.7 19.5C24 18.2 24 15.6 24 15.6C24 15.6 24 13 23.6 11.7ZM14.4 18V13.2L18.6 15.6L14.4 18Z" />
    </symbol>

    <symbol viewBox="0 0 32 32" id="footer-social-inst">
        <path d="M16.3 9.5C18.5 9.5 18.8 9.5 19.7 9.5C20.5 9.5 20.9 9.7 21.2 9.8C21.6 10 21.9 10.1 22.2 10.4C22.5 10.7 22.7 11 22.8 11.4C22.9 11.7 23 12.1 23.1 12.9C23.1 13.8 23.1 14 23.1 16.3C23.1 18.6 23.1 18.8 23.1 19.7C23.1 20.5 22.9 20.9 22.8 21.2C22.6 21.6 22.5 21.9 22.2 22.2C21.9 22.5 21.6 22.7 21.2 22.8C20.9 22.9 20.5 23 19.7 23.1C18.8 23.1 18.6 23.1 16.3 23.1C14 23.1 13.8 23.1 12.9 23.1C12.1 23.1 11.7 22.9 11.4 22.8C11 22.6 10.7 22.5 10.4 22.2C10.1 21.9 9.9 21.6 9.8 21.2C9.7 20.9 9.6 20.5 9.5 19.7C9.5 18.8 9.5 18.6 9.5 16.3C9.5 14 9.5 13.8 9.5 12.9C9.5 12.1 9.7 11.7 9.8 11.4C10 11 10.1 10.7 10.4 10.4C10.7 10.1 11 9.9 11.4 9.8C11.7 9.7 12.1 9.6 12.9 9.5C13.8 9.5 14.1 9.5 16.3 9.5ZM16.3 8C14 8 13.8 8 12.9 8C12 8 11.4 8.2 10.9 8.4C10.4 8.6 9.9 8.9 9.4 9.4C8.9 9.9 8.7 10.3 8.4 10.9C8.2 11.4 8.1 12 8 12.9C8 13.8 8 14.1 8 16.3C8 18.6 8 18.8 8 19.7C8 20.6 8.2 21.2 8.4 21.7C8.6 22.2 8.9 22.7 9.4 23.2C9.9 23.7 10.3 23.9 10.9 24.2C11.4 24.4 12 24.5 12.9 24.6C13.8 24.6 14.1 24.6 16.3 24.6C18.5 24.6 18.8 24.6 19.7 24.6C20.6 24.6 21.2 24.4 21.7 24.2C22.2 24 22.7 23.7 23.2 23.2C23.7 22.7 23.9 22.3 24.2 21.7C24.4 21.2 24.5 20.6 24.6 19.7C24.6 18.8 24.6 18.5 24.6 16.3C24.6 14.1 24.6 13.8 24.6 12.9C24.6 12 24.4 11.4 24.2 10.9C24 10.4 23.7 9.9 23.2 9.4C22.7 8.9 22.3 8.7 21.7 8.4C21.2 8.2 20.6 8.1 19.7 8C18.8 8 18.6 8 16.3 8Z" />
        <path d="M16.3 12C13.9 12 12 13.9 12 16.3C12 18.7 13.9 20.6 16.3 20.6C18.7 20.6 20.6 18.7 20.6 16.3C20.6 13.9 18.7 12 16.3 12ZM16.3 19.1C14.8 19.1 13.5 17.9 13.5 16.3C13.5 14.8 14.7 13.5 16.3 13.5C17.8 13.5 19.1 14.7 19.1 16.3C19.1 17.8 17.8 19.1 16.3 19.1Z" />
        <path d="M20.7 12.9C21.2523 12.9 21.7 12.4523 21.7 11.9C21.7 11.3477 21.2523 10.9 20.7 10.9C20.1477 10.9 19.7 11.3477 19.7 11.9C19.7 12.4523 20.1477 12.9 20.7 12.9Z" />
    </symbol>

    <symbol viewBox="0 0 20 20" id="pager-prev">
        <path d="M8.92302 10.0002L12.7563 13.8335L12.1666 14.4233L7.74343 10.0002L12.1666 5.57709L12.7563 6.16688L8.92302 10.0002Z" />
    </symbol>

    <symbol viewBox="0 0 20 20" id="pager-next">
        <path d="M11.077 9.99979L7.24365 6.16645L7.83344 5.57666L12.2566 9.99979L7.83344 14.4229L7.24365 13.8331L11.077 9.99979Z" />
    </symbol>

    <symbol viewBox="0 0 30 30" id="btn-arrow">
        <path d="M17.6195 8.36539L24.2539 15.0001L17.6195 21.6348L16.7348 20.7357L21.8455 15.6251L5.74453 15.6251L5.74453 14.3751L21.8455 14.3751L16.7348 9.26445L17.6195 8.36539Z" />
    </symbol>

    <symbol viewBox="0 0 30 30" id="window-close">
        <path d="M7.99941 23.3182L6.68213 22.0009L13.6821 15.0009L6.68213 8.00088L7.99941 6.68359L14.9994 13.6836L21.9994 6.68359L23.3167 8.00088L16.3167 15.0009L23.3167 22.0009L21.9994 23.3182L14.9994 16.3182L7.99941 23.3182Z" />
    </symbol>

</svg>