<svg version="1.1" xmlns="http://www.w3.org/2000/svg" xmlns:xlink="http://www.w3.org/1999/xlink">

    <symbol viewBox="0 0 20 20" id="icon-search">
        <path d="M16.2373 16.7944L11.0194 11.5765C10.6027 11.9312 10.1235 12.2058 9.58188 12.4002C9.04022 12.5947 8.49591 12.6919 7.94897 12.6919C6.61674 12.6919 5.48772 12.229 4.56188 11.3033C3.63619 10.3775 3.17334 9.24847 3.17334 7.91625C3.17334 6.58403 3.63619 5.455 4.56188 4.52917C5.48772 3.60347 6.61674 3.14062 7.94897 3.14062C9.28119 3.14062 10.4102 3.60347 11.336 4.52917C12.2617 5.455 12.7246 6.58403 12.7246 7.91625C12.7246 8.49528 12.622 9.05562 12.4169 9.59729C12.2117 10.139 11.9425 10.6021 11.6092 10.9867L16.8271 16.2048L16.2373 16.7944ZM7.94897 11.8585C9.05466 11.8585 9.98813 11.4779 10.7494 10.7167C11.5106 9.95556 11.8913 9.02208 11.8913 7.91625C11.8913 6.81042 11.5106 5.87694 10.7494 5.11583C9.98813 4.35458 9.05466 3.97396 7.94897 3.97396C6.84313 3.97396 5.90966 4.35458 5.14855 5.11583C4.3873 5.87694 4.00667 6.81042 4.00667 7.91625C4.00667 9.02208 4.3873 9.95556 5.14855 10.7167C5.90966 11.4779 6.84313 11.8585 7.94897 11.8585Z" />
    </symbol>

    <symbol viewBox="0 0 24 24" id="icon-user">
        <path d="M6.19625 17.4845C7.04625 16.873 7.94817 16.3894 8.902 16.0337C9.85583 15.6779 10.8885 15.5 12 15.5C13.1115 15.5 14.1442 15.6779 15.098 16.0337C16.0518 16.3894 16.9538 16.873 17.8038 17.4845C18.4641 16.8012 18.9952 15.9942 19.397 15.0635C19.799 14.1327 20 13.1115 20 12C20 9.78333 19.2208 7.89583 17.6625 6.3375C16.1042 4.77917 14.2167 4 12 4C9.78333 4 7.89583 4.77917 6.3375 6.3375C4.77917 7.89583 4 9.78333 4 12C4 13.1115 4.201 14.1327 4.603 15.0635C5.00483 15.9942 5.53592 16.8012 6.19625 17.4845ZM9.86825 11.6318C9.28942 11.0529 9 10.3423 9 9.5C9 8.65767 9.28942 7.94708 9.86825 7.36825C10.4471 6.78942 11.1577 6.5 12 6.5C12.8423 6.5 13.5529 6.78942 14.1318 7.36825C14.7106 7.94708 15 8.65767 15 9.5C15 10.3423 14.7106 11.0529 14.1318 11.6318C13.5529 12.2106 12.8423 12.5 12 12.5C11.1577 12.5 10.4471 12.2106 9.86825 11.6318ZM12 21C10.7448 21 9.56983 20.7663 8.475 20.299C7.38017 19.8317 6.42758 19.1929 5.61725 18.3828C4.80708 17.5724 4.16833 16.6198 3.701 15.525C3.23367 14.4302 3 13.2552 3 12C3 10.7448 3.23367 9.56983 3.701 8.475C4.16833 7.38017 4.80708 6.42758 5.61725 5.61725C6.42758 4.80708 7.38017 4.16833 8.475 3.701C9.56983 3.23367 10.7448 3 12 3C13.2552 3 14.4302 3.23367 15.525 3.701C16.6198 4.16833 17.5724 4.80708 18.3828 5.61725C19.1929 6.42758 19.8317 7.38017 20.299 8.475C20.7663 9.56983 21 10.7448 21 12C21 13.2552 20.7663 14.4302 20.299 15.525C19.8317 16.6198 19.1929 17.5724 18.3828 18.3828C17.5724 19.1929 16.6198 19.8317 15.525 20.299C14.4302 20.7663 13.2552 21 12 21ZM14.7212 19.5163C15.6134 19.1939 16.3845 18.7526 17.0345 18.1923C16.3845 17.6704 15.6326 17.2579 14.7788 16.9548C13.9249 16.6516 12.9987 16.5 12 16.5C11.0013 16.5 10.0718 16.6484 9.2115 16.9453C8.35133 17.2421 7.60267 17.6578 6.9655 18.1923C7.6155 18.7526 8.38658 19.1939 9.27875 19.5163C10.1711 19.8388 11.0782 20 12 20C12.9218 20 13.8289 19.8388 14.7212 19.5163ZM13.4212 10.9212C13.8071 10.5352 14 10.0615 14 9.5C14 8.9385 13.8071 8.46475 13.4212 8.07875C13.0352 7.69292 12.5615 7.5 12 7.5C11.4385 7.5 10.9648 7.69292 10.5788 8.07875C10.1929 8.46475 10 8.9385 10 9.5C10 10.0615 10.1929 10.5352 10.5788 10.9212C10.9648 11.3071 11.4385 11.5 12 11.5C12.5615 11.5 13.0352 11.3071 13.4212 10.9212Z" />
    </symbol>

    <symbol viewBox="0 0 20 20" id="icon-cart">
        <path d="M5.20088 17.2335C4.96005 16.9925 4.83963 16.6963 4.83963 16.3449C4.83963 15.9934 4.96005 15.6972 5.20088 15.4562C5.44185 15.2154 5.7381 15.0949 6.08963 15.0949C6.44116 15.0949 6.73734 15.2154 6.97817 15.4562C7.21914 15.6972 7.33963 15.9934 7.33963 16.3449C7.33963 16.6963 7.21914 16.9925 6.97817 17.2335C6.73734 17.4745 6.44116 17.5949 6.08963 17.5949C5.7381 17.5949 5.44185 17.4745 5.20088 17.2335ZM13.0215 17.2335C12.7805 16.9925 12.66 16.6963 12.66 16.3449C12.66 15.9934 12.7805 15.6972 13.0215 15.4562C13.2623 15.2154 13.5585 15.0949 13.91 15.0949C14.2616 15.0949 14.5578 15.2154 14.7988 15.4562C15.0396 15.6972 15.16 15.9934 15.16 16.3449C15.16 16.6963 15.0396 16.9925 14.7988 17.2335C14.5578 17.4745 14.2616 17.5949 13.91 17.5949C13.5585 17.5949 13.2623 17.4745 13.0215 17.2335ZM4.90046 4.58203L7.12484 9.26162H12.6536C12.7498 9.26162 12.8353 9.23752 12.91 9.18932C12.9849 9.14127 13.049 9.07453 13.1023 8.98911L15.2819 5.03078C15.3459 4.91328 15.3513 4.80911 15.298 4.71828C15.2445 4.62745 15.1537 4.58203 15.0255 4.58203H4.90046ZM4.49338 3.7487H15.3428C15.705 3.7487 15.9774 3.89641 16.16 4.19182C16.3428 4.48724 16.3525 4.79148 16.189 5.10453L13.8075 9.44412C13.6869 9.64717 13.53 9.80641 13.3371 9.92182C13.1444 10.0372 12.9325 10.0949 12.7017 10.0949H6.74984L5.73692 11.9539C5.6515 12.0821 5.64887 12.221 5.729 12.3706C5.80914 12.5202 5.92935 12.5949 6.08963 12.5949H15.16V13.4283H6.08963C5.60352 13.4283 5.24081 13.2234 5.0015 12.8137C4.7622 12.404 4.7563 11.9924 4.9838 11.5789L6.23692 9.34495L3.17296 2.91536H1.6665V2.08203H3.70171L4.49338 3.7487Z" />
    </symbol>

    <symbol viewBox="0 0 24 24" id="icon-cart-add">
        <path d="M11.5 8.5V5.5H8.5V4.5H11.5V1.5H12.5V4.5H15.5V5.5H12.5V8.5H11.5ZM7.30775 21.1155C6.88592 21.1155 6.53042 20.9709 6.24125 20.6818C5.95225 20.3926 5.80775 20.0372 5.80775 19.6155C5.80775 19.1937 5.95225 18.8382 6.24125 18.549C6.53042 18.26 6.88592 18.1155 7.30775 18.1155C7.72958 18.1155 8.085 18.26 8.374 18.549C8.66317 18.8382 8.80775 19.1937 8.80775 19.6155C8.80775 20.0372 8.66317 20.3926 8.374 20.6818C8.085 20.9709 7.72958 21.1155 7.30775 21.1155ZM16.6923 21.1155C16.2704 21.1155 15.915 20.9709 15.626 20.6818C15.3368 20.3926 15.1923 20.0372 15.1923 19.6155C15.1923 19.1937 15.3368 18.8382 15.626 18.549C15.915 18.26 16.2704 18.1155 16.6923 18.1155C17.1141 18.1155 17.4696 18.26 17.7587 18.549C18.0478 18.8382 18.1923 19.1937 18.1923 19.6155C18.1923 20.0372 18.0478 20.3926 17.7587 20.6818C17.4696 20.9709 17.1141 21.1155 16.6923 21.1155ZM2 3.5V2.5H4.448L8.54425 11.1155H15.1788C15.2943 11.1155 15.3968 11.0866 15.4865 11.0288C15.5763 10.9711 15.6532 10.891 15.7172 10.7885L19.2135 4.5H20.3538L16.5693 11.3345C16.4244 11.5782 16.236 11.7692 16.004 11.9078C15.772 12.0463 15.5181 12.1155 15.2423 12.1155H8.1L6.8845 14.3462C6.782 14.5001 6.77883 14.6667 6.875 14.8462C6.97117 15.0257 7.11542 15.1155 7.30775 15.1155H18.1923V16.1155H7.30775C6.72442 16.1155 6.28817 15.8706 5.999 15.3807C5.71 14.8911 5.70392 14.3963 5.98075 13.8963L7.4845 11.2155L3.80775 3.5H2Z" />
    </symbol>

    <symbol viewBox="0 0 24 24" id="mobile-menu-link">
        <path d="M4.2998 17.0502V16.3502H19.6998V17.0502H4.2998ZM4.2998 12.3502V11.6502H19.6998V12.3502H4.2998ZM4.2998 7.6502V6.9502H19.6998V7.6502H4.2998Z" />
    </symbol>

    <symbol viewBox="0 0 24 24" id="mobile-menu-close">
        <path d="M6.40039 18.0999L5.90039 17.5999L11.5004 11.9999L5.90039 6.3999L6.40039 5.8999L12.0004 11.4999L17.6004 5.8999L18.1004 6.3999L12.5004 11.9999L18.1004 17.5999L17.6004 18.0999L12.0004 12.4999L6.40039 18.0999Z" />
    </symbol>

    <symbol viewBox="0 0 15 15" id="breadcrumbs">
        <path d="M8.09131 7.49848L5.21631 4.62348L5.87495 3.96484L9.40859 7.49848L5.87495 11.0321L5.21631 10.3735L8.09131 7.49848Z" />
    </symbol>

    <symbol viewBox="0 0 16 16" id="breadcrumbs-mobile">
        <path d="M6.14036 8.00007L9.20703 11.0667L8.7352 11.5386L5.1967 8.00007L8.7352 4.46157L9.20703 4.93341L6.14036 8.00007Z" />
    </symbol>

    <symbol viewBox="0 0 32 32" id="footer-social-vk">
        <path fill-rule="evenodd" clip-rule="evenodd" d="M23.4688 11.6543C23.5862 11.2852 23.4688 11.0168 22.9487 11.0168H21.2206C20.7844 11.0168 20.5831 11.2517 20.4656 11.5033C20.4656 11.5033 19.5764 13.6508 18.3349 15.0434C17.9322 15.446 17.7477 15.5802 17.5296 15.5802C17.4121 15.5802 17.2611 15.446 17.2611 15.0769V11.6375C17.2611 11.2013 17.1269 11 16.7578 11H14.0399C13.7714 11 13.6037 11.2013 13.6037 11.4027C13.6037 11.8221 14.2244 11.9228 14.2915 13.0972V15.6473C14.2915 16.201 14.1909 16.3017 13.9728 16.3017C13.3855 16.3017 11.9595 14.1374 11.1038 11.6711C10.936 11.1846 10.7683 11 10.3321 11H8.58721C8.08389 11 8 11.2349 8 11.4865C8 11.9395 8.58721 14.2213 10.7347 17.2412C12.1608 19.3048 14.1909 20.4121 16.0196 20.4121C17.1269 20.4121 17.2611 20.1605 17.2611 19.741V18.1807C17.2611 17.6774 17.3618 17.5935 17.7141 17.5935C17.9658 17.5935 18.4188 17.7277 19.4422 18.7176C20.6166 19.892 20.8179 20.4289 21.4723 20.4289H23.2003C23.7037 20.4289 23.9385 20.1772 23.8043 19.6907C23.6533 19.2042 23.0829 18.4995 22.3447 17.6606C21.942 17.1909 21.338 16.6708 21.1535 16.4191C20.9018 16.0836 20.9689 15.9493 21.1535 15.6473C21.1367 15.6473 23.2507 12.661 23.4688 11.6543Z" />
    </symbol>

    <symbol viewBox="0 0 32 32" id="footer-social-max">
        <path d="M15.7571 9.00988C11.5868 9.22854 8.83386 12.5105 9.00779 16.649C9.08376 18.4605 9.80947 20.0192 9.98141 21.7384C10.0254 22.1838 9.89744 22.7334 10.4092 22.928C11.039 23.1667 12.0046 22.7655 12.5324 22.3984C12.7123 22.2761 12.8843 22.1336 13.0162 21.9571C13.562 22.3202 14.0798 22.6712 14.7295 22.8277C17.5904 23.5158 20.7251 21.941 22.1186 19.4114C24.7375 14.659 21.197 8.72501 15.7571 9.00988ZM14.1378 18.9279C13.9118 19.1044 13.6939 19.3452 13.444 19.4836C13.0822 19.6782 12.9702 19.4756 12.8343 19.1546C12.4064 18.1335 12.3545 16.3942 12.6044 15.325C12.9402 13.8706 14.0618 12.5907 15.6032 12.4543C17.1626 12.3159 18.61 13.1103 19.2637 14.5446C20.7111 17.7363 17.0066 20.8878 14.1378 18.9299V18.9279Z" />
    </symbol>

    <symbol viewBox="0 0 32 32" id="footer-social-rt">
        <path d="M18.7622 15.2759H11.9072V12.5602H18.7622C19.1612 12.5602 19.4406 12.6305 19.5795 12.7536C19.7184 12.8766 19.8062 13.1051 19.8062 13.4303V14.397C19.8062 14.7485 19.7201 14.9718 19.5795 15.1001C19.4389 15.2284 19.1612 15.2759 18.7622 15.2759ZM19.2315 10.0028H9V21.6035H11.9072V17.8298H17.2611L19.8062 21.6035H23.0615L20.2492 17.8122C21.2827 17.6593 21.7467 17.3429 22.1299 16.8209C22.5131 16.2988 22.7099 15.4639 22.7099 14.3513V13.4725C22.7228 12.9387 22.6583 12.4058 22.5184 11.8906C22.395 11.4946 22.1801 11.1332 21.8909 10.8359C21.5839 10.5433 21.2151 10.3234 20.8116 10.1926C20.2958 10.0554 19.7634 9.99087 19.2297 10.001L19.2315 10.0028Z" />
    </symbol>

    <symbol viewBox="0 0 20 20" id="pager-prev">
        <path d="M8.92302 10.0002L12.7563 13.8335L12.1666 14.4233L7.74343 10.0002L12.1666 5.57709L12.7563 6.16688L8.92302 10.0002Z" />
    </symbol>

    <symbol viewBox="0 0 20 20" id="pager-next">
        <path d="M11.077 9.99979L7.24365 6.16645L7.83344 5.57666L12.2566 9.99979L7.83344 14.4229L7.24365 13.8331L11.077 9.99979Z" />
    </symbol>

    <symbol viewBox="0 0 30 30" id="btn-arrow">
        <path d="M17.6195 8.36539L24.2539 15.0001L17.6195 21.6348L16.7348 20.7357L21.8455 15.6251L5.74453 15.6251L5.74453 14.3751L21.8455 14.3751L16.7348 9.26445L17.6195 8.36539Z" />
    </symbol>

    <symbol viewBox="0 0 30 30" id="window-close">
        <path d="M7.99941 23.3182L6.68213 22.0009L13.6821 15.0009L6.68213 8.00088L7.99941 6.68359L14.9994 13.6836L21.9994 6.68359L23.3167 8.00088L16.3167 15.0009L23.3167 22.0009L21.9994 23.3182L14.9994 16.3182L7.99941 23.3182Z" />
    </symbol>

    <symbol viewBox="0 0 24 24" id="gallery-prev">
        <path d="M10.0001 21.3079L0.692383 12.0001L10.0001 2.69238L11.0636 3.75588L2.81938 12.0001L11.0636 20.2444L10.0001 21.3079Z" />
    </symbol>

    <symbol viewBox="0 0 24 24" id="gallery-next">
        <path d="M13.9999 2.69212L23.3076 11.9999L13.9999 21.3076L12.9364 20.2441L21.1806 11.9999L12.9364 3.75562L13.9999 2.69212Z" />
    </symbol>

    <symbol viewBox="0 0 24 24" id="icon-doc">
        <path d="M6.3077 21.5C5.80257 21.5 5.375 21.325 5.025 20.975C4.675 20.625 4.5 20.1974 4.5 19.6923V4.3077C4.5 3.80257 4.675 3.375 5.025 3.025C5.375 2.675 5.80257 2.5 6.3077 2.5H14.25L19.5 7.74995V19.6923C19.5 20.1974 19.325 20.625 18.975 20.975C18.625 21.325 18.1974 21.5 17.6922 21.5H6.3077ZM13.5 8.49995V3.99998H6.3077C6.23077 3.99998 6.16024 4.03203 6.09612 4.09613C6.03202 4.16024 5.99997 4.23077 5.99997 4.3077V19.6923C5.99997 19.7692 6.03202 19.8397 6.09612 19.9038C6.16024 19.9679 6.23077 20 6.3077 20H17.6922C17.7692 20 17.8397 19.9679 17.9038 19.9038C17.9679 19.8397 18 19.7692 18 19.6923V8.49995H13.5Z" />
    </symbol>

    <symbol viewBox="0 0 25 25" id="faq-arrow">
        <path d="M12.5 16.25L17.5 11.25H7.5L12.5 16.25ZM12.5 25C10.7708 25 9.14583 24.6719 7.625 24.0156C6.10417 23.3594 4.78125 22.4688 3.65625 21.3438C2.53125 20.2188 1.64063 18.8958 0.984375 17.375C0.328125 15.8542 0 14.2292 0 12.5C0 10.7708 0.328125 9.14583 0.984375 7.625C1.64063 6.10417 2.53125 4.78125 3.65625 3.65625C4.78125 2.53125 6.10417 1.64063 7.625 0.984375C9.14583 0.328125 10.7708 0 12.5 0C14.2292 0 15.8542 0.328125 17.375 0.984375C18.8958 1.64063 20.2188 2.53125 21.3438 3.65625C22.4688 4.78125 23.3594 6.10417 24.0156 7.625C24.6719 9.14583 25 10.7708 25 12.5C25 14.2292 24.6719 15.8542 24.0156 17.375C23.3594 18.8958 22.4688 20.2187 21.3438 21.3437C20.2188 22.4688 18.8958 23.3594 17.375 24.0156C15.8542 24.6719 14.2292 25 12.5 25Z" />
    </symbol>

    <symbol viewBox="0 0 24 24" id="icon-back">
        <path d="M13.9992 18.3069L8.69141 12.9992L13.9992 7.69141L14.7069 8.39916L10.1069 12.9992L14.7069 17.5992L13.9992 18.3069Z" />
    </symbol>

    <symbol viewBox="0 0 24 24" id="password-view">
        <path d="M19.7615 21.8692L15.7154 17.8538C15.2026 18.0435 14.6343 18.1987 14.0106 18.3192C13.3869 18.4397 12.7167 18.5 12 18.5C9.65001 18.5 7.53657 17.8538 5.65965 16.5615C3.78273 15.2692 2.40901 13.582 1.5385 11.5C1.90773 10.6167 2.38466 9.79262 2.96927 9.02787C3.55389 8.26314 4.19748 7.60001 4.90005 7.03847L2.1308 4.23847L3.18465 3.18465L20.8154 20.8153L19.7615 21.8692ZM12 15.5769C12.209 15.5769 12.4231 15.5589 12.6423 15.523C12.8616 15.4871 13.0564 15.4346 13.2269 15.3653L8.13465 10.273C8.06541 10.4564 8.01285 10.6561 7.97695 10.8721C7.94105 11.0881 7.9231 11.2974 7.9231 11.5C7.9231 12.6346 8.31893 13.5977 9.1106 14.3894C9.90227 15.1811 10.8654 15.5769 12 15.5769ZM18.9538 16.0846L15.8173 12.973C15.8955 12.7602 15.9583 12.532 16.0057 12.2884C16.0532 12.0449 16.0769 11.782 16.0769 11.5C16.0769 10.3654 15.6811 9.40226 14.8894 8.6106C14.0977 7.81893 13.1346 7.4231 12 7.4231C11.7179 7.4231 11.4583 7.44842 11.2212 7.49907C10.984 7.54971 10.7558 7.62566 10.5366 7.72695L8.03465 5.23465C8.6667 4.98336 9.31221 4.79811 9.97117 4.67887C10.6301 4.55964 11.3064 4.50002 12 4.50002C14.3436 4.50002 16.457 5.14617 18.3404 6.43847C20.2237 7.73079 21.5974 9.41796 22.4615 11.5C22.091 12.3936 21.6125 13.2275 21.0259 14.0019C20.4394 14.7762 19.7487 15.4705 18.9538 16.0846ZM14.6846 11.85L11.675 8.85C12.116 8.76666 12.5324 8.79936 12.924 8.94807C13.3157 9.09679 13.6532 9.31794 13.9365 9.61152C14.2263 9.90512 14.4385 10.2494 14.5731 10.6442C14.7077 11.0391 14.7449 11.441 14.6846 11.85Z" />
    </symbol>

    <symbol viewBox="0 0 24 24" id="password-notview">
        <path d="M12.0023 15.5769C13.1354 15.5769 14.0978 15.1803 14.8895 14.3872C15.6811 13.594 16.077 12.6308 16.077 11.4977C16.077 10.3646 15.6804 9.40227 14.8872 8.61061C14.094 7.81894 13.1309 7.42311 11.9978 7.42311C10.8647 7.42311 9.90234 7.81969 9.11067 8.61286C8.31901 9.40604 7.92317 10.3692 7.92317 11.5023C7.92317 12.6354 8.31976 13.5977 9.11293 14.3894C9.90611 15.1811 10.8692 15.5769 12.0023 15.5769ZM12.0001 14.2C11.2501 14.2 10.6126 13.9375 10.0876 13.4125C9.56258 12.8875 9.30007 12.25 9.30007 11.5C9.30007 10.75 9.56258 10.1125 10.0876 9.58751C10.6126 9.06251 11.2501 8.80001 12.0001 8.80001C12.7501 8.80001 13.3876 9.06251 13.9126 9.58751C14.4376 10.1125 14.7001 10.75 14.7001 11.5C14.7001 12.25 14.4376 12.8875 13.9126 13.4125C13.3876 13.9375 12.7501 14.2 12.0001 14.2ZM12.0014 18.5C9.70183 18.5 7.60651 17.8657 5.71547 16.5971C3.82446 15.3285 2.43216 13.6295 1.53857 11.5C2.43216 9.37052 3.82401 7.67149 5.71412 6.40291C7.60422 5.13432 9.69908 4.50003 11.9987 4.50003C14.2983 4.50003 16.3936 5.13432 18.2847 6.40291C20.1757 7.67149 21.568 9.37052 22.4616 11.5C21.568 13.6295 20.1761 15.3285 18.286 16.5971C16.3959 17.8657 14.3011 18.5 12.0014 18.5Z" />
    </symbol>

    <symbol viewBox="0 0 80 80" id="icon-user-big">
        <path d="M21.002 58.6666C23.8353 56.6666 26.7936 55.0833 29.877 53.9166C32.9603 52.75 36.3353 52.1666 40.002 52.1666C43.6686 52.1666 47.0436 52.75 50.127 53.9166C53.2103 55.0833 56.1686 56.6666 59.002 58.6666C61.2797 56.3889 63.127 53.6666 64.5436 50.5C65.9603 47.3333 66.6686 43.8333 66.6686 40C66.6686 32.6111 64.0714 26.3194 58.877 21.125C53.6825 15.9305 47.3908 13.3333 40.002 13.3333C32.6131 13.3333 26.3214 15.9305 21.127 21.125C15.9325 26.3194 13.3353 32.6111 13.3353 40C13.3353 43.8333 14.0436 47.3333 15.4603 50.5C16.877 53.6666 18.7242 56.3889 21.002 58.6666ZM33.252 38.4166C31.4186 36.5833 30.502 34.3333 30.502 31.6666C30.502 29 31.4186 26.75 33.252 24.9166C35.0853 23.0833 37.3353 22.1666 40.002 22.1666C42.6686 22.1666 44.9186 23.0833 46.752 24.9166C48.5853 26.75 49.502 29 49.502 31.6666C49.502 34.3333 48.5853 36.5833 46.752 38.4166C44.9186 40.25 42.6686 41.1666 40.002 41.1666C37.3353 41.1666 35.0853 40.25 33.252 38.4166ZM40.002 69C35.9464 69 32.1547 68.25 28.627 66.75C25.0992 65.25 22.0297 63.1944 19.4186 60.5833C16.8075 57.9722 14.752 54.9027 13.252 51.375C11.752 47.8472 11.002 44.0555 11.002 40C11.002 35.9444 11.752 32.1527 13.252 28.625C14.752 25.0972 16.8075 22.0277 19.4186 19.4166C22.0297 16.8055 25.0992 14.75 28.627 13.25C32.1547 11.75 35.9464 11 40.002 11C44.0575 11 47.8492 11.75 51.377 13.25C54.9047 14.75 57.9742 16.8055 60.5853 19.4166C63.1964 22.0277 65.252 25.0972 66.752 28.625C68.252 32.1527 69.002 35.9444 69.002 40C69.002 44.0555 68.252 47.8472 66.752 51.375C65.252 54.9027 63.1964 57.9722 60.5853 60.5833C57.9742 63.1944 54.9047 65.25 51.377 66.75C47.8492 68.25 44.0575 69 40.002 69ZM49.2936 64.9583C52.377 63.8194 55.002 62.2778 57.1686 60.3333C55.002 58.5555 52.4603 57.1389 49.5436 56.0833C46.627 55.0278 43.4464 54.5 40.002 54.5C36.5575 54.5 33.3631 55.0139 30.4186 56.0416C27.4742 57.0694 24.9464 58.5 22.8353 60.3333C25.002 62.2778 27.627 63.8194 30.7103 64.9583C33.7936 66.0972 36.8908 66.6666 40.002 66.6666C43.1131 66.6666 46.2103 66.0972 49.2936 64.9583ZM45.0853 36.75C46.4742 35.3611 47.1686 33.6666 47.1686 31.6666C47.1686 29.6666 46.4742 27.9722 45.0853 26.5833C43.6964 25.1944 42.002 24.5 40.002 24.5C38.002 24.5 36.3075 25.1944 34.9186 26.5833C33.5297 27.9722 32.8353 29.6666 32.8353 31.6666C32.8353 33.6666 33.5297 35.3611 34.9186 36.75C36.3075 38.1389 38.002 38.8333 40.002 38.8333C42.002 38.8333 43.6964 38.1389 45.0853 36.75Z" />
    </symbol>

    <symbol viewBox="0 0 80 80" id="icon-history">
        <path d="M22.1667 41.1667H47.8333V38.8333H22.1667V41.1667ZM22.1667 31.1667H47.8333V28.8333H22.1667V31.1667ZM16 62.3333C14.5556 62.3333 13.3611 61.8611 12.4167 60.9167C11.4722 59.9722 11 58.7778 11 57.3333V22.6667C11 21.2222 11.4722 20.0278 12.4167 19.0833C13.3611 18.1389 14.5556 17.6667 16 17.6667H64C65.4445 17.6667 66.6389 18.1389 67.5833 19.0833C68.5278 20.0278 69 21.2222 69 22.6667V57.3333C69 58.7778 68.5278 59.9722 67.5833 60.9167C66.6389 61.8611 65.4445 62.3333 64 62.3333H16ZM16 60H64C64.6667 60 65.2778 59.7222 65.8333 59.1667C66.3889 58.6111 66.6667 58 66.6667 57.3333V22.6667C66.6667 22 66.3889 21.3889 65.8333 20.8333C65.2778 20.2778 64.6667 20 64 20H16C15.3333 20 14.7222 20.2778 14.1667 20.8333C13.6111 21.3889 13.3333 22 13.3333 22.6667V57.3333C13.3333 58 13.6111 58.6111 14.1667 59.1667C14.7222 59.7222 15.3333 60 16 60Z" />
    </symbol>

    <symbol viewBox="0 0 30 30" id="up-link">
        <path d="M7.93301 12.4401L15.0002 5.37256L22.0674 12.4401L20.7118 13.7572L15.9377 8.98318L15.9377 24.6276L14.0627 24.6276L14.0627 8.98318L9.28863 13.7572L7.93301 12.4401Z" />
    </symbol>

    <symbol viewBox="0 0 18 18" id="icon-download">
        <path d="M9 11.6827L6.34612 9.02888L6.87694 8.48944L8.625 10.2375V3.75H9.375V10.2375L11.1231 8.48944L11.6539 9.02888L9 11.6827ZM4.96162 14.25C4.61637 14.25 4.32812 14.1344 4.09688 13.9031C3.86563 13.6719 3.75 13.3836 3.75 13.0384V11.2211H4.5V13.0384C4.5 13.1539 4.54806 13.2597 4.64419 13.3558C4.74031 13.4519 4.84612 13.5 4.96162 13.5H13.0384C13.1539 13.5 13.2597 13.4519 13.3558 13.3558C13.4519 13.2597 13.5 13.1539 13.5 13.0384V11.2211H14.25V13.0384C14.25 13.3836 14.1344 13.6719 13.9031 13.9031C13.6719 14.1344 13.3836 14.25 13.0384 14.25H4.96162Z" />
    </symbol>

    <symbol viewBox="0 0 18 18" id="icon-print">
        <path d="M12.0008 6.46161V4.21161H6.00084V6.46161H5.25084V3.46143H12.7508V6.46161H12.0008ZM13.2125 9.08661C13.425 9.08661 13.6031 9.01474 13.7468 8.87099C13.8906 8.72724 13.9625 8.54911 13.9625 8.33661C13.9625 8.12411 13.8906 7.94599 13.7468 7.80224C13.6031 7.65849 13.425 7.58661 13.2125 7.58661C13 7.58661 12.8218 7.65849 12.6781 7.80224C12.5343 7.94599 12.4625 8.12411 12.4625 8.33661C12.4625 8.54911 12.5343 8.72724 12.6781 8.87099C12.8218 9.01474 13 9.08661 13.2125 9.08661ZM12.0008 14.25V10.8461H6.00084V14.25H12.0008ZM12.7508 15H5.25084V12H2.68359V7.96161C2.68359 7.53661 2.82778 7.18036 3.11616 6.89286C3.40466 6.60536 3.76047 6.46161 4.18359 6.46161H13.8181C14.2431 6.46161 14.5993 6.60536 14.8868 6.89286C15.1743 7.18036 15.3181 7.53661 15.3181 7.96161V12H12.7508V15ZM14.5681 11.25V7.96161C14.5681 7.74911 14.4962 7.57099 14.3525 7.42724C14.2087 7.28349 14.0306 7.21161 13.8181 7.21161H4.18359C3.97109 7.21161 3.79297 7.28349 3.64922 7.42724C3.50547 7.57099 3.43359 7.74911 3.43359 7.96161V11.25H5.25084V10.0961H12.7508V11.25H14.5681Z" />
    </symbol>

    <symbol viewBox="0 0 20 20" id="icon-order-back">
        <path d="M7.92253 9.99973L11.7559 13.8331L11.1661 14.4229L6.74294 9.99973L11.1661 5.5766L11.7559 6.16639L7.92253 9.99973Z" />
    </symbol>

    <symbol viewBox="0 0 9 5" id="page-size-arrow">
        <path d="M4.16667 4.16667L0 0H8.33333L4.16667 4.16667Z" />
    </symbol>

    <symbol viewBox="0 0 21 21" id="catalogue-filter-param-remove">
        <path d="M7.04704 14.589L6.41113 13.9531L9.86388 10.5001L6.41113 7.06901L7.04704 6.43311L10.5 9.88586L13.9311 6.43311L14.567 7.06901L11.1143 10.5001L14.567 13.9531L13.9311 14.589L10.5 11.1362L7.04704 14.589Z" />
    </symbol>

    <symbol viewBox="0 0 16 16" id="icon-info">
        <path d="M7.632 11.568V6.416H8.368V11.568H7.632ZM8 5.6C7.82933 5.6 7.70133 5.552 7.616 5.456C7.54133 5.34933 7.504 5.21067 7.504 5.04C7.504 4.85867 7.54133 4.72 7.616 4.624C7.70133 4.528 7.82933 4.48 8 4.48C8.16 4.48 8.27733 4.528 8.352 4.624C8.43733 4.72 8.48 4.85867 8.48 5.04C8.48 5.21067 8.43733 5.34933 8.352 5.456C8.27733 5.552 8.16 5.6 8 5.6ZM8 14.88C7.09333 14.88 6.24 14.7093 5.44 14.368C4.64 14.0267 3.936 13.5573 3.328 12.96C2.73067 12.352 2.26133 11.648 1.92 10.848C1.57867 10.048 1.408 9.19467 1.408 8.288C1.408 7.37067 1.57867 6.51733 1.92 5.728C2.26133 4.928 2.73067 4.22933 3.328 3.632C3.936 3.024 4.64 2.54933 5.44 2.208C6.24 1.86667 7.09333 1.696 8 1.696C8.91733 1.696 9.77067 1.86667 10.56 2.208C11.36 2.54933 12.0587 3.024 12.656 3.632C13.264 4.22933 13.7387 4.928 14.08 5.728C14.4213 6.51733 14.592 7.37067 14.592 8.288C14.592 9.19467 14.4213 10.048 14.08 10.848C13.7387 11.648 13.264 12.352 12.656 12.96C12.0587 13.5573 11.36 14.0267 10.56 14.368C9.77067 14.7093 8.91733 14.88 8 14.88ZM8 14.224C8.82133 14.224 9.58933 14.0693 10.304 13.76C11.0187 13.4507 11.648 13.024 12.192 12.48C12.736 11.936 13.1627 11.3067 13.472 10.592C13.7813 9.87733 13.936 9.10933 13.936 8.288C13.936 7.46667 13.7813 6.69867 13.472 5.984C13.1627 5.26933 12.736 4.64 12.192 4.096C11.648 3.552 11.0187 3.12533 10.304 2.816C9.58933 2.50667 8.82133 2.352 8 2.352C7.17867 2.352 6.41067 2.50667 5.696 2.816C4.98133 3.12533 4.352 3.552 3.808 4.096C3.264 4.64 2.83733 5.26933 2.528 5.984C2.21867 6.69867 2.064 7.46667 2.064 8.288C2.064 9.10933 2.21867 9.87733 2.528 10.592C2.83733 11.3067 3.264 11.936 3.808 12.48C4.352 13.024 4.98133 13.4507 5.696 13.76C6.41067 14.0693 7.17867 14.224 8 14.224Z" />
    </symbol>

</svg>